%FSLAX45Y45*%
G04 Gerber Fmt 4.5, Leading zero omitted, Abs format (unit mm)*
G04 Created by KiCad (PCBNEW (5.1.10)-1) date 2022-03-27 16:28:10*
%MOMM*%
%LPD*%
G01*
G04 APERTURE LIST*
%TA.AperFunction,Profile*%
%ADD10C,0.038100*%
%TD*%
%ADD11C,0.200000*%
%ADD12C,0.300000*%
G04 APERTURE END LIST*
D10*
X15500000Y-7400000D02*
X16300000Y-7400000D01*
X15000000Y-6900000D02*
X15000000Y-6700000D01*
X15500000Y-7400000D02*
G75*
G02*
X15000000Y-6900000I0J500000D01*
G01*
X15000000Y-3400000D02*
G75*
G02*
X15500000Y-2900000I500000J0D01*
G01*
X16100000Y-2900000D02*
X15500000Y-2900000D01*
X22500000Y-6900000D02*
G75*
G02*
X22000000Y-7400000I-500000J0D01*
G01*
X22500000Y-6700000D02*
X22500000Y-6900000D01*
X15000000Y-6700000D02*
X15000000Y-3400000D01*
X22000000Y-2900000D02*
G75*
G02*
X22500000Y-3400000I0J-500000D01*
G01*
X22000000Y-7400000D02*
X16300000Y-7400000D01*
X22000000Y-2900000D02*
X16100000Y-2900000D01*
X22500000Y-3400000D02*
X22500000Y-6700000D01*
D11*
X15455000Y-5585000D02*
X15485000Y-5615000D01*
X15485000Y-5585000D02*
X15455000Y-5615000D01*
X17065000Y-6235000D02*
X17095000Y-6265000D01*
X17095000Y-6235000D02*
X17065000Y-6265000D01*
X17115000Y-4845000D02*
X17145000Y-4875000D01*
X17145000Y-4845000D02*
X17115000Y-4875000D01*
X17425000Y-7025000D02*
X17455000Y-7055000D01*
X17455000Y-7025000D02*
X17425000Y-7055000D01*
X17435000Y-6785000D02*
X17465000Y-6815000D01*
X17465000Y-6785000D02*
X17435000Y-6815000D01*
X17525000Y-4075000D02*
X17555000Y-4105000D01*
X17555000Y-4075000D02*
X17525000Y-4105000D01*
X17765000Y-6115000D02*
X17795000Y-6145000D01*
X17795000Y-6115000D02*
X17765000Y-6145000D01*
X17945000Y-6885000D02*
X17975000Y-6915000D01*
X17975000Y-6885000D02*
X17945000Y-6915000D01*
X18385000Y-4785000D02*
X18415000Y-4815000D01*
X18415000Y-4785000D02*
X18385000Y-4815000D01*
X18385000Y-4960000D02*
X18415000Y-4990000D01*
X18415000Y-4960000D02*
X18385000Y-4990000D01*
X18385000Y-5135000D02*
X18415000Y-5165000D01*
X18415000Y-5135000D02*
X18385000Y-5165000D01*
X18387426Y-4702573D02*
X18417426Y-4732573D01*
X18417426Y-4702573D02*
X18387426Y-4732573D01*
X18387426Y-4877573D02*
X18417426Y-4907573D01*
X18417426Y-4877573D02*
X18387426Y-4907573D01*
X18387426Y-5052573D02*
X18417426Y-5082573D01*
X18417426Y-5052573D02*
X18387426Y-5082573D01*
X18388443Y-4618737D02*
X18418443Y-4648737D01*
X18418443Y-4618737D02*
X18388443Y-4648737D01*
X18405000Y-3795000D02*
X18435000Y-3825000D01*
X18435000Y-3795000D02*
X18405000Y-3825000D01*
X18885000Y-6585000D02*
X18915000Y-6615000D01*
X18915000Y-6585000D02*
X18885000Y-6615000D01*
X19160000Y-6310000D02*
X19190000Y-6340000D01*
X19190000Y-6310000D02*
X19160000Y-6340000D01*
X19285000Y-6310000D02*
X19315000Y-6340000D01*
X19315000Y-6310000D02*
X19285000Y-6340000D01*
X19550000Y-5900000D02*
X19580000Y-5930000D01*
X19580000Y-5900000D02*
X19550000Y-5930000D01*
X19635000Y-3549000D02*
X19665000Y-3579000D01*
X19665000Y-3549000D02*
X19635000Y-3579000D01*
X19635000Y-4810000D02*
X19665000Y-4840000D01*
X19665000Y-4810000D02*
X19635000Y-4840000D01*
X19635000Y-5960000D02*
X19665000Y-5990000D01*
X19665000Y-5960000D02*
X19635000Y-5990000D01*
X19660000Y-3460000D02*
X19690000Y-3490000D01*
X19690000Y-3460000D02*
X19660000Y-3490000D01*
X19742288Y-4635000D02*
X19772288Y-4665000D01*
X19772288Y-4635000D02*
X19742288Y-4665000D01*
X19810000Y-4460000D02*
X19840000Y-4490000D01*
X19840000Y-4460000D02*
X19810000Y-4490000D01*
X19810000Y-6210000D02*
X19840000Y-6240000D01*
X19840000Y-6210000D02*
X19810000Y-6240000D01*
X19810000Y-6660000D02*
X19840000Y-6690000D01*
X19840000Y-6660000D02*
X19810000Y-6690000D01*
X19835000Y-5211250D02*
X19865000Y-5241250D01*
X19865000Y-5211250D02*
X19835000Y-5241250D01*
X19915000Y-4235000D02*
X19945000Y-4265000D01*
X19945000Y-4235000D02*
X19915000Y-4265000D01*
X19915000Y-5165000D02*
X19945000Y-5195000D01*
X19945000Y-5165000D02*
X19915000Y-5195000D01*
X19985000Y-4065000D02*
X20015000Y-4095000D01*
X20015000Y-4065000D02*
X19985000Y-4095000D01*
X20060000Y-5585000D02*
X20090000Y-5615000D01*
X20090000Y-5585000D02*
X20060000Y-5615000D01*
X20145000Y-3960000D02*
X20175000Y-3990000D01*
X20175000Y-3960000D02*
X20145000Y-3990000D01*
X20195000Y-3495000D02*
X20225000Y-3525000D01*
X20225000Y-3495000D02*
X20195000Y-3525000D01*
X20205000Y-4075000D02*
X20235000Y-4105000D01*
X20235000Y-4075000D02*
X20205000Y-4105000D01*
X20205000Y-4185000D02*
X20235000Y-4215000D01*
X20235000Y-4185000D02*
X20205000Y-4215000D01*
X20335000Y-3505000D02*
X20365000Y-3535000D01*
X20365000Y-3505000D02*
X20335000Y-3535000D01*
X20355000Y-3975000D02*
X20385000Y-4005000D01*
X20385000Y-3975000D02*
X20355000Y-4005000D01*
X20485000Y-5785000D02*
X20515000Y-5815000D01*
X20515000Y-5785000D02*
X20485000Y-5815000D01*
X20560000Y-5385000D02*
X20590000Y-5415000D01*
X20590000Y-5385000D02*
X20560000Y-5415000D01*
X20594038Y-3985962D02*
X20624038Y-4015962D01*
X20624038Y-3985962D02*
X20594038Y-4015962D01*
X20610000Y-5810000D02*
X20640000Y-5840000D01*
X20640000Y-5810000D02*
X20610000Y-5840000D01*
X20650607Y-4042531D02*
X20680607Y-4072531D01*
X20680607Y-4042531D02*
X20650607Y-4072531D01*
X20660000Y-5160000D02*
X20690000Y-5190000D01*
X20690000Y-5160000D02*
X20660000Y-5190000D01*
X20735000Y-6155000D02*
X20765000Y-6185000D01*
X20765000Y-6155000D02*
X20735000Y-6185000D01*
X20735000Y-6345000D02*
X20765000Y-6375000D01*
X20765000Y-6345000D02*
X20735000Y-6375000D01*
X20915000Y-3525000D02*
X20945000Y-3555000D01*
X20945000Y-3525000D02*
X20915000Y-3555000D01*
X21605000Y-4905000D02*
X21635000Y-4935000D01*
X21635000Y-4905000D02*
X21605000Y-4935000D01*
X21675000Y-5335000D02*
X21705000Y-5365000D01*
X21705000Y-5335000D02*
X21675000Y-5365000D01*
X20800000Y-5600000D02*
G75*
G03*
X20800000Y-5600000I-20000J0D01*
G01*
X21430000Y-3780000D02*
G75*
G03*
X21430000Y-3780000I-20000J0D01*
G01*
X21430000Y-4490000D02*
G75*
G03*
X21430000Y-4490000I-20000J0D01*
G01*
X16892000Y-3633900D02*
X16892000Y-3710100D01*
X16853900Y-3672000D02*
X16930100Y-3672000D01*
X16892000Y-5157900D02*
X16892000Y-5234100D01*
X16853900Y-5196000D02*
X16930100Y-5196000D01*
X17146000Y-3633900D02*
X17146000Y-3710100D01*
X17107900Y-3672000D02*
X17184100Y-3672000D01*
X17146000Y-5157900D02*
X17146000Y-5234100D01*
X17107900Y-5196000D02*
X17184100Y-5196000D01*
X17400000Y-3633900D02*
X17400000Y-3710100D01*
X17361900Y-3672000D02*
X17438100Y-3672000D01*
X17400000Y-5157900D02*
X17400000Y-5234100D01*
X17361900Y-5196000D02*
X17438100Y-5196000D01*
X17654000Y-3633900D02*
X17654000Y-3710100D01*
X17615900Y-3672000D02*
X17692100Y-3672000D01*
X17654000Y-5157900D02*
X17654000Y-5234100D01*
X17615900Y-5196000D02*
X17692100Y-5196000D01*
X17908000Y-3633900D02*
X17908000Y-3710100D01*
X17869900Y-3672000D02*
X17946100Y-3672000D01*
X17908000Y-5157900D02*
X17908000Y-5234100D01*
X17869900Y-5196000D02*
X17946100Y-5196000D01*
X18653285Y-6128284D02*
X18653285Y-6071715D01*
X18596716Y-6071715D01*
X18596716Y-6128284D01*
X18653285Y-6128284D01*
X18953285Y-6128284D02*
X18953285Y-6071715D01*
X18896716Y-6071715D01*
X18896716Y-6128284D01*
X18953285Y-6128284D01*
X21528285Y-5078285D02*
X21528285Y-5021716D01*
X21471716Y-5021716D01*
X21471716Y-5078285D01*
X21528285Y-5078285D01*
X21528285Y-5566285D02*
X21528285Y-5509716D01*
X21471716Y-5509716D01*
X21471716Y-5566285D01*
X21528285Y-5566285D01*
X15425000Y-4150000D02*
X15475000Y-4100000D01*
X15425000Y-4050000D01*
X15375000Y-4100000D01*
X15425000Y-4150000D01*
X15679000Y-4150000D02*
X15729000Y-4100000D01*
X15679000Y-4050000D01*
X15629000Y-4100000D01*
X15679000Y-4150000D01*
X21632000Y-6240000D02*
X21682000Y-6190000D01*
X21632000Y-6140000D01*
X21582000Y-6190000D01*
X21632000Y-6240000D01*
X21690000Y-4156000D02*
X21740000Y-4106000D01*
X21690000Y-4056000D01*
X21640000Y-4106000D01*
X21690000Y-4156000D01*
X21690000Y-4410000D02*
X21740000Y-4360000D01*
X21690000Y-4310000D01*
X21640000Y-4360000D01*
X21690000Y-4410000D01*
X21886000Y-6240000D02*
X21936000Y-6190000D01*
X21886000Y-6140000D01*
X21836000Y-6190000D01*
X21886000Y-6240000D01*
X21944000Y-4156000D02*
X21994000Y-4106000D01*
X21944000Y-4056000D01*
X21894000Y-4106000D01*
X21944000Y-4156000D01*
X21944000Y-4410000D02*
X21994000Y-4360000D01*
X21944000Y-4310000D01*
X21894000Y-4360000D01*
X21944000Y-4410000D01*
X22140000Y-6240000D02*
X22190000Y-6190000D01*
X22140000Y-6140000D01*
X22090000Y-6190000D01*
X22140000Y-6240000D01*
X22198000Y-4156000D02*
X22248000Y-4106000D01*
X22198000Y-4056000D01*
X22148000Y-4106000D01*
X22198000Y-4156000D01*
X22198000Y-4410000D02*
X22248000Y-4360000D01*
X22198000Y-4310000D01*
X22148000Y-4360000D01*
X22198000Y-4410000D01*
X22200000Y-4938000D02*
X22250000Y-4888000D01*
X22200000Y-4838000D01*
X22150000Y-4888000D01*
X22200000Y-4938000D01*
X22200000Y-5192000D02*
X22250000Y-5142000D01*
X22200000Y-5092000D01*
X22150000Y-5142000D01*
X22200000Y-5192000D01*
X22200000Y-5446000D02*
X22250000Y-5396000D01*
X22200000Y-5346000D01*
X22150000Y-5396000D01*
X22200000Y-5446000D01*
X22200000Y-5700000D02*
X22250000Y-5650000D01*
X22200000Y-5600000D01*
X22150000Y-5650000D01*
X22200000Y-5700000D01*
X16385000Y-6185000D02*
X16515000Y-6315000D01*
X16515000Y-6185000D02*
X16385000Y-6315000D01*
X16515000Y-6250000D02*
G75*
G03*
X16515000Y-6250000I-65000J0D01*
G01*
X16385000Y-6685000D02*
X16515000Y-6815000D01*
X16515000Y-6685000D02*
X16385000Y-6815000D01*
X16515000Y-6750000D02*
G75*
G03*
X16515000Y-6750000I-65000J0D01*
G01*
X16885000Y-6435000D02*
X17015000Y-6565000D01*
X17015000Y-6435000D02*
X16885000Y-6565000D01*
X17015000Y-6500000D02*
G75*
G03*
X17015000Y-6500000I-65000J0D01*
G01*
X18920000Y-4435000D02*
X19050000Y-4565000D01*
X19050000Y-4435000D02*
X18920000Y-4565000D01*
X19050000Y-4500000D02*
G75*
G03*
X19050000Y-4500000I-65000J0D01*
G01*
X20920000Y-4435000D02*
X21050000Y-4565000D01*
X21050000Y-4435000D02*
X20920000Y-4565000D01*
X21050000Y-4500000D02*
G75*
G03*
X21050000Y-4500000I-65000J0D01*
G01*
D12*
X15284523Y-7867619D02*
X15284523Y-7567619D01*
X15355952Y-7567619D01*
X15398809Y-7581905D01*
X15427381Y-7610476D01*
X15441666Y-7639048D01*
X15455952Y-7696191D01*
X15455952Y-7739048D01*
X15441666Y-7796191D01*
X15427381Y-7824762D01*
X15398809Y-7853334D01*
X15355952Y-7867619D01*
X15284523Y-7867619D01*
X15584523Y-7867619D02*
X15584523Y-7667619D01*
X15584523Y-7724762D02*
X15598809Y-7696191D01*
X15613095Y-7681905D01*
X15641666Y-7667619D01*
X15670238Y-7667619D01*
X15770238Y-7867619D02*
X15770238Y-7667619D01*
X15770238Y-7567619D02*
X15755952Y-7581905D01*
X15770238Y-7596191D01*
X15784523Y-7581905D01*
X15770238Y-7567619D01*
X15770238Y-7596191D01*
X15955952Y-7867619D02*
X15927381Y-7853334D01*
X15913095Y-7824762D01*
X15913095Y-7567619D01*
X16113095Y-7867619D02*
X16084523Y-7853334D01*
X16070238Y-7824762D01*
X16070238Y-7567619D01*
X16455952Y-7867619D02*
X16455952Y-7567619D01*
X16555952Y-7781905D01*
X16655952Y-7567619D01*
X16655952Y-7867619D01*
X16927381Y-7867619D02*
X16927381Y-7710476D01*
X16913095Y-7681905D01*
X16884523Y-7667619D01*
X16827381Y-7667619D01*
X16798809Y-7681905D01*
X16927381Y-7853334D02*
X16898809Y-7867619D01*
X16827381Y-7867619D01*
X16798809Y-7853334D01*
X16784523Y-7824762D01*
X16784523Y-7796191D01*
X16798809Y-7767619D01*
X16827381Y-7753334D01*
X16898809Y-7753334D01*
X16927381Y-7739048D01*
X17070238Y-7667619D02*
X17070238Y-7967619D01*
X17070238Y-7681905D02*
X17098809Y-7667619D01*
X17155952Y-7667619D01*
X17184523Y-7681905D01*
X17198809Y-7696191D01*
X17213095Y-7724762D01*
X17213095Y-7810476D01*
X17198809Y-7839048D01*
X17184523Y-7853334D01*
X17155952Y-7867619D01*
X17098809Y-7867619D01*
X17070238Y-7853334D01*
X17341666Y-7839048D02*
X17355952Y-7853334D01*
X17341666Y-7867619D01*
X17327381Y-7853334D01*
X17341666Y-7839048D01*
X17341666Y-7867619D01*
X17341666Y-7681905D02*
X17355952Y-7696191D01*
X17341666Y-7710476D01*
X17327381Y-7696191D01*
X17341666Y-7681905D01*
X17341666Y-7710476D01*
X14968095Y-8346905D02*
X14998095Y-8376905D01*
X14998095Y-8346905D02*
X14968095Y-8376905D01*
X15341666Y-8197619D02*
X15370238Y-8197619D01*
X15398809Y-8211905D01*
X15413095Y-8226191D01*
X15427381Y-8254762D01*
X15441666Y-8311905D01*
X15441666Y-8383334D01*
X15427381Y-8440477D01*
X15413095Y-8469048D01*
X15398809Y-8483334D01*
X15370238Y-8497619D01*
X15341666Y-8497619D01*
X15313095Y-8483334D01*
X15298809Y-8469048D01*
X15284523Y-8440477D01*
X15270238Y-8383334D01*
X15270238Y-8311905D01*
X15284523Y-8254762D01*
X15298809Y-8226191D01*
X15313095Y-8211905D01*
X15341666Y-8197619D01*
X15570238Y-8469048D02*
X15584523Y-8483334D01*
X15570238Y-8497619D01*
X15555952Y-8483334D01*
X15570238Y-8469048D01*
X15570238Y-8497619D01*
X15684523Y-8197619D02*
X15870238Y-8197619D01*
X15770238Y-8311905D01*
X15813095Y-8311905D01*
X15841666Y-8326191D01*
X15855952Y-8340476D01*
X15870238Y-8369048D01*
X15870238Y-8440477D01*
X15855952Y-8469048D01*
X15841666Y-8483334D01*
X15813095Y-8497619D01*
X15727381Y-8497619D01*
X15698809Y-8483334D01*
X15684523Y-8469048D01*
X16055952Y-8197619D02*
X16084523Y-8197619D01*
X16113095Y-8211905D01*
X16127381Y-8226191D01*
X16141666Y-8254762D01*
X16155952Y-8311905D01*
X16155952Y-8383334D01*
X16141666Y-8440477D01*
X16127381Y-8469048D01*
X16113095Y-8483334D01*
X16084523Y-8497619D01*
X16055952Y-8497619D01*
X16027381Y-8483334D01*
X16013095Y-8469048D01*
X15998809Y-8440477D01*
X15984523Y-8383334D01*
X15984523Y-8311905D01*
X15998809Y-8254762D01*
X16013095Y-8226191D01*
X16027381Y-8211905D01*
X16055952Y-8197619D01*
X16341666Y-8197619D02*
X16370238Y-8197619D01*
X16398809Y-8211905D01*
X16413095Y-8226191D01*
X16427381Y-8254762D01*
X16441666Y-8311905D01*
X16441666Y-8383334D01*
X16427381Y-8440477D01*
X16413095Y-8469048D01*
X16398809Y-8483334D01*
X16370238Y-8497619D01*
X16341666Y-8497619D01*
X16313095Y-8483334D01*
X16298809Y-8469048D01*
X16284523Y-8440477D01*
X16270238Y-8383334D01*
X16270238Y-8311905D01*
X16284523Y-8254762D01*
X16298809Y-8226191D01*
X16313095Y-8211905D01*
X16341666Y-8197619D01*
X16570238Y-8497619D02*
X16570238Y-8297619D01*
X16570238Y-8326191D02*
X16584523Y-8311905D01*
X16613095Y-8297619D01*
X16655952Y-8297619D01*
X16684523Y-8311905D01*
X16698809Y-8340476D01*
X16698809Y-8497619D01*
X16698809Y-8340476D02*
X16713095Y-8311905D01*
X16741666Y-8297619D01*
X16784523Y-8297619D01*
X16813095Y-8311905D01*
X16827381Y-8340476D01*
X16827381Y-8497619D01*
X16970238Y-8497619D02*
X16970238Y-8297619D01*
X16970238Y-8326191D02*
X16984523Y-8311905D01*
X17013095Y-8297619D01*
X17055952Y-8297619D01*
X17084523Y-8311905D01*
X17098809Y-8340476D01*
X17098809Y-8497619D01*
X17098809Y-8340476D02*
X17113095Y-8311905D01*
X17141666Y-8297619D01*
X17184523Y-8297619D01*
X17213095Y-8311905D01*
X17227381Y-8340476D01*
X17227381Y-8497619D01*
X17813095Y-8183334D02*
X17555952Y-8569048D01*
X18198809Y-8197619D02*
X18227381Y-8197619D01*
X18255952Y-8211905D01*
X18270238Y-8226191D01*
X18284523Y-8254762D01*
X18298809Y-8311905D01*
X18298809Y-8383334D01*
X18284523Y-8440477D01*
X18270238Y-8469048D01*
X18255952Y-8483334D01*
X18227381Y-8497619D01*
X18198809Y-8497619D01*
X18170238Y-8483334D01*
X18155952Y-8469048D01*
X18141666Y-8440477D01*
X18127381Y-8383334D01*
X18127381Y-8311905D01*
X18141666Y-8254762D01*
X18155952Y-8226191D01*
X18170238Y-8211905D01*
X18198809Y-8197619D01*
X18427381Y-8469048D02*
X18441666Y-8483334D01*
X18427381Y-8497619D01*
X18413095Y-8483334D01*
X18427381Y-8469048D01*
X18427381Y-8497619D01*
X18627381Y-8197619D02*
X18655952Y-8197619D01*
X18684523Y-8211905D01*
X18698809Y-8226191D01*
X18713095Y-8254762D01*
X18727381Y-8311905D01*
X18727381Y-8383334D01*
X18713095Y-8440477D01*
X18698809Y-8469048D01*
X18684523Y-8483334D01*
X18655952Y-8497619D01*
X18627381Y-8497619D01*
X18598809Y-8483334D01*
X18584523Y-8469048D01*
X18570238Y-8440477D01*
X18555952Y-8383334D01*
X18555952Y-8311905D01*
X18570238Y-8254762D01*
X18584523Y-8226191D01*
X18598809Y-8211905D01*
X18627381Y-8197619D01*
X19013095Y-8497619D02*
X18841666Y-8497619D01*
X18927381Y-8497619D02*
X18927381Y-8197619D01*
X18898809Y-8240476D01*
X18870238Y-8269048D01*
X18841666Y-8283334D01*
X19298809Y-8497619D02*
X19127381Y-8497619D01*
X19213095Y-8497619D02*
X19213095Y-8197619D01*
X19184523Y-8240476D01*
X19155952Y-8269048D01*
X19127381Y-8283334D01*
X19470238Y-8326191D02*
X19441666Y-8311905D01*
X19427381Y-8297619D01*
X19413095Y-8269048D01*
X19413095Y-8254762D01*
X19427381Y-8226191D01*
X19441666Y-8211905D01*
X19470238Y-8197619D01*
X19527381Y-8197619D01*
X19555952Y-8211905D01*
X19570238Y-8226191D01*
X19584523Y-8254762D01*
X19584523Y-8269048D01*
X19570238Y-8297619D01*
X19555952Y-8311905D01*
X19527381Y-8326191D01*
X19470238Y-8326191D01*
X19441666Y-8340476D01*
X19427381Y-8354762D01*
X19413095Y-8383334D01*
X19413095Y-8440477D01*
X19427381Y-8469048D01*
X19441666Y-8483334D01*
X19470238Y-8497619D01*
X19527381Y-8497619D01*
X19555952Y-8483334D01*
X19570238Y-8469048D01*
X19584523Y-8440477D01*
X19584523Y-8383334D01*
X19570238Y-8354762D01*
X19555952Y-8340476D01*
X19527381Y-8326191D01*
X19698809Y-8197619D02*
X19698809Y-8254762D01*
X19813095Y-8197619D02*
X19813095Y-8254762D01*
X20255952Y-8611905D02*
X20241666Y-8597619D01*
X20213095Y-8554762D01*
X20198809Y-8526191D01*
X20184523Y-8483334D01*
X20170238Y-8411905D01*
X20170238Y-8354762D01*
X20184523Y-8283334D01*
X20198809Y-8240476D01*
X20213095Y-8211905D01*
X20241666Y-8169048D01*
X20255952Y-8154762D01*
X20513095Y-8197619D02*
X20370238Y-8197619D01*
X20355952Y-8340476D01*
X20370238Y-8326191D01*
X20398809Y-8311905D01*
X20470238Y-8311905D01*
X20498809Y-8326191D01*
X20513095Y-8340476D01*
X20527381Y-8369048D01*
X20527381Y-8440477D01*
X20513095Y-8469048D01*
X20498809Y-8483334D01*
X20470238Y-8497619D01*
X20398809Y-8497619D01*
X20370238Y-8483334D01*
X20355952Y-8469048D01*
X20713095Y-8197619D02*
X20741666Y-8197619D01*
X20770238Y-8211905D01*
X20784523Y-8226191D01*
X20798809Y-8254762D01*
X20813095Y-8311905D01*
X20813095Y-8383334D01*
X20798809Y-8440477D01*
X20784523Y-8469048D01*
X20770238Y-8483334D01*
X20741666Y-8497619D01*
X20713095Y-8497619D01*
X20684523Y-8483334D01*
X20670238Y-8469048D01*
X20655952Y-8440477D01*
X20641666Y-8383334D01*
X20641666Y-8311905D01*
X20655952Y-8254762D01*
X20670238Y-8226191D01*
X20684523Y-8211905D01*
X20713095Y-8197619D01*
X21170238Y-8497619D02*
X21170238Y-8197619D01*
X21298809Y-8497619D02*
X21298809Y-8340476D01*
X21284523Y-8311905D01*
X21255952Y-8297619D01*
X21213095Y-8297619D01*
X21184523Y-8311905D01*
X21170238Y-8326191D01*
X21484523Y-8497619D02*
X21455952Y-8483334D01*
X21441666Y-8469048D01*
X21427381Y-8440477D01*
X21427381Y-8354762D01*
X21441666Y-8326191D01*
X21455952Y-8311905D01*
X21484523Y-8297619D01*
X21527381Y-8297619D01*
X21555952Y-8311905D01*
X21570238Y-8326191D01*
X21584523Y-8354762D01*
X21584523Y-8440477D01*
X21570238Y-8469048D01*
X21555952Y-8483334D01*
X21527381Y-8497619D01*
X21484523Y-8497619D01*
X21755952Y-8497619D02*
X21727381Y-8483334D01*
X21713095Y-8454762D01*
X21713095Y-8197619D01*
X21984523Y-8483334D02*
X21955952Y-8497619D01*
X21898809Y-8497619D01*
X21870238Y-8483334D01*
X21855952Y-8454762D01*
X21855952Y-8340476D01*
X21870238Y-8311905D01*
X21898809Y-8297619D01*
X21955952Y-8297619D01*
X21984523Y-8311905D01*
X21998809Y-8340476D01*
X21998809Y-8369048D01*
X21855952Y-8397619D01*
X22113095Y-8483334D02*
X22141666Y-8497619D01*
X22198809Y-8497619D01*
X22227381Y-8483334D01*
X22241666Y-8454762D01*
X22241666Y-8440477D01*
X22227381Y-8411905D01*
X22198809Y-8397619D01*
X22155952Y-8397619D01*
X22127381Y-8383334D01*
X22113095Y-8354762D01*
X22113095Y-8340476D01*
X22127381Y-8311905D01*
X22155952Y-8297619D01*
X22198809Y-8297619D01*
X22227381Y-8311905D01*
X22341666Y-8611905D02*
X22355952Y-8597619D01*
X22384523Y-8554762D01*
X22398809Y-8526191D01*
X22413095Y-8483334D01*
X22427381Y-8411905D01*
X22427381Y-8354762D01*
X22413095Y-8283334D01*
X22398809Y-8240476D01*
X22384523Y-8211905D01*
X22355952Y-8169048D01*
X22341666Y-8154762D01*
X14998095Y-8757905D02*
G75*
G03*
X14998095Y-8757905I-20000J0D01*
G01*
X15341666Y-8593619D02*
X15370238Y-8593619D01*
X15398809Y-8607905D01*
X15413095Y-8622191D01*
X15427381Y-8650762D01*
X15441666Y-8707905D01*
X15441666Y-8779334D01*
X15427381Y-8836477D01*
X15413095Y-8865048D01*
X15398809Y-8879334D01*
X15370238Y-8893619D01*
X15341666Y-8893619D01*
X15313095Y-8879334D01*
X15298809Y-8865048D01*
X15284523Y-8836477D01*
X15270238Y-8779334D01*
X15270238Y-8707905D01*
X15284523Y-8650762D01*
X15298809Y-8622191D01*
X15313095Y-8607905D01*
X15341666Y-8593619D01*
X15570238Y-8865048D02*
X15584523Y-8879334D01*
X15570238Y-8893619D01*
X15555952Y-8879334D01*
X15570238Y-8865048D01*
X15570238Y-8893619D01*
X15841666Y-8693619D02*
X15841666Y-8893619D01*
X15770238Y-8579334D02*
X15698809Y-8793619D01*
X15884523Y-8793619D01*
X16055952Y-8593619D02*
X16084523Y-8593619D01*
X16113095Y-8607905D01*
X16127381Y-8622191D01*
X16141666Y-8650762D01*
X16155952Y-8707905D01*
X16155952Y-8779334D01*
X16141666Y-8836477D01*
X16127381Y-8865048D01*
X16113095Y-8879334D01*
X16084523Y-8893619D01*
X16055952Y-8893619D01*
X16027381Y-8879334D01*
X16013095Y-8865048D01*
X15998809Y-8836477D01*
X15984523Y-8779334D01*
X15984523Y-8707905D01*
X15998809Y-8650762D01*
X16013095Y-8622191D01*
X16027381Y-8607905D01*
X16055952Y-8593619D01*
X16341666Y-8593619D02*
X16370238Y-8593619D01*
X16398809Y-8607905D01*
X16413095Y-8622191D01*
X16427381Y-8650762D01*
X16441666Y-8707905D01*
X16441666Y-8779334D01*
X16427381Y-8836477D01*
X16413095Y-8865048D01*
X16398809Y-8879334D01*
X16370238Y-8893619D01*
X16341666Y-8893619D01*
X16313095Y-8879334D01*
X16298809Y-8865048D01*
X16284523Y-8836477D01*
X16270238Y-8779334D01*
X16270238Y-8707905D01*
X16284523Y-8650762D01*
X16298809Y-8622191D01*
X16313095Y-8607905D01*
X16341666Y-8593619D01*
X16570238Y-8893619D02*
X16570238Y-8693619D01*
X16570238Y-8722191D02*
X16584523Y-8707905D01*
X16613095Y-8693619D01*
X16655952Y-8693619D01*
X16684523Y-8707905D01*
X16698809Y-8736477D01*
X16698809Y-8893619D01*
X16698809Y-8736477D02*
X16713095Y-8707905D01*
X16741666Y-8693619D01*
X16784523Y-8693619D01*
X16813095Y-8707905D01*
X16827381Y-8736477D01*
X16827381Y-8893619D01*
X16970238Y-8893619D02*
X16970238Y-8693619D01*
X16970238Y-8722191D02*
X16984523Y-8707905D01*
X17013095Y-8693619D01*
X17055952Y-8693619D01*
X17084523Y-8707905D01*
X17098809Y-8736477D01*
X17098809Y-8893619D01*
X17098809Y-8736477D02*
X17113095Y-8707905D01*
X17141666Y-8693619D01*
X17184523Y-8693619D01*
X17213095Y-8707905D01*
X17227381Y-8736477D01*
X17227381Y-8893619D01*
X17813095Y-8579334D02*
X17555952Y-8965048D01*
X18198809Y-8593619D02*
X18227381Y-8593619D01*
X18255952Y-8607905D01*
X18270238Y-8622191D01*
X18284523Y-8650762D01*
X18298809Y-8707905D01*
X18298809Y-8779334D01*
X18284523Y-8836477D01*
X18270238Y-8865048D01*
X18255952Y-8879334D01*
X18227381Y-8893619D01*
X18198809Y-8893619D01*
X18170238Y-8879334D01*
X18155952Y-8865048D01*
X18141666Y-8836477D01*
X18127381Y-8779334D01*
X18127381Y-8707905D01*
X18141666Y-8650762D01*
X18155952Y-8622191D01*
X18170238Y-8607905D01*
X18198809Y-8593619D01*
X18427381Y-8865048D02*
X18441666Y-8879334D01*
X18427381Y-8893619D01*
X18413095Y-8879334D01*
X18427381Y-8865048D01*
X18427381Y-8893619D01*
X18627381Y-8593619D02*
X18655952Y-8593619D01*
X18684523Y-8607905D01*
X18698809Y-8622191D01*
X18713095Y-8650762D01*
X18727381Y-8707905D01*
X18727381Y-8779334D01*
X18713095Y-8836477D01*
X18698809Y-8865048D01*
X18684523Y-8879334D01*
X18655952Y-8893619D01*
X18627381Y-8893619D01*
X18598809Y-8879334D01*
X18584523Y-8865048D01*
X18570238Y-8836477D01*
X18555952Y-8779334D01*
X18555952Y-8707905D01*
X18570238Y-8650762D01*
X18584523Y-8622191D01*
X18598809Y-8607905D01*
X18627381Y-8593619D01*
X19013095Y-8893619D02*
X18841666Y-8893619D01*
X18927381Y-8893619D02*
X18927381Y-8593619D01*
X18898809Y-8636477D01*
X18870238Y-8665048D01*
X18841666Y-8679334D01*
X19284523Y-8593619D02*
X19141666Y-8593619D01*
X19127381Y-8736477D01*
X19141666Y-8722191D01*
X19170238Y-8707905D01*
X19241666Y-8707905D01*
X19270238Y-8722191D01*
X19284523Y-8736477D01*
X19298809Y-8765048D01*
X19298809Y-8836477D01*
X19284523Y-8865048D01*
X19270238Y-8879334D01*
X19241666Y-8893619D01*
X19170238Y-8893619D01*
X19141666Y-8879334D01*
X19127381Y-8865048D01*
X19398809Y-8593619D02*
X19598809Y-8593619D01*
X19470238Y-8893619D01*
X19698809Y-8593619D02*
X19698809Y-8650762D01*
X19813095Y-8593619D02*
X19813095Y-8650762D01*
X20255952Y-9007905D02*
X20241666Y-8993619D01*
X20213095Y-8950762D01*
X20198809Y-8922191D01*
X20184523Y-8879334D01*
X20170238Y-8807905D01*
X20170238Y-8750762D01*
X20184523Y-8679334D01*
X20198809Y-8636477D01*
X20213095Y-8607905D01*
X20241666Y-8565048D01*
X20255952Y-8550762D01*
X20341666Y-8593619D02*
X20527381Y-8593619D01*
X20427381Y-8707905D01*
X20470238Y-8707905D01*
X20498809Y-8722191D01*
X20513095Y-8736477D01*
X20527381Y-8765048D01*
X20527381Y-8836477D01*
X20513095Y-8865048D01*
X20498809Y-8879334D01*
X20470238Y-8893619D01*
X20384523Y-8893619D01*
X20355952Y-8879334D01*
X20341666Y-8865048D01*
X20884523Y-8893619D02*
X20884523Y-8593619D01*
X21013095Y-8893619D02*
X21013095Y-8736477D01*
X20998809Y-8707905D01*
X20970238Y-8693619D01*
X20927381Y-8693619D01*
X20898809Y-8707905D01*
X20884523Y-8722191D01*
X21198809Y-8893619D02*
X21170238Y-8879334D01*
X21155952Y-8865048D01*
X21141666Y-8836477D01*
X21141666Y-8750762D01*
X21155952Y-8722191D01*
X21170238Y-8707905D01*
X21198809Y-8693619D01*
X21241666Y-8693619D01*
X21270238Y-8707905D01*
X21284523Y-8722191D01*
X21298809Y-8750762D01*
X21298809Y-8836477D01*
X21284523Y-8865048D01*
X21270238Y-8879334D01*
X21241666Y-8893619D01*
X21198809Y-8893619D01*
X21470238Y-8893619D02*
X21441666Y-8879334D01*
X21427381Y-8850762D01*
X21427381Y-8593619D01*
X21698809Y-8879334D02*
X21670238Y-8893619D01*
X21613095Y-8893619D01*
X21584523Y-8879334D01*
X21570238Y-8850762D01*
X21570238Y-8736477D01*
X21584523Y-8707905D01*
X21613095Y-8693619D01*
X21670238Y-8693619D01*
X21698809Y-8707905D01*
X21713095Y-8736477D01*
X21713095Y-8765048D01*
X21570238Y-8793619D01*
X21827381Y-8879334D02*
X21855952Y-8893619D01*
X21913095Y-8893619D01*
X21941666Y-8879334D01*
X21955952Y-8850762D01*
X21955952Y-8836477D01*
X21941666Y-8807905D01*
X21913095Y-8793619D01*
X21870238Y-8793619D01*
X21841666Y-8779334D01*
X21827381Y-8750762D01*
X21827381Y-8736477D01*
X21841666Y-8707905D01*
X21870238Y-8693619D01*
X21913095Y-8693619D01*
X21941666Y-8707905D01*
X22055952Y-9007905D02*
X22070238Y-8993619D01*
X22098809Y-8950762D01*
X22113095Y-8922191D01*
X22127381Y-8879334D01*
X22141666Y-8807905D01*
X22141666Y-8750762D01*
X22127381Y-8679334D01*
X22113095Y-8636477D01*
X22098809Y-8607905D01*
X22070238Y-8565048D01*
X22055952Y-8550762D01*
X14959995Y-9115805D02*
X14959995Y-9192005D01*
X14921895Y-9153905D02*
X14998095Y-9153905D01*
X15341666Y-8989619D02*
X15370238Y-8989619D01*
X15398809Y-9003905D01*
X15413095Y-9018191D01*
X15427381Y-9046762D01*
X15441666Y-9103905D01*
X15441666Y-9175334D01*
X15427381Y-9232477D01*
X15413095Y-9261048D01*
X15398809Y-9275334D01*
X15370238Y-9289619D01*
X15341666Y-9289619D01*
X15313095Y-9275334D01*
X15298809Y-9261048D01*
X15284523Y-9232477D01*
X15270238Y-9175334D01*
X15270238Y-9103905D01*
X15284523Y-9046762D01*
X15298809Y-9018191D01*
X15313095Y-9003905D01*
X15341666Y-8989619D01*
X15570238Y-9261048D02*
X15584523Y-9275334D01*
X15570238Y-9289619D01*
X15555952Y-9275334D01*
X15570238Y-9261048D01*
X15570238Y-9289619D01*
X15684523Y-8989619D02*
X15884523Y-8989619D01*
X15755952Y-9289619D01*
X16127381Y-8989619D02*
X16070238Y-8989619D01*
X16041666Y-9003905D01*
X16027381Y-9018191D01*
X15998809Y-9061048D01*
X15984523Y-9118191D01*
X15984523Y-9232477D01*
X15998809Y-9261048D01*
X16013095Y-9275334D01*
X16041666Y-9289619D01*
X16098809Y-9289619D01*
X16127381Y-9275334D01*
X16141666Y-9261048D01*
X16155952Y-9232477D01*
X16155952Y-9161048D01*
X16141666Y-9132477D01*
X16127381Y-9118191D01*
X16098809Y-9103905D01*
X16041666Y-9103905D01*
X16013095Y-9118191D01*
X15998809Y-9132477D01*
X15984523Y-9161048D01*
X16270238Y-9018191D02*
X16284523Y-9003905D01*
X16313095Y-8989619D01*
X16384523Y-8989619D01*
X16413095Y-9003905D01*
X16427381Y-9018191D01*
X16441666Y-9046762D01*
X16441666Y-9075334D01*
X16427381Y-9118191D01*
X16255952Y-9289619D01*
X16441666Y-9289619D01*
X16570238Y-9289619D02*
X16570238Y-9089619D01*
X16570238Y-9118191D02*
X16584523Y-9103905D01*
X16613095Y-9089619D01*
X16655952Y-9089619D01*
X16684523Y-9103905D01*
X16698809Y-9132477D01*
X16698809Y-9289619D01*
X16698809Y-9132477D02*
X16713095Y-9103905D01*
X16741666Y-9089619D01*
X16784523Y-9089619D01*
X16813095Y-9103905D01*
X16827381Y-9132477D01*
X16827381Y-9289619D01*
X16970238Y-9289619D02*
X16970238Y-9089619D01*
X16970238Y-9118191D02*
X16984523Y-9103905D01*
X17013095Y-9089619D01*
X17055952Y-9089619D01*
X17084523Y-9103905D01*
X17098809Y-9132477D01*
X17098809Y-9289619D01*
X17098809Y-9132477D02*
X17113095Y-9103905D01*
X17141666Y-9089619D01*
X17184523Y-9089619D01*
X17213095Y-9103905D01*
X17227381Y-9132477D01*
X17227381Y-9289619D01*
X17813095Y-8975334D02*
X17555952Y-9361048D01*
X18198809Y-8989619D02*
X18227381Y-8989619D01*
X18255952Y-9003905D01*
X18270238Y-9018191D01*
X18284523Y-9046762D01*
X18298809Y-9103905D01*
X18298809Y-9175334D01*
X18284523Y-9232477D01*
X18270238Y-9261048D01*
X18255952Y-9275334D01*
X18227381Y-9289619D01*
X18198809Y-9289619D01*
X18170238Y-9275334D01*
X18155952Y-9261048D01*
X18141666Y-9232477D01*
X18127381Y-9175334D01*
X18127381Y-9103905D01*
X18141666Y-9046762D01*
X18155952Y-9018191D01*
X18170238Y-9003905D01*
X18198809Y-8989619D01*
X18427381Y-9261048D02*
X18441666Y-9275334D01*
X18427381Y-9289619D01*
X18413095Y-9275334D01*
X18427381Y-9261048D01*
X18427381Y-9289619D01*
X18627381Y-8989619D02*
X18655952Y-8989619D01*
X18684523Y-9003905D01*
X18698809Y-9018191D01*
X18713095Y-9046762D01*
X18727381Y-9103905D01*
X18727381Y-9175334D01*
X18713095Y-9232477D01*
X18698809Y-9261048D01*
X18684523Y-9275334D01*
X18655952Y-9289619D01*
X18627381Y-9289619D01*
X18598809Y-9275334D01*
X18584523Y-9261048D01*
X18570238Y-9232477D01*
X18555952Y-9175334D01*
X18555952Y-9103905D01*
X18570238Y-9046762D01*
X18584523Y-9018191D01*
X18598809Y-9003905D01*
X18627381Y-8989619D01*
X18827381Y-8989619D02*
X19013095Y-8989619D01*
X18913095Y-9103905D01*
X18955952Y-9103905D01*
X18984523Y-9118191D01*
X18998809Y-9132477D01*
X19013095Y-9161048D01*
X19013095Y-9232477D01*
X18998809Y-9261048D01*
X18984523Y-9275334D01*
X18955952Y-9289619D01*
X18870238Y-9289619D01*
X18841666Y-9275334D01*
X18827381Y-9261048D01*
X19198809Y-8989619D02*
X19227381Y-8989619D01*
X19255952Y-9003905D01*
X19270238Y-9018191D01*
X19284523Y-9046762D01*
X19298809Y-9103905D01*
X19298809Y-9175334D01*
X19284523Y-9232477D01*
X19270238Y-9261048D01*
X19255952Y-9275334D01*
X19227381Y-9289619D01*
X19198809Y-9289619D01*
X19170238Y-9275334D01*
X19155952Y-9261048D01*
X19141666Y-9232477D01*
X19127381Y-9175334D01*
X19127381Y-9103905D01*
X19141666Y-9046762D01*
X19155952Y-9018191D01*
X19170238Y-9003905D01*
X19198809Y-8989619D01*
X19484523Y-8989619D02*
X19513095Y-8989619D01*
X19541666Y-9003905D01*
X19555952Y-9018191D01*
X19570238Y-9046762D01*
X19584523Y-9103905D01*
X19584523Y-9175334D01*
X19570238Y-9232477D01*
X19555952Y-9261048D01*
X19541666Y-9275334D01*
X19513095Y-9289619D01*
X19484523Y-9289619D01*
X19455952Y-9275334D01*
X19441666Y-9261048D01*
X19427381Y-9232477D01*
X19413095Y-9175334D01*
X19413095Y-9103905D01*
X19427381Y-9046762D01*
X19441666Y-9018191D01*
X19455952Y-9003905D01*
X19484523Y-8989619D01*
X19698809Y-8989619D02*
X19698809Y-9046762D01*
X19813095Y-8989619D02*
X19813095Y-9046762D01*
X20255952Y-9403905D02*
X20241666Y-9389619D01*
X20213095Y-9346762D01*
X20198809Y-9318191D01*
X20184523Y-9275334D01*
X20170238Y-9203905D01*
X20170238Y-9146762D01*
X20184523Y-9075334D01*
X20198809Y-9032477D01*
X20213095Y-9003905D01*
X20241666Y-8961048D01*
X20255952Y-8946762D01*
X20527381Y-9289619D02*
X20355952Y-9289619D01*
X20441666Y-9289619D02*
X20441666Y-8989619D01*
X20413095Y-9032477D01*
X20384523Y-9061048D01*
X20355952Y-9075334D01*
X20713095Y-8989619D02*
X20741666Y-8989619D01*
X20770238Y-9003905D01*
X20784523Y-9018191D01*
X20798809Y-9046762D01*
X20813095Y-9103905D01*
X20813095Y-9175334D01*
X20798809Y-9232477D01*
X20784523Y-9261048D01*
X20770238Y-9275334D01*
X20741666Y-9289619D01*
X20713095Y-9289619D01*
X20684523Y-9275334D01*
X20670238Y-9261048D01*
X20655952Y-9232477D01*
X20641666Y-9175334D01*
X20641666Y-9103905D01*
X20655952Y-9046762D01*
X20670238Y-9018191D01*
X20684523Y-9003905D01*
X20713095Y-8989619D01*
X21170238Y-9289619D02*
X21170238Y-8989619D01*
X21298809Y-9289619D02*
X21298809Y-9132477D01*
X21284523Y-9103905D01*
X21255952Y-9089619D01*
X21213095Y-9089619D01*
X21184523Y-9103905D01*
X21170238Y-9118191D01*
X21484523Y-9289619D02*
X21455952Y-9275334D01*
X21441666Y-9261048D01*
X21427381Y-9232477D01*
X21427381Y-9146762D01*
X21441666Y-9118191D01*
X21455952Y-9103905D01*
X21484523Y-9089619D01*
X21527381Y-9089619D01*
X21555952Y-9103905D01*
X21570238Y-9118191D01*
X21584523Y-9146762D01*
X21584523Y-9232477D01*
X21570238Y-9261048D01*
X21555952Y-9275334D01*
X21527381Y-9289619D01*
X21484523Y-9289619D01*
X21755952Y-9289619D02*
X21727381Y-9275334D01*
X21713095Y-9246762D01*
X21713095Y-8989619D01*
X21984523Y-9275334D02*
X21955952Y-9289619D01*
X21898809Y-9289619D01*
X21870238Y-9275334D01*
X21855952Y-9246762D01*
X21855952Y-9132477D01*
X21870238Y-9103905D01*
X21898809Y-9089619D01*
X21955952Y-9089619D01*
X21984523Y-9103905D01*
X21998809Y-9132477D01*
X21998809Y-9161048D01*
X21855952Y-9189619D01*
X22113095Y-9275334D02*
X22141666Y-9289619D01*
X22198809Y-9289619D01*
X22227381Y-9275334D01*
X22241666Y-9246762D01*
X22241666Y-9232477D01*
X22227381Y-9203905D01*
X22198809Y-9189619D01*
X22155952Y-9189619D01*
X22127381Y-9175334D01*
X22113095Y-9146762D01*
X22113095Y-9132477D01*
X22127381Y-9103905D01*
X22155952Y-9089619D01*
X22198809Y-9089619D01*
X22227381Y-9103905D01*
X22341666Y-9403905D02*
X22355952Y-9389619D01*
X22384523Y-9346762D01*
X22398809Y-9318191D01*
X22413095Y-9275334D01*
X22427381Y-9203905D01*
X22427381Y-9146762D01*
X22413095Y-9075334D01*
X22398809Y-9032477D01*
X22384523Y-9003905D01*
X22355952Y-8961048D01*
X22341666Y-8946762D01*
X14986379Y-9578190D02*
X14986379Y-9521621D01*
X14929810Y-9521621D01*
X14929810Y-9578190D01*
X14986379Y-9578190D01*
X15341666Y-9385619D02*
X15370238Y-9385619D01*
X15398809Y-9399905D01*
X15413095Y-9414191D01*
X15427381Y-9442762D01*
X15441666Y-9499905D01*
X15441666Y-9571334D01*
X15427381Y-9628477D01*
X15413095Y-9657048D01*
X15398809Y-9671334D01*
X15370238Y-9685619D01*
X15341666Y-9685619D01*
X15313095Y-9671334D01*
X15298809Y-9657048D01*
X15284523Y-9628477D01*
X15270238Y-9571334D01*
X15270238Y-9499905D01*
X15284523Y-9442762D01*
X15298809Y-9414191D01*
X15313095Y-9399905D01*
X15341666Y-9385619D01*
X15570238Y-9657048D02*
X15584523Y-9671334D01*
X15570238Y-9685619D01*
X15555952Y-9671334D01*
X15570238Y-9657048D01*
X15570238Y-9685619D01*
X15755952Y-9514191D02*
X15727381Y-9499905D01*
X15713095Y-9485619D01*
X15698809Y-9457048D01*
X15698809Y-9442762D01*
X15713095Y-9414191D01*
X15727381Y-9399905D01*
X15755952Y-9385619D01*
X15813095Y-9385619D01*
X15841666Y-9399905D01*
X15855952Y-9414191D01*
X15870238Y-9442762D01*
X15870238Y-9457048D01*
X15855952Y-9485619D01*
X15841666Y-9499905D01*
X15813095Y-9514191D01*
X15755952Y-9514191D01*
X15727381Y-9528477D01*
X15713095Y-9542762D01*
X15698809Y-9571334D01*
X15698809Y-9628477D01*
X15713095Y-9657048D01*
X15727381Y-9671334D01*
X15755952Y-9685619D01*
X15813095Y-9685619D01*
X15841666Y-9671334D01*
X15855952Y-9657048D01*
X15870238Y-9628477D01*
X15870238Y-9571334D01*
X15855952Y-9542762D01*
X15841666Y-9528477D01*
X15813095Y-9514191D01*
X16055952Y-9385619D02*
X16084523Y-9385619D01*
X16113095Y-9399905D01*
X16127381Y-9414191D01*
X16141666Y-9442762D01*
X16155952Y-9499905D01*
X16155952Y-9571334D01*
X16141666Y-9628477D01*
X16127381Y-9657048D01*
X16113095Y-9671334D01*
X16084523Y-9685619D01*
X16055952Y-9685619D01*
X16027381Y-9671334D01*
X16013095Y-9657048D01*
X15998809Y-9628477D01*
X15984523Y-9571334D01*
X15984523Y-9499905D01*
X15998809Y-9442762D01*
X16013095Y-9414191D01*
X16027381Y-9399905D01*
X16055952Y-9385619D01*
X16341666Y-9385619D02*
X16370238Y-9385619D01*
X16398809Y-9399905D01*
X16413095Y-9414191D01*
X16427381Y-9442762D01*
X16441666Y-9499905D01*
X16441666Y-9571334D01*
X16427381Y-9628477D01*
X16413095Y-9657048D01*
X16398809Y-9671334D01*
X16370238Y-9685619D01*
X16341666Y-9685619D01*
X16313095Y-9671334D01*
X16298809Y-9657048D01*
X16284523Y-9628477D01*
X16270238Y-9571334D01*
X16270238Y-9499905D01*
X16284523Y-9442762D01*
X16298809Y-9414191D01*
X16313095Y-9399905D01*
X16341666Y-9385619D01*
X16570238Y-9685619D02*
X16570238Y-9485619D01*
X16570238Y-9514191D02*
X16584523Y-9499905D01*
X16613095Y-9485619D01*
X16655952Y-9485619D01*
X16684523Y-9499905D01*
X16698809Y-9528477D01*
X16698809Y-9685619D01*
X16698809Y-9528477D02*
X16713095Y-9499905D01*
X16741666Y-9485619D01*
X16784523Y-9485619D01*
X16813095Y-9499905D01*
X16827381Y-9528477D01*
X16827381Y-9685619D01*
X16970238Y-9685619D02*
X16970238Y-9485619D01*
X16970238Y-9514191D02*
X16984523Y-9499905D01*
X17013095Y-9485619D01*
X17055952Y-9485619D01*
X17084523Y-9499905D01*
X17098809Y-9528477D01*
X17098809Y-9685619D01*
X17098809Y-9528477D02*
X17113095Y-9499905D01*
X17141666Y-9485619D01*
X17184523Y-9485619D01*
X17213095Y-9499905D01*
X17227381Y-9528477D01*
X17227381Y-9685619D01*
X17813095Y-9371334D02*
X17555952Y-9757048D01*
X18198809Y-9385619D02*
X18227381Y-9385619D01*
X18255952Y-9399905D01*
X18270238Y-9414191D01*
X18284523Y-9442762D01*
X18298809Y-9499905D01*
X18298809Y-9571334D01*
X18284523Y-9628477D01*
X18270238Y-9657048D01*
X18255952Y-9671334D01*
X18227381Y-9685619D01*
X18198809Y-9685619D01*
X18170238Y-9671334D01*
X18155952Y-9657048D01*
X18141666Y-9628477D01*
X18127381Y-9571334D01*
X18127381Y-9499905D01*
X18141666Y-9442762D01*
X18155952Y-9414191D01*
X18170238Y-9399905D01*
X18198809Y-9385619D01*
X18427381Y-9657048D02*
X18441666Y-9671334D01*
X18427381Y-9685619D01*
X18413095Y-9671334D01*
X18427381Y-9657048D01*
X18427381Y-9685619D01*
X18627381Y-9385619D02*
X18655952Y-9385619D01*
X18684523Y-9399905D01*
X18698809Y-9414191D01*
X18713095Y-9442762D01*
X18727381Y-9499905D01*
X18727381Y-9571334D01*
X18713095Y-9628477D01*
X18698809Y-9657048D01*
X18684523Y-9671334D01*
X18655952Y-9685619D01*
X18627381Y-9685619D01*
X18598809Y-9671334D01*
X18584523Y-9657048D01*
X18570238Y-9628477D01*
X18555952Y-9571334D01*
X18555952Y-9499905D01*
X18570238Y-9442762D01*
X18584523Y-9414191D01*
X18598809Y-9399905D01*
X18627381Y-9385619D01*
X18827381Y-9385619D02*
X19013095Y-9385619D01*
X18913095Y-9499905D01*
X18955952Y-9499905D01*
X18984523Y-9514191D01*
X18998809Y-9528477D01*
X19013095Y-9557048D01*
X19013095Y-9628477D01*
X18998809Y-9657048D01*
X18984523Y-9671334D01*
X18955952Y-9685619D01*
X18870238Y-9685619D01*
X18841666Y-9671334D01*
X18827381Y-9657048D01*
X19298809Y-9685619D02*
X19127381Y-9685619D01*
X19213095Y-9685619D02*
X19213095Y-9385619D01*
X19184523Y-9428477D01*
X19155952Y-9457048D01*
X19127381Y-9471334D01*
X19570238Y-9385619D02*
X19427381Y-9385619D01*
X19413095Y-9528477D01*
X19427381Y-9514191D01*
X19455952Y-9499905D01*
X19527381Y-9499905D01*
X19555952Y-9514191D01*
X19570238Y-9528477D01*
X19584523Y-9557048D01*
X19584523Y-9628477D01*
X19570238Y-9657048D01*
X19555952Y-9671334D01*
X19527381Y-9685619D01*
X19455952Y-9685619D01*
X19427381Y-9671334D01*
X19413095Y-9657048D01*
X19698809Y-9385619D02*
X19698809Y-9442762D01*
X19813095Y-9385619D02*
X19813095Y-9442762D01*
X20255952Y-9799905D02*
X20241666Y-9785619D01*
X20213095Y-9742762D01*
X20198809Y-9714191D01*
X20184523Y-9671334D01*
X20170238Y-9599905D01*
X20170238Y-9542762D01*
X20184523Y-9471334D01*
X20198809Y-9428477D01*
X20213095Y-9399905D01*
X20241666Y-9357048D01*
X20255952Y-9342762D01*
X20498809Y-9485619D02*
X20498809Y-9685619D01*
X20427381Y-9371334D02*
X20355952Y-9585619D01*
X20541666Y-9585619D01*
X20884523Y-9685619D02*
X20884523Y-9385619D01*
X21013095Y-9685619D02*
X21013095Y-9528477D01*
X20998809Y-9499905D01*
X20970238Y-9485619D01*
X20927381Y-9485619D01*
X20898809Y-9499905D01*
X20884523Y-9514191D01*
X21198809Y-9685619D02*
X21170238Y-9671334D01*
X21155952Y-9657048D01*
X21141666Y-9628477D01*
X21141666Y-9542762D01*
X21155952Y-9514191D01*
X21170238Y-9499905D01*
X21198809Y-9485619D01*
X21241666Y-9485619D01*
X21270238Y-9499905D01*
X21284523Y-9514191D01*
X21298809Y-9542762D01*
X21298809Y-9628477D01*
X21284523Y-9657048D01*
X21270238Y-9671334D01*
X21241666Y-9685619D01*
X21198809Y-9685619D01*
X21470238Y-9685619D02*
X21441666Y-9671334D01*
X21427381Y-9642762D01*
X21427381Y-9385619D01*
X21698809Y-9671334D02*
X21670238Y-9685619D01*
X21613095Y-9685619D01*
X21584523Y-9671334D01*
X21570238Y-9642762D01*
X21570238Y-9528477D01*
X21584523Y-9499905D01*
X21613095Y-9485619D01*
X21670238Y-9485619D01*
X21698809Y-9499905D01*
X21713095Y-9528477D01*
X21713095Y-9557048D01*
X21570238Y-9585619D01*
X21827381Y-9671334D02*
X21855952Y-9685619D01*
X21913095Y-9685619D01*
X21941666Y-9671334D01*
X21955952Y-9642762D01*
X21955952Y-9628477D01*
X21941666Y-9599905D01*
X21913095Y-9585619D01*
X21870238Y-9585619D01*
X21841666Y-9571334D01*
X21827381Y-9542762D01*
X21827381Y-9528477D01*
X21841666Y-9499905D01*
X21870238Y-9485619D01*
X21913095Y-9485619D01*
X21941666Y-9499905D01*
X22055952Y-9799905D02*
X22070238Y-9785619D01*
X22098809Y-9742762D01*
X22113095Y-9714191D01*
X22127381Y-9671334D01*
X22141666Y-9599905D01*
X22141666Y-9542762D01*
X22127381Y-9471334D01*
X22113095Y-9428477D01*
X22098809Y-9399905D01*
X22070238Y-9357048D01*
X22055952Y-9342762D01*
X14948095Y-9995905D02*
X14998095Y-9945905D01*
X14948095Y-9895905D01*
X14898095Y-9945905D01*
X14948095Y-9995905D01*
X15441666Y-10081619D02*
X15270238Y-10081619D01*
X15355952Y-10081619D02*
X15355952Y-9781619D01*
X15327381Y-9824477D01*
X15298809Y-9853048D01*
X15270238Y-9867334D01*
X15570238Y-10053048D02*
X15584523Y-10067334D01*
X15570238Y-10081619D01*
X15555952Y-10067334D01*
X15570238Y-10053048D01*
X15570238Y-10081619D01*
X15770238Y-9781619D02*
X15798809Y-9781619D01*
X15827381Y-9795905D01*
X15841666Y-9810191D01*
X15855952Y-9838762D01*
X15870238Y-9895905D01*
X15870238Y-9967334D01*
X15855952Y-10024477D01*
X15841666Y-10053048D01*
X15827381Y-10067334D01*
X15798809Y-10081619D01*
X15770238Y-10081619D01*
X15741666Y-10067334D01*
X15727381Y-10053048D01*
X15713095Y-10024477D01*
X15698809Y-9967334D01*
X15698809Y-9895905D01*
X15713095Y-9838762D01*
X15727381Y-9810191D01*
X15741666Y-9795905D01*
X15770238Y-9781619D01*
X16055952Y-9781619D02*
X16084523Y-9781619D01*
X16113095Y-9795905D01*
X16127381Y-9810191D01*
X16141666Y-9838762D01*
X16155952Y-9895905D01*
X16155952Y-9967334D01*
X16141666Y-10024477D01*
X16127381Y-10053048D01*
X16113095Y-10067334D01*
X16084523Y-10081619D01*
X16055952Y-10081619D01*
X16027381Y-10067334D01*
X16013095Y-10053048D01*
X15998809Y-10024477D01*
X15984523Y-9967334D01*
X15984523Y-9895905D01*
X15998809Y-9838762D01*
X16013095Y-9810191D01*
X16027381Y-9795905D01*
X16055952Y-9781619D01*
X16341666Y-9781619D02*
X16370238Y-9781619D01*
X16398809Y-9795905D01*
X16413095Y-9810191D01*
X16427381Y-9838762D01*
X16441666Y-9895905D01*
X16441666Y-9967334D01*
X16427381Y-10024477D01*
X16413095Y-10053048D01*
X16398809Y-10067334D01*
X16370238Y-10081619D01*
X16341666Y-10081619D01*
X16313095Y-10067334D01*
X16298809Y-10053048D01*
X16284523Y-10024477D01*
X16270238Y-9967334D01*
X16270238Y-9895905D01*
X16284523Y-9838762D01*
X16298809Y-9810191D01*
X16313095Y-9795905D01*
X16341666Y-9781619D01*
X16570238Y-10081619D02*
X16570238Y-9881619D01*
X16570238Y-9910191D02*
X16584523Y-9895905D01*
X16613095Y-9881619D01*
X16655952Y-9881619D01*
X16684523Y-9895905D01*
X16698809Y-9924477D01*
X16698809Y-10081619D01*
X16698809Y-9924477D02*
X16713095Y-9895905D01*
X16741666Y-9881619D01*
X16784523Y-9881619D01*
X16813095Y-9895905D01*
X16827381Y-9924477D01*
X16827381Y-10081619D01*
X16970238Y-10081619D02*
X16970238Y-9881619D01*
X16970238Y-9910191D02*
X16984523Y-9895905D01*
X17013095Y-9881619D01*
X17055952Y-9881619D01*
X17084523Y-9895905D01*
X17098809Y-9924477D01*
X17098809Y-10081619D01*
X17098809Y-9924477D02*
X17113095Y-9895905D01*
X17141666Y-9881619D01*
X17184523Y-9881619D01*
X17213095Y-9895905D01*
X17227381Y-9924477D01*
X17227381Y-10081619D01*
X17813095Y-9767334D02*
X17555952Y-10153048D01*
X18198809Y-9781619D02*
X18227381Y-9781619D01*
X18255952Y-9795905D01*
X18270238Y-9810191D01*
X18284523Y-9838762D01*
X18298809Y-9895905D01*
X18298809Y-9967334D01*
X18284523Y-10024477D01*
X18270238Y-10053048D01*
X18255952Y-10067334D01*
X18227381Y-10081619D01*
X18198809Y-10081619D01*
X18170238Y-10067334D01*
X18155952Y-10053048D01*
X18141666Y-10024477D01*
X18127381Y-9967334D01*
X18127381Y-9895905D01*
X18141666Y-9838762D01*
X18155952Y-9810191D01*
X18170238Y-9795905D01*
X18198809Y-9781619D01*
X18427381Y-10053048D02*
X18441666Y-10067334D01*
X18427381Y-10081619D01*
X18413095Y-10067334D01*
X18427381Y-10053048D01*
X18427381Y-10081619D01*
X18627381Y-9781619D02*
X18655952Y-9781619D01*
X18684523Y-9795905D01*
X18698809Y-9810191D01*
X18713095Y-9838762D01*
X18727381Y-9895905D01*
X18727381Y-9967334D01*
X18713095Y-10024477D01*
X18698809Y-10053048D01*
X18684523Y-10067334D01*
X18655952Y-10081619D01*
X18627381Y-10081619D01*
X18598809Y-10067334D01*
X18584523Y-10053048D01*
X18570238Y-10024477D01*
X18555952Y-9967334D01*
X18555952Y-9895905D01*
X18570238Y-9838762D01*
X18584523Y-9810191D01*
X18598809Y-9795905D01*
X18627381Y-9781619D01*
X18827381Y-9781619D02*
X19013095Y-9781619D01*
X18913095Y-9895905D01*
X18955952Y-9895905D01*
X18984523Y-9910191D01*
X18998809Y-9924477D01*
X19013095Y-9953048D01*
X19013095Y-10024477D01*
X18998809Y-10053048D01*
X18984523Y-10067334D01*
X18955952Y-10081619D01*
X18870238Y-10081619D01*
X18841666Y-10067334D01*
X18827381Y-10053048D01*
X19155952Y-10081619D02*
X19213095Y-10081619D01*
X19241666Y-10067334D01*
X19255952Y-10053048D01*
X19284523Y-10010191D01*
X19298809Y-9953048D01*
X19298809Y-9838762D01*
X19284523Y-9810191D01*
X19270238Y-9795905D01*
X19241666Y-9781619D01*
X19184523Y-9781619D01*
X19155952Y-9795905D01*
X19141666Y-9810191D01*
X19127381Y-9838762D01*
X19127381Y-9910191D01*
X19141666Y-9938762D01*
X19155952Y-9953048D01*
X19184523Y-9967334D01*
X19241666Y-9967334D01*
X19270238Y-9953048D01*
X19284523Y-9938762D01*
X19298809Y-9910191D01*
X19555952Y-9881619D02*
X19555952Y-10081619D01*
X19484523Y-9767334D02*
X19413095Y-9981619D01*
X19598809Y-9981619D01*
X19698809Y-9781619D02*
X19698809Y-9838762D01*
X19813095Y-9781619D02*
X19813095Y-9838762D01*
X20255952Y-10195905D02*
X20241666Y-10181619D01*
X20213095Y-10138762D01*
X20198809Y-10110191D01*
X20184523Y-10067334D01*
X20170238Y-9995905D01*
X20170238Y-9938762D01*
X20184523Y-9867334D01*
X20198809Y-9824477D01*
X20213095Y-9795905D01*
X20241666Y-9753048D01*
X20255952Y-9738762D01*
X20527381Y-10081619D02*
X20355952Y-10081619D01*
X20441666Y-10081619D02*
X20441666Y-9781619D01*
X20413095Y-9824477D01*
X20384523Y-9853048D01*
X20355952Y-9867334D01*
X20798809Y-9781619D02*
X20655952Y-9781619D01*
X20641666Y-9924477D01*
X20655952Y-9910191D01*
X20684523Y-9895905D01*
X20755952Y-9895905D01*
X20784523Y-9910191D01*
X20798809Y-9924477D01*
X20813095Y-9953048D01*
X20813095Y-10024477D01*
X20798809Y-10053048D01*
X20784523Y-10067334D01*
X20755952Y-10081619D01*
X20684523Y-10081619D01*
X20655952Y-10067334D01*
X20641666Y-10053048D01*
X21170238Y-10081619D02*
X21170238Y-9781619D01*
X21298809Y-10081619D02*
X21298809Y-9924477D01*
X21284523Y-9895905D01*
X21255952Y-9881619D01*
X21213095Y-9881619D01*
X21184523Y-9895905D01*
X21170238Y-9910191D01*
X21484523Y-10081619D02*
X21455952Y-10067334D01*
X21441666Y-10053048D01*
X21427381Y-10024477D01*
X21427381Y-9938762D01*
X21441666Y-9910191D01*
X21455952Y-9895905D01*
X21484523Y-9881619D01*
X21527381Y-9881619D01*
X21555952Y-9895905D01*
X21570238Y-9910191D01*
X21584523Y-9938762D01*
X21584523Y-10024477D01*
X21570238Y-10053048D01*
X21555952Y-10067334D01*
X21527381Y-10081619D01*
X21484523Y-10081619D01*
X21755952Y-10081619D02*
X21727381Y-10067334D01*
X21713095Y-10038762D01*
X21713095Y-9781619D01*
X21984523Y-10067334D02*
X21955952Y-10081619D01*
X21898809Y-10081619D01*
X21870238Y-10067334D01*
X21855952Y-10038762D01*
X21855952Y-9924477D01*
X21870238Y-9895905D01*
X21898809Y-9881619D01*
X21955952Y-9881619D01*
X21984523Y-9895905D01*
X21998809Y-9924477D01*
X21998809Y-9953048D01*
X21855952Y-9981619D01*
X22113095Y-10067334D02*
X22141666Y-10081619D01*
X22198809Y-10081619D01*
X22227381Y-10067334D01*
X22241666Y-10038762D01*
X22241666Y-10024477D01*
X22227381Y-9995905D01*
X22198809Y-9981619D01*
X22155952Y-9981619D01*
X22127381Y-9967334D01*
X22113095Y-9938762D01*
X22113095Y-9924477D01*
X22127381Y-9895905D01*
X22155952Y-9881619D01*
X22198809Y-9881619D01*
X22227381Y-9895905D01*
X22341666Y-10195905D02*
X22355952Y-10181619D01*
X22384523Y-10138762D01*
X22398809Y-10110191D01*
X22413095Y-10067334D01*
X22427381Y-9995905D01*
X22427381Y-9938762D01*
X22413095Y-9867334D01*
X22398809Y-9824477D01*
X22384523Y-9795905D01*
X22355952Y-9753048D01*
X22341666Y-9738762D01*
X14868095Y-10276905D02*
X14998095Y-10406905D01*
X14998095Y-10276905D02*
X14868095Y-10406905D01*
X14998095Y-10341905D02*
G75*
G03*
X14998095Y-10341905I-65000J0D01*
G01*
X15441666Y-10477619D02*
X15270238Y-10477619D01*
X15355952Y-10477619D02*
X15355952Y-10177619D01*
X15327381Y-10220477D01*
X15298809Y-10249048D01*
X15270238Y-10263334D01*
X15570238Y-10449048D02*
X15584523Y-10463334D01*
X15570238Y-10477619D01*
X15555952Y-10463334D01*
X15570238Y-10449048D01*
X15570238Y-10477619D01*
X15684523Y-10177619D02*
X15870238Y-10177619D01*
X15770238Y-10291905D01*
X15813095Y-10291905D01*
X15841666Y-10306191D01*
X15855952Y-10320477D01*
X15870238Y-10349048D01*
X15870238Y-10420477D01*
X15855952Y-10449048D01*
X15841666Y-10463334D01*
X15813095Y-10477619D01*
X15727381Y-10477619D01*
X15698809Y-10463334D01*
X15684523Y-10449048D01*
X16055952Y-10177619D02*
X16084523Y-10177619D01*
X16113095Y-10191905D01*
X16127381Y-10206191D01*
X16141666Y-10234762D01*
X16155952Y-10291905D01*
X16155952Y-10363334D01*
X16141666Y-10420477D01*
X16127381Y-10449048D01*
X16113095Y-10463334D01*
X16084523Y-10477619D01*
X16055952Y-10477619D01*
X16027381Y-10463334D01*
X16013095Y-10449048D01*
X15998809Y-10420477D01*
X15984523Y-10363334D01*
X15984523Y-10291905D01*
X15998809Y-10234762D01*
X16013095Y-10206191D01*
X16027381Y-10191905D01*
X16055952Y-10177619D01*
X16341666Y-10177619D02*
X16370238Y-10177619D01*
X16398809Y-10191905D01*
X16413095Y-10206191D01*
X16427381Y-10234762D01*
X16441666Y-10291905D01*
X16441666Y-10363334D01*
X16427381Y-10420477D01*
X16413095Y-10449048D01*
X16398809Y-10463334D01*
X16370238Y-10477619D01*
X16341666Y-10477619D01*
X16313095Y-10463334D01*
X16298809Y-10449048D01*
X16284523Y-10420477D01*
X16270238Y-10363334D01*
X16270238Y-10291905D01*
X16284523Y-10234762D01*
X16298809Y-10206191D01*
X16313095Y-10191905D01*
X16341666Y-10177619D01*
X16570238Y-10477619D02*
X16570238Y-10277619D01*
X16570238Y-10306191D02*
X16584523Y-10291905D01*
X16613095Y-10277619D01*
X16655952Y-10277619D01*
X16684523Y-10291905D01*
X16698809Y-10320477D01*
X16698809Y-10477619D01*
X16698809Y-10320477D02*
X16713095Y-10291905D01*
X16741666Y-10277619D01*
X16784523Y-10277619D01*
X16813095Y-10291905D01*
X16827381Y-10320477D01*
X16827381Y-10477619D01*
X16970238Y-10477619D02*
X16970238Y-10277619D01*
X16970238Y-10306191D02*
X16984523Y-10291905D01*
X17013095Y-10277619D01*
X17055952Y-10277619D01*
X17084523Y-10291905D01*
X17098809Y-10320477D01*
X17098809Y-10477619D01*
X17098809Y-10320477D02*
X17113095Y-10291905D01*
X17141666Y-10277619D01*
X17184523Y-10277619D01*
X17213095Y-10291905D01*
X17227381Y-10320477D01*
X17227381Y-10477619D01*
X17813095Y-10163334D02*
X17555952Y-10549048D01*
X18198809Y-10177619D02*
X18227381Y-10177619D01*
X18255952Y-10191905D01*
X18270238Y-10206191D01*
X18284523Y-10234762D01*
X18298809Y-10291905D01*
X18298809Y-10363334D01*
X18284523Y-10420477D01*
X18270238Y-10449048D01*
X18255952Y-10463334D01*
X18227381Y-10477619D01*
X18198809Y-10477619D01*
X18170238Y-10463334D01*
X18155952Y-10449048D01*
X18141666Y-10420477D01*
X18127381Y-10363334D01*
X18127381Y-10291905D01*
X18141666Y-10234762D01*
X18155952Y-10206191D01*
X18170238Y-10191905D01*
X18198809Y-10177619D01*
X18427381Y-10449048D02*
X18441666Y-10463334D01*
X18427381Y-10477619D01*
X18413095Y-10463334D01*
X18427381Y-10449048D01*
X18427381Y-10477619D01*
X18627381Y-10177619D02*
X18655952Y-10177619D01*
X18684523Y-10191905D01*
X18698809Y-10206191D01*
X18713095Y-10234762D01*
X18727381Y-10291905D01*
X18727381Y-10363334D01*
X18713095Y-10420477D01*
X18698809Y-10449048D01*
X18684523Y-10463334D01*
X18655952Y-10477619D01*
X18627381Y-10477619D01*
X18598809Y-10463334D01*
X18584523Y-10449048D01*
X18570238Y-10420477D01*
X18555952Y-10363334D01*
X18555952Y-10291905D01*
X18570238Y-10234762D01*
X18584523Y-10206191D01*
X18598809Y-10191905D01*
X18627381Y-10177619D01*
X18998809Y-10177619D02*
X18855952Y-10177619D01*
X18841666Y-10320477D01*
X18855952Y-10306191D01*
X18884523Y-10291905D01*
X18955952Y-10291905D01*
X18984523Y-10306191D01*
X18998809Y-10320477D01*
X19013095Y-10349048D01*
X19013095Y-10420477D01*
X18998809Y-10449048D01*
X18984523Y-10463334D01*
X18955952Y-10477619D01*
X18884523Y-10477619D01*
X18855952Y-10463334D01*
X18841666Y-10449048D01*
X19298809Y-10477619D02*
X19127381Y-10477619D01*
X19213095Y-10477619D02*
X19213095Y-10177619D01*
X19184523Y-10220477D01*
X19155952Y-10249048D01*
X19127381Y-10263334D01*
X19413095Y-10206191D02*
X19427381Y-10191905D01*
X19455952Y-10177619D01*
X19527381Y-10177619D01*
X19555952Y-10191905D01*
X19570238Y-10206191D01*
X19584523Y-10234762D01*
X19584523Y-10263334D01*
X19570238Y-10306191D01*
X19398809Y-10477619D01*
X19584523Y-10477619D01*
X19698809Y-10177619D02*
X19698809Y-10234762D01*
X19813095Y-10177619D02*
X19813095Y-10234762D01*
X20255952Y-10591905D02*
X20241666Y-10577619D01*
X20213095Y-10534762D01*
X20198809Y-10506191D01*
X20184523Y-10463334D01*
X20170238Y-10391905D01*
X20170238Y-10334762D01*
X20184523Y-10263334D01*
X20198809Y-10220477D01*
X20213095Y-10191905D01*
X20241666Y-10149048D01*
X20255952Y-10134762D01*
X20513095Y-10177619D02*
X20370238Y-10177619D01*
X20355952Y-10320477D01*
X20370238Y-10306191D01*
X20398809Y-10291905D01*
X20470238Y-10291905D01*
X20498809Y-10306191D01*
X20513095Y-10320477D01*
X20527381Y-10349048D01*
X20527381Y-10420477D01*
X20513095Y-10449048D01*
X20498809Y-10463334D01*
X20470238Y-10477619D01*
X20398809Y-10477619D01*
X20370238Y-10463334D01*
X20355952Y-10449048D01*
X20884523Y-10477619D02*
X20884523Y-10177619D01*
X21013095Y-10477619D02*
X21013095Y-10320477D01*
X20998809Y-10291905D01*
X20970238Y-10277619D01*
X20927381Y-10277619D01*
X20898809Y-10291905D01*
X20884523Y-10306191D01*
X21198809Y-10477619D02*
X21170238Y-10463334D01*
X21155952Y-10449048D01*
X21141666Y-10420477D01*
X21141666Y-10334762D01*
X21155952Y-10306191D01*
X21170238Y-10291905D01*
X21198809Y-10277619D01*
X21241666Y-10277619D01*
X21270238Y-10291905D01*
X21284523Y-10306191D01*
X21298809Y-10334762D01*
X21298809Y-10420477D01*
X21284523Y-10449048D01*
X21270238Y-10463334D01*
X21241666Y-10477619D01*
X21198809Y-10477619D01*
X21470238Y-10477619D02*
X21441666Y-10463334D01*
X21427381Y-10434762D01*
X21427381Y-10177619D01*
X21698809Y-10463334D02*
X21670238Y-10477619D01*
X21613095Y-10477619D01*
X21584523Y-10463334D01*
X21570238Y-10434762D01*
X21570238Y-10320477D01*
X21584523Y-10291905D01*
X21613095Y-10277619D01*
X21670238Y-10277619D01*
X21698809Y-10291905D01*
X21713095Y-10320477D01*
X21713095Y-10349048D01*
X21570238Y-10377619D01*
X21827381Y-10463334D02*
X21855952Y-10477619D01*
X21913095Y-10477619D01*
X21941666Y-10463334D01*
X21955952Y-10434762D01*
X21955952Y-10420477D01*
X21941666Y-10391905D01*
X21913095Y-10377619D01*
X21870238Y-10377619D01*
X21841666Y-10363334D01*
X21827381Y-10334762D01*
X21827381Y-10320477D01*
X21841666Y-10291905D01*
X21870238Y-10277619D01*
X21913095Y-10277619D01*
X21941666Y-10291905D01*
X22055952Y-10591905D02*
X22070238Y-10577619D01*
X22098809Y-10534762D01*
X22113095Y-10506191D01*
X22127381Y-10463334D01*
X22141666Y-10391905D01*
X22141666Y-10334762D01*
X22127381Y-10263334D01*
X22113095Y-10220477D01*
X22098809Y-10191905D01*
X22070238Y-10149048D01*
X22055952Y-10134762D01*
M02*
