G04 #@! TF.GenerationSoftware,KiCad,Pcbnew,(5.1.10)-1*
G04 #@! TF.CreationDate,2022-05-27T17:28:41+02:00*
G04 #@! TF.ProjectId,pullup_counter_schematic,70756c6c-7570-45f6-936f-756e7465725f,1*
G04 #@! TF.SameCoordinates,Original*
G04 #@! TF.FileFunction,Legend,Top*
G04 #@! TF.FilePolarity,Positive*
%FSLAX46Y46*%
G04 Gerber Fmt 4.6, Leading zero omitted, Abs format (unit mm)*
G04 Created by KiCad (PCBNEW (5.1.10)-1) date 2022-05-27 17:28:41*
%MOMM*%
%LPD*%
G01*
G04 APERTURE LIST*
%ADD10C,0.152400*%
%ADD11C,0.120000*%
%ADD12C,0.150000*%
%ADD13R,0.800000X1.500000*%
%ADD14R,0.900000X1.300000*%
%ADD15C,1.524000*%
%ADD16R,1.900000X0.800000*%
%ADD17R,0.800000X1.900000*%
%ADD18R,1.800000X3.500000*%
%ADD19R,1.220000X0.650000*%
%ADD20C,3.200000*%
%ADD21C,1.500000*%
%ADD22R,0.600000X1.500000*%
%ADD23C,1.700000*%
%ADD24O,1.550000X0.890000*%
%ADD25R,1.550000X1.200000*%
%ADD26R,1.550000X1.500000*%
%ADD27O,0.950000X1.250000*%
%ADD28R,1.350000X0.400000*%
%ADD29C,2.000000*%
G04 APERTURE END LIST*
D10*
X157255123Y-86810295D02*
X157255123Y-85997495D01*
X157564761Y-85997495D01*
X157642171Y-86036200D01*
X157680876Y-86074904D01*
X157719580Y-86152314D01*
X157719580Y-86268428D01*
X157680876Y-86345838D01*
X157642171Y-86384542D01*
X157564761Y-86423247D01*
X157255123Y-86423247D01*
X158416266Y-86268428D02*
X158416266Y-86810295D01*
X158067923Y-86268428D02*
X158067923Y-86694180D01*
X158106628Y-86771590D01*
X158184038Y-86810295D01*
X158300152Y-86810295D01*
X158377561Y-86771590D01*
X158416266Y-86732885D01*
X158919428Y-86810295D02*
X158842019Y-86771590D01*
X158803314Y-86694180D01*
X158803314Y-85997495D01*
X159345180Y-86810295D02*
X159267771Y-86771590D01*
X159229066Y-86694180D01*
X159229066Y-85997495D01*
X159654819Y-86500657D02*
X160274095Y-86500657D01*
X161009485Y-86268428D02*
X161009485Y-86810295D01*
X160661142Y-86268428D02*
X160661142Y-86694180D01*
X160699847Y-86771590D01*
X160777257Y-86810295D01*
X160893371Y-86810295D01*
X160970780Y-86771590D01*
X161009485Y-86732885D01*
X161396533Y-86268428D02*
X161396533Y-87081228D01*
X161396533Y-86307133D02*
X161473942Y-86268428D01*
X161628761Y-86268428D01*
X161706171Y-86307133D01*
X161744876Y-86345838D01*
X161783580Y-86423247D01*
X161783580Y-86655476D01*
X161744876Y-86732885D01*
X161706171Y-86771590D01*
X161628761Y-86810295D01*
X161473942Y-86810295D01*
X161396533Y-86771590D01*
X157816342Y-88104485D02*
X157777638Y-88143190D01*
X157661523Y-88181895D01*
X157584114Y-88181895D01*
X157468000Y-88143190D01*
X157390590Y-88065780D01*
X157351885Y-87988371D01*
X157313180Y-87833552D01*
X157313180Y-87717438D01*
X157351885Y-87562619D01*
X157390590Y-87485209D01*
X157468000Y-87407800D01*
X157584114Y-87369095D01*
X157661523Y-87369095D01*
X157777638Y-87407800D01*
X157816342Y-87446504D01*
X158280800Y-88181895D02*
X158203390Y-88143190D01*
X158164685Y-88104485D01*
X158125980Y-88027076D01*
X158125980Y-87794847D01*
X158164685Y-87717438D01*
X158203390Y-87678733D01*
X158280800Y-87640028D01*
X158396914Y-87640028D01*
X158474323Y-87678733D01*
X158513028Y-87717438D01*
X158551733Y-87794847D01*
X158551733Y-88027076D01*
X158513028Y-88104485D01*
X158474323Y-88143190D01*
X158396914Y-88181895D01*
X158280800Y-88181895D01*
X159248419Y-87640028D02*
X159248419Y-88181895D01*
X158900076Y-87640028D02*
X158900076Y-88065780D01*
X158938780Y-88143190D01*
X159016190Y-88181895D01*
X159132304Y-88181895D01*
X159209714Y-88143190D01*
X159248419Y-88104485D01*
X159635466Y-87640028D02*
X159635466Y-88181895D01*
X159635466Y-87717438D02*
X159674171Y-87678733D01*
X159751580Y-87640028D01*
X159867695Y-87640028D01*
X159945104Y-87678733D01*
X159983809Y-87756142D01*
X159983809Y-88181895D01*
X160254742Y-87640028D02*
X160564380Y-87640028D01*
X160370857Y-87369095D02*
X160370857Y-88065780D01*
X160409561Y-88143190D01*
X160486971Y-88181895D01*
X160564380Y-88181895D01*
X161144952Y-88143190D02*
X161067542Y-88181895D01*
X160912723Y-88181895D01*
X160835314Y-88143190D01*
X160796609Y-88065780D01*
X160796609Y-87756142D01*
X160835314Y-87678733D01*
X160912723Y-87640028D01*
X161067542Y-87640028D01*
X161144952Y-87678733D01*
X161183657Y-87756142D01*
X161183657Y-87833552D01*
X160796609Y-87910961D01*
X161532000Y-88181895D02*
X161532000Y-87640028D01*
X161532000Y-87794847D02*
X161570704Y-87717438D01*
X161609409Y-87678733D01*
X161686819Y-87640028D01*
X161764228Y-87640028D01*
X158454971Y-88740695D02*
X158725904Y-89553495D01*
X158996838Y-88740695D01*
X159422590Y-88740695D02*
X159500000Y-88740695D01*
X159577409Y-88779400D01*
X159616114Y-88818104D01*
X159654819Y-88895514D01*
X159693523Y-89050333D01*
X159693523Y-89243857D01*
X159654819Y-89398676D01*
X159616114Y-89476085D01*
X159577409Y-89514790D01*
X159500000Y-89553495D01*
X159422590Y-89553495D01*
X159345180Y-89514790D01*
X159306476Y-89476085D01*
X159267771Y-89398676D01*
X159229066Y-89243857D01*
X159229066Y-89050333D01*
X159267771Y-88895514D01*
X159306476Y-88818104D01*
X159345180Y-88779400D01*
X159422590Y-88740695D01*
X160003161Y-88818104D02*
X160041866Y-88779400D01*
X160119276Y-88740695D01*
X160312800Y-88740695D01*
X160390209Y-88779400D01*
X160428914Y-88818104D01*
X160467619Y-88895514D01*
X160467619Y-88972923D01*
X160428914Y-89089038D01*
X159964457Y-89553495D01*
X160467619Y-89553495D01*
X156848723Y-90499342D02*
X156964838Y-90538047D01*
X157003542Y-90576752D01*
X157042247Y-90654161D01*
X157042247Y-90770276D01*
X157003542Y-90847685D01*
X156964838Y-90886390D01*
X156887428Y-90925095D01*
X156577790Y-90925095D01*
X156577790Y-90112295D01*
X156848723Y-90112295D01*
X156926133Y-90151000D01*
X156964838Y-90189704D01*
X157003542Y-90267114D01*
X157003542Y-90344523D01*
X156964838Y-90421933D01*
X156926133Y-90460638D01*
X156848723Y-90499342D01*
X156577790Y-90499342D01*
X157313180Y-90383228D02*
X157506704Y-90925095D01*
X157700228Y-90383228D02*
X157506704Y-90925095D01*
X157429295Y-91118619D01*
X157390590Y-91157323D01*
X157313180Y-91196028D01*
X158629142Y-90925095D02*
X158629142Y-90112295D01*
X158900076Y-90692866D01*
X159171009Y-90112295D01*
X159171009Y-90925095D01*
X159558057Y-90925095D02*
X159558057Y-90112295D01*
X160022514Y-90925095D02*
X159674171Y-90460638D01*
X160022514Y-90112295D02*
X159558057Y-90576752D01*
X160370857Y-90925095D02*
X160370857Y-90383228D01*
X160370857Y-90538047D02*
X160409561Y-90460638D01*
X160448266Y-90421933D01*
X160525676Y-90383228D01*
X160603085Y-90383228D01*
X160796609Y-90383228D02*
X160990133Y-90925095D01*
X161183657Y-90383228D02*
X160990133Y-90925095D01*
X160912723Y-91118619D01*
X160874019Y-91157323D01*
X160796609Y-91196028D01*
X161454590Y-90886390D02*
X161532000Y-90925095D01*
X161686819Y-90925095D01*
X161764228Y-90886390D01*
X161802933Y-90808980D01*
X161802933Y-90770276D01*
X161764228Y-90692866D01*
X161686819Y-90654161D01*
X161570704Y-90654161D01*
X161493295Y-90615457D01*
X161454590Y-90538047D01*
X161454590Y-90499342D01*
X161493295Y-90421933D01*
X161570704Y-90383228D01*
X161686819Y-90383228D01*
X161764228Y-90421933D01*
X162073866Y-90383228D02*
X162499619Y-90383228D01*
X162073866Y-90925095D01*
X162499619Y-90925095D01*
X149745638Y-59554895D02*
X149745638Y-60135466D01*
X149706933Y-60251580D01*
X149629523Y-60328990D01*
X149513409Y-60367695D01*
X149436000Y-60367695D01*
X150519733Y-60367695D02*
X150132685Y-60367695D01*
X150132685Y-59554895D01*
X151255123Y-60290285D02*
X151216419Y-60328990D01*
X151100304Y-60367695D01*
X151022895Y-60367695D01*
X150906780Y-60328990D01*
X150829371Y-60251580D01*
X150790666Y-60174171D01*
X150751961Y-60019352D01*
X150751961Y-59903238D01*
X150790666Y-59748419D01*
X150829371Y-59671009D01*
X150906780Y-59593600D01*
X151022895Y-59554895D01*
X151100304Y-59554895D01*
X151216419Y-59593600D01*
X151255123Y-59632304D01*
X151835695Y-59554895D02*
X151835695Y-60135466D01*
X151796990Y-60251580D01*
X151719580Y-60328990D01*
X151603466Y-60367695D01*
X151526057Y-60367695D01*
X152609790Y-60367695D02*
X152222742Y-60367695D01*
X152222742Y-59554895D01*
X153345180Y-60290285D02*
X153306476Y-60328990D01*
X153190361Y-60367695D01*
X153112952Y-60367695D01*
X152996838Y-60328990D01*
X152919428Y-60251580D01*
X152880723Y-60174171D01*
X152842019Y-60019352D01*
X152842019Y-59903238D01*
X152880723Y-59748419D01*
X152919428Y-59671009D01*
X152996838Y-59593600D01*
X153112952Y-59554895D01*
X153190361Y-59554895D01*
X153306476Y-59593600D01*
X153345180Y-59632304D01*
X153925752Y-59554895D02*
X153925752Y-60135466D01*
X153887047Y-60251580D01*
X153809638Y-60328990D01*
X153693523Y-60367695D01*
X153616114Y-60367695D01*
X154699847Y-60367695D02*
X154312800Y-60367695D01*
X154312800Y-59554895D01*
X155435238Y-60290285D02*
X155396533Y-60328990D01*
X155280419Y-60367695D01*
X155203009Y-60367695D01*
X155086895Y-60328990D01*
X155009485Y-60251580D01*
X154970780Y-60174171D01*
X154932076Y-60019352D01*
X154932076Y-59903238D01*
X154970780Y-59748419D01*
X155009485Y-59671009D01*
X155086895Y-59593600D01*
X155203009Y-59554895D01*
X155280419Y-59554895D01*
X155396533Y-59593600D01*
X155435238Y-59632304D01*
X156015809Y-59554895D02*
X156015809Y-60135466D01*
X155977104Y-60251580D01*
X155899695Y-60328990D01*
X155783580Y-60367695D01*
X155706171Y-60367695D01*
X156789904Y-60367695D02*
X156402857Y-60367695D01*
X156402857Y-59554895D01*
X157525295Y-60290285D02*
X157486590Y-60328990D01*
X157370476Y-60367695D01*
X157293066Y-60367695D01*
X157176952Y-60328990D01*
X157099542Y-60251580D01*
X157060838Y-60174171D01*
X157022133Y-60019352D01*
X157022133Y-59903238D01*
X157060838Y-59748419D01*
X157099542Y-59671009D01*
X157176952Y-59593600D01*
X157293066Y-59554895D01*
X157370476Y-59554895D01*
X157486590Y-59593600D01*
X157525295Y-59632304D01*
X131328990Y-94106247D02*
X131367695Y-93990133D01*
X131367695Y-93796609D01*
X131328990Y-93719200D01*
X131290285Y-93680495D01*
X131212876Y-93641790D01*
X131135466Y-93641790D01*
X131058057Y-93680495D01*
X131019352Y-93719200D01*
X130980647Y-93796609D01*
X130941942Y-93951428D01*
X130903238Y-94028838D01*
X130864533Y-94067542D01*
X130787123Y-94106247D01*
X130709714Y-94106247D01*
X130632304Y-94067542D01*
X130593600Y-94028838D01*
X130554895Y-93951428D01*
X130554895Y-93757904D01*
X130593600Y-93641790D01*
X130554895Y-93409561D02*
X130554895Y-92945104D01*
X131367695Y-93177333D02*
X130554895Y-93177333D01*
X131135466Y-92712876D02*
X131135466Y-92325828D01*
X131367695Y-92790285D02*
X130554895Y-92519352D01*
X131367695Y-92248419D01*
X131367695Y-91513028D02*
X130980647Y-91783961D01*
X131367695Y-91977485D02*
X130554895Y-91977485D01*
X130554895Y-91667847D01*
X130593600Y-91590438D01*
X130632304Y-91551733D01*
X130709714Y-91513028D01*
X130825828Y-91513028D01*
X130903238Y-91551733D01*
X130941942Y-91590438D01*
X130980647Y-91667847D01*
X130980647Y-91977485D01*
X130554895Y-91280800D02*
X130554895Y-90816342D01*
X131367695Y-91048571D02*
X130554895Y-91048571D01*
X119367695Y-92945104D02*
X118980647Y-93216038D01*
X119367695Y-93409561D02*
X118554895Y-93409561D01*
X118554895Y-93099923D01*
X118593600Y-93022514D01*
X118632304Y-92983809D01*
X118709714Y-92945104D01*
X118825828Y-92945104D01*
X118903238Y-92983809D01*
X118941942Y-93022514D01*
X118980647Y-93099923D01*
X118980647Y-93409561D01*
X119328990Y-92635466D02*
X119367695Y-92519352D01*
X119367695Y-92325828D01*
X119328990Y-92248419D01*
X119290285Y-92209714D01*
X119212876Y-92171009D01*
X119135466Y-92171009D01*
X119058057Y-92209714D01*
X119019352Y-92248419D01*
X118980647Y-92325828D01*
X118941942Y-92480647D01*
X118903238Y-92558057D01*
X118864533Y-92596761D01*
X118787123Y-92635466D01*
X118709714Y-92635466D01*
X118632304Y-92596761D01*
X118593600Y-92558057D01*
X118554895Y-92480647D01*
X118554895Y-92287123D01*
X118593600Y-92171009D01*
X118554895Y-91938780D02*
X118554895Y-91474323D01*
X119367695Y-91706552D02*
X118554895Y-91706552D01*
X124941942Y-93603085D02*
X124980647Y-93486971D01*
X125019352Y-93448266D01*
X125096761Y-93409561D01*
X125212876Y-93409561D01*
X125290285Y-93448266D01*
X125328990Y-93486971D01*
X125367695Y-93564380D01*
X125367695Y-93874019D01*
X124554895Y-93874019D01*
X124554895Y-93603085D01*
X124593600Y-93525676D01*
X124632304Y-93486971D01*
X124709714Y-93448266D01*
X124787123Y-93448266D01*
X124864533Y-93486971D01*
X124903238Y-93525676D01*
X124941942Y-93603085D01*
X124941942Y-93874019D01*
X124554895Y-92906400D02*
X124554895Y-92751580D01*
X124593600Y-92674171D01*
X124671009Y-92596761D01*
X124825828Y-92558057D01*
X125096761Y-92558057D01*
X125251580Y-92596761D01*
X125328990Y-92674171D01*
X125367695Y-92751580D01*
X125367695Y-92906400D01*
X125328990Y-92983809D01*
X125251580Y-93061219D01*
X125096761Y-93099923D01*
X124825828Y-93099923D01*
X124671009Y-93061219D01*
X124593600Y-92983809D01*
X124554895Y-92906400D01*
X124554895Y-92054895D02*
X124554895Y-91900076D01*
X124593600Y-91822666D01*
X124671009Y-91745257D01*
X124825828Y-91706552D01*
X125096761Y-91706552D01*
X125251580Y-91745257D01*
X125328990Y-91822666D01*
X125367695Y-91900076D01*
X125367695Y-92054895D01*
X125328990Y-92132304D01*
X125251580Y-92209714D01*
X125096761Y-92248419D01*
X124825828Y-92248419D01*
X124671009Y-92209714D01*
X124593600Y-92132304D01*
X124554895Y-92054895D01*
X124554895Y-91474323D02*
X124554895Y-91009866D01*
X125367695Y-91242095D02*
X124554895Y-91242095D01*
D11*
X135060000Y-60475000D02*
X135060000Y-58525000D01*
X135060000Y-60475000D02*
X135060000Y-62425000D01*
X129940000Y-60475000D02*
X129940000Y-58525000D01*
X129940000Y-60475000D02*
X129940000Y-63925000D01*
X143100000Y-92700000D02*
X146100000Y-92700000D01*
X142700000Y-93100000D02*
X142700000Y-95400000D01*
X142700000Y-93100000D02*
X143100000Y-92700000D01*
X146100000Y-92700000D02*
X146100000Y-95400000D01*
X146100000Y-95400000D02*
X142700000Y-95400000D01*
X124970000Y-40710000D02*
X124740000Y-40710000D01*
X120250000Y-40710000D02*
X120480000Y-40710000D01*
X120250000Y-40710000D02*
X120250000Y-37990000D01*
X120250000Y-37990000D02*
X121560000Y-37990000D01*
X120480000Y-41850000D02*
X120480000Y-40710000D01*
X124970000Y-37990000D02*
X124970000Y-40710000D01*
X123660000Y-37990000D02*
X124970000Y-37990000D01*
X110860000Y-76060000D02*
X110630000Y-76060000D01*
X106140000Y-76060000D02*
X106370000Y-76060000D01*
X106140000Y-76060000D02*
X106140000Y-73340000D01*
X106140000Y-73340000D02*
X107450000Y-73340000D01*
X106370000Y-77200000D02*
X106370000Y-76060000D01*
X110860000Y-73340000D02*
X110860000Y-76060000D01*
X109550000Y-73340000D02*
X110860000Y-73340000D01*
X149735000Y-93227064D02*
X149735000Y-92772936D01*
X148265000Y-93227064D02*
X148265000Y-92772936D01*
X141235000Y-91227064D02*
X141235000Y-90772936D01*
X139765000Y-91227064D02*
X139765000Y-90772936D01*
X140227064Y-85765000D02*
X139772936Y-85765000D01*
X140227064Y-87235000D02*
X139772936Y-87235000D01*
X115765000Y-94772936D02*
X115765000Y-95227064D01*
X117235000Y-94772936D02*
X117235000Y-95227064D01*
X114235000Y-95227064D02*
X114235000Y-94772936D01*
X112765000Y-95227064D02*
X112765000Y-94772936D01*
X111235000Y-95227064D02*
X111235000Y-94772936D01*
X109765000Y-95227064D02*
X109765000Y-94772936D01*
X106765000Y-94772936D02*
X106765000Y-95227064D01*
X108235000Y-94772936D02*
X108235000Y-95227064D01*
X159235000Y-41977064D02*
X159235000Y-41522936D01*
X157765000Y-41977064D02*
X157765000Y-41522936D01*
X154735000Y-41977064D02*
X154735000Y-41522936D01*
X153265000Y-41977064D02*
X153265000Y-41522936D01*
X142485000Y-47477064D02*
X142485000Y-47022936D01*
X141015000Y-47477064D02*
X141015000Y-47022936D01*
X149960000Y-47487064D02*
X149960000Y-47032936D01*
X148490000Y-47487064D02*
X148490000Y-47032936D01*
X137485000Y-47477064D02*
X137485000Y-47022936D01*
X136015000Y-47477064D02*
X136015000Y-47022936D01*
X139985000Y-47477064D02*
X139985000Y-47022936D01*
X138515000Y-47477064D02*
X138515000Y-47022936D01*
X134985000Y-47477064D02*
X134985000Y-47022936D01*
X133515000Y-47477064D02*
X133515000Y-47022936D01*
X147485000Y-47477064D02*
X147485000Y-47022936D01*
X146015000Y-47477064D02*
X146015000Y-47022936D01*
X144985000Y-47477064D02*
X144985000Y-47022936D01*
X143515000Y-47477064D02*
X143515000Y-47022936D01*
X145760000Y-89580000D02*
X144300000Y-89580000D01*
X145760000Y-86420000D02*
X142600000Y-86420000D01*
X145760000Y-86420000D02*
X145760000Y-87350000D01*
X145760000Y-89580000D02*
X145760000Y-88650000D01*
X114580000Y-87240000D02*
X114580000Y-88700000D01*
X111420000Y-87240000D02*
X111420000Y-90400000D01*
X111420000Y-87240000D02*
X112350000Y-87240000D01*
X114580000Y-87240000D02*
X113650000Y-87240000D01*
X109580000Y-87240000D02*
X109580000Y-88700000D01*
X106420000Y-87240000D02*
X106420000Y-90400000D01*
X106420000Y-87240000D02*
X107350000Y-87240000D01*
X109580000Y-87240000D02*
X108650000Y-87240000D01*
X155900000Y-47520000D02*
X155900000Y-46060000D01*
X159060000Y-47520000D02*
X159060000Y-44360000D01*
X159060000Y-47520000D02*
X158130000Y-47520000D01*
X155900000Y-47520000D02*
X156830000Y-47520000D01*
X151455000Y-47520000D02*
X151455000Y-46060000D01*
X154615000Y-47520000D02*
X154615000Y-44360000D01*
X154615000Y-47520000D02*
X153685000Y-47520000D01*
X151455000Y-47520000D02*
X152385000Y-47520000D01*
X125850000Y-52900000D02*
X125850000Y-46000000D01*
X129150000Y-52900000D02*
X129150000Y-46000000D01*
X125850000Y-52900000D02*
X129150000Y-52900000D01*
X125875000Y-39851248D02*
X125875000Y-40373752D01*
X127345000Y-39851248D02*
X127345000Y-40373752D01*
X128375000Y-39851248D02*
X128375000Y-40373752D01*
X129845000Y-39851248D02*
X129845000Y-40373752D01*
X117875000Y-39851248D02*
X117875000Y-40373752D01*
X119345000Y-39851248D02*
X119345000Y-40373752D01*
X111265000Y-80276248D02*
X111265000Y-80798752D01*
X112735000Y-80276248D02*
X112735000Y-80798752D01*
X108765000Y-80276248D02*
X108765000Y-80798752D01*
X110235000Y-80276248D02*
X110235000Y-80798752D01*
X106265000Y-80276248D02*
X106265000Y-80798752D01*
X107735000Y-80276248D02*
X107735000Y-80798752D01*
X157090000Y-93055000D02*
X155330000Y-93055000D01*
X155330000Y-96125000D02*
X157760000Y-96125000D01*
X138490000Y-76283766D02*
X138490000Y-75991232D01*
X139510000Y-76283766D02*
X139510000Y-75991232D01*
X139510000Y-80216234D02*
X139510000Y-80508768D01*
X138490000Y-80216234D02*
X138490000Y-80508768D01*
X140475000Y-81640000D02*
X140475000Y-75240000D01*
X145525000Y-81640000D02*
X145525000Y-75240000D01*
X145525000Y-75240000D02*
G75*
G03*
X140475000Y-75240000I-2525000J0D01*
G01*
X145525000Y-81640000D02*
G75*
G02*
X140475000Y-81640000I-2525000J0D01*
G01*
X128840000Y-72390000D02*
X128390000Y-72390000D01*
X128390000Y-72390000D02*
X128390000Y-72840000D01*
X135160000Y-72390000D02*
X135610000Y-72390000D01*
X135610000Y-72390000D02*
X135610000Y-72840000D01*
X128840000Y-79610000D02*
X128390000Y-79610000D01*
X128390000Y-79610000D02*
X128390000Y-79160000D01*
X135160000Y-79610000D02*
X135610000Y-79610000D01*
X135610000Y-79610000D02*
X135610000Y-79160000D01*
X135610000Y-79160000D02*
X136900000Y-79160000D01*
X156845000Y-73045000D02*
X154895000Y-73045000D01*
X156845000Y-73045000D02*
X158795000Y-73045000D01*
X156845000Y-83165000D02*
X154895000Y-83165000D01*
X156845000Y-83165000D02*
X160295000Y-83165000D01*
X134150000Y-90500000D02*
X132650000Y-90500000D01*
X134150000Y-94500000D02*
X134150000Y-90500000D01*
X132650000Y-94500000D02*
X134150000Y-94500000D01*
X132650000Y-90500000D02*
X132650000Y-94500000D01*
X135150000Y-89500000D02*
X131650000Y-89500000D01*
X135150000Y-95500000D02*
X135150000Y-89500000D01*
X131650000Y-95500000D02*
X135150000Y-95500000D01*
X131650000Y-89500000D02*
X131650000Y-95500000D01*
X128150000Y-90500000D02*
X126650000Y-90500000D01*
X128150000Y-94500000D02*
X128150000Y-90500000D01*
X126650000Y-94500000D02*
X128150000Y-94500000D01*
X126650000Y-90500000D02*
X126650000Y-94500000D01*
X129150000Y-89500000D02*
X125650000Y-89500000D01*
X129150000Y-95500000D02*
X129150000Y-89500000D01*
X125650000Y-95500000D02*
X129150000Y-95500000D01*
X125650000Y-89500000D02*
X125650000Y-95500000D01*
X120650000Y-94500000D02*
X122150000Y-94500000D01*
X120650000Y-90500000D02*
X120650000Y-94500000D01*
X122150000Y-90500000D02*
X120650000Y-90500000D01*
X122150000Y-94500000D02*
X122150000Y-90500000D01*
X119650000Y-95500000D02*
X123150000Y-95500000D01*
X119650000Y-89500000D02*
X119650000Y-95500000D01*
X123150000Y-89500000D02*
X119650000Y-89500000D01*
X123150000Y-95500000D02*
X123150000Y-89500000D01*
X168345000Y-81727064D02*
X168345000Y-81272936D01*
X169815000Y-81727064D02*
X169815000Y-81272936D01*
X172315000Y-81272936D02*
X172315000Y-81727064D01*
X170845000Y-81272936D02*
X170845000Y-81727064D01*
X132122936Y-85265000D02*
X132577064Y-85265000D01*
X132122936Y-86735000D02*
X132577064Y-86735000D01*
X125772936Y-85265000D02*
X126227064Y-85265000D01*
X125772936Y-86735000D02*
X126227064Y-86735000D01*
X120512064Y-86735000D02*
X120057936Y-86735000D01*
X120512064Y-85265000D02*
X120057936Y-85265000D01*
X169272936Y-75765000D02*
X169727064Y-75765000D01*
X169272936Y-77235000D02*
X169727064Y-77235000D01*
X169727064Y-74735000D02*
X169272936Y-74735000D01*
X169727064Y-73265000D02*
X169272936Y-73265000D01*
X168910000Y-55790000D02*
X178030000Y-55790000D01*
X178030000Y-55790000D02*
X178030000Y-71290000D01*
X178030000Y-71290000D02*
X168910000Y-71290000D01*
X168910000Y-71290000D02*
X168910000Y-55790000D01*
X168910000Y-61490000D02*
X170220000Y-61490000D01*
X170220000Y-61490000D02*
X170220000Y-57090000D01*
X170220000Y-57090000D02*
X176720000Y-57090000D01*
X176720000Y-57090000D02*
X176720000Y-69990000D01*
X176720000Y-69990000D02*
X170220000Y-69990000D01*
X170220000Y-69990000D02*
X170220000Y-65590000D01*
X170220000Y-65590000D02*
X170220000Y-65590000D01*
X170220000Y-65590000D02*
X168910000Y-65590000D01*
X168520000Y-61000000D02*
X167520000Y-60500000D01*
X167520000Y-60500000D02*
X167520000Y-61500000D01*
X167520000Y-61500000D02*
X168520000Y-61000000D01*
X174360000Y-79760000D02*
X173910000Y-79760000D01*
X173910000Y-79310000D02*
X173910000Y-79760000D01*
X174590000Y-81760000D02*
X174590000Y-81340000D01*
X176570000Y-81760000D02*
X174590000Y-81760000D01*
X178940000Y-81760000D02*
X178540000Y-81760000D01*
X178540000Y-74240000D02*
X178940000Y-74240000D01*
X174590000Y-74240000D02*
X174590000Y-74660000D01*
X176570000Y-74240000D02*
X174590000Y-74240000D01*
X152500000Y-94756248D02*
X152500000Y-95278752D01*
X151030000Y-94756248D02*
X151030000Y-95278752D01*
X136265000Y-70223752D02*
X136265000Y-69701248D01*
X137735000Y-70223752D02*
X137735000Y-69701248D01*
X137235000Y-82276248D02*
X137235000Y-82798752D01*
X135765000Y-82276248D02*
X135765000Y-82798752D01*
X125761252Y-81735000D02*
X125238748Y-81735000D01*
X125761252Y-80265000D02*
X125238748Y-80265000D01*
X126223752Y-71735000D02*
X125701248Y-71735000D01*
X126223752Y-70265000D02*
X125701248Y-70265000D01*
X131276248Y-53765000D02*
X131798752Y-53765000D01*
X131276248Y-55235000D02*
X131798752Y-55235000D01*
X161390000Y-94756248D02*
X161390000Y-95278752D01*
X159920000Y-94756248D02*
X159920000Y-95278752D01*
X163336248Y-77370000D02*
X163858752Y-77370000D01*
X163336248Y-78840000D02*
X163858752Y-78840000D01*
X164655000Y-81238748D02*
X164655000Y-81761252D01*
X163185000Y-81238748D02*
X163185000Y-81761252D01*
X167155000Y-81276248D02*
X167155000Y-81798752D01*
X165685000Y-81276248D02*
X165685000Y-81798752D01*
X108182167Y-49926348D02*
X102959084Y-55191674D01*
X123111627Y-64737615D02*
X125091526Y-66717514D01*
X125091526Y-66717514D02*
X119717514Y-72091526D01*
X119717514Y-72091526D02*
X117666905Y-70040916D01*
X117723345Y-70081170D02*
G75*
G02*
X102959085Y-55191674I-4723345J10081170D01*
G01*
X108182166Y-49926348D02*
G75*
G02*
X123111626Y-64737615I4817834J-10073652D01*
G01*
D12*
X128552380Y-61236904D02*
X129361904Y-61236904D01*
X129457142Y-61189285D01*
X129504761Y-61141666D01*
X129552380Y-61046428D01*
X129552380Y-60855952D01*
X129504761Y-60760714D01*
X129457142Y-60713095D01*
X129361904Y-60665476D01*
X128552380Y-60665476D01*
X128552380Y-59713095D02*
X128552380Y-60189285D01*
X129028571Y-60236904D01*
X128980952Y-60189285D01*
X128933333Y-60094047D01*
X128933333Y-59855952D01*
X128980952Y-59760714D01*
X129028571Y-59713095D01*
X129123809Y-59665476D01*
X129361904Y-59665476D01*
X129457142Y-59713095D01*
X129504761Y-59760714D01*
X129552380Y-59855952D01*
X129552380Y-60094047D01*
X129504761Y-60189285D01*
X129457142Y-60236904D01*
X140738095Y-93452380D02*
X140738095Y-94261904D01*
X140785714Y-94357142D01*
X140833333Y-94404761D01*
X140928571Y-94452380D01*
X141119047Y-94452380D01*
X141214285Y-94404761D01*
X141261904Y-94357142D01*
X141309523Y-94261904D01*
X141309523Y-93452380D01*
X141928571Y-93880952D02*
X141833333Y-93833333D01*
X141785714Y-93785714D01*
X141738095Y-93690476D01*
X141738095Y-93642857D01*
X141785714Y-93547619D01*
X141833333Y-93500000D01*
X141928571Y-93452380D01*
X142119047Y-93452380D01*
X142214285Y-93500000D01*
X142261904Y-93547619D01*
X142309523Y-93642857D01*
X142309523Y-93690476D01*
X142261904Y-93785714D01*
X142214285Y-93833333D01*
X142119047Y-93880952D01*
X141928571Y-93880952D01*
X141833333Y-93928571D01*
X141785714Y-93976190D01*
X141738095Y-94071428D01*
X141738095Y-94261904D01*
X141785714Y-94357142D01*
X141833333Y-94404761D01*
X141928571Y-94452380D01*
X142119047Y-94452380D01*
X142214285Y-94404761D01*
X142261904Y-94357142D01*
X142309523Y-94261904D01*
X142309523Y-94071428D01*
X142261904Y-93976190D01*
X142214285Y-93928571D01*
X142119047Y-93880952D01*
X121848095Y-42602380D02*
X121848095Y-43411904D01*
X121895714Y-43507142D01*
X121943333Y-43554761D01*
X122038571Y-43602380D01*
X122229047Y-43602380D01*
X122324285Y-43554761D01*
X122371904Y-43507142D01*
X122419523Y-43411904D01*
X122419523Y-42602380D01*
X123324285Y-42935714D02*
X123324285Y-43602380D01*
X123086190Y-42554761D02*
X122848095Y-43269047D01*
X123467142Y-43269047D01*
X107738095Y-70952380D02*
X107738095Y-71761904D01*
X107785714Y-71857142D01*
X107833333Y-71904761D01*
X107928571Y-71952380D01*
X108119047Y-71952380D01*
X108214285Y-71904761D01*
X108261904Y-71857142D01*
X108309523Y-71761904D01*
X108309523Y-70952380D01*
X108738095Y-71047619D02*
X108785714Y-71000000D01*
X108880952Y-70952380D01*
X109119047Y-70952380D01*
X109214285Y-71000000D01*
X109261904Y-71047619D01*
X109309523Y-71142857D01*
X109309523Y-71238095D01*
X109261904Y-71380952D01*
X108690476Y-71952380D01*
X109309523Y-71952380D01*
X148357142Y-95952380D02*
X148023809Y-95476190D01*
X147785714Y-95952380D02*
X147785714Y-94952380D01*
X148166666Y-94952380D01*
X148261904Y-95000000D01*
X148309523Y-95047619D01*
X148357142Y-95142857D01*
X148357142Y-95285714D01*
X148309523Y-95380952D01*
X148261904Y-95428571D01*
X148166666Y-95476190D01*
X147785714Y-95476190D01*
X148738095Y-95047619D02*
X148785714Y-95000000D01*
X148880952Y-94952380D01*
X149119047Y-94952380D01*
X149214285Y-95000000D01*
X149261904Y-95047619D01*
X149309523Y-95142857D01*
X149309523Y-95238095D01*
X149261904Y-95380952D01*
X148690476Y-95952380D01*
X149309523Y-95952380D01*
X149642857Y-94952380D02*
X150261904Y-94952380D01*
X149928571Y-95333333D01*
X150071428Y-95333333D01*
X150166666Y-95380952D01*
X150214285Y-95428571D01*
X150261904Y-95523809D01*
X150261904Y-95761904D01*
X150214285Y-95857142D01*
X150166666Y-95904761D01*
X150071428Y-95952380D01*
X149785714Y-95952380D01*
X149690476Y-95904761D01*
X149642857Y-95857142D01*
X139302380Y-91642857D02*
X138826190Y-91976190D01*
X139302380Y-92214285D02*
X138302380Y-92214285D01*
X138302380Y-91833333D01*
X138350000Y-91738095D01*
X138397619Y-91690476D01*
X138492857Y-91642857D01*
X138635714Y-91642857D01*
X138730952Y-91690476D01*
X138778571Y-91738095D01*
X138826190Y-91833333D01*
X138826190Y-92214285D01*
X138397619Y-91261904D02*
X138350000Y-91214285D01*
X138302380Y-91119047D01*
X138302380Y-90880952D01*
X138350000Y-90785714D01*
X138397619Y-90738095D01*
X138492857Y-90690476D01*
X138588095Y-90690476D01*
X138730952Y-90738095D01*
X139302380Y-91309523D01*
X139302380Y-90690476D01*
X138397619Y-90309523D02*
X138350000Y-90261904D01*
X138302380Y-90166666D01*
X138302380Y-89928571D01*
X138350000Y-89833333D01*
X138397619Y-89785714D01*
X138492857Y-89738095D01*
X138588095Y-89738095D01*
X138730952Y-89785714D01*
X139302380Y-90357142D01*
X139302380Y-89738095D01*
X139357142Y-88602380D02*
X139023809Y-88126190D01*
X138785714Y-88602380D02*
X138785714Y-87602380D01*
X139166666Y-87602380D01*
X139261904Y-87650000D01*
X139309523Y-87697619D01*
X139357142Y-87792857D01*
X139357142Y-87935714D01*
X139309523Y-88030952D01*
X139261904Y-88078571D01*
X139166666Y-88126190D01*
X138785714Y-88126190D01*
X139738095Y-87697619D02*
X139785714Y-87650000D01*
X139880952Y-87602380D01*
X140119047Y-87602380D01*
X140214285Y-87650000D01*
X140261904Y-87697619D01*
X140309523Y-87792857D01*
X140309523Y-87888095D01*
X140261904Y-88030952D01*
X139690476Y-88602380D01*
X140309523Y-88602380D01*
X141261904Y-88602380D02*
X140690476Y-88602380D01*
X140976190Y-88602380D02*
X140976190Y-87602380D01*
X140880952Y-87745238D01*
X140785714Y-87840476D01*
X140690476Y-87888095D01*
X115857142Y-97952380D02*
X115523809Y-97476190D01*
X115285714Y-97952380D02*
X115285714Y-96952380D01*
X115666666Y-96952380D01*
X115761904Y-97000000D01*
X115809523Y-97047619D01*
X115857142Y-97142857D01*
X115857142Y-97285714D01*
X115809523Y-97380952D01*
X115761904Y-97428571D01*
X115666666Y-97476190D01*
X115285714Y-97476190D01*
X116238095Y-97047619D02*
X116285714Y-97000000D01*
X116380952Y-96952380D01*
X116619047Y-96952380D01*
X116714285Y-97000000D01*
X116761904Y-97047619D01*
X116809523Y-97142857D01*
X116809523Y-97238095D01*
X116761904Y-97380952D01*
X116190476Y-97952380D01*
X116809523Y-97952380D01*
X117428571Y-96952380D02*
X117523809Y-96952380D01*
X117619047Y-97000000D01*
X117666666Y-97047619D01*
X117714285Y-97142857D01*
X117761904Y-97333333D01*
X117761904Y-97571428D01*
X117714285Y-97761904D01*
X117666666Y-97857142D01*
X117619047Y-97904761D01*
X117523809Y-97952380D01*
X117428571Y-97952380D01*
X117333333Y-97904761D01*
X117285714Y-97857142D01*
X117238095Y-97761904D01*
X117190476Y-97571428D01*
X117190476Y-97333333D01*
X117238095Y-97142857D01*
X117285714Y-97047619D01*
X117333333Y-97000000D01*
X117428571Y-96952380D01*
X112857142Y-97952380D02*
X112523809Y-97476190D01*
X112285714Y-97952380D02*
X112285714Y-96952380D01*
X112666666Y-96952380D01*
X112761904Y-97000000D01*
X112809523Y-97047619D01*
X112857142Y-97142857D01*
X112857142Y-97285714D01*
X112809523Y-97380952D01*
X112761904Y-97428571D01*
X112666666Y-97476190D01*
X112285714Y-97476190D01*
X113809523Y-97952380D02*
X113238095Y-97952380D01*
X113523809Y-97952380D02*
X113523809Y-96952380D01*
X113428571Y-97095238D01*
X113333333Y-97190476D01*
X113238095Y-97238095D01*
X114285714Y-97952380D02*
X114476190Y-97952380D01*
X114571428Y-97904761D01*
X114619047Y-97857142D01*
X114714285Y-97714285D01*
X114761904Y-97523809D01*
X114761904Y-97142857D01*
X114714285Y-97047619D01*
X114666666Y-97000000D01*
X114571428Y-96952380D01*
X114380952Y-96952380D01*
X114285714Y-97000000D01*
X114238095Y-97047619D01*
X114190476Y-97142857D01*
X114190476Y-97380952D01*
X114238095Y-97476190D01*
X114285714Y-97523809D01*
X114380952Y-97571428D01*
X114571428Y-97571428D01*
X114666666Y-97523809D01*
X114714285Y-97476190D01*
X114761904Y-97380952D01*
X109857142Y-97952380D02*
X109523809Y-97476190D01*
X109285714Y-97952380D02*
X109285714Y-96952380D01*
X109666666Y-96952380D01*
X109761904Y-97000000D01*
X109809523Y-97047619D01*
X109857142Y-97142857D01*
X109857142Y-97285714D01*
X109809523Y-97380952D01*
X109761904Y-97428571D01*
X109666666Y-97476190D01*
X109285714Y-97476190D01*
X110809523Y-97952380D02*
X110238095Y-97952380D01*
X110523809Y-97952380D02*
X110523809Y-96952380D01*
X110428571Y-97095238D01*
X110333333Y-97190476D01*
X110238095Y-97238095D01*
X111380952Y-97380952D02*
X111285714Y-97333333D01*
X111238095Y-97285714D01*
X111190476Y-97190476D01*
X111190476Y-97142857D01*
X111238095Y-97047619D01*
X111285714Y-97000000D01*
X111380952Y-96952380D01*
X111571428Y-96952380D01*
X111666666Y-97000000D01*
X111714285Y-97047619D01*
X111761904Y-97142857D01*
X111761904Y-97190476D01*
X111714285Y-97285714D01*
X111666666Y-97333333D01*
X111571428Y-97380952D01*
X111380952Y-97380952D01*
X111285714Y-97428571D01*
X111238095Y-97476190D01*
X111190476Y-97571428D01*
X111190476Y-97761904D01*
X111238095Y-97857142D01*
X111285714Y-97904761D01*
X111380952Y-97952380D01*
X111571428Y-97952380D01*
X111666666Y-97904761D01*
X111714285Y-97857142D01*
X111761904Y-97761904D01*
X111761904Y-97571428D01*
X111714285Y-97476190D01*
X111666666Y-97428571D01*
X111571428Y-97380952D01*
X106857142Y-97952380D02*
X106523809Y-97476190D01*
X106285714Y-97952380D02*
X106285714Y-96952380D01*
X106666666Y-96952380D01*
X106761904Y-97000000D01*
X106809523Y-97047619D01*
X106857142Y-97142857D01*
X106857142Y-97285714D01*
X106809523Y-97380952D01*
X106761904Y-97428571D01*
X106666666Y-97476190D01*
X106285714Y-97476190D01*
X107809523Y-97952380D02*
X107238095Y-97952380D01*
X107523809Y-97952380D02*
X107523809Y-96952380D01*
X107428571Y-97095238D01*
X107333333Y-97190476D01*
X107238095Y-97238095D01*
X108142857Y-96952380D02*
X108809523Y-96952380D01*
X108380952Y-97952380D01*
X157202380Y-42392857D02*
X156726190Y-42726190D01*
X157202380Y-42964285D02*
X156202380Y-42964285D01*
X156202380Y-42583333D01*
X156250000Y-42488095D01*
X156297619Y-42440476D01*
X156392857Y-42392857D01*
X156535714Y-42392857D01*
X156630952Y-42440476D01*
X156678571Y-42488095D01*
X156726190Y-42583333D01*
X156726190Y-42964285D01*
X157202380Y-41440476D02*
X157202380Y-42011904D01*
X157202380Y-41726190D02*
X156202380Y-41726190D01*
X156345238Y-41821428D01*
X156440476Y-41916666D01*
X156488095Y-42011904D01*
X156535714Y-40583333D02*
X157202380Y-40583333D01*
X156154761Y-40821428D02*
X156869047Y-41059523D01*
X156869047Y-40440476D01*
X152802380Y-42392857D02*
X152326190Y-42726190D01*
X152802380Y-42964285D02*
X151802380Y-42964285D01*
X151802380Y-42583333D01*
X151850000Y-42488095D01*
X151897619Y-42440476D01*
X151992857Y-42392857D01*
X152135714Y-42392857D01*
X152230952Y-42440476D01*
X152278571Y-42488095D01*
X152326190Y-42583333D01*
X152326190Y-42964285D01*
X152802380Y-41440476D02*
X152802380Y-42011904D01*
X152802380Y-41726190D02*
X151802380Y-41726190D01*
X151945238Y-41821428D01*
X152040476Y-41916666D01*
X152088095Y-42011904D01*
X152802380Y-40488095D02*
X152802380Y-41059523D01*
X152802380Y-40773809D02*
X151802380Y-40773809D01*
X151945238Y-40869047D01*
X152040476Y-40964285D01*
X152088095Y-41059523D01*
X141583333Y-50607380D02*
X141250000Y-50131190D01*
X141011904Y-50607380D02*
X141011904Y-49607380D01*
X141392857Y-49607380D01*
X141488095Y-49655000D01*
X141535714Y-49702619D01*
X141583333Y-49797857D01*
X141583333Y-49940714D01*
X141535714Y-50035952D01*
X141488095Y-50083571D01*
X141392857Y-50131190D01*
X141011904Y-50131190D01*
X141916666Y-49607380D02*
X142583333Y-49607380D01*
X142154761Y-50607380D01*
X149058333Y-50617380D02*
X148725000Y-50141190D01*
X148486904Y-50617380D02*
X148486904Y-49617380D01*
X148867857Y-49617380D01*
X148963095Y-49665000D01*
X149010714Y-49712619D01*
X149058333Y-49807857D01*
X149058333Y-49950714D01*
X149010714Y-50045952D01*
X148963095Y-50093571D01*
X148867857Y-50141190D01*
X148486904Y-50141190D01*
X149915476Y-49617380D02*
X149725000Y-49617380D01*
X149629761Y-49665000D01*
X149582142Y-49712619D01*
X149486904Y-49855476D01*
X149439285Y-50045952D01*
X149439285Y-50426904D01*
X149486904Y-50522142D01*
X149534523Y-50569761D01*
X149629761Y-50617380D01*
X149820238Y-50617380D01*
X149915476Y-50569761D01*
X149963095Y-50522142D01*
X150010714Y-50426904D01*
X150010714Y-50188809D01*
X149963095Y-50093571D01*
X149915476Y-50045952D01*
X149820238Y-49998333D01*
X149629761Y-49998333D01*
X149534523Y-50045952D01*
X149486904Y-50093571D01*
X149439285Y-50188809D01*
X136583333Y-50607380D02*
X136250000Y-50131190D01*
X136011904Y-50607380D02*
X136011904Y-49607380D01*
X136392857Y-49607380D01*
X136488095Y-49655000D01*
X136535714Y-49702619D01*
X136583333Y-49797857D01*
X136583333Y-49940714D01*
X136535714Y-50035952D01*
X136488095Y-50083571D01*
X136392857Y-50131190D01*
X136011904Y-50131190D01*
X137488095Y-49607380D02*
X137011904Y-49607380D01*
X136964285Y-50083571D01*
X137011904Y-50035952D01*
X137107142Y-49988333D01*
X137345238Y-49988333D01*
X137440476Y-50035952D01*
X137488095Y-50083571D01*
X137535714Y-50178809D01*
X137535714Y-50416904D01*
X137488095Y-50512142D01*
X137440476Y-50559761D01*
X137345238Y-50607380D01*
X137107142Y-50607380D01*
X137011904Y-50559761D01*
X136964285Y-50512142D01*
X139083333Y-50607380D02*
X138750000Y-50131190D01*
X138511904Y-50607380D02*
X138511904Y-49607380D01*
X138892857Y-49607380D01*
X138988095Y-49655000D01*
X139035714Y-49702619D01*
X139083333Y-49797857D01*
X139083333Y-49940714D01*
X139035714Y-50035952D01*
X138988095Y-50083571D01*
X138892857Y-50131190D01*
X138511904Y-50131190D01*
X139940476Y-49940714D02*
X139940476Y-50607380D01*
X139702380Y-49559761D02*
X139464285Y-50274047D01*
X140083333Y-50274047D01*
X134083333Y-50607380D02*
X133750000Y-50131190D01*
X133511904Y-50607380D02*
X133511904Y-49607380D01*
X133892857Y-49607380D01*
X133988095Y-49655000D01*
X134035714Y-49702619D01*
X134083333Y-49797857D01*
X134083333Y-49940714D01*
X134035714Y-50035952D01*
X133988095Y-50083571D01*
X133892857Y-50131190D01*
X133511904Y-50131190D01*
X134416666Y-49607380D02*
X135035714Y-49607380D01*
X134702380Y-49988333D01*
X134845238Y-49988333D01*
X134940476Y-50035952D01*
X134988095Y-50083571D01*
X135035714Y-50178809D01*
X135035714Y-50416904D01*
X134988095Y-50512142D01*
X134940476Y-50559761D01*
X134845238Y-50607380D01*
X134559523Y-50607380D01*
X134464285Y-50559761D01*
X134416666Y-50512142D01*
X146583333Y-50607380D02*
X146250000Y-50131190D01*
X146011904Y-50607380D02*
X146011904Y-49607380D01*
X146392857Y-49607380D01*
X146488095Y-49655000D01*
X146535714Y-49702619D01*
X146583333Y-49797857D01*
X146583333Y-49940714D01*
X146535714Y-50035952D01*
X146488095Y-50083571D01*
X146392857Y-50131190D01*
X146011904Y-50131190D01*
X146964285Y-49702619D02*
X147011904Y-49655000D01*
X147107142Y-49607380D01*
X147345238Y-49607380D01*
X147440476Y-49655000D01*
X147488095Y-49702619D01*
X147535714Y-49797857D01*
X147535714Y-49893095D01*
X147488095Y-50035952D01*
X146916666Y-50607380D01*
X147535714Y-50607380D01*
X144083333Y-50607380D02*
X143750000Y-50131190D01*
X143511904Y-50607380D02*
X143511904Y-49607380D01*
X143892857Y-49607380D01*
X143988095Y-49655000D01*
X144035714Y-49702619D01*
X144083333Y-49797857D01*
X144083333Y-49940714D01*
X144035714Y-50035952D01*
X143988095Y-50083571D01*
X143892857Y-50131190D01*
X143511904Y-50131190D01*
X145035714Y-50607380D02*
X144464285Y-50607380D01*
X144750000Y-50607380D02*
X144750000Y-49607380D01*
X144654761Y-49750238D01*
X144559523Y-49845476D01*
X144464285Y-49893095D01*
X144904761Y-86047619D02*
X144809523Y-86000000D01*
X144714285Y-85904761D01*
X144571428Y-85761904D01*
X144476190Y-85714285D01*
X144380952Y-85714285D01*
X144428571Y-85952380D02*
X144333333Y-85904761D01*
X144238095Y-85809523D01*
X144190476Y-85619047D01*
X144190476Y-85285714D01*
X144238095Y-85095238D01*
X144333333Y-85000000D01*
X144428571Y-84952380D01*
X144619047Y-84952380D01*
X144714285Y-85000000D01*
X144809523Y-85095238D01*
X144857142Y-85285714D01*
X144857142Y-85619047D01*
X144809523Y-85809523D01*
X144714285Y-85904761D01*
X144619047Y-85952380D01*
X144428571Y-85952380D01*
X145761904Y-84952380D02*
X145285714Y-84952380D01*
X145238095Y-85428571D01*
X145285714Y-85380952D01*
X145380952Y-85333333D01*
X145619047Y-85333333D01*
X145714285Y-85380952D01*
X145761904Y-85428571D01*
X145809523Y-85523809D01*
X145809523Y-85761904D01*
X145761904Y-85857142D01*
X145714285Y-85904761D01*
X145619047Y-85952380D01*
X145380952Y-85952380D01*
X145285714Y-85904761D01*
X145238095Y-85857142D01*
X112904761Y-92047619D02*
X112809523Y-92000000D01*
X112714285Y-91904761D01*
X112571428Y-91761904D01*
X112476190Y-91714285D01*
X112380952Y-91714285D01*
X112428571Y-91952380D02*
X112333333Y-91904761D01*
X112238095Y-91809523D01*
X112190476Y-91619047D01*
X112190476Y-91285714D01*
X112238095Y-91095238D01*
X112333333Y-91000000D01*
X112428571Y-90952380D01*
X112619047Y-90952380D01*
X112714285Y-91000000D01*
X112809523Y-91095238D01*
X112857142Y-91285714D01*
X112857142Y-91619047D01*
X112809523Y-91809523D01*
X112714285Y-91904761D01*
X112619047Y-91952380D01*
X112428571Y-91952380D01*
X113714285Y-91285714D02*
X113714285Y-91952380D01*
X113476190Y-90904761D02*
X113238095Y-91619047D01*
X113857142Y-91619047D01*
X107904761Y-92047619D02*
X107809523Y-92000000D01*
X107714285Y-91904761D01*
X107571428Y-91761904D01*
X107476190Y-91714285D01*
X107380952Y-91714285D01*
X107428571Y-91952380D02*
X107333333Y-91904761D01*
X107238095Y-91809523D01*
X107190476Y-91619047D01*
X107190476Y-91285714D01*
X107238095Y-91095238D01*
X107333333Y-91000000D01*
X107428571Y-90952380D01*
X107619047Y-90952380D01*
X107714285Y-91000000D01*
X107809523Y-91095238D01*
X107857142Y-91285714D01*
X107857142Y-91619047D01*
X107809523Y-91809523D01*
X107714285Y-91904761D01*
X107619047Y-91952380D01*
X107428571Y-91952380D01*
X108190476Y-90952380D02*
X108809523Y-90952380D01*
X108476190Y-91333333D01*
X108619047Y-91333333D01*
X108714285Y-91380952D01*
X108761904Y-91428571D01*
X108809523Y-91523809D01*
X108809523Y-91761904D01*
X108761904Y-91857142D01*
X108714285Y-91904761D01*
X108619047Y-91952380D01*
X108333333Y-91952380D01*
X108238095Y-91904761D01*
X108190476Y-91857142D01*
X157384761Y-50712619D02*
X157289523Y-50665000D01*
X157194285Y-50569761D01*
X157051428Y-50426904D01*
X156956190Y-50379285D01*
X156860952Y-50379285D01*
X156908571Y-50617380D02*
X156813333Y-50569761D01*
X156718095Y-50474523D01*
X156670476Y-50284047D01*
X156670476Y-49950714D01*
X156718095Y-49760238D01*
X156813333Y-49665000D01*
X156908571Y-49617380D01*
X157099047Y-49617380D01*
X157194285Y-49665000D01*
X157289523Y-49760238D01*
X157337142Y-49950714D01*
X157337142Y-50284047D01*
X157289523Y-50474523D01*
X157194285Y-50569761D01*
X157099047Y-50617380D01*
X156908571Y-50617380D01*
X157718095Y-49712619D02*
X157765714Y-49665000D01*
X157860952Y-49617380D01*
X158099047Y-49617380D01*
X158194285Y-49665000D01*
X158241904Y-49712619D01*
X158289523Y-49807857D01*
X158289523Y-49903095D01*
X158241904Y-50045952D01*
X157670476Y-50617380D01*
X158289523Y-50617380D01*
X152939761Y-50712619D02*
X152844523Y-50665000D01*
X152749285Y-50569761D01*
X152606428Y-50426904D01*
X152511190Y-50379285D01*
X152415952Y-50379285D01*
X152463571Y-50617380D02*
X152368333Y-50569761D01*
X152273095Y-50474523D01*
X152225476Y-50284047D01*
X152225476Y-49950714D01*
X152273095Y-49760238D01*
X152368333Y-49665000D01*
X152463571Y-49617380D01*
X152654047Y-49617380D01*
X152749285Y-49665000D01*
X152844523Y-49760238D01*
X152892142Y-49950714D01*
X152892142Y-50284047D01*
X152844523Y-50474523D01*
X152749285Y-50569761D01*
X152654047Y-50617380D01*
X152463571Y-50617380D01*
X153844523Y-50617380D02*
X153273095Y-50617380D01*
X153558809Y-50617380D02*
X153558809Y-49617380D01*
X153463571Y-49760238D01*
X153368333Y-49855476D01*
X153273095Y-49903095D01*
X126761904Y-54452380D02*
X126761904Y-53452380D01*
X127000000Y-53452380D01*
X127142857Y-53500000D01*
X127238095Y-53595238D01*
X127285714Y-53690476D01*
X127333333Y-53880952D01*
X127333333Y-54023809D01*
X127285714Y-54214285D01*
X127238095Y-54309523D01*
X127142857Y-54404761D01*
X127000000Y-54452380D01*
X126761904Y-54452380D01*
X128285714Y-54452380D02*
X127714285Y-54452380D01*
X128000000Y-54452380D02*
X128000000Y-53452380D01*
X127904761Y-53595238D01*
X127809523Y-53690476D01*
X127714285Y-53738095D01*
X126443333Y-43007142D02*
X126395714Y-43054761D01*
X126252857Y-43102380D01*
X126157619Y-43102380D01*
X126014761Y-43054761D01*
X125919523Y-42959523D01*
X125871904Y-42864285D01*
X125824285Y-42673809D01*
X125824285Y-42530952D01*
X125871904Y-42340476D01*
X125919523Y-42245238D01*
X126014761Y-42150000D01*
X126157619Y-42102380D01*
X126252857Y-42102380D01*
X126395714Y-42150000D01*
X126443333Y-42197619D01*
X126919523Y-43102380D02*
X127110000Y-43102380D01*
X127205238Y-43054761D01*
X127252857Y-43007142D01*
X127348095Y-42864285D01*
X127395714Y-42673809D01*
X127395714Y-42292857D01*
X127348095Y-42197619D01*
X127300476Y-42150000D01*
X127205238Y-42102380D01*
X127014761Y-42102380D01*
X126919523Y-42150000D01*
X126871904Y-42197619D01*
X126824285Y-42292857D01*
X126824285Y-42530952D01*
X126871904Y-42626190D01*
X126919523Y-42673809D01*
X127014761Y-42721428D01*
X127205238Y-42721428D01*
X127300476Y-42673809D01*
X127348095Y-42626190D01*
X127395714Y-42530952D01*
X128943333Y-43007142D02*
X128895714Y-43054761D01*
X128752857Y-43102380D01*
X128657619Y-43102380D01*
X128514761Y-43054761D01*
X128419523Y-42959523D01*
X128371904Y-42864285D01*
X128324285Y-42673809D01*
X128324285Y-42530952D01*
X128371904Y-42340476D01*
X128419523Y-42245238D01*
X128514761Y-42150000D01*
X128657619Y-42102380D01*
X128752857Y-42102380D01*
X128895714Y-42150000D01*
X128943333Y-42197619D01*
X129514761Y-42530952D02*
X129419523Y-42483333D01*
X129371904Y-42435714D01*
X129324285Y-42340476D01*
X129324285Y-42292857D01*
X129371904Y-42197619D01*
X129419523Y-42150000D01*
X129514761Y-42102380D01*
X129705238Y-42102380D01*
X129800476Y-42150000D01*
X129848095Y-42197619D01*
X129895714Y-42292857D01*
X129895714Y-42340476D01*
X129848095Y-42435714D01*
X129800476Y-42483333D01*
X129705238Y-42530952D01*
X129514761Y-42530952D01*
X129419523Y-42578571D01*
X129371904Y-42626190D01*
X129324285Y-42721428D01*
X129324285Y-42911904D01*
X129371904Y-43007142D01*
X129419523Y-43054761D01*
X129514761Y-43102380D01*
X129705238Y-43102380D01*
X129800476Y-43054761D01*
X129848095Y-43007142D01*
X129895714Y-42911904D01*
X129895714Y-42721428D01*
X129848095Y-42626190D01*
X129800476Y-42578571D01*
X129705238Y-42530952D01*
X118443333Y-43007142D02*
X118395714Y-43054761D01*
X118252857Y-43102380D01*
X118157619Y-43102380D01*
X118014761Y-43054761D01*
X117919523Y-42959523D01*
X117871904Y-42864285D01*
X117824285Y-42673809D01*
X117824285Y-42530952D01*
X117871904Y-42340476D01*
X117919523Y-42245238D01*
X118014761Y-42150000D01*
X118157619Y-42102380D01*
X118252857Y-42102380D01*
X118395714Y-42150000D01*
X118443333Y-42197619D01*
X118776666Y-42102380D02*
X119443333Y-42102380D01*
X119014761Y-43102380D01*
X111833333Y-83857142D02*
X111785714Y-83904761D01*
X111642857Y-83952380D01*
X111547619Y-83952380D01*
X111404761Y-83904761D01*
X111309523Y-83809523D01*
X111261904Y-83714285D01*
X111214285Y-83523809D01*
X111214285Y-83380952D01*
X111261904Y-83190476D01*
X111309523Y-83095238D01*
X111404761Y-83000000D01*
X111547619Y-82952380D01*
X111642857Y-82952380D01*
X111785714Y-83000000D01*
X111833333Y-83047619D01*
X112690476Y-82952380D02*
X112500000Y-82952380D01*
X112404761Y-83000000D01*
X112357142Y-83047619D01*
X112261904Y-83190476D01*
X112214285Y-83380952D01*
X112214285Y-83761904D01*
X112261904Y-83857142D01*
X112309523Y-83904761D01*
X112404761Y-83952380D01*
X112595238Y-83952380D01*
X112690476Y-83904761D01*
X112738095Y-83857142D01*
X112785714Y-83761904D01*
X112785714Y-83523809D01*
X112738095Y-83428571D01*
X112690476Y-83380952D01*
X112595238Y-83333333D01*
X112404761Y-83333333D01*
X112309523Y-83380952D01*
X112261904Y-83428571D01*
X112214285Y-83523809D01*
X109333333Y-83857142D02*
X109285714Y-83904761D01*
X109142857Y-83952380D01*
X109047619Y-83952380D01*
X108904761Y-83904761D01*
X108809523Y-83809523D01*
X108761904Y-83714285D01*
X108714285Y-83523809D01*
X108714285Y-83380952D01*
X108761904Y-83190476D01*
X108809523Y-83095238D01*
X108904761Y-83000000D01*
X109047619Y-82952380D01*
X109142857Y-82952380D01*
X109285714Y-83000000D01*
X109333333Y-83047619D01*
X110238095Y-82952380D02*
X109761904Y-82952380D01*
X109714285Y-83428571D01*
X109761904Y-83380952D01*
X109857142Y-83333333D01*
X110095238Y-83333333D01*
X110190476Y-83380952D01*
X110238095Y-83428571D01*
X110285714Y-83523809D01*
X110285714Y-83761904D01*
X110238095Y-83857142D01*
X110190476Y-83904761D01*
X110095238Y-83952380D01*
X109857142Y-83952380D01*
X109761904Y-83904761D01*
X109714285Y-83857142D01*
X106833333Y-83857142D02*
X106785714Y-83904761D01*
X106642857Y-83952380D01*
X106547619Y-83952380D01*
X106404761Y-83904761D01*
X106309523Y-83809523D01*
X106261904Y-83714285D01*
X106214285Y-83523809D01*
X106214285Y-83380952D01*
X106261904Y-83190476D01*
X106309523Y-83095238D01*
X106404761Y-83000000D01*
X106547619Y-82952380D01*
X106642857Y-82952380D01*
X106785714Y-83000000D01*
X106833333Y-83047619D01*
X107166666Y-82952380D02*
X107785714Y-82952380D01*
X107452380Y-83333333D01*
X107595238Y-83333333D01*
X107690476Y-83380952D01*
X107738095Y-83428571D01*
X107785714Y-83523809D01*
X107785714Y-83761904D01*
X107738095Y-83857142D01*
X107690476Y-83904761D01*
X107595238Y-83952380D01*
X107309523Y-83952380D01*
X107214285Y-83904761D01*
X107166666Y-83857142D01*
X155448095Y-96517380D02*
X155448095Y-97326904D01*
X155495714Y-97422142D01*
X155543333Y-97469761D01*
X155638571Y-97517380D01*
X155829047Y-97517380D01*
X155924285Y-97469761D01*
X155971904Y-97422142D01*
X156019523Y-97326904D01*
X156019523Y-96517380D01*
X156924285Y-96517380D02*
X156733809Y-96517380D01*
X156638571Y-96565000D01*
X156590952Y-96612619D01*
X156495714Y-96755476D01*
X156448095Y-96945952D01*
X156448095Y-97326904D01*
X156495714Y-97422142D01*
X156543333Y-97469761D01*
X156638571Y-97517380D01*
X156829047Y-97517380D01*
X156924285Y-97469761D01*
X156971904Y-97422142D01*
X157019523Y-97326904D01*
X157019523Y-97088809D01*
X156971904Y-96993571D01*
X156924285Y-96945952D01*
X156829047Y-96898333D01*
X156638571Y-96898333D01*
X156543333Y-96945952D01*
X156495714Y-96993571D01*
X156448095Y-97088809D01*
X139357142Y-73642857D02*
X139404761Y-73690476D01*
X139452380Y-73833333D01*
X139452380Y-73928571D01*
X139404761Y-74071428D01*
X139309523Y-74166666D01*
X139214285Y-74214285D01*
X139023809Y-74261904D01*
X138880952Y-74261904D01*
X138690476Y-74214285D01*
X138595238Y-74166666D01*
X138500000Y-74071428D01*
X138452380Y-73928571D01*
X138452380Y-73833333D01*
X138500000Y-73690476D01*
X138547619Y-73642857D01*
X139452380Y-72690476D02*
X139452380Y-73261904D01*
X139452380Y-72976190D02*
X138452380Y-72976190D01*
X138595238Y-73071428D01*
X138690476Y-73166666D01*
X138738095Y-73261904D01*
X138880952Y-72119047D02*
X138833333Y-72214285D01*
X138785714Y-72261904D01*
X138690476Y-72309523D01*
X138642857Y-72309523D01*
X138547619Y-72261904D01*
X138500000Y-72214285D01*
X138452380Y-72119047D01*
X138452380Y-71928571D01*
X138500000Y-71833333D01*
X138547619Y-71785714D01*
X138642857Y-71738095D01*
X138690476Y-71738095D01*
X138785714Y-71785714D01*
X138833333Y-71833333D01*
X138880952Y-71928571D01*
X138880952Y-72119047D01*
X138928571Y-72214285D01*
X138976190Y-72261904D01*
X139071428Y-72309523D01*
X139261904Y-72309523D01*
X139357142Y-72261904D01*
X139404761Y-72214285D01*
X139452380Y-72119047D01*
X139452380Y-71928571D01*
X139404761Y-71833333D01*
X139357142Y-71785714D01*
X139261904Y-71738095D01*
X139071428Y-71738095D01*
X138976190Y-71785714D01*
X138928571Y-71833333D01*
X138880952Y-71928571D01*
X139357142Y-84142857D02*
X139404761Y-84190476D01*
X139452380Y-84333333D01*
X139452380Y-84428571D01*
X139404761Y-84571428D01*
X139309523Y-84666666D01*
X139214285Y-84714285D01*
X139023809Y-84761904D01*
X138880952Y-84761904D01*
X138690476Y-84714285D01*
X138595238Y-84666666D01*
X138500000Y-84571428D01*
X138452380Y-84428571D01*
X138452380Y-84333333D01*
X138500000Y-84190476D01*
X138547619Y-84142857D01*
X139452380Y-83190476D02*
X139452380Y-83761904D01*
X139452380Y-83476190D02*
X138452380Y-83476190D01*
X138595238Y-83571428D01*
X138690476Y-83666666D01*
X138738095Y-83761904D01*
X138452380Y-82857142D02*
X138452380Y-82190476D01*
X139452380Y-82619047D01*
X131238095Y-81302380D02*
X131238095Y-82111904D01*
X131285714Y-82207142D01*
X131333333Y-82254761D01*
X131428571Y-82302380D01*
X131619047Y-82302380D01*
X131714285Y-82254761D01*
X131761904Y-82207142D01*
X131809523Y-82111904D01*
X131809523Y-81302380D01*
X132190476Y-81302380D02*
X132857142Y-81302380D01*
X132428571Y-82302380D01*
X156083095Y-83457380D02*
X156083095Y-84266904D01*
X156130714Y-84362142D01*
X156178333Y-84409761D01*
X156273571Y-84457380D01*
X156464047Y-84457380D01*
X156559285Y-84409761D01*
X156606904Y-84362142D01*
X156654523Y-84266904D01*
X156654523Y-83457380D01*
X157035476Y-83457380D02*
X157654523Y-83457380D01*
X157321190Y-83838333D01*
X157464047Y-83838333D01*
X157559285Y-83885952D01*
X157606904Y-83933571D01*
X157654523Y-84028809D01*
X157654523Y-84266904D01*
X157606904Y-84362142D01*
X157559285Y-84409761D01*
X157464047Y-84457380D01*
X157178333Y-84457380D01*
X157083095Y-84409761D01*
X157035476Y-84362142D01*
X168357142Y-84702380D02*
X168023809Y-84226190D01*
X167785714Y-84702380D02*
X167785714Y-83702380D01*
X168166666Y-83702380D01*
X168261904Y-83750000D01*
X168309523Y-83797619D01*
X168357142Y-83892857D01*
X168357142Y-84035714D01*
X168309523Y-84130952D01*
X168261904Y-84178571D01*
X168166666Y-84226190D01*
X167785714Y-84226190D01*
X169309523Y-84702380D02*
X168738095Y-84702380D01*
X169023809Y-84702380D02*
X169023809Y-83702380D01*
X168928571Y-83845238D01*
X168833333Y-83940476D01*
X168738095Y-83988095D01*
X170166666Y-83702380D02*
X169976190Y-83702380D01*
X169880952Y-83750000D01*
X169833333Y-83797619D01*
X169738095Y-83940476D01*
X169690476Y-84130952D01*
X169690476Y-84511904D01*
X169738095Y-84607142D01*
X169785714Y-84654761D01*
X169880952Y-84702380D01*
X170071428Y-84702380D01*
X170166666Y-84654761D01*
X170214285Y-84607142D01*
X170261904Y-84511904D01*
X170261904Y-84273809D01*
X170214285Y-84178571D01*
X170166666Y-84130952D01*
X170071428Y-84083333D01*
X169880952Y-84083333D01*
X169785714Y-84130952D01*
X169738095Y-84178571D01*
X169690476Y-84273809D01*
X171607142Y-84702380D02*
X171273809Y-84226190D01*
X171035714Y-84702380D02*
X171035714Y-83702380D01*
X171416666Y-83702380D01*
X171511904Y-83750000D01*
X171559523Y-83797619D01*
X171607142Y-83892857D01*
X171607142Y-84035714D01*
X171559523Y-84130952D01*
X171511904Y-84178571D01*
X171416666Y-84226190D01*
X171035714Y-84226190D01*
X172559523Y-84702380D02*
X171988095Y-84702380D01*
X172273809Y-84702380D02*
X172273809Y-83702380D01*
X172178571Y-83845238D01*
X172083333Y-83940476D01*
X171988095Y-83988095D01*
X173464285Y-83702380D02*
X172988095Y-83702380D01*
X172940476Y-84178571D01*
X172988095Y-84130952D01*
X173083333Y-84083333D01*
X173321428Y-84083333D01*
X173416666Y-84130952D01*
X173464285Y-84178571D01*
X173511904Y-84273809D01*
X173511904Y-84511904D01*
X173464285Y-84607142D01*
X173416666Y-84654761D01*
X173321428Y-84702380D01*
X173083333Y-84702380D01*
X172988095Y-84654761D01*
X172940476Y-84607142D01*
X130707142Y-84802380D02*
X130373809Y-84326190D01*
X130135714Y-84802380D02*
X130135714Y-83802380D01*
X130516666Y-83802380D01*
X130611904Y-83850000D01*
X130659523Y-83897619D01*
X130707142Y-83992857D01*
X130707142Y-84135714D01*
X130659523Y-84230952D01*
X130611904Y-84278571D01*
X130516666Y-84326190D01*
X130135714Y-84326190D01*
X131659523Y-84802380D02*
X131088095Y-84802380D01*
X131373809Y-84802380D02*
X131373809Y-83802380D01*
X131278571Y-83945238D01*
X131183333Y-84040476D01*
X131088095Y-84088095D01*
X131992857Y-83802380D02*
X132611904Y-83802380D01*
X132278571Y-84183333D01*
X132421428Y-84183333D01*
X132516666Y-84230952D01*
X132564285Y-84278571D01*
X132611904Y-84373809D01*
X132611904Y-84611904D01*
X132564285Y-84707142D01*
X132516666Y-84754761D01*
X132421428Y-84802380D01*
X132135714Y-84802380D01*
X132040476Y-84754761D01*
X131992857Y-84707142D01*
X125357142Y-84802380D02*
X125023809Y-84326190D01*
X124785714Y-84802380D02*
X124785714Y-83802380D01*
X125166666Y-83802380D01*
X125261904Y-83850000D01*
X125309523Y-83897619D01*
X125357142Y-83992857D01*
X125357142Y-84135714D01*
X125309523Y-84230952D01*
X125261904Y-84278571D01*
X125166666Y-84326190D01*
X124785714Y-84326190D01*
X126309523Y-84802380D02*
X125738095Y-84802380D01*
X126023809Y-84802380D02*
X126023809Y-83802380D01*
X125928571Y-83945238D01*
X125833333Y-84040476D01*
X125738095Y-84088095D01*
X126690476Y-83897619D02*
X126738095Y-83850000D01*
X126833333Y-83802380D01*
X127071428Y-83802380D01*
X127166666Y-83850000D01*
X127214285Y-83897619D01*
X127261904Y-83992857D01*
X127261904Y-84088095D01*
X127214285Y-84230952D01*
X126642857Y-84802380D01*
X127261904Y-84802380D01*
X119642142Y-84952380D02*
X119308809Y-84476190D01*
X119070714Y-84952380D02*
X119070714Y-83952380D01*
X119451666Y-83952380D01*
X119546904Y-84000000D01*
X119594523Y-84047619D01*
X119642142Y-84142857D01*
X119642142Y-84285714D01*
X119594523Y-84380952D01*
X119546904Y-84428571D01*
X119451666Y-84476190D01*
X119070714Y-84476190D01*
X120594523Y-84952380D02*
X120023095Y-84952380D01*
X120308809Y-84952380D02*
X120308809Y-83952380D01*
X120213571Y-84095238D01*
X120118333Y-84190476D01*
X120023095Y-84238095D01*
X121213571Y-83952380D02*
X121308809Y-83952380D01*
X121404047Y-84000000D01*
X121451666Y-84047619D01*
X121499285Y-84142857D01*
X121546904Y-84333333D01*
X121546904Y-84571428D01*
X121499285Y-84761904D01*
X121451666Y-84857142D01*
X121404047Y-84904761D01*
X121308809Y-84952380D01*
X121213571Y-84952380D01*
X121118333Y-84904761D01*
X121070714Y-84857142D01*
X121023095Y-84761904D01*
X120975476Y-84571428D01*
X120975476Y-84333333D01*
X121023095Y-84142857D01*
X121070714Y-84047619D01*
X121118333Y-84000000D01*
X121213571Y-83952380D01*
X169333333Y-78952380D02*
X169000000Y-78476190D01*
X168761904Y-78952380D02*
X168761904Y-77952380D01*
X169142857Y-77952380D01*
X169238095Y-78000000D01*
X169285714Y-78047619D01*
X169333333Y-78142857D01*
X169333333Y-78285714D01*
X169285714Y-78380952D01*
X169238095Y-78428571D01*
X169142857Y-78476190D01*
X168761904Y-78476190D01*
X169809523Y-78952380D02*
X170000000Y-78952380D01*
X170095238Y-78904761D01*
X170142857Y-78857142D01*
X170238095Y-78714285D01*
X170285714Y-78523809D01*
X170285714Y-78142857D01*
X170238095Y-78047619D01*
X170190476Y-78000000D01*
X170095238Y-77952380D01*
X169904761Y-77952380D01*
X169809523Y-78000000D01*
X169761904Y-78047619D01*
X169714285Y-78142857D01*
X169714285Y-78380952D01*
X169761904Y-78476190D01*
X169809523Y-78523809D01*
X169904761Y-78571428D01*
X170095238Y-78571428D01*
X170190476Y-78523809D01*
X170238095Y-78476190D01*
X170285714Y-78380952D01*
X169333333Y-72952380D02*
X169000000Y-72476190D01*
X168761904Y-72952380D02*
X168761904Y-71952380D01*
X169142857Y-71952380D01*
X169238095Y-72000000D01*
X169285714Y-72047619D01*
X169333333Y-72142857D01*
X169333333Y-72285714D01*
X169285714Y-72380952D01*
X169238095Y-72428571D01*
X169142857Y-72476190D01*
X168761904Y-72476190D01*
X169904761Y-72380952D02*
X169809523Y-72333333D01*
X169761904Y-72285714D01*
X169714285Y-72190476D01*
X169714285Y-72142857D01*
X169761904Y-72047619D01*
X169809523Y-72000000D01*
X169904761Y-71952380D01*
X170095238Y-71952380D01*
X170190476Y-72000000D01*
X170238095Y-72047619D01*
X170285714Y-72142857D01*
X170285714Y-72190476D01*
X170238095Y-72285714D01*
X170190476Y-72333333D01*
X170095238Y-72380952D01*
X169904761Y-72380952D01*
X169809523Y-72428571D01*
X169761904Y-72476190D01*
X169714285Y-72571428D01*
X169714285Y-72761904D01*
X169761904Y-72857142D01*
X169809523Y-72904761D01*
X169904761Y-72952380D01*
X170095238Y-72952380D01*
X170190476Y-72904761D01*
X170238095Y-72857142D01*
X170285714Y-72761904D01*
X170285714Y-72571428D01*
X170238095Y-72476190D01*
X170190476Y-72428571D01*
X170095238Y-72380952D01*
X151387142Y-98147142D02*
X151339523Y-98194761D01*
X151196666Y-98242380D01*
X151101428Y-98242380D01*
X150958571Y-98194761D01*
X150863333Y-98099523D01*
X150815714Y-98004285D01*
X150768095Y-97813809D01*
X150768095Y-97670952D01*
X150815714Y-97480476D01*
X150863333Y-97385238D01*
X150958571Y-97290000D01*
X151101428Y-97242380D01*
X151196666Y-97242380D01*
X151339523Y-97290000D01*
X151387142Y-97337619D01*
X152339523Y-98242380D02*
X151768095Y-98242380D01*
X152053809Y-98242380D02*
X152053809Y-97242380D01*
X151958571Y-97385238D01*
X151863333Y-97480476D01*
X151768095Y-97528095D01*
X153196666Y-97242380D02*
X153006190Y-97242380D01*
X152910952Y-97290000D01*
X152863333Y-97337619D01*
X152768095Y-97480476D01*
X152720476Y-97670952D01*
X152720476Y-98051904D01*
X152768095Y-98147142D01*
X152815714Y-98194761D01*
X152910952Y-98242380D01*
X153101428Y-98242380D01*
X153196666Y-98194761D01*
X153244285Y-98147142D01*
X153291904Y-98051904D01*
X153291904Y-97813809D01*
X153244285Y-97718571D01*
X153196666Y-97670952D01*
X153101428Y-97623333D01*
X152910952Y-97623333D01*
X152815714Y-97670952D01*
X152768095Y-97718571D01*
X152720476Y-97813809D01*
X136357142Y-67857142D02*
X136309523Y-67904761D01*
X136166666Y-67952380D01*
X136071428Y-67952380D01*
X135928571Y-67904761D01*
X135833333Y-67809523D01*
X135785714Y-67714285D01*
X135738095Y-67523809D01*
X135738095Y-67380952D01*
X135785714Y-67190476D01*
X135833333Y-67095238D01*
X135928571Y-67000000D01*
X136071428Y-66952380D01*
X136166666Y-66952380D01*
X136309523Y-67000000D01*
X136357142Y-67047619D01*
X137309523Y-67952380D02*
X136738095Y-67952380D01*
X137023809Y-67952380D02*
X137023809Y-66952380D01*
X136928571Y-67095238D01*
X136833333Y-67190476D01*
X136738095Y-67238095D01*
X138214285Y-66952380D02*
X137738095Y-66952380D01*
X137690476Y-67428571D01*
X137738095Y-67380952D01*
X137833333Y-67333333D01*
X138071428Y-67333333D01*
X138166666Y-67380952D01*
X138214285Y-67428571D01*
X138261904Y-67523809D01*
X138261904Y-67761904D01*
X138214285Y-67857142D01*
X138166666Y-67904761D01*
X138071428Y-67952380D01*
X137833333Y-67952380D01*
X137738095Y-67904761D01*
X137690476Y-67857142D01*
X135857142Y-85857142D02*
X135809523Y-85904761D01*
X135666666Y-85952380D01*
X135571428Y-85952380D01*
X135428571Y-85904761D01*
X135333333Y-85809523D01*
X135285714Y-85714285D01*
X135238095Y-85523809D01*
X135238095Y-85380952D01*
X135285714Y-85190476D01*
X135333333Y-85095238D01*
X135428571Y-85000000D01*
X135571428Y-84952380D01*
X135666666Y-84952380D01*
X135809523Y-85000000D01*
X135857142Y-85047619D01*
X136809523Y-85952380D02*
X136238095Y-85952380D01*
X136523809Y-85952380D02*
X136523809Y-84952380D01*
X136428571Y-85095238D01*
X136333333Y-85190476D01*
X136238095Y-85238095D01*
X137666666Y-85285714D02*
X137666666Y-85952380D01*
X137428571Y-84904761D02*
X137190476Y-85619047D01*
X137809523Y-85619047D01*
X124857142Y-83037142D02*
X124809523Y-83084761D01*
X124666666Y-83132380D01*
X124571428Y-83132380D01*
X124428571Y-83084761D01*
X124333333Y-82989523D01*
X124285714Y-82894285D01*
X124238095Y-82703809D01*
X124238095Y-82560952D01*
X124285714Y-82370476D01*
X124333333Y-82275238D01*
X124428571Y-82180000D01*
X124571428Y-82132380D01*
X124666666Y-82132380D01*
X124809523Y-82180000D01*
X124857142Y-82227619D01*
X125809523Y-83132380D02*
X125238095Y-83132380D01*
X125523809Y-83132380D02*
X125523809Y-82132380D01*
X125428571Y-82275238D01*
X125333333Y-82370476D01*
X125238095Y-82418095D01*
X126142857Y-82132380D02*
X126761904Y-82132380D01*
X126428571Y-82513333D01*
X126571428Y-82513333D01*
X126666666Y-82560952D01*
X126714285Y-82608571D01*
X126761904Y-82703809D01*
X126761904Y-82941904D01*
X126714285Y-83037142D01*
X126666666Y-83084761D01*
X126571428Y-83132380D01*
X126285714Y-83132380D01*
X126190476Y-83084761D01*
X126142857Y-83037142D01*
X125319642Y-69357142D02*
X125272023Y-69404761D01*
X125129166Y-69452380D01*
X125033928Y-69452380D01*
X124891071Y-69404761D01*
X124795833Y-69309523D01*
X124748214Y-69214285D01*
X124700595Y-69023809D01*
X124700595Y-68880952D01*
X124748214Y-68690476D01*
X124795833Y-68595238D01*
X124891071Y-68500000D01*
X125033928Y-68452380D01*
X125129166Y-68452380D01*
X125272023Y-68500000D01*
X125319642Y-68547619D01*
X126272023Y-69452380D02*
X125700595Y-69452380D01*
X125986309Y-69452380D02*
X125986309Y-68452380D01*
X125891071Y-68595238D01*
X125795833Y-68690476D01*
X125700595Y-68738095D01*
X126652976Y-68547619D02*
X126700595Y-68500000D01*
X126795833Y-68452380D01*
X127033928Y-68452380D01*
X127129166Y-68500000D01*
X127176785Y-68547619D01*
X127224404Y-68642857D01*
X127224404Y-68738095D01*
X127176785Y-68880952D01*
X126605357Y-69452380D01*
X127224404Y-69452380D01*
X130894642Y-53177142D02*
X130847023Y-53224761D01*
X130704166Y-53272380D01*
X130608928Y-53272380D01*
X130466071Y-53224761D01*
X130370833Y-53129523D01*
X130323214Y-53034285D01*
X130275595Y-52843809D01*
X130275595Y-52700952D01*
X130323214Y-52510476D01*
X130370833Y-52415238D01*
X130466071Y-52320000D01*
X130608928Y-52272380D01*
X130704166Y-52272380D01*
X130847023Y-52320000D01*
X130894642Y-52367619D01*
X131847023Y-53272380D02*
X131275595Y-53272380D01*
X131561309Y-53272380D02*
X131561309Y-52272380D01*
X131466071Y-52415238D01*
X131370833Y-52510476D01*
X131275595Y-52558095D01*
X132799404Y-53272380D02*
X132227976Y-53272380D01*
X132513690Y-53272380D02*
X132513690Y-52272380D01*
X132418452Y-52415238D01*
X132323214Y-52510476D01*
X132227976Y-52558095D01*
X160012142Y-98147142D02*
X159964523Y-98194761D01*
X159821666Y-98242380D01*
X159726428Y-98242380D01*
X159583571Y-98194761D01*
X159488333Y-98099523D01*
X159440714Y-98004285D01*
X159393095Y-97813809D01*
X159393095Y-97670952D01*
X159440714Y-97480476D01*
X159488333Y-97385238D01*
X159583571Y-97290000D01*
X159726428Y-97242380D01*
X159821666Y-97242380D01*
X159964523Y-97290000D01*
X160012142Y-97337619D01*
X160964523Y-98242380D02*
X160393095Y-98242380D01*
X160678809Y-98242380D02*
X160678809Y-97242380D01*
X160583571Y-97385238D01*
X160488333Y-97480476D01*
X160393095Y-97528095D01*
X161583571Y-97242380D02*
X161678809Y-97242380D01*
X161774047Y-97290000D01*
X161821666Y-97337619D01*
X161869285Y-97432857D01*
X161916904Y-97623333D01*
X161916904Y-97861428D01*
X161869285Y-98051904D01*
X161821666Y-98147142D01*
X161774047Y-98194761D01*
X161678809Y-98242380D01*
X161583571Y-98242380D01*
X161488333Y-98194761D01*
X161440714Y-98147142D01*
X161393095Y-98051904D01*
X161345476Y-97861428D01*
X161345476Y-97623333D01*
X161393095Y-97432857D01*
X161440714Y-97337619D01*
X161488333Y-97290000D01*
X161583571Y-97242380D01*
X163430833Y-76782142D02*
X163383214Y-76829761D01*
X163240357Y-76877380D01*
X163145119Y-76877380D01*
X163002261Y-76829761D01*
X162907023Y-76734523D01*
X162859404Y-76639285D01*
X162811785Y-76448809D01*
X162811785Y-76305952D01*
X162859404Y-76115476D01*
X162907023Y-76020238D01*
X163002261Y-75925000D01*
X163145119Y-75877380D01*
X163240357Y-75877380D01*
X163383214Y-75925000D01*
X163430833Y-75972619D01*
X164287976Y-76210714D02*
X164287976Y-76877380D01*
X164049880Y-75829761D02*
X163811785Y-76544047D01*
X164430833Y-76544047D01*
X163583333Y-84607142D02*
X163535714Y-84654761D01*
X163392857Y-84702380D01*
X163297619Y-84702380D01*
X163154761Y-84654761D01*
X163059523Y-84559523D01*
X163011904Y-84464285D01*
X162964285Y-84273809D01*
X162964285Y-84130952D01*
X163011904Y-83940476D01*
X163059523Y-83845238D01*
X163154761Y-83750000D01*
X163297619Y-83702380D01*
X163392857Y-83702380D01*
X163535714Y-83750000D01*
X163583333Y-83797619D01*
X163964285Y-83797619D02*
X164011904Y-83750000D01*
X164107142Y-83702380D01*
X164345238Y-83702380D01*
X164440476Y-83750000D01*
X164488095Y-83797619D01*
X164535714Y-83892857D01*
X164535714Y-83988095D01*
X164488095Y-84130952D01*
X163916666Y-84702380D01*
X164535714Y-84702380D01*
X166333333Y-84607142D02*
X166285714Y-84654761D01*
X166142857Y-84702380D01*
X166047619Y-84702380D01*
X165904761Y-84654761D01*
X165809523Y-84559523D01*
X165761904Y-84464285D01*
X165714285Y-84273809D01*
X165714285Y-84130952D01*
X165761904Y-83940476D01*
X165809523Y-83845238D01*
X165904761Y-83750000D01*
X166047619Y-83702380D01*
X166142857Y-83702380D01*
X166285714Y-83750000D01*
X166333333Y-83797619D01*
X167285714Y-84702380D02*
X166714285Y-84702380D01*
X167000000Y-84702380D02*
X167000000Y-83702380D01*
X166904761Y-83845238D01*
X166809523Y-83940476D01*
X166714285Y-83988095D01*
%LPC*%
G36*
G01*
X130745000Y-58975000D02*
X130445000Y-58975000D01*
G75*
G02*
X130295000Y-58825000I0J150000D01*
G01*
X130295000Y-57175000D01*
G75*
G02*
X130445000Y-57025000I150000J0D01*
G01*
X130745000Y-57025000D01*
G75*
G02*
X130895000Y-57175000I0J-150000D01*
G01*
X130895000Y-58825000D01*
G75*
G02*
X130745000Y-58975000I-150000J0D01*
G01*
G37*
G36*
G01*
X132015000Y-58975000D02*
X131715000Y-58975000D01*
G75*
G02*
X131565000Y-58825000I0J150000D01*
G01*
X131565000Y-57175000D01*
G75*
G02*
X131715000Y-57025000I150000J0D01*
G01*
X132015000Y-57025000D01*
G75*
G02*
X132165000Y-57175000I0J-150000D01*
G01*
X132165000Y-58825000D01*
G75*
G02*
X132015000Y-58975000I-150000J0D01*
G01*
G37*
G36*
G01*
X133285000Y-58975000D02*
X132985000Y-58975000D01*
G75*
G02*
X132835000Y-58825000I0J150000D01*
G01*
X132835000Y-57175000D01*
G75*
G02*
X132985000Y-57025000I150000J0D01*
G01*
X133285000Y-57025000D01*
G75*
G02*
X133435000Y-57175000I0J-150000D01*
G01*
X133435000Y-58825000D01*
G75*
G02*
X133285000Y-58975000I-150000J0D01*
G01*
G37*
G36*
G01*
X134555000Y-58975000D02*
X134255000Y-58975000D01*
G75*
G02*
X134105000Y-58825000I0J150000D01*
G01*
X134105000Y-57175000D01*
G75*
G02*
X134255000Y-57025000I150000J0D01*
G01*
X134555000Y-57025000D01*
G75*
G02*
X134705000Y-57175000I0J-150000D01*
G01*
X134705000Y-58825000D01*
G75*
G02*
X134555000Y-58975000I-150000J0D01*
G01*
G37*
G36*
G01*
X134555000Y-63925000D02*
X134255000Y-63925000D01*
G75*
G02*
X134105000Y-63775000I0J150000D01*
G01*
X134105000Y-62125000D01*
G75*
G02*
X134255000Y-61975000I150000J0D01*
G01*
X134555000Y-61975000D01*
G75*
G02*
X134705000Y-62125000I0J-150000D01*
G01*
X134705000Y-63775000D01*
G75*
G02*
X134555000Y-63925000I-150000J0D01*
G01*
G37*
G36*
G01*
X133285000Y-63925000D02*
X132985000Y-63925000D01*
G75*
G02*
X132835000Y-63775000I0J150000D01*
G01*
X132835000Y-62125000D01*
G75*
G02*
X132985000Y-61975000I150000J0D01*
G01*
X133285000Y-61975000D01*
G75*
G02*
X133435000Y-62125000I0J-150000D01*
G01*
X133435000Y-63775000D01*
G75*
G02*
X133285000Y-63925000I-150000J0D01*
G01*
G37*
G36*
G01*
X132015000Y-63925000D02*
X131715000Y-63925000D01*
G75*
G02*
X131565000Y-63775000I0J150000D01*
G01*
X131565000Y-62125000D01*
G75*
G02*
X131715000Y-61975000I150000J0D01*
G01*
X132015000Y-61975000D01*
G75*
G02*
X132165000Y-62125000I0J-150000D01*
G01*
X132165000Y-63775000D01*
G75*
G02*
X132015000Y-63925000I-150000J0D01*
G01*
G37*
G36*
G01*
X130745000Y-63925000D02*
X130445000Y-63925000D01*
G75*
G02*
X130295000Y-63775000I0J150000D01*
G01*
X130295000Y-62125000D01*
G75*
G02*
X130445000Y-61975000I150000J0D01*
G01*
X130745000Y-61975000D01*
G75*
G02*
X130895000Y-62125000I0J-150000D01*
G01*
X130895000Y-63775000D01*
G75*
G02*
X130745000Y-63925000I-150000J0D01*
G01*
G37*
D13*
X143500000Y-92000000D03*
X145300000Y-92000000D03*
X145300000Y-96100000D03*
X143500000Y-96100000D03*
D10*
G36*
X123476500Y-37350000D02*
G01*
X123476500Y-40475000D01*
X123060000Y-40475000D01*
X123060000Y-41950000D01*
X122160000Y-41950000D01*
X122160000Y-40475000D01*
X121743500Y-40475000D01*
X121743500Y-37350000D01*
X123476500Y-37350000D01*
G37*
D14*
X124110000Y-41300000D03*
X121110000Y-41300000D03*
D10*
G36*
X109366500Y-72700000D02*
G01*
X109366500Y-75825000D01*
X108950000Y-75825000D01*
X108950000Y-77300000D01*
X108050000Y-77300000D01*
X108050000Y-75825000D01*
X107633500Y-75825000D01*
X107633500Y-72700000D01*
X109366500Y-72700000D01*
G37*
D14*
X110000000Y-76650000D03*
X107000000Y-76650000D03*
D15*
X148420000Y-53000000D03*
X150960000Y-53000000D03*
X153500000Y-53000000D03*
X156040000Y-53000000D03*
X158580000Y-53000000D03*
X158580000Y-68240000D03*
X156040000Y-68240000D03*
X153500000Y-68240000D03*
X150960000Y-68240000D03*
X148420000Y-68240000D03*
G36*
G01*
X149450001Y-92600000D02*
X148549999Y-92600000D01*
G75*
G02*
X148300000Y-92350001I0J249999D01*
G01*
X148300000Y-91649999D01*
G75*
G02*
X148549999Y-91400000I249999J0D01*
G01*
X149450001Y-91400000D01*
G75*
G02*
X149700000Y-91649999I0J-249999D01*
G01*
X149700000Y-92350001D01*
G75*
G02*
X149450001Y-92600000I-249999J0D01*
G01*
G37*
G36*
G01*
X149450001Y-94600000D02*
X148549999Y-94600000D01*
G75*
G02*
X148300000Y-94350001I0J249999D01*
G01*
X148300000Y-93649999D01*
G75*
G02*
X148549999Y-93400000I249999J0D01*
G01*
X149450001Y-93400000D01*
G75*
G02*
X149700000Y-93649999I0J-249999D01*
G01*
X149700000Y-94350001D01*
G75*
G02*
X149450001Y-94600000I-249999J0D01*
G01*
G37*
G36*
G01*
X140950001Y-90600000D02*
X140049999Y-90600000D01*
G75*
G02*
X139800000Y-90350001I0J249999D01*
G01*
X139800000Y-89649999D01*
G75*
G02*
X140049999Y-89400000I249999J0D01*
G01*
X140950001Y-89400000D01*
G75*
G02*
X141200000Y-89649999I0J-249999D01*
G01*
X141200000Y-90350001D01*
G75*
G02*
X140950001Y-90600000I-249999J0D01*
G01*
G37*
G36*
G01*
X140950001Y-92600000D02*
X140049999Y-92600000D01*
G75*
G02*
X139800000Y-92350001I0J249999D01*
G01*
X139800000Y-91649999D01*
G75*
G02*
X140049999Y-91400000I249999J0D01*
G01*
X140950001Y-91400000D01*
G75*
G02*
X141200000Y-91649999I0J-249999D01*
G01*
X141200000Y-92350001D01*
G75*
G02*
X140950001Y-92600000I-249999J0D01*
G01*
G37*
G36*
G01*
X139600000Y-86049999D02*
X139600000Y-86950001D01*
G75*
G02*
X139350001Y-87200000I-249999J0D01*
G01*
X138649999Y-87200000D01*
G75*
G02*
X138400000Y-86950001I0J249999D01*
G01*
X138400000Y-86049999D01*
G75*
G02*
X138649999Y-85800000I249999J0D01*
G01*
X139350001Y-85800000D01*
G75*
G02*
X139600000Y-86049999I0J-249999D01*
G01*
G37*
G36*
G01*
X141600000Y-86049999D02*
X141600000Y-86950001D01*
G75*
G02*
X141350001Y-87200000I-249999J0D01*
G01*
X140649999Y-87200000D01*
G75*
G02*
X140400000Y-86950001I0J249999D01*
G01*
X140400000Y-86049999D01*
G75*
G02*
X140649999Y-85800000I249999J0D01*
G01*
X141350001Y-85800000D01*
G75*
G02*
X141600000Y-86049999I0J-249999D01*
G01*
G37*
G36*
G01*
X116049999Y-95400000D02*
X116950001Y-95400000D01*
G75*
G02*
X117200000Y-95649999I0J-249999D01*
G01*
X117200000Y-96350001D01*
G75*
G02*
X116950001Y-96600000I-249999J0D01*
G01*
X116049999Y-96600000D01*
G75*
G02*
X115800000Y-96350001I0J249999D01*
G01*
X115800000Y-95649999D01*
G75*
G02*
X116049999Y-95400000I249999J0D01*
G01*
G37*
G36*
G01*
X116049999Y-93400000D02*
X116950001Y-93400000D01*
G75*
G02*
X117200000Y-93649999I0J-249999D01*
G01*
X117200000Y-94350001D01*
G75*
G02*
X116950001Y-94600000I-249999J0D01*
G01*
X116049999Y-94600000D01*
G75*
G02*
X115800000Y-94350001I0J249999D01*
G01*
X115800000Y-93649999D01*
G75*
G02*
X116049999Y-93400000I249999J0D01*
G01*
G37*
G36*
G01*
X113950001Y-94600000D02*
X113049999Y-94600000D01*
G75*
G02*
X112800000Y-94350001I0J249999D01*
G01*
X112800000Y-93649999D01*
G75*
G02*
X113049999Y-93400000I249999J0D01*
G01*
X113950001Y-93400000D01*
G75*
G02*
X114200000Y-93649999I0J-249999D01*
G01*
X114200000Y-94350001D01*
G75*
G02*
X113950001Y-94600000I-249999J0D01*
G01*
G37*
G36*
G01*
X113950001Y-96600000D02*
X113049999Y-96600000D01*
G75*
G02*
X112800000Y-96350001I0J249999D01*
G01*
X112800000Y-95649999D01*
G75*
G02*
X113049999Y-95400000I249999J0D01*
G01*
X113950001Y-95400000D01*
G75*
G02*
X114200000Y-95649999I0J-249999D01*
G01*
X114200000Y-96350001D01*
G75*
G02*
X113950001Y-96600000I-249999J0D01*
G01*
G37*
G36*
G01*
X110950001Y-94600000D02*
X110049999Y-94600000D01*
G75*
G02*
X109800000Y-94350001I0J249999D01*
G01*
X109800000Y-93649999D01*
G75*
G02*
X110049999Y-93400000I249999J0D01*
G01*
X110950001Y-93400000D01*
G75*
G02*
X111200000Y-93649999I0J-249999D01*
G01*
X111200000Y-94350001D01*
G75*
G02*
X110950001Y-94600000I-249999J0D01*
G01*
G37*
G36*
G01*
X110950001Y-96600000D02*
X110049999Y-96600000D01*
G75*
G02*
X109800000Y-96350001I0J249999D01*
G01*
X109800000Y-95649999D01*
G75*
G02*
X110049999Y-95400000I249999J0D01*
G01*
X110950001Y-95400000D01*
G75*
G02*
X111200000Y-95649999I0J-249999D01*
G01*
X111200000Y-96350001D01*
G75*
G02*
X110950001Y-96600000I-249999J0D01*
G01*
G37*
G36*
G01*
X107049999Y-95400000D02*
X107950001Y-95400000D01*
G75*
G02*
X108200000Y-95649999I0J-249999D01*
G01*
X108200000Y-96350001D01*
G75*
G02*
X107950001Y-96600000I-249999J0D01*
G01*
X107049999Y-96600000D01*
G75*
G02*
X106800000Y-96350001I0J249999D01*
G01*
X106800000Y-95649999D01*
G75*
G02*
X107049999Y-95400000I249999J0D01*
G01*
G37*
G36*
G01*
X107049999Y-93400000D02*
X107950001Y-93400000D01*
G75*
G02*
X108200000Y-93649999I0J-249999D01*
G01*
X108200000Y-94350001D01*
G75*
G02*
X107950001Y-94600000I-249999J0D01*
G01*
X107049999Y-94600000D01*
G75*
G02*
X106800000Y-94350001I0J249999D01*
G01*
X106800000Y-93649999D01*
G75*
G02*
X107049999Y-93400000I249999J0D01*
G01*
G37*
G36*
G01*
X158950001Y-41350000D02*
X158049999Y-41350000D01*
G75*
G02*
X157800000Y-41100001I0J249999D01*
G01*
X157800000Y-40399999D01*
G75*
G02*
X158049999Y-40150000I249999J0D01*
G01*
X158950001Y-40150000D01*
G75*
G02*
X159200000Y-40399999I0J-249999D01*
G01*
X159200000Y-41100001D01*
G75*
G02*
X158950001Y-41350000I-249999J0D01*
G01*
G37*
G36*
G01*
X158950001Y-43350000D02*
X158049999Y-43350000D01*
G75*
G02*
X157800000Y-43100001I0J249999D01*
G01*
X157800000Y-42399999D01*
G75*
G02*
X158049999Y-42150000I249999J0D01*
G01*
X158950001Y-42150000D01*
G75*
G02*
X159200000Y-42399999I0J-249999D01*
G01*
X159200000Y-43100001D01*
G75*
G02*
X158950001Y-43350000I-249999J0D01*
G01*
G37*
G36*
G01*
X154450001Y-41350000D02*
X153549999Y-41350000D01*
G75*
G02*
X153300000Y-41100001I0J249999D01*
G01*
X153300000Y-40399999D01*
G75*
G02*
X153549999Y-40150000I249999J0D01*
G01*
X154450001Y-40150000D01*
G75*
G02*
X154700000Y-40399999I0J-249999D01*
G01*
X154700000Y-41100001D01*
G75*
G02*
X154450001Y-41350000I-249999J0D01*
G01*
G37*
G36*
G01*
X154450001Y-43350000D02*
X153549999Y-43350000D01*
G75*
G02*
X153300000Y-43100001I0J249999D01*
G01*
X153300000Y-42399999D01*
G75*
G02*
X153549999Y-42150000I249999J0D01*
G01*
X154450001Y-42150000D01*
G75*
G02*
X154700000Y-42399999I0J-249999D01*
G01*
X154700000Y-43100001D01*
G75*
G02*
X154450001Y-43350000I-249999J0D01*
G01*
G37*
G36*
G01*
X142200001Y-46850000D02*
X141299999Y-46850000D01*
G75*
G02*
X141050000Y-46600001I0J249999D01*
G01*
X141050000Y-45899999D01*
G75*
G02*
X141299999Y-45650000I249999J0D01*
G01*
X142200001Y-45650000D01*
G75*
G02*
X142450000Y-45899999I0J-249999D01*
G01*
X142450000Y-46600001D01*
G75*
G02*
X142200001Y-46850000I-249999J0D01*
G01*
G37*
G36*
G01*
X142200001Y-48850000D02*
X141299999Y-48850000D01*
G75*
G02*
X141050000Y-48600001I0J249999D01*
G01*
X141050000Y-47899999D01*
G75*
G02*
X141299999Y-47650000I249999J0D01*
G01*
X142200001Y-47650000D01*
G75*
G02*
X142450000Y-47899999I0J-249999D01*
G01*
X142450000Y-48600001D01*
G75*
G02*
X142200001Y-48850000I-249999J0D01*
G01*
G37*
G36*
G01*
X149675001Y-46860000D02*
X148774999Y-46860000D01*
G75*
G02*
X148525000Y-46610001I0J249999D01*
G01*
X148525000Y-45909999D01*
G75*
G02*
X148774999Y-45660000I249999J0D01*
G01*
X149675001Y-45660000D01*
G75*
G02*
X149925000Y-45909999I0J-249999D01*
G01*
X149925000Y-46610001D01*
G75*
G02*
X149675001Y-46860000I-249999J0D01*
G01*
G37*
G36*
G01*
X149675001Y-48860000D02*
X148774999Y-48860000D01*
G75*
G02*
X148525000Y-48610001I0J249999D01*
G01*
X148525000Y-47909999D01*
G75*
G02*
X148774999Y-47660000I249999J0D01*
G01*
X149675001Y-47660000D01*
G75*
G02*
X149925000Y-47909999I0J-249999D01*
G01*
X149925000Y-48610001D01*
G75*
G02*
X149675001Y-48860000I-249999J0D01*
G01*
G37*
G36*
G01*
X137200001Y-46850000D02*
X136299999Y-46850000D01*
G75*
G02*
X136050000Y-46600001I0J249999D01*
G01*
X136050000Y-45899999D01*
G75*
G02*
X136299999Y-45650000I249999J0D01*
G01*
X137200001Y-45650000D01*
G75*
G02*
X137450000Y-45899999I0J-249999D01*
G01*
X137450000Y-46600001D01*
G75*
G02*
X137200001Y-46850000I-249999J0D01*
G01*
G37*
G36*
G01*
X137200001Y-48850000D02*
X136299999Y-48850000D01*
G75*
G02*
X136050000Y-48600001I0J249999D01*
G01*
X136050000Y-47899999D01*
G75*
G02*
X136299999Y-47650000I249999J0D01*
G01*
X137200001Y-47650000D01*
G75*
G02*
X137450000Y-47899999I0J-249999D01*
G01*
X137450000Y-48600001D01*
G75*
G02*
X137200001Y-48850000I-249999J0D01*
G01*
G37*
G36*
G01*
X139700001Y-46850000D02*
X138799999Y-46850000D01*
G75*
G02*
X138550000Y-46600001I0J249999D01*
G01*
X138550000Y-45899999D01*
G75*
G02*
X138799999Y-45650000I249999J0D01*
G01*
X139700001Y-45650000D01*
G75*
G02*
X139950000Y-45899999I0J-249999D01*
G01*
X139950000Y-46600001D01*
G75*
G02*
X139700001Y-46850000I-249999J0D01*
G01*
G37*
G36*
G01*
X139700001Y-48850000D02*
X138799999Y-48850000D01*
G75*
G02*
X138550000Y-48600001I0J249999D01*
G01*
X138550000Y-47899999D01*
G75*
G02*
X138799999Y-47650000I249999J0D01*
G01*
X139700001Y-47650000D01*
G75*
G02*
X139950000Y-47899999I0J-249999D01*
G01*
X139950000Y-48600001D01*
G75*
G02*
X139700001Y-48850000I-249999J0D01*
G01*
G37*
G36*
G01*
X134700001Y-46850000D02*
X133799999Y-46850000D01*
G75*
G02*
X133550000Y-46600001I0J249999D01*
G01*
X133550000Y-45899999D01*
G75*
G02*
X133799999Y-45650000I249999J0D01*
G01*
X134700001Y-45650000D01*
G75*
G02*
X134950000Y-45899999I0J-249999D01*
G01*
X134950000Y-46600001D01*
G75*
G02*
X134700001Y-46850000I-249999J0D01*
G01*
G37*
G36*
G01*
X134700001Y-48850000D02*
X133799999Y-48850000D01*
G75*
G02*
X133550000Y-48600001I0J249999D01*
G01*
X133550000Y-47899999D01*
G75*
G02*
X133799999Y-47650000I249999J0D01*
G01*
X134700001Y-47650000D01*
G75*
G02*
X134950000Y-47899999I0J-249999D01*
G01*
X134950000Y-48600001D01*
G75*
G02*
X134700001Y-48850000I-249999J0D01*
G01*
G37*
G36*
G01*
X147200001Y-46850000D02*
X146299999Y-46850000D01*
G75*
G02*
X146050000Y-46600001I0J249999D01*
G01*
X146050000Y-45899999D01*
G75*
G02*
X146299999Y-45650000I249999J0D01*
G01*
X147200001Y-45650000D01*
G75*
G02*
X147450000Y-45899999I0J-249999D01*
G01*
X147450000Y-46600001D01*
G75*
G02*
X147200001Y-46850000I-249999J0D01*
G01*
G37*
G36*
G01*
X147200001Y-48850000D02*
X146299999Y-48850000D01*
G75*
G02*
X146050000Y-48600001I0J249999D01*
G01*
X146050000Y-47899999D01*
G75*
G02*
X146299999Y-47650000I249999J0D01*
G01*
X147200001Y-47650000D01*
G75*
G02*
X147450000Y-47899999I0J-249999D01*
G01*
X147450000Y-48600001D01*
G75*
G02*
X147200001Y-48850000I-249999J0D01*
G01*
G37*
G36*
G01*
X144700001Y-46850000D02*
X143799999Y-46850000D01*
G75*
G02*
X143550000Y-46600001I0J249999D01*
G01*
X143550000Y-45899999D01*
G75*
G02*
X143799999Y-45650000I249999J0D01*
G01*
X144700001Y-45650000D01*
G75*
G02*
X144950000Y-45899999I0J-249999D01*
G01*
X144950000Y-46600001D01*
G75*
G02*
X144700001Y-46850000I-249999J0D01*
G01*
G37*
G36*
G01*
X144700001Y-48850000D02*
X143799999Y-48850000D01*
G75*
G02*
X143550000Y-48600001I0J249999D01*
G01*
X143550000Y-47899999D01*
G75*
G02*
X143799999Y-47650000I249999J0D01*
G01*
X144700001Y-47650000D01*
G75*
G02*
X144950000Y-47899999I0J-249999D01*
G01*
X144950000Y-48600001D01*
G75*
G02*
X144700001Y-48850000I-249999J0D01*
G01*
G37*
D16*
X146500000Y-88000000D03*
X143500000Y-88950000D03*
X143500000Y-87050000D03*
D17*
X113000000Y-86500000D03*
X113950000Y-89500000D03*
X112050000Y-89500000D03*
X108000000Y-86500000D03*
X108950000Y-89500000D03*
X107050000Y-89500000D03*
X157480000Y-48260000D03*
X156530000Y-45260000D03*
X158430000Y-45260000D03*
X153035000Y-48260000D03*
X152085000Y-45260000D03*
X153985000Y-45260000D03*
D18*
X127500000Y-46000000D03*
X127500000Y-51000000D03*
G36*
G01*
X126135000Y-40562500D02*
X127085000Y-40562500D01*
G75*
G02*
X127335000Y-40812500I0J-250000D01*
G01*
X127335000Y-41487500D01*
G75*
G02*
X127085000Y-41737500I-250000J0D01*
G01*
X126135000Y-41737500D01*
G75*
G02*
X125885000Y-41487500I0J250000D01*
G01*
X125885000Y-40812500D01*
G75*
G02*
X126135000Y-40562500I250000J0D01*
G01*
G37*
G36*
G01*
X126135000Y-38487500D02*
X127085000Y-38487500D01*
G75*
G02*
X127335000Y-38737500I0J-250000D01*
G01*
X127335000Y-39412500D01*
G75*
G02*
X127085000Y-39662500I-250000J0D01*
G01*
X126135000Y-39662500D01*
G75*
G02*
X125885000Y-39412500I0J250000D01*
G01*
X125885000Y-38737500D01*
G75*
G02*
X126135000Y-38487500I250000J0D01*
G01*
G37*
G36*
G01*
X128635000Y-40562500D02*
X129585000Y-40562500D01*
G75*
G02*
X129835000Y-40812500I0J-250000D01*
G01*
X129835000Y-41487500D01*
G75*
G02*
X129585000Y-41737500I-250000J0D01*
G01*
X128635000Y-41737500D01*
G75*
G02*
X128385000Y-41487500I0J250000D01*
G01*
X128385000Y-40812500D01*
G75*
G02*
X128635000Y-40562500I250000J0D01*
G01*
G37*
G36*
G01*
X128635000Y-38487500D02*
X129585000Y-38487500D01*
G75*
G02*
X129835000Y-38737500I0J-250000D01*
G01*
X129835000Y-39412500D01*
G75*
G02*
X129585000Y-39662500I-250000J0D01*
G01*
X128635000Y-39662500D01*
G75*
G02*
X128385000Y-39412500I0J250000D01*
G01*
X128385000Y-38737500D01*
G75*
G02*
X128635000Y-38487500I250000J0D01*
G01*
G37*
G36*
G01*
X118135000Y-40562500D02*
X119085000Y-40562500D01*
G75*
G02*
X119335000Y-40812500I0J-250000D01*
G01*
X119335000Y-41487500D01*
G75*
G02*
X119085000Y-41737500I-250000J0D01*
G01*
X118135000Y-41737500D01*
G75*
G02*
X117885000Y-41487500I0J250000D01*
G01*
X117885000Y-40812500D01*
G75*
G02*
X118135000Y-40562500I250000J0D01*
G01*
G37*
G36*
G01*
X118135000Y-38487500D02*
X119085000Y-38487500D01*
G75*
G02*
X119335000Y-38737500I0J-250000D01*
G01*
X119335000Y-39412500D01*
G75*
G02*
X119085000Y-39662500I-250000J0D01*
G01*
X118135000Y-39662500D01*
G75*
G02*
X117885000Y-39412500I0J250000D01*
G01*
X117885000Y-38737500D01*
G75*
G02*
X118135000Y-38487500I250000J0D01*
G01*
G37*
G36*
G01*
X111525000Y-80987500D02*
X112475000Y-80987500D01*
G75*
G02*
X112725000Y-81237500I0J-250000D01*
G01*
X112725000Y-81912500D01*
G75*
G02*
X112475000Y-82162500I-250000J0D01*
G01*
X111525000Y-82162500D01*
G75*
G02*
X111275000Y-81912500I0J250000D01*
G01*
X111275000Y-81237500D01*
G75*
G02*
X111525000Y-80987500I250000J0D01*
G01*
G37*
G36*
G01*
X111525000Y-78912500D02*
X112475000Y-78912500D01*
G75*
G02*
X112725000Y-79162500I0J-250000D01*
G01*
X112725000Y-79837500D01*
G75*
G02*
X112475000Y-80087500I-250000J0D01*
G01*
X111525000Y-80087500D01*
G75*
G02*
X111275000Y-79837500I0J250000D01*
G01*
X111275000Y-79162500D01*
G75*
G02*
X111525000Y-78912500I250000J0D01*
G01*
G37*
G36*
G01*
X109025000Y-80987500D02*
X109975000Y-80987500D01*
G75*
G02*
X110225000Y-81237500I0J-250000D01*
G01*
X110225000Y-81912500D01*
G75*
G02*
X109975000Y-82162500I-250000J0D01*
G01*
X109025000Y-82162500D01*
G75*
G02*
X108775000Y-81912500I0J250000D01*
G01*
X108775000Y-81237500D01*
G75*
G02*
X109025000Y-80987500I250000J0D01*
G01*
G37*
G36*
G01*
X109025000Y-78912500D02*
X109975000Y-78912500D01*
G75*
G02*
X110225000Y-79162500I0J-250000D01*
G01*
X110225000Y-79837500D01*
G75*
G02*
X109975000Y-80087500I-250000J0D01*
G01*
X109025000Y-80087500D01*
G75*
G02*
X108775000Y-79837500I0J250000D01*
G01*
X108775000Y-79162500D01*
G75*
G02*
X109025000Y-78912500I250000J0D01*
G01*
G37*
G36*
G01*
X106525000Y-80987500D02*
X107475000Y-80987500D01*
G75*
G02*
X107725000Y-81237500I0J-250000D01*
G01*
X107725000Y-81912500D01*
G75*
G02*
X107475000Y-82162500I-250000J0D01*
G01*
X106525000Y-82162500D01*
G75*
G02*
X106275000Y-81912500I0J250000D01*
G01*
X106275000Y-81237500D01*
G75*
G02*
X106525000Y-80987500I250000J0D01*
G01*
G37*
G36*
G01*
X106525000Y-78912500D02*
X107475000Y-78912500D01*
G75*
G02*
X107725000Y-79162500I0J-250000D01*
G01*
X107725000Y-79837500D01*
G75*
G02*
X107475000Y-80087500I-250000J0D01*
G01*
X106525000Y-80087500D01*
G75*
G02*
X106275000Y-79837500I0J250000D01*
G01*
X106275000Y-79162500D01*
G75*
G02*
X106525000Y-78912500I250000J0D01*
G01*
G37*
D19*
X154900000Y-95565000D03*
X154900000Y-94615000D03*
X154900000Y-93665000D03*
X157520000Y-93665000D03*
X157520000Y-94615000D03*
X157520000Y-95565000D03*
G36*
G01*
X139237500Y-75812499D02*
X138762500Y-75812499D01*
G75*
G02*
X138525000Y-75574999I0J237500D01*
G01*
X138525000Y-74974999D01*
G75*
G02*
X138762500Y-74737499I237500J0D01*
G01*
X139237500Y-74737499D01*
G75*
G02*
X139475000Y-74974999I0J-237500D01*
G01*
X139475000Y-75574999D01*
G75*
G02*
X139237500Y-75812499I-237500J0D01*
G01*
G37*
G36*
G01*
X139237500Y-77537499D02*
X138762500Y-77537499D01*
G75*
G02*
X138525000Y-77299999I0J237500D01*
G01*
X138525000Y-76699999D01*
G75*
G02*
X138762500Y-76462499I237500J0D01*
G01*
X139237500Y-76462499D01*
G75*
G02*
X139475000Y-76699999I0J-237500D01*
G01*
X139475000Y-77299999D01*
G75*
G02*
X139237500Y-77537499I-237500J0D01*
G01*
G37*
G36*
G01*
X138762500Y-80687501D02*
X139237500Y-80687501D01*
G75*
G02*
X139475000Y-80925001I0J-237500D01*
G01*
X139475000Y-81525001D01*
G75*
G02*
X139237500Y-81762501I-237500J0D01*
G01*
X138762500Y-81762501D01*
G75*
G02*
X138525000Y-81525001I0J237500D01*
G01*
X138525000Y-80925001D01*
G75*
G02*
X138762500Y-80687501I237500J0D01*
G01*
G37*
G36*
G01*
X138762500Y-78962501D02*
X139237500Y-78962501D01*
G75*
G02*
X139475000Y-79200001I0J-237500D01*
G01*
X139475000Y-79800001D01*
G75*
G02*
X139237500Y-80037501I-237500J0D01*
G01*
X138762500Y-80037501D01*
G75*
G02*
X138525000Y-79800001I0J237500D01*
G01*
X138525000Y-79200001D01*
G75*
G02*
X138762500Y-78962501I237500J0D01*
G01*
G37*
D20*
X180000000Y-42500000D03*
X100000000Y-42500000D03*
X180000000Y-92500000D03*
X100000000Y-92500000D03*
D21*
X143000000Y-76000000D03*
X143000000Y-80880000D03*
G36*
G01*
X134900000Y-79500000D02*
X134900000Y-80825000D01*
G75*
G02*
X134825000Y-80900000I-75000J0D01*
G01*
X134675000Y-80900000D01*
G75*
G02*
X134600000Y-80825000I0J75000D01*
G01*
X134600000Y-79500000D01*
G75*
G02*
X134675000Y-79425000I75000J0D01*
G01*
X134825000Y-79425000D01*
G75*
G02*
X134900000Y-79500000I0J-75000D01*
G01*
G37*
G36*
G01*
X134400000Y-79500000D02*
X134400000Y-80825000D01*
G75*
G02*
X134325000Y-80900000I-75000J0D01*
G01*
X134175000Y-80900000D01*
G75*
G02*
X134100000Y-80825000I0J75000D01*
G01*
X134100000Y-79500000D01*
G75*
G02*
X134175000Y-79425000I75000J0D01*
G01*
X134325000Y-79425000D01*
G75*
G02*
X134400000Y-79500000I0J-75000D01*
G01*
G37*
G36*
G01*
X133900000Y-79500000D02*
X133900000Y-80825000D01*
G75*
G02*
X133825000Y-80900000I-75000J0D01*
G01*
X133675000Y-80900000D01*
G75*
G02*
X133600000Y-80825000I0J75000D01*
G01*
X133600000Y-79500000D01*
G75*
G02*
X133675000Y-79425000I75000J0D01*
G01*
X133825000Y-79425000D01*
G75*
G02*
X133900000Y-79500000I0J-75000D01*
G01*
G37*
G36*
G01*
X133400000Y-79500000D02*
X133400000Y-80825000D01*
G75*
G02*
X133325000Y-80900000I-75000J0D01*
G01*
X133175000Y-80900000D01*
G75*
G02*
X133100000Y-80825000I0J75000D01*
G01*
X133100000Y-79500000D01*
G75*
G02*
X133175000Y-79425000I75000J0D01*
G01*
X133325000Y-79425000D01*
G75*
G02*
X133400000Y-79500000I0J-75000D01*
G01*
G37*
G36*
G01*
X132900000Y-79500000D02*
X132900000Y-80825000D01*
G75*
G02*
X132825000Y-80900000I-75000J0D01*
G01*
X132675000Y-80900000D01*
G75*
G02*
X132600000Y-80825000I0J75000D01*
G01*
X132600000Y-79500000D01*
G75*
G02*
X132675000Y-79425000I75000J0D01*
G01*
X132825000Y-79425000D01*
G75*
G02*
X132900000Y-79500000I0J-75000D01*
G01*
G37*
G36*
G01*
X132400000Y-79500000D02*
X132400000Y-80825000D01*
G75*
G02*
X132325000Y-80900000I-75000J0D01*
G01*
X132175000Y-80900000D01*
G75*
G02*
X132100000Y-80825000I0J75000D01*
G01*
X132100000Y-79500000D01*
G75*
G02*
X132175000Y-79425000I75000J0D01*
G01*
X132325000Y-79425000D01*
G75*
G02*
X132400000Y-79500000I0J-75000D01*
G01*
G37*
G36*
G01*
X131900000Y-79500000D02*
X131900000Y-80825000D01*
G75*
G02*
X131825000Y-80900000I-75000J0D01*
G01*
X131675000Y-80900000D01*
G75*
G02*
X131600000Y-80825000I0J75000D01*
G01*
X131600000Y-79500000D01*
G75*
G02*
X131675000Y-79425000I75000J0D01*
G01*
X131825000Y-79425000D01*
G75*
G02*
X131900000Y-79500000I0J-75000D01*
G01*
G37*
G36*
G01*
X131400000Y-79500000D02*
X131400000Y-80825000D01*
G75*
G02*
X131325000Y-80900000I-75000J0D01*
G01*
X131175000Y-80900000D01*
G75*
G02*
X131100000Y-80825000I0J75000D01*
G01*
X131100000Y-79500000D01*
G75*
G02*
X131175000Y-79425000I75000J0D01*
G01*
X131325000Y-79425000D01*
G75*
G02*
X131400000Y-79500000I0J-75000D01*
G01*
G37*
G36*
G01*
X130900000Y-79500000D02*
X130900000Y-80825000D01*
G75*
G02*
X130825000Y-80900000I-75000J0D01*
G01*
X130675000Y-80900000D01*
G75*
G02*
X130600000Y-80825000I0J75000D01*
G01*
X130600000Y-79500000D01*
G75*
G02*
X130675000Y-79425000I75000J0D01*
G01*
X130825000Y-79425000D01*
G75*
G02*
X130900000Y-79500000I0J-75000D01*
G01*
G37*
G36*
G01*
X130400000Y-79500000D02*
X130400000Y-80825000D01*
G75*
G02*
X130325000Y-80900000I-75000J0D01*
G01*
X130175000Y-80900000D01*
G75*
G02*
X130100000Y-80825000I0J75000D01*
G01*
X130100000Y-79500000D01*
G75*
G02*
X130175000Y-79425000I75000J0D01*
G01*
X130325000Y-79425000D01*
G75*
G02*
X130400000Y-79500000I0J-75000D01*
G01*
G37*
G36*
G01*
X129900000Y-79500000D02*
X129900000Y-80825000D01*
G75*
G02*
X129825000Y-80900000I-75000J0D01*
G01*
X129675000Y-80900000D01*
G75*
G02*
X129600000Y-80825000I0J75000D01*
G01*
X129600000Y-79500000D01*
G75*
G02*
X129675000Y-79425000I75000J0D01*
G01*
X129825000Y-79425000D01*
G75*
G02*
X129900000Y-79500000I0J-75000D01*
G01*
G37*
G36*
G01*
X129400000Y-79500000D02*
X129400000Y-80825000D01*
G75*
G02*
X129325000Y-80900000I-75000J0D01*
G01*
X129175000Y-80900000D01*
G75*
G02*
X129100000Y-80825000I0J75000D01*
G01*
X129100000Y-79500000D01*
G75*
G02*
X129175000Y-79425000I75000J0D01*
G01*
X129325000Y-79425000D01*
G75*
G02*
X129400000Y-79500000I0J-75000D01*
G01*
G37*
G36*
G01*
X128575000Y-78675000D02*
X128575000Y-78825000D01*
G75*
G02*
X128500000Y-78900000I-75000J0D01*
G01*
X127175000Y-78900000D01*
G75*
G02*
X127100000Y-78825000I0J75000D01*
G01*
X127100000Y-78675000D01*
G75*
G02*
X127175000Y-78600000I75000J0D01*
G01*
X128500000Y-78600000D01*
G75*
G02*
X128575000Y-78675000I0J-75000D01*
G01*
G37*
G36*
G01*
X128575000Y-78175000D02*
X128575000Y-78325000D01*
G75*
G02*
X128500000Y-78400000I-75000J0D01*
G01*
X127175000Y-78400000D01*
G75*
G02*
X127100000Y-78325000I0J75000D01*
G01*
X127100000Y-78175000D01*
G75*
G02*
X127175000Y-78100000I75000J0D01*
G01*
X128500000Y-78100000D01*
G75*
G02*
X128575000Y-78175000I0J-75000D01*
G01*
G37*
G36*
G01*
X128575000Y-77675000D02*
X128575000Y-77825000D01*
G75*
G02*
X128500000Y-77900000I-75000J0D01*
G01*
X127175000Y-77900000D01*
G75*
G02*
X127100000Y-77825000I0J75000D01*
G01*
X127100000Y-77675000D01*
G75*
G02*
X127175000Y-77600000I75000J0D01*
G01*
X128500000Y-77600000D01*
G75*
G02*
X128575000Y-77675000I0J-75000D01*
G01*
G37*
G36*
G01*
X128575000Y-77175000D02*
X128575000Y-77325000D01*
G75*
G02*
X128500000Y-77400000I-75000J0D01*
G01*
X127175000Y-77400000D01*
G75*
G02*
X127100000Y-77325000I0J75000D01*
G01*
X127100000Y-77175000D01*
G75*
G02*
X127175000Y-77100000I75000J0D01*
G01*
X128500000Y-77100000D01*
G75*
G02*
X128575000Y-77175000I0J-75000D01*
G01*
G37*
G36*
G01*
X128575000Y-76675000D02*
X128575000Y-76825000D01*
G75*
G02*
X128500000Y-76900000I-75000J0D01*
G01*
X127175000Y-76900000D01*
G75*
G02*
X127100000Y-76825000I0J75000D01*
G01*
X127100000Y-76675000D01*
G75*
G02*
X127175000Y-76600000I75000J0D01*
G01*
X128500000Y-76600000D01*
G75*
G02*
X128575000Y-76675000I0J-75000D01*
G01*
G37*
G36*
G01*
X128575000Y-76175000D02*
X128575000Y-76325000D01*
G75*
G02*
X128500000Y-76400000I-75000J0D01*
G01*
X127175000Y-76400000D01*
G75*
G02*
X127100000Y-76325000I0J75000D01*
G01*
X127100000Y-76175000D01*
G75*
G02*
X127175000Y-76100000I75000J0D01*
G01*
X128500000Y-76100000D01*
G75*
G02*
X128575000Y-76175000I0J-75000D01*
G01*
G37*
G36*
G01*
X128575000Y-75675000D02*
X128575000Y-75825000D01*
G75*
G02*
X128500000Y-75900000I-75000J0D01*
G01*
X127175000Y-75900000D01*
G75*
G02*
X127100000Y-75825000I0J75000D01*
G01*
X127100000Y-75675000D01*
G75*
G02*
X127175000Y-75600000I75000J0D01*
G01*
X128500000Y-75600000D01*
G75*
G02*
X128575000Y-75675000I0J-75000D01*
G01*
G37*
G36*
G01*
X128575000Y-75175000D02*
X128575000Y-75325000D01*
G75*
G02*
X128500000Y-75400000I-75000J0D01*
G01*
X127175000Y-75400000D01*
G75*
G02*
X127100000Y-75325000I0J75000D01*
G01*
X127100000Y-75175000D01*
G75*
G02*
X127175000Y-75100000I75000J0D01*
G01*
X128500000Y-75100000D01*
G75*
G02*
X128575000Y-75175000I0J-75000D01*
G01*
G37*
G36*
G01*
X128575000Y-74675000D02*
X128575000Y-74825000D01*
G75*
G02*
X128500000Y-74900000I-75000J0D01*
G01*
X127175000Y-74900000D01*
G75*
G02*
X127100000Y-74825000I0J75000D01*
G01*
X127100000Y-74675000D01*
G75*
G02*
X127175000Y-74600000I75000J0D01*
G01*
X128500000Y-74600000D01*
G75*
G02*
X128575000Y-74675000I0J-75000D01*
G01*
G37*
G36*
G01*
X128575000Y-74175000D02*
X128575000Y-74325000D01*
G75*
G02*
X128500000Y-74400000I-75000J0D01*
G01*
X127175000Y-74400000D01*
G75*
G02*
X127100000Y-74325000I0J75000D01*
G01*
X127100000Y-74175000D01*
G75*
G02*
X127175000Y-74100000I75000J0D01*
G01*
X128500000Y-74100000D01*
G75*
G02*
X128575000Y-74175000I0J-75000D01*
G01*
G37*
G36*
G01*
X128575000Y-73675000D02*
X128575000Y-73825000D01*
G75*
G02*
X128500000Y-73900000I-75000J0D01*
G01*
X127175000Y-73900000D01*
G75*
G02*
X127100000Y-73825000I0J75000D01*
G01*
X127100000Y-73675000D01*
G75*
G02*
X127175000Y-73600000I75000J0D01*
G01*
X128500000Y-73600000D01*
G75*
G02*
X128575000Y-73675000I0J-75000D01*
G01*
G37*
G36*
G01*
X128575000Y-73175000D02*
X128575000Y-73325000D01*
G75*
G02*
X128500000Y-73400000I-75000J0D01*
G01*
X127175000Y-73400000D01*
G75*
G02*
X127100000Y-73325000I0J75000D01*
G01*
X127100000Y-73175000D01*
G75*
G02*
X127175000Y-73100000I75000J0D01*
G01*
X128500000Y-73100000D01*
G75*
G02*
X128575000Y-73175000I0J-75000D01*
G01*
G37*
G36*
G01*
X129400000Y-71175000D02*
X129400000Y-72500000D01*
G75*
G02*
X129325000Y-72575000I-75000J0D01*
G01*
X129175000Y-72575000D01*
G75*
G02*
X129100000Y-72500000I0J75000D01*
G01*
X129100000Y-71175000D01*
G75*
G02*
X129175000Y-71100000I75000J0D01*
G01*
X129325000Y-71100000D01*
G75*
G02*
X129400000Y-71175000I0J-75000D01*
G01*
G37*
G36*
G01*
X129900000Y-71175000D02*
X129900000Y-72500000D01*
G75*
G02*
X129825000Y-72575000I-75000J0D01*
G01*
X129675000Y-72575000D01*
G75*
G02*
X129600000Y-72500000I0J75000D01*
G01*
X129600000Y-71175000D01*
G75*
G02*
X129675000Y-71100000I75000J0D01*
G01*
X129825000Y-71100000D01*
G75*
G02*
X129900000Y-71175000I0J-75000D01*
G01*
G37*
G36*
G01*
X130400000Y-71175000D02*
X130400000Y-72500000D01*
G75*
G02*
X130325000Y-72575000I-75000J0D01*
G01*
X130175000Y-72575000D01*
G75*
G02*
X130100000Y-72500000I0J75000D01*
G01*
X130100000Y-71175000D01*
G75*
G02*
X130175000Y-71100000I75000J0D01*
G01*
X130325000Y-71100000D01*
G75*
G02*
X130400000Y-71175000I0J-75000D01*
G01*
G37*
G36*
G01*
X130900000Y-71175000D02*
X130900000Y-72500000D01*
G75*
G02*
X130825000Y-72575000I-75000J0D01*
G01*
X130675000Y-72575000D01*
G75*
G02*
X130600000Y-72500000I0J75000D01*
G01*
X130600000Y-71175000D01*
G75*
G02*
X130675000Y-71100000I75000J0D01*
G01*
X130825000Y-71100000D01*
G75*
G02*
X130900000Y-71175000I0J-75000D01*
G01*
G37*
G36*
G01*
X131400000Y-71175000D02*
X131400000Y-72500000D01*
G75*
G02*
X131325000Y-72575000I-75000J0D01*
G01*
X131175000Y-72575000D01*
G75*
G02*
X131100000Y-72500000I0J75000D01*
G01*
X131100000Y-71175000D01*
G75*
G02*
X131175000Y-71100000I75000J0D01*
G01*
X131325000Y-71100000D01*
G75*
G02*
X131400000Y-71175000I0J-75000D01*
G01*
G37*
G36*
G01*
X131900000Y-71175000D02*
X131900000Y-72500000D01*
G75*
G02*
X131825000Y-72575000I-75000J0D01*
G01*
X131675000Y-72575000D01*
G75*
G02*
X131600000Y-72500000I0J75000D01*
G01*
X131600000Y-71175000D01*
G75*
G02*
X131675000Y-71100000I75000J0D01*
G01*
X131825000Y-71100000D01*
G75*
G02*
X131900000Y-71175000I0J-75000D01*
G01*
G37*
G36*
G01*
X132400000Y-71175000D02*
X132400000Y-72500000D01*
G75*
G02*
X132325000Y-72575000I-75000J0D01*
G01*
X132175000Y-72575000D01*
G75*
G02*
X132100000Y-72500000I0J75000D01*
G01*
X132100000Y-71175000D01*
G75*
G02*
X132175000Y-71100000I75000J0D01*
G01*
X132325000Y-71100000D01*
G75*
G02*
X132400000Y-71175000I0J-75000D01*
G01*
G37*
G36*
G01*
X132900000Y-71175000D02*
X132900000Y-72500000D01*
G75*
G02*
X132825000Y-72575000I-75000J0D01*
G01*
X132675000Y-72575000D01*
G75*
G02*
X132600000Y-72500000I0J75000D01*
G01*
X132600000Y-71175000D01*
G75*
G02*
X132675000Y-71100000I75000J0D01*
G01*
X132825000Y-71100000D01*
G75*
G02*
X132900000Y-71175000I0J-75000D01*
G01*
G37*
G36*
G01*
X133400000Y-71175000D02*
X133400000Y-72500000D01*
G75*
G02*
X133325000Y-72575000I-75000J0D01*
G01*
X133175000Y-72575000D01*
G75*
G02*
X133100000Y-72500000I0J75000D01*
G01*
X133100000Y-71175000D01*
G75*
G02*
X133175000Y-71100000I75000J0D01*
G01*
X133325000Y-71100000D01*
G75*
G02*
X133400000Y-71175000I0J-75000D01*
G01*
G37*
G36*
G01*
X133900000Y-71175000D02*
X133900000Y-72500000D01*
G75*
G02*
X133825000Y-72575000I-75000J0D01*
G01*
X133675000Y-72575000D01*
G75*
G02*
X133600000Y-72500000I0J75000D01*
G01*
X133600000Y-71175000D01*
G75*
G02*
X133675000Y-71100000I75000J0D01*
G01*
X133825000Y-71100000D01*
G75*
G02*
X133900000Y-71175000I0J-75000D01*
G01*
G37*
G36*
G01*
X134400000Y-71175000D02*
X134400000Y-72500000D01*
G75*
G02*
X134325000Y-72575000I-75000J0D01*
G01*
X134175000Y-72575000D01*
G75*
G02*
X134100000Y-72500000I0J75000D01*
G01*
X134100000Y-71175000D01*
G75*
G02*
X134175000Y-71100000I75000J0D01*
G01*
X134325000Y-71100000D01*
G75*
G02*
X134400000Y-71175000I0J-75000D01*
G01*
G37*
G36*
G01*
X134900000Y-71175000D02*
X134900000Y-72500000D01*
G75*
G02*
X134825000Y-72575000I-75000J0D01*
G01*
X134675000Y-72575000D01*
G75*
G02*
X134600000Y-72500000I0J75000D01*
G01*
X134600000Y-71175000D01*
G75*
G02*
X134675000Y-71100000I75000J0D01*
G01*
X134825000Y-71100000D01*
G75*
G02*
X134900000Y-71175000I0J-75000D01*
G01*
G37*
G36*
G01*
X136900000Y-73175000D02*
X136900000Y-73325000D01*
G75*
G02*
X136825000Y-73400000I-75000J0D01*
G01*
X135500000Y-73400000D01*
G75*
G02*
X135425000Y-73325000I0J75000D01*
G01*
X135425000Y-73175000D01*
G75*
G02*
X135500000Y-73100000I75000J0D01*
G01*
X136825000Y-73100000D01*
G75*
G02*
X136900000Y-73175000I0J-75000D01*
G01*
G37*
G36*
G01*
X136900000Y-73675000D02*
X136900000Y-73825000D01*
G75*
G02*
X136825000Y-73900000I-75000J0D01*
G01*
X135500000Y-73900000D01*
G75*
G02*
X135425000Y-73825000I0J75000D01*
G01*
X135425000Y-73675000D01*
G75*
G02*
X135500000Y-73600000I75000J0D01*
G01*
X136825000Y-73600000D01*
G75*
G02*
X136900000Y-73675000I0J-75000D01*
G01*
G37*
G36*
G01*
X136900000Y-74175000D02*
X136900000Y-74325000D01*
G75*
G02*
X136825000Y-74400000I-75000J0D01*
G01*
X135500000Y-74400000D01*
G75*
G02*
X135425000Y-74325000I0J75000D01*
G01*
X135425000Y-74175000D01*
G75*
G02*
X135500000Y-74100000I75000J0D01*
G01*
X136825000Y-74100000D01*
G75*
G02*
X136900000Y-74175000I0J-75000D01*
G01*
G37*
G36*
G01*
X136900000Y-74675000D02*
X136900000Y-74825000D01*
G75*
G02*
X136825000Y-74900000I-75000J0D01*
G01*
X135500000Y-74900000D01*
G75*
G02*
X135425000Y-74825000I0J75000D01*
G01*
X135425000Y-74675000D01*
G75*
G02*
X135500000Y-74600000I75000J0D01*
G01*
X136825000Y-74600000D01*
G75*
G02*
X136900000Y-74675000I0J-75000D01*
G01*
G37*
G36*
G01*
X136900000Y-75175000D02*
X136900000Y-75325000D01*
G75*
G02*
X136825000Y-75400000I-75000J0D01*
G01*
X135500000Y-75400000D01*
G75*
G02*
X135425000Y-75325000I0J75000D01*
G01*
X135425000Y-75175000D01*
G75*
G02*
X135500000Y-75100000I75000J0D01*
G01*
X136825000Y-75100000D01*
G75*
G02*
X136900000Y-75175000I0J-75000D01*
G01*
G37*
G36*
G01*
X136900000Y-75675000D02*
X136900000Y-75825000D01*
G75*
G02*
X136825000Y-75900000I-75000J0D01*
G01*
X135500000Y-75900000D01*
G75*
G02*
X135425000Y-75825000I0J75000D01*
G01*
X135425000Y-75675000D01*
G75*
G02*
X135500000Y-75600000I75000J0D01*
G01*
X136825000Y-75600000D01*
G75*
G02*
X136900000Y-75675000I0J-75000D01*
G01*
G37*
G36*
G01*
X136900000Y-76175000D02*
X136900000Y-76325000D01*
G75*
G02*
X136825000Y-76400000I-75000J0D01*
G01*
X135500000Y-76400000D01*
G75*
G02*
X135425000Y-76325000I0J75000D01*
G01*
X135425000Y-76175000D01*
G75*
G02*
X135500000Y-76100000I75000J0D01*
G01*
X136825000Y-76100000D01*
G75*
G02*
X136900000Y-76175000I0J-75000D01*
G01*
G37*
G36*
G01*
X136900000Y-76675000D02*
X136900000Y-76825000D01*
G75*
G02*
X136825000Y-76900000I-75000J0D01*
G01*
X135500000Y-76900000D01*
G75*
G02*
X135425000Y-76825000I0J75000D01*
G01*
X135425000Y-76675000D01*
G75*
G02*
X135500000Y-76600000I75000J0D01*
G01*
X136825000Y-76600000D01*
G75*
G02*
X136900000Y-76675000I0J-75000D01*
G01*
G37*
G36*
G01*
X136900000Y-77175000D02*
X136900000Y-77325000D01*
G75*
G02*
X136825000Y-77400000I-75000J0D01*
G01*
X135500000Y-77400000D01*
G75*
G02*
X135425000Y-77325000I0J75000D01*
G01*
X135425000Y-77175000D01*
G75*
G02*
X135500000Y-77100000I75000J0D01*
G01*
X136825000Y-77100000D01*
G75*
G02*
X136900000Y-77175000I0J-75000D01*
G01*
G37*
G36*
G01*
X136900000Y-77675000D02*
X136900000Y-77825000D01*
G75*
G02*
X136825000Y-77900000I-75000J0D01*
G01*
X135500000Y-77900000D01*
G75*
G02*
X135425000Y-77825000I0J75000D01*
G01*
X135425000Y-77675000D01*
G75*
G02*
X135500000Y-77600000I75000J0D01*
G01*
X136825000Y-77600000D01*
G75*
G02*
X136900000Y-77675000I0J-75000D01*
G01*
G37*
G36*
G01*
X136900000Y-78175000D02*
X136900000Y-78325000D01*
G75*
G02*
X136825000Y-78400000I-75000J0D01*
G01*
X135500000Y-78400000D01*
G75*
G02*
X135425000Y-78325000I0J75000D01*
G01*
X135425000Y-78175000D01*
G75*
G02*
X135500000Y-78100000I75000J0D01*
G01*
X136825000Y-78100000D01*
G75*
G02*
X136900000Y-78175000I0J-75000D01*
G01*
G37*
G36*
G01*
X136900000Y-78675000D02*
X136900000Y-78825000D01*
G75*
G02*
X136825000Y-78900000I-75000J0D01*
G01*
X135500000Y-78900000D01*
G75*
G02*
X135425000Y-78825000I0J75000D01*
G01*
X135425000Y-78675000D01*
G75*
G02*
X135500000Y-78600000I75000J0D01*
G01*
X136825000Y-78600000D01*
G75*
G02*
X136900000Y-78675000I0J-75000D01*
G01*
G37*
G36*
G01*
X155345000Y-82400000D02*
X155345000Y-82700000D01*
G75*
G02*
X155195000Y-82850000I-150000J0D01*
G01*
X153545000Y-82850000D01*
G75*
G02*
X153395000Y-82700000I0J150000D01*
G01*
X153395000Y-82400000D01*
G75*
G02*
X153545000Y-82250000I150000J0D01*
G01*
X155195000Y-82250000D01*
G75*
G02*
X155345000Y-82400000I0J-150000D01*
G01*
G37*
G36*
G01*
X155345000Y-81130000D02*
X155345000Y-81430000D01*
G75*
G02*
X155195000Y-81580000I-150000J0D01*
G01*
X153545000Y-81580000D01*
G75*
G02*
X153395000Y-81430000I0J150000D01*
G01*
X153395000Y-81130000D01*
G75*
G02*
X153545000Y-80980000I150000J0D01*
G01*
X155195000Y-80980000D01*
G75*
G02*
X155345000Y-81130000I0J-150000D01*
G01*
G37*
G36*
G01*
X155345000Y-79860000D02*
X155345000Y-80160000D01*
G75*
G02*
X155195000Y-80310000I-150000J0D01*
G01*
X153545000Y-80310000D01*
G75*
G02*
X153395000Y-80160000I0J150000D01*
G01*
X153395000Y-79860000D01*
G75*
G02*
X153545000Y-79710000I150000J0D01*
G01*
X155195000Y-79710000D01*
G75*
G02*
X155345000Y-79860000I0J-150000D01*
G01*
G37*
G36*
G01*
X155345000Y-78590000D02*
X155345000Y-78890000D01*
G75*
G02*
X155195000Y-79040000I-150000J0D01*
G01*
X153545000Y-79040000D01*
G75*
G02*
X153395000Y-78890000I0J150000D01*
G01*
X153395000Y-78590000D01*
G75*
G02*
X153545000Y-78440000I150000J0D01*
G01*
X155195000Y-78440000D01*
G75*
G02*
X155345000Y-78590000I0J-150000D01*
G01*
G37*
G36*
G01*
X155345000Y-77320000D02*
X155345000Y-77620000D01*
G75*
G02*
X155195000Y-77770000I-150000J0D01*
G01*
X153545000Y-77770000D01*
G75*
G02*
X153395000Y-77620000I0J150000D01*
G01*
X153395000Y-77320000D01*
G75*
G02*
X153545000Y-77170000I150000J0D01*
G01*
X155195000Y-77170000D01*
G75*
G02*
X155345000Y-77320000I0J-150000D01*
G01*
G37*
G36*
G01*
X155345000Y-76050000D02*
X155345000Y-76350000D01*
G75*
G02*
X155195000Y-76500000I-150000J0D01*
G01*
X153545000Y-76500000D01*
G75*
G02*
X153395000Y-76350000I0J150000D01*
G01*
X153395000Y-76050000D01*
G75*
G02*
X153545000Y-75900000I150000J0D01*
G01*
X155195000Y-75900000D01*
G75*
G02*
X155345000Y-76050000I0J-150000D01*
G01*
G37*
G36*
G01*
X155345000Y-74780000D02*
X155345000Y-75080000D01*
G75*
G02*
X155195000Y-75230000I-150000J0D01*
G01*
X153545000Y-75230000D01*
G75*
G02*
X153395000Y-75080000I0J150000D01*
G01*
X153395000Y-74780000D01*
G75*
G02*
X153545000Y-74630000I150000J0D01*
G01*
X155195000Y-74630000D01*
G75*
G02*
X155345000Y-74780000I0J-150000D01*
G01*
G37*
G36*
G01*
X155345000Y-73510000D02*
X155345000Y-73810000D01*
G75*
G02*
X155195000Y-73960000I-150000J0D01*
G01*
X153545000Y-73960000D01*
G75*
G02*
X153395000Y-73810000I0J150000D01*
G01*
X153395000Y-73510000D01*
G75*
G02*
X153545000Y-73360000I150000J0D01*
G01*
X155195000Y-73360000D01*
G75*
G02*
X155345000Y-73510000I0J-150000D01*
G01*
G37*
G36*
G01*
X160295000Y-73510000D02*
X160295000Y-73810000D01*
G75*
G02*
X160145000Y-73960000I-150000J0D01*
G01*
X158495000Y-73960000D01*
G75*
G02*
X158345000Y-73810000I0J150000D01*
G01*
X158345000Y-73510000D01*
G75*
G02*
X158495000Y-73360000I150000J0D01*
G01*
X160145000Y-73360000D01*
G75*
G02*
X160295000Y-73510000I0J-150000D01*
G01*
G37*
G36*
G01*
X160295000Y-74780000D02*
X160295000Y-75080000D01*
G75*
G02*
X160145000Y-75230000I-150000J0D01*
G01*
X158495000Y-75230000D01*
G75*
G02*
X158345000Y-75080000I0J150000D01*
G01*
X158345000Y-74780000D01*
G75*
G02*
X158495000Y-74630000I150000J0D01*
G01*
X160145000Y-74630000D01*
G75*
G02*
X160295000Y-74780000I0J-150000D01*
G01*
G37*
G36*
G01*
X160295000Y-76050000D02*
X160295000Y-76350000D01*
G75*
G02*
X160145000Y-76500000I-150000J0D01*
G01*
X158495000Y-76500000D01*
G75*
G02*
X158345000Y-76350000I0J150000D01*
G01*
X158345000Y-76050000D01*
G75*
G02*
X158495000Y-75900000I150000J0D01*
G01*
X160145000Y-75900000D01*
G75*
G02*
X160295000Y-76050000I0J-150000D01*
G01*
G37*
G36*
G01*
X160295000Y-77320000D02*
X160295000Y-77620000D01*
G75*
G02*
X160145000Y-77770000I-150000J0D01*
G01*
X158495000Y-77770000D01*
G75*
G02*
X158345000Y-77620000I0J150000D01*
G01*
X158345000Y-77320000D01*
G75*
G02*
X158495000Y-77170000I150000J0D01*
G01*
X160145000Y-77170000D01*
G75*
G02*
X160295000Y-77320000I0J-150000D01*
G01*
G37*
G36*
G01*
X160295000Y-78590000D02*
X160295000Y-78890000D01*
G75*
G02*
X160145000Y-79040000I-150000J0D01*
G01*
X158495000Y-79040000D01*
G75*
G02*
X158345000Y-78890000I0J150000D01*
G01*
X158345000Y-78590000D01*
G75*
G02*
X158495000Y-78440000I150000J0D01*
G01*
X160145000Y-78440000D01*
G75*
G02*
X160295000Y-78590000I0J-150000D01*
G01*
G37*
G36*
G01*
X160295000Y-79860000D02*
X160295000Y-80160000D01*
G75*
G02*
X160145000Y-80310000I-150000J0D01*
G01*
X158495000Y-80310000D01*
G75*
G02*
X158345000Y-80160000I0J150000D01*
G01*
X158345000Y-79860000D01*
G75*
G02*
X158495000Y-79710000I150000J0D01*
G01*
X160145000Y-79710000D01*
G75*
G02*
X160295000Y-79860000I0J-150000D01*
G01*
G37*
G36*
G01*
X160295000Y-81130000D02*
X160295000Y-81430000D01*
G75*
G02*
X160145000Y-81580000I-150000J0D01*
G01*
X158495000Y-81580000D01*
G75*
G02*
X158345000Y-81430000I0J150000D01*
G01*
X158345000Y-81130000D01*
G75*
G02*
X158495000Y-80980000I150000J0D01*
G01*
X160145000Y-80980000D01*
G75*
G02*
X160295000Y-81130000I0J-150000D01*
G01*
G37*
G36*
G01*
X160295000Y-82400000D02*
X160295000Y-82700000D01*
G75*
G02*
X160145000Y-82850000I-150000J0D01*
G01*
X158495000Y-82850000D01*
G75*
G02*
X158345000Y-82700000I0J150000D01*
G01*
X158345000Y-82400000D01*
G75*
G02*
X158495000Y-82250000I150000J0D01*
G01*
X160145000Y-82250000D01*
G75*
G02*
X160295000Y-82400000I0J-150000D01*
G01*
G37*
G36*
G01*
X163910000Y-95845000D02*
X163910000Y-90845000D01*
G75*
G02*
X166410000Y-88345000I2500000J0D01*
G01*
X171410000Y-88345000D01*
G75*
G02*
X173910000Y-90845000I0J-2500000D01*
G01*
X173910000Y-95845000D01*
G75*
G02*
X171410000Y-98345000I-2500000J0D01*
G01*
X166410000Y-98345000D01*
G75*
G02*
X163910000Y-95845000I0J2500000D01*
G01*
G37*
D22*
X133400000Y-96325000D03*
X133400000Y-88675000D03*
X127400000Y-96325000D03*
X127400000Y-88675000D03*
X121400000Y-88675000D03*
X121400000Y-96325000D03*
G36*
G01*
X169530001Y-81100000D02*
X168629999Y-81100000D01*
G75*
G02*
X168380000Y-80850001I0J249999D01*
G01*
X168380000Y-80149999D01*
G75*
G02*
X168629999Y-79900000I249999J0D01*
G01*
X169530001Y-79900000D01*
G75*
G02*
X169780000Y-80149999I0J-249999D01*
G01*
X169780000Y-80850001D01*
G75*
G02*
X169530001Y-81100000I-249999J0D01*
G01*
G37*
G36*
G01*
X169530001Y-83100000D02*
X168629999Y-83100000D01*
G75*
G02*
X168380000Y-82850001I0J249999D01*
G01*
X168380000Y-82149999D01*
G75*
G02*
X168629999Y-81900000I249999J0D01*
G01*
X169530001Y-81900000D01*
G75*
G02*
X169780000Y-82149999I0J-249999D01*
G01*
X169780000Y-82850001D01*
G75*
G02*
X169530001Y-83100000I-249999J0D01*
G01*
G37*
G36*
G01*
X171129999Y-81900000D02*
X172030001Y-81900000D01*
G75*
G02*
X172280000Y-82149999I0J-249999D01*
G01*
X172280000Y-82850001D01*
G75*
G02*
X172030001Y-83100000I-249999J0D01*
G01*
X171129999Y-83100000D01*
G75*
G02*
X170880000Y-82850001I0J249999D01*
G01*
X170880000Y-82149999D01*
G75*
G02*
X171129999Y-81900000I249999J0D01*
G01*
G37*
G36*
G01*
X171129999Y-79900000D02*
X172030001Y-79900000D01*
G75*
G02*
X172280000Y-80149999I0J-249999D01*
G01*
X172280000Y-80850001D01*
G75*
G02*
X172030001Y-81100000I-249999J0D01*
G01*
X171129999Y-81100000D01*
G75*
G02*
X170880000Y-80850001I0J249999D01*
G01*
X170880000Y-80149999D01*
G75*
G02*
X171129999Y-79900000I249999J0D01*
G01*
G37*
G36*
G01*
X132750000Y-86450001D02*
X132750000Y-85549999D01*
G75*
G02*
X132999999Y-85300000I249999J0D01*
G01*
X133700001Y-85300000D01*
G75*
G02*
X133950000Y-85549999I0J-249999D01*
G01*
X133950000Y-86450001D01*
G75*
G02*
X133700001Y-86700000I-249999J0D01*
G01*
X132999999Y-86700000D01*
G75*
G02*
X132750000Y-86450001I0J249999D01*
G01*
G37*
G36*
G01*
X130750000Y-86450001D02*
X130750000Y-85549999D01*
G75*
G02*
X130999999Y-85300000I249999J0D01*
G01*
X131700001Y-85300000D01*
G75*
G02*
X131950000Y-85549999I0J-249999D01*
G01*
X131950000Y-86450001D01*
G75*
G02*
X131700001Y-86700000I-249999J0D01*
G01*
X130999999Y-86700000D01*
G75*
G02*
X130750000Y-86450001I0J249999D01*
G01*
G37*
G36*
G01*
X126400000Y-86450001D02*
X126400000Y-85549999D01*
G75*
G02*
X126649999Y-85300000I249999J0D01*
G01*
X127350001Y-85300000D01*
G75*
G02*
X127600000Y-85549999I0J-249999D01*
G01*
X127600000Y-86450001D01*
G75*
G02*
X127350001Y-86700000I-249999J0D01*
G01*
X126649999Y-86700000D01*
G75*
G02*
X126400000Y-86450001I0J249999D01*
G01*
G37*
G36*
G01*
X124400000Y-86450001D02*
X124400000Y-85549999D01*
G75*
G02*
X124649999Y-85300000I249999J0D01*
G01*
X125350001Y-85300000D01*
G75*
G02*
X125600000Y-85549999I0J-249999D01*
G01*
X125600000Y-86450001D01*
G75*
G02*
X125350001Y-86700000I-249999J0D01*
G01*
X124649999Y-86700000D01*
G75*
G02*
X124400000Y-86450001I0J249999D01*
G01*
G37*
G36*
G01*
X119885000Y-85549999D02*
X119885000Y-86450001D01*
G75*
G02*
X119635001Y-86700000I-249999J0D01*
G01*
X118934999Y-86700000D01*
G75*
G02*
X118685000Y-86450001I0J249999D01*
G01*
X118685000Y-85549999D01*
G75*
G02*
X118934999Y-85300000I249999J0D01*
G01*
X119635001Y-85300000D01*
G75*
G02*
X119885000Y-85549999I0J-249999D01*
G01*
G37*
G36*
G01*
X121885000Y-85549999D02*
X121885000Y-86450001D01*
G75*
G02*
X121635001Y-86700000I-249999J0D01*
G01*
X120934999Y-86700000D01*
G75*
G02*
X120685000Y-86450001I0J249999D01*
G01*
X120685000Y-85549999D01*
G75*
G02*
X120934999Y-85300000I249999J0D01*
G01*
X121635001Y-85300000D01*
G75*
G02*
X121885000Y-85549999I0J-249999D01*
G01*
G37*
G36*
G01*
X169900000Y-76950001D02*
X169900000Y-76049999D01*
G75*
G02*
X170149999Y-75800000I249999J0D01*
G01*
X170850001Y-75800000D01*
G75*
G02*
X171100000Y-76049999I0J-249999D01*
G01*
X171100000Y-76950001D01*
G75*
G02*
X170850001Y-77200000I-249999J0D01*
G01*
X170149999Y-77200000D01*
G75*
G02*
X169900000Y-76950001I0J249999D01*
G01*
G37*
G36*
G01*
X167900000Y-76950001D02*
X167900000Y-76049999D01*
G75*
G02*
X168149999Y-75800000I249999J0D01*
G01*
X168850001Y-75800000D01*
G75*
G02*
X169100000Y-76049999I0J-249999D01*
G01*
X169100000Y-76950001D01*
G75*
G02*
X168850001Y-77200000I-249999J0D01*
G01*
X168149999Y-77200000D01*
G75*
G02*
X167900000Y-76950001I0J249999D01*
G01*
G37*
G36*
G01*
X169100000Y-73549999D02*
X169100000Y-74450001D01*
G75*
G02*
X168850001Y-74700000I-249999J0D01*
G01*
X168149999Y-74700000D01*
G75*
G02*
X167900000Y-74450001I0J249999D01*
G01*
X167900000Y-73549999D01*
G75*
G02*
X168149999Y-73300000I249999J0D01*
G01*
X168850001Y-73300000D01*
G75*
G02*
X169100000Y-73549999I0J-249999D01*
G01*
G37*
G36*
G01*
X171100000Y-73549999D02*
X171100000Y-74450001D01*
G75*
G02*
X170850001Y-74700000I-249999J0D01*
G01*
X170149999Y-74700000D01*
G75*
G02*
X169900000Y-74450001I0J249999D01*
G01*
X169900000Y-73549999D01*
G75*
G02*
X170149999Y-73300000I249999J0D01*
G01*
X170850001Y-73300000D01*
G75*
G02*
X171100000Y-73549999I0J-249999D01*
G01*
G37*
D23*
X174740000Y-66080000D03*
X174740000Y-63540000D03*
X174740000Y-61000000D03*
X172200000Y-66080000D03*
X172200000Y-63540000D03*
G36*
G01*
X171350000Y-61600000D02*
X171350000Y-60400000D01*
G75*
G02*
X171600000Y-60150000I250000J0D01*
G01*
X172800000Y-60150000D01*
G75*
G02*
X173050000Y-60400000I0J-250000D01*
G01*
X173050000Y-61600000D01*
G75*
G02*
X172800000Y-61850000I-250000J0D01*
G01*
X171600000Y-61850000D01*
G75*
G02*
X171350000Y-61600000I0J250000D01*
G01*
G37*
D24*
X177550000Y-74500000D03*
X177550000Y-81500000D03*
D25*
X177550000Y-75100000D03*
X177550000Y-80900000D03*
D26*
X177550000Y-77000000D03*
X177550000Y-79000000D03*
D27*
X174850000Y-75500000D03*
X174850000Y-80500000D03*
D28*
X174850000Y-76700000D03*
X174850000Y-77350000D03*
X174850000Y-78000000D03*
X174850000Y-78650000D03*
X174850000Y-79300000D03*
G36*
G01*
X151290000Y-95467500D02*
X152240000Y-95467500D01*
G75*
G02*
X152490000Y-95717500I0J-250000D01*
G01*
X152490000Y-96392500D01*
G75*
G02*
X152240000Y-96642500I-250000J0D01*
G01*
X151290000Y-96642500D01*
G75*
G02*
X151040000Y-96392500I0J250000D01*
G01*
X151040000Y-95717500D01*
G75*
G02*
X151290000Y-95467500I250000J0D01*
G01*
G37*
G36*
G01*
X151290000Y-93392500D02*
X152240000Y-93392500D01*
G75*
G02*
X152490000Y-93642500I0J-250000D01*
G01*
X152490000Y-94317500D01*
G75*
G02*
X152240000Y-94567500I-250000J0D01*
G01*
X151290000Y-94567500D01*
G75*
G02*
X151040000Y-94317500I0J250000D01*
G01*
X151040000Y-93642500D01*
G75*
G02*
X151290000Y-93392500I250000J0D01*
G01*
G37*
G36*
G01*
X137475000Y-69512500D02*
X136525000Y-69512500D01*
G75*
G02*
X136275000Y-69262500I0J250000D01*
G01*
X136275000Y-68587500D01*
G75*
G02*
X136525000Y-68337500I250000J0D01*
G01*
X137475000Y-68337500D01*
G75*
G02*
X137725000Y-68587500I0J-250000D01*
G01*
X137725000Y-69262500D01*
G75*
G02*
X137475000Y-69512500I-250000J0D01*
G01*
G37*
G36*
G01*
X137475000Y-71587500D02*
X136525000Y-71587500D01*
G75*
G02*
X136275000Y-71337500I0J250000D01*
G01*
X136275000Y-70662500D01*
G75*
G02*
X136525000Y-70412500I250000J0D01*
G01*
X137475000Y-70412500D01*
G75*
G02*
X137725000Y-70662500I0J-250000D01*
G01*
X137725000Y-71337500D01*
G75*
G02*
X137475000Y-71587500I-250000J0D01*
G01*
G37*
G36*
G01*
X136025000Y-82987500D02*
X136975000Y-82987500D01*
G75*
G02*
X137225000Y-83237500I0J-250000D01*
G01*
X137225000Y-83912500D01*
G75*
G02*
X136975000Y-84162500I-250000J0D01*
G01*
X136025000Y-84162500D01*
G75*
G02*
X135775000Y-83912500I0J250000D01*
G01*
X135775000Y-83237500D01*
G75*
G02*
X136025000Y-82987500I250000J0D01*
G01*
G37*
G36*
G01*
X136025000Y-80912500D02*
X136975000Y-80912500D01*
G75*
G02*
X137225000Y-81162500I0J-250000D01*
G01*
X137225000Y-81837500D01*
G75*
G02*
X136975000Y-82087500I-250000J0D01*
G01*
X136025000Y-82087500D01*
G75*
G02*
X135775000Y-81837500I0J250000D01*
G01*
X135775000Y-81162500D01*
G75*
G02*
X136025000Y-80912500I250000J0D01*
G01*
G37*
G36*
G01*
X125050000Y-80525000D02*
X125050000Y-81475000D01*
G75*
G02*
X124800000Y-81725000I-250000J0D01*
G01*
X124125000Y-81725000D01*
G75*
G02*
X123875000Y-81475000I0J250000D01*
G01*
X123875000Y-80525000D01*
G75*
G02*
X124125000Y-80275000I250000J0D01*
G01*
X124800000Y-80275000D01*
G75*
G02*
X125050000Y-80525000I0J-250000D01*
G01*
G37*
G36*
G01*
X127125000Y-80525000D02*
X127125000Y-81475000D01*
G75*
G02*
X126875000Y-81725000I-250000J0D01*
G01*
X126200000Y-81725000D01*
G75*
G02*
X125950000Y-81475000I0J250000D01*
G01*
X125950000Y-80525000D01*
G75*
G02*
X126200000Y-80275000I250000J0D01*
G01*
X126875000Y-80275000D01*
G75*
G02*
X127125000Y-80525000I0J-250000D01*
G01*
G37*
G36*
G01*
X125512500Y-70525000D02*
X125512500Y-71475000D01*
G75*
G02*
X125262500Y-71725000I-250000J0D01*
G01*
X124587500Y-71725000D01*
G75*
G02*
X124337500Y-71475000I0J250000D01*
G01*
X124337500Y-70525000D01*
G75*
G02*
X124587500Y-70275000I250000J0D01*
G01*
X125262500Y-70275000D01*
G75*
G02*
X125512500Y-70525000I0J-250000D01*
G01*
G37*
G36*
G01*
X127587500Y-70525000D02*
X127587500Y-71475000D01*
G75*
G02*
X127337500Y-71725000I-250000J0D01*
G01*
X126662500Y-71725000D01*
G75*
G02*
X126412500Y-71475000I0J250000D01*
G01*
X126412500Y-70525000D01*
G75*
G02*
X126662500Y-70275000I250000J0D01*
G01*
X127337500Y-70275000D01*
G75*
G02*
X127587500Y-70525000I0J-250000D01*
G01*
G37*
G36*
G01*
X131987500Y-54975000D02*
X131987500Y-54025000D01*
G75*
G02*
X132237500Y-53775000I250000J0D01*
G01*
X132912500Y-53775000D01*
G75*
G02*
X133162500Y-54025000I0J-250000D01*
G01*
X133162500Y-54975000D01*
G75*
G02*
X132912500Y-55225000I-250000J0D01*
G01*
X132237500Y-55225000D01*
G75*
G02*
X131987500Y-54975000I0J250000D01*
G01*
G37*
G36*
G01*
X129912500Y-54975000D02*
X129912500Y-54025000D01*
G75*
G02*
X130162500Y-53775000I250000J0D01*
G01*
X130837500Y-53775000D01*
G75*
G02*
X131087500Y-54025000I0J-250000D01*
G01*
X131087500Y-54975000D01*
G75*
G02*
X130837500Y-55225000I-250000J0D01*
G01*
X130162500Y-55225000D01*
G75*
G02*
X129912500Y-54975000I0J250000D01*
G01*
G37*
G36*
G01*
X160180000Y-95467500D02*
X161130000Y-95467500D01*
G75*
G02*
X161380000Y-95717500I0J-250000D01*
G01*
X161380000Y-96392500D01*
G75*
G02*
X161130000Y-96642500I-250000J0D01*
G01*
X160180000Y-96642500D01*
G75*
G02*
X159930000Y-96392500I0J250000D01*
G01*
X159930000Y-95717500D01*
G75*
G02*
X160180000Y-95467500I250000J0D01*
G01*
G37*
G36*
G01*
X160180000Y-93392500D02*
X161130000Y-93392500D01*
G75*
G02*
X161380000Y-93642500I0J-250000D01*
G01*
X161380000Y-94317500D01*
G75*
G02*
X161130000Y-94567500I-250000J0D01*
G01*
X160180000Y-94567500D01*
G75*
G02*
X159930000Y-94317500I0J250000D01*
G01*
X159930000Y-93642500D01*
G75*
G02*
X160180000Y-93392500I250000J0D01*
G01*
G37*
G36*
G01*
X164047500Y-78580000D02*
X164047500Y-77630000D01*
G75*
G02*
X164297500Y-77380000I250000J0D01*
G01*
X164972500Y-77380000D01*
G75*
G02*
X165222500Y-77630000I0J-250000D01*
G01*
X165222500Y-78580000D01*
G75*
G02*
X164972500Y-78830000I-250000J0D01*
G01*
X164297500Y-78830000D01*
G75*
G02*
X164047500Y-78580000I0J250000D01*
G01*
G37*
G36*
G01*
X161972500Y-78580000D02*
X161972500Y-77630000D01*
G75*
G02*
X162222500Y-77380000I250000J0D01*
G01*
X162897500Y-77380000D01*
G75*
G02*
X163147500Y-77630000I0J-250000D01*
G01*
X163147500Y-78580000D01*
G75*
G02*
X162897500Y-78830000I-250000J0D01*
G01*
X162222500Y-78830000D01*
G75*
G02*
X161972500Y-78580000I0J250000D01*
G01*
G37*
G36*
G01*
X163445000Y-81950000D02*
X164395000Y-81950000D01*
G75*
G02*
X164645000Y-82200000I0J-250000D01*
G01*
X164645000Y-82875000D01*
G75*
G02*
X164395000Y-83125000I-250000J0D01*
G01*
X163445000Y-83125000D01*
G75*
G02*
X163195000Y-82875000I0J250000D01*
G01*
X163195000Y-82200000D01*
G75*
G02*
X163445000Y-81950000I250000J0D01*
G01*
G37*
G36*
G01*
X163445000Y-79875000D02*
X164395000Y-79875000D01*
G75*
G02*
X164645000Y-80125000I0J-250000D01*
G01*
X164645000Y-80800000D01*
G75*
G02*
X164395000Y-81050000I-250000J0D01*
G01*
X163445000Y-81050000D01*
G75*
G02*
X163195000Y-80800000I0J250000D01*
G01*
X163195000Y-80125000D01*
G75*
G02*
X163445000Y-79875000I250000J0D01*
G01*
G37*
G36*
G01*
X165945000Y-81987500D02*
X166895000Y-81987500D01*
G75*
G02*
X167145000Y-82237500I0J-250000D01*
G01*
X167145000Y-82912500D01*
G75*
G02*
X166895000Y-83162500I-250000J0D01*
G01*
X165945000Y-83162500D01*
G75*
G02*
X165695000Y-82912500I0J250000D01*
G01*
X165695000Y-82237500D01*
G75*
G02*
X165945000Y-81987500I250000J0D01*
G01*
G37*
G36*
G01*
X165945000Y-79912500D02*
X166895000Y-79912500D01*
G75*
G02*
X167145000Y-80162500I0J-250000D01*
G01*
X167145000Y-80837500D01*
G75*
G02*
X166895000Y-81087500I-250000J0D01*
G01*
X165945000Y-81087500D01*
G75*
G02*
X165695000Y-80837500I0J250000D01*
G01*
X165695000Y-80162500D01*
G75*
G02*
X165945000Y-79912500I250000J0D01*
G01*
G37*
D29*
X107237080Y-54237080D03*
X121379215Y-68379215D03*
M02*
