M48
; DRILL file {KiCad (5.1.10)-1} date 05/27/22 17:28:43
; FORMAT={-:-/ absolute / metric / decimal}
; #@! TF.CreationDate,2022-05-27T17:28:43+02:00
; #@! TF.GenerationSoftware,Kicad,Pcbnew,(5.1.10)-1
; #@! TF.FileFunction,Plated,1,2,PTH
FMAT,2
METRIC
T1C0.300
T2C0.400
T3C0.500
T4C0.550
T5C0.762
T6C0.800
T7C1.000
T8C1.300
%
G90
G05
T1
X105.0Y-50.0
X105.0Y-60.0
X105.0Y-70.0
X105.0Y-80.0
X105.0Y-90.0
X109.0Y-97.5
X109.25Y-78.0
X109.5Y-87.5
X110.5Y-98.25
X110.75Y-84.0
X112.0Y-97.5
X115.0Y-89.5
X115.0Y-96.0
X119.0Y-77.0
X119.75Y-88.5
X120.0Y-76.0
X122.769Y-76.15
X123.0Y-86.0
X123.25Y-70.0
X123.335Y-75.585
X123.5Y-77.075
X124.25Y-77.65
X124.5Y-75.575
X124.585Y-74.4
X125.184Y-73.825
X125.25Y-75.0
X125.75Y-73.25
X126.0Y-79.0
X127.25Y-82.95
X127.25Y-83.75
X128.5Y-86.0
X128.75Y-69.0
X129.0Y-57.0
X129.0Y-60.5
X129.0Y-67.0
X129.25Y-77.75
X129.25Y-78.55
X130.0Y-73.5
X130.0Y-75.0
X130.0Y-82.5
X131.5Y-60.5
X131.5Y-73.5
X132.175Y-81.75
X132.5Y-69.75
X132.5Y-78.0
X133.25Y-83.5
X133.4Y-87.35
X134.0Y-76.5
X134.0Y-78.0
X134.0Y-83.0
X134.25Y-44.75
X134.5Y-61.0
X134.75Y-84.75
X136.0Y-85.0
X136.5Y-50.0
X136.75Y-44.75
X137.3Y-72.4
X137.35Y-73.3
X137.75Y-74.0
X137.75Y-76.675
X137.75Y-79.5
X138.5Y-88.4
X139.25Y-44.75
X140.5Y-73.925
X141.75Y-44.75
X144.25Y-44.75
X146.0Y-77.5
X146.5Y-50.5
X146.75Y-44.75
X149.25Y-44.75
X149.5Y-62.0
X150.0Y-66.0
X150.75Y-43.0
X150.75Y-50.25
X151.0Y-40.75
X154.5Y-66.0
X154.75Y-39.5
X155.0Y-92.25
X155.0Y-97.0
X155.25Y-48.25
X156.0Y-84.5
X156.2Y-80.0
X156.25Y-95.5
X157.1Y-81.3
X157.5Y-82.5
X159.0Y-94.75
X161.0Y-76.5
X165.5Y-76.5
X167.0Y-78.0
X167.25Y-63.75
X167.5Y-84.0
X168.0Y-64.5
X175.0Y-42.5
X175.0Y-57.5
X175.0Y-72.5
X175.0Y-85.0
T2
X127.0Y-65.0
X133.75Y-65.0
X145.25Y-89.0
X151.75Y-89.0
X167.5Y-71.25
T5
X148.42Y-53.0
X148.42Y-68.24
X150.96Y-53.0
X150.96Y-68.24
X153.5Y-53.0
X153.5Y-68.24
X156.04Y-53.0
X156.04Y-68.24
X158.58Y-53.0
X158.58Y-68.24
T6
X143.0Y-76.0
X143.0Y-80.88
T7
X172.2Y-61.0
X172.2Y-63.54
X172.2Y-66.08
X174.74Y-61.0
X174.74Y-63.54
X174.74Y-66.08
T8
X107.237Y-54.237
X121.379Y-68.379
T3
X177.225Y-74.5G85X177.875Y-74.5
G05
X177.225Y-81.5G85X177.875Y-81.5
G05
T4
X174.85Y-75.65G85X174.85Y-75.35
G05
X174.85Y-80.65G85X174.85Y-80.35
G05
T0
M30
