G04 #@! TF.GenerationSoftware,KiCad,Pcbnew,6.0.11*
G04 #@! TF.CreationDate,2023-02-08T13:55:15+01:00*
G04 #@! TF.ProjectId,pullup_counter_schematic,70756c6c-7570-45f6-936f-756e7465725f,1*
G04 #@! TF.SameCoordinates,Original*
G04 #@! TF.FileFunction,Legend,Top*
G04 #@! TF.FilePolarity,Positive*
%FSLAX46Y46*%
G04 Gerber Fmt 4.6, Leading zero omitted, Abs format (unit mm)*
G04 Created by KiCad (PCBNEW 6.0.11) date 2023-02-08 13:55:15*
%MOMM*%
%LPD*%
G01*
G04 APERTURE LIST*
G04 Aperture macros list*
%AMRoundRect*
0 Rectangle with rounded corners*
0 $1 Rounding radius*
0 $2 $3 $4 $5 $6 $7 $8 $9 X,Y pos of 4 corners*
0 Add a 4 corners polygon primitive as box body*
4,1,4,$2,$3,$4,$5,$6,$7,$8,$9,$2,$3,0*
0 Add four circle primitives for the rounded corners*
1,1,$1+$1,$2,$3*
1,1,$1+$1,$4,$5*
1,1,$1+$1,$6,$7*
1,1,$1+$1,$8,$9*
0 Add four rect primitives between the rounded corners*
20,1,$1+$1,$2,$3,$4,$5,0*
20,1,$1+$1,$4,$5,$6,$7,0*
20,1,$1+$1,$6,$7,$8,$9,0*
20,1,$1+$1,$8,$9,$2,$3,0*%
G04 Aperture macros list end*
%ADD10C,0.152400*%
%ADD11C,0.150000*%
%ADD12C,0.120000*%
%ADD13R,1.350000X0.400000*%
%ADD14O,0.950000X1.250000*%
%ADD15R,1.550000X1.200000*%
%ADD16O,1.550000X0.890000*%
%ADD17R,1.550000X1.500000*%
%ADD18RoundRect,0.250000X0.600000X-0.600000X0.600000X0.600000X-0.600000X0.600000X-0.600000X-0.600000X0*%
%ADD19C,1.700000*%
%ADD20C,3.200000*%
%ADD21RoundRect,0.250000X0.337500X0.475000X-0.337500X0.475000X-0.337500X-0.475000X0.337500X-0.475000X0*%
%ADD22RoundRect,0.250000X0.450000X-0.350000X0.450000X0.350000X-0.450000X0.350000X-0.450000X-0.350000X0*%
%ADD23C,1.500000*%
%ADD24R,1.700000X1.700000*%
%ADD25R,1.750000X4.500000*%
%ADD26R,0.600000X1.500000*%
%ADD27RoundRect,0.150000X0.150000X-0.587500X0.150000X0.587500X-0.150000X0.587500X-0.150000X-0.587500X0*%
%ADD28RoundRect,0.250000X-0.450000X0.350000X-0.450000X-0.350000X0.450000X-0.350000X0.450000X0.350000X0*%
%ADD29RoundRect,0.075000X0.075000X-0.700000X0.075000X0.700000X-0.075000X0.700000X-0.075000X-0.700000X0*%
%ADD30RoundRect,0.075000X0.700000X-0.075000X0.700000X0.075000X-0.700000X0.075000X-0.700000X-0.075000X0*%
%ADD31RoundRect,0.250000X0.350000X0.450000X-0.350000X0.450000X-0.350000X-0.450000X0.350000X-0.450000X0*%
%ADD32RoundRect,0.237500X-0.300000X-0.237500X0.300000X-0.237500X0.300000X0.237500X-0.300000X0.237500X0*%
%ADD33RoundRect,0.250000X-0.475000X0.337500X-0.475000X-0.337500X0.475000X-0.337500X0.475000X0.337500X0*%
%ADD34RoundRect,0.250000X1.250000X0.550000X-1.250000X0.550000X-1.250000X-0.550000X1.250000X-0.550000X0*%
%ADD35RoundRect,0.150000X0.825000X0.150000X-0.825000X0.150000X-0.825000X-0.150000X0.825000X-0.150000X0*%
%ADD36RoundRect,0.237500X0.300000X0.237500X-0.300000X0.237500X-0.300000X-0.237500X0.300000X-0.237500X0*%
%ADD37RoundRect,0.250000X-0.350000X-0.450000X0.350000X-0.450000X0.350000X0.450000X-0.350000X0.450000X0*%
%ADD38RoundRect,0.250000X0.475000X-0.337500X0.475000X0.337500X-0.475000X0.337500X-0.475000X-0.337500X0*%
%ADD39C,2.000000*%
%ADD40R,1.800000X2.500000*%
%ADD41RoundRect,0.150000X-0.150000X0.512500X-0.150000X-0.512500X0.150000X-0.512500X0.150000X0.512500X0*%
%ADD42RoundRect,0.150000X-0.150000X0.650000X-0.150000X-0.650000X0.150000X-0.650000X0.150000X0.650000X0*%
%ADD43RoundRect,0.300000X0.300000X0.450000X-0.300000X0.450000X-0.300000X-0.450000X0.300000X-0.450000X0*%
%ADD44RoundRect,0.300000X0.300000X0.800000X-0.300000X0.800000X-0.300000X-0.800000X0.300000X-0.800000X0*%
%ADD45RoundRect,0.375000X0.425000X0.375000X-0.425000X0.375000X-0.425000X-0.375000X0.425000X-0.375000X0*%
%ADD46RoundRect,0.175000X0.175000X0.625000X-0.175000X0.625000X-0.175000X-0.625000X0.175000X-0.625000X0*%
%ADD47R,2.500000X1.800000*%
%ADD48C,1.524000*%
%ADD49RoundRect,0.240000X-0.460000X0.360000X-0.460000X-0.360000X0.460000X-0.360000X0.460000X0.360000X0*%
G04 APERTURE END LIST*
D10*
X136445638Y-62154895D02*
X136445638Y-62735466D01*
X136406933Y-62851580D01*
X136329523Y-62928990D01*
X136213409Y-62967695D01*
X136136000Y-62967695D01*
X137219733Y-62967695D02*
X136832685Y-62967695D01*
X136832685Y-62154895D01*
X137955123Y-62890285D02*
X137916419Y-62928990D01*
X137800304Y-62967695D01*
X137722895Y-62967695D01*
X137606780Y-62928990D01*
X137529371Y-62851580D01*
X137490666Y-62774171D01*
X137451961Y-62619352D01*
X137451961Y-62503238D01*
X137490666Y-62348419D01*
X137529371Y-62271009D01*
X137606780Y-62193600D01*
X137722895Y-62154895D01*
X137800304Y-62154895D01*
X137916419Y-62193600D01*
X137955123Y-62232304D01*
X138535695Y-62154895D02*
X138535695Y-62735466D01*
X138496990Y-62851580D01*
X138419580Y-62928990D01*
X138303466Y-62967695D01*
X138226057Y-62967695D01*
X139309790Y-62967695D02*
X138922742Y-62967695D01*
X138922742Y-62154895D01*
X140045180Y-62890285D02*
X140006476Y-62928990D01*
X139890361Y-62967695D01*
X139812952Y-62967695D01*
X139696838Y-62928990D01*
X139619428Y-62851580D01*
X139580723Y-62774171D01*
X139542019Y-62619352D01*
X139542019Y-62503238D01*
X139580723Y-62348419D01*
X139619428Y-62271009D01*
X139696838Y-62193600D01*
X139812952Y-62154895D01*
X139890361Y-62154895D01*
X140006476Y-62193600D01*
X140045180Y-62232304D01*
X140625752Y-62154895D02*
X140625752Y-62735466D01*
X140587047Y-62851580D01*
X140509638Y-62928990D01*
X140393523Y-62967695D01*
X140316114Y-62967695D01*
X141399847Y-62967695D02*
X141012800Y-62967695D01*
X141012800Y-62154895D01*
X142135238Y-62890285D02*
X142096533Y-62928990D01*
X141980419Y-62967695D01*
X141903009Y-62967695D01*
X141786895Y-62928990D01*
X141709485Y-62851580D01*
X141670780Y-62774171D01*
X141632076Y-62619352D01*
X141632076Y-62503238D01*
X141670780Y-62348419D01*
X141709485Y-62271009D01*
X141786895Y-62193600D01*
X141903009Y-62154895D01*
X141980419Y-62154895D01*
X142096533Y-62193600D01*
X142135238Y-62232304D01*
X142715809Y-62154895D02*
X142715809Y-62735466D01*
X142677104Y-62851580D01*
X142599695Y-62928990D01*
X142483580Y-62967695D01*
X142406171Y-62967695D01*
X143489904Y-62967695D02*
X143102857Y-62967695D01*
X143102857Y-62154895D01*
X144225295Y-62890285D02*
X144186590Y-62928990D01*
X144070476Y-62967695D01*
X143993066Y-62967695D01*
X143876952Y-62928990D01*
X143799542Y-62851580D01*
X143760838Y-62774171D01*
X143722133Y-62619352D01*
X143722133Y-62503238D01*
X143760838Y-62348419D01*
X143799542Y-62271009D01*
X143876952Y-62193600D01*
X143993066Y-62154895D01*
X144070476Y-62154895D01*
X144186590Y-62193600D01*
X144225295Y-62232304D01*
X164832990Y-99067695D02*
X164832990Y-98254895D01*
X165142628Y-98254895D01*
X165220038Y-98293600D01*
X165258742Y-98332304D01*
X165297447Y-98409714D01*
X165297447Y-98525828D01*
X165258742Y-98603238D01*
X165220038Y-98641942D01*
X165142628Y-98680647D01*
X164832990Y-98680647D01*
X165994133Y-98525828D02*
X165994133Y-99067695D01*
X165645790Y-98525828D02*
X165645790Y-98951580D01*
X165684495Y-99028990D01*
X165761904Y-99067695D01*
X165878019Y-99067695D01*
X165955428Y-99028990D01*
X165994133Y-98990285D01*
X166497295Y-99067695D02*
X166419885Y-99028990D01*
X166381180Y-98951580D01*
X166381180Y-98254895D01*
X166923047Y-99067695D02*
X166845638Y-99028990D01*
X166806933Y-98951580D01*
X166806933Y-98254895D01*
X167581028Y-98525828D02*
X167581028Y-99067695D01*
X167232685Y-98525828D02*
X167232685Y-98951580D01*
X167271390Y-99028990D01*
X167348800Y-99067695D01*
X167464914Y-99067695D01*
X167542323Y-99028990D01*
X167581028Y-98990285D01*
X167968076Y-98525828D02*
X167968076Y-99338628D01*
X167968076Y-98564533D02*
X168045485Y-98525828D01*
X168200304Y-98525828D01*
X168277714Y-98564533D01*
X168316419Y-98603238D01*
X168355123Y-98680647D01*
X168355123Y-98912876D01*
X168316419Y-98990285D01*
X168277714Y-99028990D01*
X168200304Y-99067695D01*
X168045485Y-99067695D01*
X167968076Y-99028990D01*
X169671085Y-99028990D02*
X169593676Y-99067695D01*
X169438857Y-99067695D01*
X169361447Y-99028990D01*
X169322742Y-98990285D01*
X169284038Y-98912876D01*
X169284038Y-98680647D01*
X169322742Y-98603238D01*
X169361447Y-98564533D01*
X169438857Y-98525828D01*
X169593676Y-98525828D01*
X169671085Y-98564533D01*
X170135542Y-99067695D02*
X170058133Y-99028990D01*
X170019428Y-98990285D01*
X169980723Y-98912876D01*
X169980723Y-98680647D01*
X170019428Y-98603238D01*
X170058133Y-98564533D01*
X170135542Y-98525828D01*
X170251657Y-98525828D01*
X170329066Y-98564533D01*
X170367771Y-98603238D01*
X170406476Y-98680647D01*
X170406476Y-98912876D01*
X170367771Y-98990285D01*
X170329066Y-99028990D01*
X170251657Y-99067695D01*
X170135542Y-99067695D01*
X171103161Y-98525828D02*
X171103161Y-99067695D01*
X170754819Y-98525828D02*
X170754819Y-98951580D01*
X170793523Y-99028990D01*
X170870933Y-99067695D01*
X170987047Y-99067695D01*
X171064457Y-99028990D01*
X171103161Y-98990285D01*
X171490209Y-98525828D02*
X171490209Y-99067695D01*
X171490209Y-98603238D02*
X171528914Y-98564533D01*
X171606323Y-98525828D01*
X171722438Y-98525828D01*
X171799847Y-98564533D01*
X171838552Y-98641942D01*
X171838552Y-99067695D01*
X172109485Y-98525828D02*
X172419123Y-98525828D01*
X172225600Y-98254895D02*
X172225600Y-98951580D01*
X172264304Y-99028990D01*
X172341714Y-99067695D01*
X172419123Y-99067695D01*
X172999695Y-99028990D02*
X172922285Y-99067695D01*
X172767466Y-99067695D01*
X172690057Y-99028990D01*
X172651352Y-98951580D01*
X172651352Y-98641942D01*
X172690057Y-98564533D01*
X172767466Y-98525828D01*
X172922285Y-98525828D01*
X172999695Y-98564533D01*
X173038400Y-98641942D01*
X173038400Y-98719352D01*
X172651352Y-98796761D01*
X173386742Y-99067695D02*
X173386742Y-98525828D01*
X173386742Y-98680647D02*
X173425447Y-98603238D01*
X173464152Y-98564533D01*
X173541561Y-98525828D01*
X173618971Y-98525828D01*
X174393066Y-98254895D02*
X174664000Y-99067695D01*
X174934933Y-98254895D01*
X175360685Y-98254895D02*
X175438095Y-98254895D01*
X175515504Y-98293600D01*
X175554209Y-98332304D01*
X175592914Y-98409714D01*
X175631619Y-98564533D01*
X175631619Y-98758057D01*
X175592914Y-98912876D01*
X175554209Y-98990285D01*
X175515504Y-99028990D01*
X175438095Y-99067695D01*
X175360685Y-99067695D01*
X175283276Y-99028990D01*
X175244571Y-98990285D01*
X175205866Y-98912876D01*
X175167161Y-98758057D01*
X175167161Y-98564533D01*
X175205866Y-98409714D01*
X175244571Y-98332304D01*
X175283276Y-98293600D01*
X175360685Y-98254895D01*
X175902552Y-98254895D02*
X176405714Y-98254895D01*
X176134780Y-98564533D01*
X176250895Y-98564533D01*
X176328304Y-98603238D01*
X176367009Y-98641942D01*
X176405714Y-98719352D01*
X176405714Y-98912876D01*
X176367009Y-98990285D01*
X176328304Y-99028990D01*
X176250895Y-99067695D01*
X176018666Y-99067695D01*
X175941257Y-99028990D01*
X175902552Y-98990285D01*
X131682276Y-48054895D02*
X131682276Y-48712876D01*
X131720980Y-48790285D01*
X131759685Y-48828990D01*
X131837095Y-48867695D01*
X131991914Y-48867695D01*
X132069323Y-48828990D01*
X132108028Y-48790285D01*
X132146733Y-48712876D01*
X132146733Y-48054895D01*
X132495076Y-48828990D02*
X132611190Y-48867695D01*
X132804714Y-48867695D01*
X132882123Y-48828990D01*
X132920828Y-48790285D01*
X132959533Y-48712876D01*
X132959533Y-48635466D01*
X132920828Y-48558057D01*
X132882123Y-48519352D01*
X132804714Y-48480647D01*
X132649895Y-48441942D01*
X132572485Y-48403238D01*
X132533780Y-48364533D01*
X132495076Y-48287123D01*
X132495076Y-48209714D01*
X132533780Y-48132304D01*
X132572485Y-48093600D01*
X132649895Y-48054895D01*
X132843419Y-48054895D01*
X132959533Y-48093600D01*
X133772333Y-48867695D02*
X133501400Y-48480647D01*
X133307876Y-48867695D02*
X133307876Y-48054895D01*
X133617514Y-48054895D01*
X133694923Y-48093600D01*
X133733628Y-48132304D01*
X133772333Y-48209714D01*
X133772333Y-48325828D01*
X133733628Y-48403238D01*
X133694923Y-48441942D01*
X133617514Y-48480647D01*
X133307876Y-48480647D01*
X134081971Y-48132304D02*
X134120676Y-48093600D01*
X134198085Y-48054895D01*
X134391609Y-48054895D01*
X134469019Y-48093600D01*
X134507723Y-48132304D01*
X134546428Y-48209714D01*
X134546428Y-48287123D01*
X134507723Y-48403238D01*
X134043266Y-48867695D01*
X134546428Y-48867695D01*
X135682276Y-48054895D02*
X135682276Y-48712876D01*
X135720980Y-48790285D01*
X135759685Y-48828990D01*
X135837095Y-48867695D01*
X135991914Y-48867695D01*
X136069323Y-48828990D01*
X136108028Y-48790285D01*
X136146733Y-48712876D01*
X136146733Y-48054895D01*
X136495076Y-48828990D02*
X136611190Y-48867695D01*
X136804714Y-48867695D01*
X136882123Y-48828990D01*
X136920828Y-48790285D01*
X136959533Y-48712876D01*
X136959533Y-48635466D01*
X136920828Y-48558057D01*
X136882123Y-48519352D01*
X136804714Y-48480647D01*
X136649895Y-48441942D01*
X136572485Y-48403238D01*
X136533780Y-48364533D01*
X136495076Y-48287123D01*
X136495076Y-48209714D01*
X136533780Y-48132304D01*
X136572485Y-48093600D01*
X136649895Y-48054895D01*
X136843419Y-48054895D01*
X136959533Y-48093600D01*
X137772333Y-48867695D02*
X137501400Y-48480647D01*
X137307876Y-48867695D02*
X137307876Y-48054895D01*
X137617514Y-48054895D01*
X137694923Y-48093600D01*
X137733628Y-48132304D01*
X137772333Y-48209714D01*
X137772333Y-48325828D01*
X137733628Y-48403238D01*
X137694923Y-48441942D01*
X137617514Y-48480647D01*
X137307876Y-48480647D01*
X138546428Y-48867695D02*
X138081971Y-48867695D01*
X138314200Y-48867695D02*
X138314200Y-48054895D01*
X138236790Y-48171009D01*
X138159380Y-48248419D01*
X138081971Y-48287123D01*
X127682276Y-48054895D02*
X127682276Y-48712876D01*
X127720980Y-48790285D01*
X127759685Y-48828990D01*
X127837095Y-48867695D01*
X127991914Y-48867695D01*
X128069323Y-48828990D01*
X128108028Y-48790285D01*
X128146733Y-48712876D01*
X128146733Y-48054895D01*
X128495076Y-48828990D02*
X128611190Y-48867695D01*
X128804714Y-48867695D01*
X128882123Y-48828990D01*
X128920828Y-48790285D01*
X128959533Y-48712876D01*
X128959533Y-48635466D01*
X128920828Y-48558057D01*
X128882123Y-48519352D01*
X128804714Y-48480647D01*
X128649895Y-48441942D01*
X128572485Y-48403238D01*
X128533780Y-48364533D01*
X128495076Y-48287123D01*
X128495076Y-48209714D01*
X128533780Y-48132304D01*
X128572485Y-48093600D01*
X128649895Y-48054895D01*
X128843419Y-48054895D01*
X128959533Y-48093600D01*
X129772333Y-48867695D02*
X129501400Y-48480647D01*
X129307876Y-48867695D02*
X129307876Y-48054895D01*
X129617514Y-48054895D01*
X129694923Y-48093600D01*
X129733628Y-48132304D01*
X129772333Y-48209714D01*
X129772333Y-48325828D01*
X129733628Y-48403238D01*
X129694923Y-48441942D01*
X129617514Y-48480647D01*
X129307876Y-48480647D01*
X130043266Y-48054895D02*
X130546428Y-48054895D01*
X130275495Y-48364533D01*
X130391609Y-48364533D01*
X130469019Y-48403238D01*
X130507723Y-48441942D01*
X130546428Y-48519352D01*
X130546428Y-48712876D01*
X130507723Y-48790285D01*
X130469019Y-48828990D01*
X130391609Y-48867695D01*
X130159380Y-48867695D01*
X130081971Y-48828990D01*
X130043266Y-48790285D01*
X147996914Y-37141942D02*
X148113028Y-37180647D01*
X148151733Y-37219352D01*
X148190438Y-37296761D01*
X148190438Y-37412876D01*
X148151733Y-37490285D01*
X148113028Y-37528990D01*
X148035619Y-37567695D01*
X147725980Y-37567695D01*
X147725980Y-36754895D01*
X147996914Y-36754895D01*
X148074323Y-36793600D01*
X148113028Y-36832304D01*
X148151733Y-36909714D01*
X148151733Y-36987123D01*
X148113028Y-37064533D01*
X148074323Y-37103238D01*
X147996914Y-37141942D01*
X147725980Y-37141942D01*
X148693600Y-36754895D02*
X148848419Y-36754895D01*
X148925828Y-36793600D01*
X149003238Y-36871009D01*
X149041942Y-37025828D01*
X149041942Y-37296761D01*
X149003238Y-37451580D01*
X148925828Y-37528990D01*
X148848419Y-37567695D01*
X148693600Y-37567695D01*
X148616190Y-37528990D01*
X148538780Y-37451580D01*
X148500076Y-37296761D01*
X148500076Y-37025828D01*
X148538780Y-36871009D01*
X148616190Y-36793600D01*
X148693600Y-36754895D01*
X149545104Y-36754895D02*
X149699923Y-36754895D01*
X149777333Y-36793600D01*
X149854742Y-36871009D01*
X149893447Y-37025828D01*
X149893447Y-37296761D01*
X149854742Y-37451580D01*
X149777333Y-37528990D01*
X149699923Y-37567695D01*
X149545104Y-37567695D01*
X149467695Y-37528990D01*
X149390285Y-37451580D01*
X149351580Y-37296761D01*
X149351580Y-37025828D01*
X149390285Y-36871009D01*
X149467695Y-36793600D01*
X149545104Y-36754895D01*
X150125676Y-36754895D02*
X150590133Y-36754895D01*
X150357904Y-37567695D02*
X150357904Y-36754895D01*
X139782276Y-48054895D02*
X139782276Y-48712876D01*
X139820980Y-48790285D01*
X139859685Y-48828990D01*
X139937095Y-48867695D01*
X140091914Y-48867695D01*
X140169323Y-48828990D01*
X140208028Y-48790285D01*
X140246733Y-48712876D01*
X140246733Y-48054895D01*
X140595076Y-48828990D02*
X140711190Y-48867695D01*
X140904714Y-48867695D01*
X140982123Y-48828990D01*
X141020828Y-48790285D01*
X141059533Y-48712876D01*
X141059533Y-48635466D01*
X141020828Y-48558057D01*
X140982123Y-48519352D01*
X140904714Y-48480647D01*
X140749895Y-48441942D01*
X140672485Y-48403238D01*
X140633780Y-48364533D01*
X140595076Y-48287123D01*
X140595076Y-48209714D01*
X140633780Y-48132304D01*
X140672485Y-48093600D01*
X140749895Y-48054895D01*
X140943419Y-48054895D01*
X141059533Y-48093600D01*
X141872333Y-48867695D02*
X141601400Y-48480647D01*
X141407876Y-48867695D02*
X141407876Y-48054895D01*
X141717514Y-48054895D01*
X141794923Y-48093600D01*
X141833628Y-48132304D01*
X141872333Y-48209714D01*
X141872333Y-48325828D01*
X141833628Y-48403238D01*
X141794923Y-48441942D01*
X141717514Y-48480647D01*
X141407876Y-48480647D01*
X142375495Y-48054895D02*
X142452904Y-48054895D01*
X142530314Y-48093600D01*
X142569019Y-48132304D01*
X142607723Y-48209714D01*
X142646428Y-48364533D01*
X142646428Y-48558057D01*
X142607723Y-48712876D01*
X142569019Y-48790285D01*
X142530314Y-48828990D01*
X142452904Y-48867695D01*
X142375495Y-48867695D01*
X142298085Y-48828990D01*
X142259380Y-48790285D01*
X142220676Y-48712876D01*
X142181971Y-48558057D01*
X142181971Y-48364533D01*
X142220676Y-48209714D01*
X142259380Y-48132304D01*
X142298085Y-48093600D01*
X142375495Y-48054895D01*
X144654895Y-37567695D02*
X144383961Y-37180647D01*
X144190438Y-37567695D02*
X144190438Y-36754895D01*
X144500076Y-36754895D01*
X144577485Y-36793600D01*
X144616190Y-36832304D01*
X144654895Y-36909714D01*
X144654895Y-37025828D01*
X144616190Y-37103238D01*
X144577485Y-37141942D01*
X144500076Y-37180647D01*
X144190438Y-37180647D01*
X144964533Y-37528990D02*
X145080647Y-37567695D01*
X145274171Y-37567695D01*
X145351580Y-37528990D01*
X145390285Y-37490285D01*
X145428990Y-37412876D01*
X145428990Y-37335466D01*
X145390285Y-37258057D01*
X145351580Y-37219352D01*
X145274171Y-37180647D01*
X145119352Y-37141942D01*
X145041942Y-37103238D01*
X145003238Y-37064533D01*
X144964533Y-36987123D01*
X144964533Y-36909714D01*
X145003238Y-36832304D01*
X145041942Y-36793600D01*
X145119352Y-36754895D01*
X145312876Y-36754895D01*
X145428990Y-36793600D01*
X145661219Y-36754895D02*
X146125676Y-36754895D01*
X145893447Y-37567695D02*
X145893447Y-36754895D01*
D11*
X121757142Y-58157142D02*
X121709523Y-58204761D01*
X121566666Y-58252380D01*
X121471428Y-58252380D01*
X121328571Y-58204761D01*
X121233333Y-58109523D01*
X121185714Y-58014285D01*
X121138095Y-57823809D01*
X121138095Y-57680952D01*
X121185714Y-57490476D01*
X121233333Y-57395238D01*
X121328571Y-57300000D01*
X121471428Y-57252380D01*
X121566666Y-57252380D01*
X121709523Y-57300000D01*
X121757142Y-57347619D01*
X122138095Y-57347619D02*
X122185714Y-57300000D01*
X122280952Y-57252380D01*
X122519047Y-57252380D01*
X122614285Y-57300000D01*
X122661904Y-57347619D01*
X122709523Y-57442857D01*
X122709523Y-57538095D01*
X122661904Y-57680952D01*
X122090476Y-58252380D01*
X122709523Y-58252380D01*
X123661904Y-58252380D02*
X123090476Y-58252380D01*
X123376190Y-58252380D02*
X123376190Y-57252380D01*
X123280952Y-57395238D01*
X123185714Y-57490476D01*
X123090476Y-57538095D01*
X101907142Y-77152380D02*
X101573809Y-76676190D01*
X101335714Y-77152380D02*
X101335714Y-76152380D01*
X101716666Y-76152380D01*
X101811904Y-76200000D01*
X101859523Y-76247619D01*
X101907142Y-76342857D01*
X101907142Y-76485714D01*
X101859523Y-76580952D01*
X101811904Y-76628571D01*
X101716666Y-76676190D01*
X101335714Y-76676190D01*
X102859523Y-77152380D02*
X102288095Y-77152380D01*
X102573809Y-77152380D02*
X102573809Y-76152380D01*
X102478571Y-76295238D01*
X102383333Y-76390476D01*
X102288095Y-76438095D01*
X103716666Y-76152380D02*
X103526190Y-76152380D01*
X103430952Y-76200000D01*
X103383333Y-76247619D01*
X103288095Y-76390476D01*
X103240476Y-76580952D01*
X103240476Y-76961904D01*
X103288095Y-77057142D01*
X103335714Y-77104761D01*
X103430952Y-77152380D01*
X103621428Y-77152380D01*
X103716666Y-77104761D01*
X103764285Y-77057142D01*
X103811904Y-76961904D01*
X103811904Y-76723809D01*
X103764285Y-76628571D01*
X103716666Y-76580952D01*
X103621428Y-76533333D01*
X103430952Y-76533333D01*
X103335714Y-76580952D01*
X103288095Y-76628571D01*
X103240476Y-76723809D01*
X173723809Y-63176190D02*
X173723809Y-63652380D01*
X173390476Y-62652380D02*
X173723809Y-63176190D01*
X174057142Y-62652380D01*
X174342857Y-62747619D02*
X174390476Y-62700000D01*
X174485714Y-62652380D01*
X174723809Y-62652380D01*
X174819047Y-62700000D01*
X174866666Y-62747619D01*
X174914285Y-62842857D01*
X174914285Y-62938095D01*
X174866666Y-63080952D01*
X174295238Y-63652380D01*
X174914285Y-63652380D01*
X119488095Y-95202380D02*
X120059523Y-95202380D01*
X119773809Y-96202380D02*
X119773809Y-95202380D01*
X120392857Y-96202380D02*
X120392857Y-95202380D01*
X120773809Y-95202380D01*
X120869047Y-95250000D01*
X120916666Y-95297619D01*
X120964285Y-95392857D01*
X120964285Y-95535714D01*
X120916666Y-95630952D01*
X120869047Y-95678571D01*
X120773809Y-95726190D01*
X120392857Y-95726190D01*
X121916666Y-96202380D02*
X121345238Y-96202380D01*
X121630952Y-96202380D02*
X121630952Y-95202380D01*
X121535714Y-95345238D01*
X121440476Y-95440476D01*
X121345238Y-95488095D01*
X117708333Y-89652380D02*
X117232142Y-89652380D01*
X117232142Y-88652380D01*
X118565476Y-89652380D02*
X117994047Y-89652380D01*
X118279761Y-89652380D02*
X118279761Y-88652380D01*
X118184523Y-88795238D01*
X118089285Y-88890476D01*
X117994047Y-88938095D01*
X158857142Y-66557142D02*
X158809523Y-66604761D01*
X158666666Y-66652380D01*
X158571428Y-66652380D01*
X158428571Y-66604761D01*
X158333333Y-66509523D01*
X158285714Y-66414285D01*
X158238095Y-66223809D01*
X158238095Y-66080952D01*
X158285714Y-65890476D01*
X158333333Y-65795238D01*
X158428571Y-65700000D01*
X158571428Y-65652380D01*
X158666666Y-65652380D01*
X158809523Y-65700000D01*
X158857142Y-65747619D01*
X159809523Y-66652380D02*
X159238095Y-66652380D01*
X159523809Y-66652380D02*
X159523809Y-65652380D01*
X159428571Y-65795238D01*
X159333333Y-65890476D01*
X159238095Y-65938095D01*
X160190476Y-65747619D02*
X160238095Y-65700000D01*
X160333333Y-65652380D01*
X160571428Y-65652380D01*
X160666666Y-65700000D01*
X160714285Y-65747619D01*
X160761904Y-65842857D01*
X160761904Y-65938095D01*
X160714285Y-66080952D01*
X160142857Y-66652380D01*
X160761904Y-66652380D01*
X111638095Y-79452380D02*
X112209523Y-79452380D01*
X111923809Y-80452380D02*
X111923809Y-79452380D01*
X112542857Y-80452380D02*
X112542857Y-79452380D01*
X112923809Y-79452380D01*
X113019047Y-79500000D01*
X113066666Y-79547619D01*
X113114285Y-79642857D01*
X113114285Y-79785714D01*
X113066666Y-79880952D01*
X113019047Y-79928571D01*
X112923809Y-79976190D01*
X112542857Y-79976190D01*
X113495238Y-79547619D02*
X113542857Y-79500000D01*
X113638095Y-79452380D01*
X113876190Y-79452380D01*
X113971428Y-79500000D01*
X114019047Y-79547619D01*
X114066666Y-79642857D01*
X114066666Y-79738095D01*
X114019047Y-79880952D01*
X113447619Y-80452380D01*
X114066666Y-80452380D01*
X141547619Y-87095238D02*
X141500000Y-87190476D01*
X141404761Y-87285714D01*
X141261904Y-87428571D01*
X141214285Y-87523809D01*
X141214285Y-87619047D01*
X141452380Y-87571428D02*
X141404761Y-87666666D01*
X141309523Y-87761904D01*
X141119047Y-87809523D01*
X140785714Y-87809523D01*
X140595238Y-87761904D01*
X140500000Y-87666666D01*
X140452380Y-87571428D01*
X140452380Y-87380952D01*
X140500000Y-87285714D01*
X140595238Y-87190476D01*
X140785714Y-87142857D01*
X141119047Y-87142857D01*
X141309523Y-87190476D01*
X141404761Y-87285714D01*
X141452380Y-87380952D01*
X141452380Y-87571428D01*
X141452380Y-86190476D02*
X141452380Y-86761904D01*
X141452380Y-86476190D02*
X140452380Y-86476190D01*
X140595238Y-86571428D01*
X140690476Y-86666666D01*
X140738095Y-86761904D01*
X104907142Y-77152380D02*
X104573809Y-76676190D01*
X104335714Y-77152380D02*
X104335714Y-76152380D01*
X104716666Y-76152380D01*
X104811904Y-76200000D01*
X104859523Y-76247619D01*
X104907142Y-76342857D01*
X104907142Y-76485714D01*
X104859523Y-76580952D01*
X104811904Y-76628571D01*
X104716666Y-76676190D01*
X104335714Y-76676190D01*
X105859523Y-77152380D02*
X105288095Y-77152380D01*
X105573809Y-77152380D02*
X105573809Y-76152380D01*
X105478571Y-76295238D01*
X105383333Y-76390476D01*
X105288095Y-76438095D01*
X106764285Y-76152380D02*
X106288095Y-76152380D01*
X106240476Y-76628571D01*
X106288095Y-76580952D01*
X106383333Y-76533333D01*
X106621428Y-76533333D01*
X106716666Y-76580952D01*
X106764285Y-76628571D01*
X106811904Y-76723809D01*
X106811904Y-76961904D01*
X106764285Y-77057142D01*
X106716666Y-77104761D01*
X106621428Y-77152380D01*
X106383333Y-77152380D01*
X106288095Y-77104761D01*
X106240476Y-77057142D01*
X172938095Y-37252380D02*
X172938095Y-38061904D01*
X172985714Y-38157142D01*
X173033333Y-38204761D01*
X173128571Y-38252380D01*
X173319047Y-38252380D01*
X173414285Y-38204761D01*
X173461904Y-38157142D01*
X173509523Y-38061904D01*
X173509523Y-37252380D01*
X173938095Y-37347619D02*
X173985714Y-37300000D01*
X174080952Y-37252380D01*
X174319047Y-37252380D01*
X174414285Y-37300000D01*
X174461904Y-37347619D01*
X174509523Y-37442857D01*
X174509523Y-37538095D01*
X174461904Y-37680952D01*
X173890476Y-38252380D01*
X174509523Y-38252380D01*
X156357142Y-45952380D02*
X156023809Y-45476190D01*
X155785714Y-45952380D02*
X155785714Y-44952380D01*
X156166666Y-44952380D01*
X156261904Y-45000000D01*
X156309523Y-45047619D01*
X156357142Y-45142857D01*
X156357142Y-45285714D01*
X156309523Y-45380952D01*
X156261904Y-45428571D01*
X156166666Y-45476190D01*
X155785714Y-45476190D01*
X157309523Y-45952380D02*
X156738095Y-45952380D01*
X157023809Y-45952380D02*
X157023809Y-44952380D01*
X156928571Y-45095238D01*
X156833333Y-45190476D01*
X156738095Y-45238095D01*
X157690476Y-45047619D02*
X157738095Y-45000000D01*
X157833333Y-44952380D01*
X158071428Y-44952380D01*
X158166666Y-45000000D01*
X158214285Y-45047619D01*
X158261904Y-45142857D01*
X158261904Y-45238095D01*
X158214285Y-45380952D01*
X157642857Y-45952380D01*
X158261904Y-45952380D01*
X156333333Y-41552380D02*
X156000000Y-41076190D01*
X155761904Y-41552380D02*
X155761904Y-40552380D01*
X156142857Y-40552380D01*
X156238095Y-40600000D01*
X156285714Y-40647619D01*
X156333333Y-40742857D01*
X156333333Y-40885714D01*
X156285714Y-40980952D01*
X156238095Y-41028571D01*
X156142857Y-41076190D01*
X155761904Y-41076190D01*
X157238095Y-40552380D02*
X156761904Y-40552380D01*
X156714285Y-41028571D01*
X156761904Y-40980952D01*
X156857142Y-40933333D01*
X157095238Y-40933333D01*
X157190476Y-40980952D01*
X157238095Y-41028571D01*
X157285714Y-41123809D01*
X157285714Y-41361904D01*
X157238095Y-41457142D01*
X157190476Y-41504761D01*
X157095238Y-41552380D01*
X156857142Y-41552380D01*
X156761904Y-41504761D01*
X156714285Y-41457142D01*
X176719642Y-54527142D02*
X176672023Y-54574761D01*
X176529166Y-54622380D01*
X176433928Y-54622380D01*
X176291071Y-54574761D01*
X176195833Y-54479523D01*
X176148214Y-54384285D01*
X176100595Y-54193809D01*
X176100595Y-54050952D01*
X176148214Y-53860476D01*
X176195833Y-53765238D01*
X176291071Y-53670000D01*
X176433928Y-53622380D01*
X176529166Y-53622380D01*
X176672023Y-53670000D01*
X176719642Y-53717619D01*
X177672023Y-54622380D02*
X177100595Y-54622380D01*
X177386309Y-54622380D02*
X177386309Y-53622380D01*
X177291071Y-53765238D01*
X177195833Y-53860476D01*
X177100595Y-53908095D01*
X178148214Y-54622380D02*
X178338690Y-54622380D01*
X178433928Y-54574761D01*
X178481547Y-54527142D01*
X178576785Y-54384285D01*
X178624404Y-54193809D01*
X178624404Y-53812857D01*
X178576785Y-53717619D01*
X178529166Y-53670000D01*
X178433928Y-53622380D01*
X178243452Y-53622380D01*
X178148214Y-53670000D01*
X178100595Y-53717619D01*
X178052976Y-53812857D01*
X178052976Y-54050952D01*
X178100595Y-54146190D01*
X178148214Y-54193809D01*
X178243452Y-54241428D01*
X178433928Y-54241428D01*
X178529166Y-54193809D01*
X178576785Y-54146190D01*
X178624404Y-54050952D01*
X121757142Y-64957142D02*
X121709523Y-65004761D01*
X121566666Y-65052380D01*
X121471428Y-65052380D01*
X121328571Y-65004761D01*
X121233333Y-64909523D01*
X121185714Y-64814285D01*
X121138095Y-64623809D01*
X121138095Y-64480952D01*
X121185714Y-64290476D01*
X121233333Y-64195238D01*
X121328571Y-64100000D01*
X121471428Y-64052380D01*
X121566666Y-64052380D01*
X121709523Y-64100000D01*
X121757142Y-64147619D01*
X122138095Y-64147619D02*
X122185714Y-64100000D01*
X122280952Y-64052380D01*
X122519047Y-64052380D01*
X122614285Y-64100000D01*
X122661904Y-64147619D01*
X122709523Y-64242857D01*
X122709523Y-64338095D01*
X122661904Y-64480952D01*
X122090476Y-65052380D01*
X122709523Y-65052380D01*
X123042857Y-64052380D02*
X123661904Y-64052380D01*
X123328571Y-64433333D01*
X123471428Y-64433333D01*
X123566666Y-64480952D01*
X123614285Y-64528571D01*
X123661904Y-64623809D01*
X123661904Y-64861904D01*
X123614285Y-64957142D01*
X123566666Y-65004761D01*
X123471428Y-65052380D01*
X123185714Y-65052380D01*
X123090476Y-65004761D01*
X123042857Y-64957142D01*
X166757142Y-55357142D02*
X166709523Y-55404761D01*
X166566666Y-55452380D01*
X166471428Y-55452380D01*
X166328571Y-55404761D01*
X166233333Y-55309523D01*
X166185714Y-55214285D01*
X166138095Y-55023809D01*
X166138095Y-54880952D01*
X166185714Y-54690476D01*
X166233333Y-54595238D01*
X166328571Y-54500000D01*
X166471428Y-54452380D01*
X166566666Y-54452380D01*
X166709523Y-54500000D01*
X166757142Y-54547619D01*
X167709523Y-55452380D02*
X167138095Y-55452380D01*
X167423809Y-55452380D02*
X167423809Y-54452380D01*
X167328571Y-54595238D01*
X167233333Y-54690476D01*
X167138095Y-54738095D01*
X168566666Y-54785714D02*
X168566666Y-55452380D01*
X168328571Y-54404761D02*
X168090476Y-55119047D01*
X168709523Y-55119047D01*
X107733333Y-99157142D02*
X107685714Y-99204761D01*
X107542857Y-99252380D01*
X107447619Y-99252380D01*
X107304761Y-99204761D01*
X107209523Y-99109523D01*
X107161904Y-99014285D01*
X107114285Y-98823809D01*
X107114285Y-98680952D01*
X107161904Y-98490476D01*
X107209523Y-98395238D01*
X107304761Y-98300000D01*
X107447619Y-98252380D01*
X107542857Y-98252380D01*
X107685714Y-98300000D01*
X107733333Y-98347619D01*
X108638095Y-98252380D02*
X108161904Y-98252380D01*
X108114285Y-98728571D01*
X108161904Y-98680952D01*
X108257142Y-98633333D01*
X108495238Y-98633333D01*
X108590476Y-98680952D01*
X108638095Y-98728571D01*
X108685714Y-98823809D01*
X108685714Y-99061904D01*
X108638095Y-99157142D01*
X108590476Y-99204761D01*
X108495238Y-99252380D01*
X108257142Y-99252380D01*
X108161904Y-99204761D01*
X108114285Y-99157142D01*
X115513095Y-72987380D02*
X115513095Y-73796904D01*
X115560714Y-73892142D01*
X115608333Y-73939761D01*
X115703571Y-73987380D01*
X115894047Y-73987380D01*
X115989285Y-73939761D01*
X116036904Y-73892142D01*
X116084523Y-73796904D01*
X116084523Y-72987380D01*
X116465476Y-72987380D02*
X117084523Y-72987380D01*
X116751190Y-73368333D01*
X116894047Y-73368333D01*
X116989285Y-73415952D01*
X117036904Y-73463571D01*
X117084523Y-73558809D01*
X117084523Y-73796904D01*
X117036904Y-73892142D01*
X116989285Y-73939761D01*
X116894047Y-73987380D01*
X116608333Y-73987380D01*
X116513095Y-73939761D01*
X116465476Y-73892142D01*
X105657142Y-79557142D02*
X105609523Y-79604761D01*
X105466666Y-79652380D01*
X105371428Y-79652380D01*
X105228571Y-79604761D01*
X105133333Y-79509523D01*
X105085714Y-79414285D01*
X105038095Y-79223809D01*
X105038095Y-79080952D01*
X105085714Y-78890476D01*
X105133333Y-78795238D01*
X105228571Y-78700000D01*
X105371428Y-78652380D01*
X105466666Y-78652380D01*
X105609523Y-78700000D01*
X105657142Y-78747619D01*
X106609523Y-79652380D02*
X106038095Y-79652380D01*
X106323809Y-79652380D02*
X106323809Y-78652380D01*
X106228571Y-78795238D01*
X106133333Y-78890476D01*
X106038095Y-78938095D01*
X107228571Y-78652380D02*
X107323809Y-78652380D01*
X107419047Y-78700000D01*
X107466666Y-78747619D01*
X107514285Y-78842857D01*
X107561904Y-79033333D01*
X107561904Y-79271428D01*
X107514285Y-79461904D01*
X107466666Y-79557142D01*
X107419047Y-79604761D01*
X107323809Y-79652380D01*
X107228571Y-79652380D01*
X107133333Y-79604761D01*
X107085714Y-79557142D01*
X107038095Y-79461904D01*
X106990476Y-79271428D01*
X106990476Y-79033333D01*
X107038095Y-78842857D01*
X107085714Y-78747619D01*
X107133333Y-78700000D01*
X107228571Y-78652380D01*
X156333333Y-43952380D02*
X156000000Y-43476190D01*
X155761904Y-43952380D02*
X155761904Y-42952380D01*
X156142857Y-42952380D01*
X156238095Y-43000000D01*
X156285714Y-43047619D01*
X156333333Y-43142857D01*
X156333333Y-43285714D01*
X156285714Y-43380952D01*
X156238095Y-43428571D01*
X156142857Y-43476190D01*
X155761904Y-43476190D01*
X157190476Y-42952380D02*
X157000000Y-42952380D01*
X156904761Y-43000000D01*
X156857142Y-43047619D01*
X156761904Y-43190476D01*
X156714285Y-43380952D01*
X156714285Y-43761904D01*
X156761904Y-43857142D01*
X156809523Y-43904761D01*
X156904761Y-43952380D01*
X157095238Y-43952380D01*
X157190476Y-43904761D01*
X157238095Y-43857142D01*
X157285714Y-43761904D01*
X157285714Y-43523809D01*
X157238095Y-43428571D01*
X157190476Y-43380952D01*
X157095238Y-43333333D01*
X156904761Y-43333333D01*
X156809523Y-43380952D01*
X156761904Y-43428571D01*
X156714285Y-43523809D01*
X122633333Y-62852380D02*
X122300000Y-62376190D01*
X122061904Y-62852380D02*
X122061904Y-61852380D01*
X122442857Y-61852380D01*
X122538095Y-61900000D01*
X122585714Y-61947619D01*
X122633333Y-62042857D01*
X122633333Y-62185714D01*
X122585714Y-62280952D01*
X122538095Y-62328571D01*
X122442857Y-62376190D01*
X122061904Y-62376190D01*
X123585714Y-62852380D02*
X123014285Y-62852380D01*
X123300000Y-62852380D02*
X123300000Y-61852380D01*
X123204761Y-61995238D01*
X123109523Y-62090476D01*
X123014285Y-62138095D01*
X105433333Y-94252380D02*
X105100000Y-93776190D01*
X104861904Y-94252380D02*
X104861904Y-93252380D01*
X105242857Y-93252380D01*
X105338095Y-93300000D01*
X105385714Y-93347619D01*
X105433333Y-93442857D01*
X105433333Y-93585714D01*
X105385714Y-93680952D01*
X105338095Y-93728571D01*
X105242857Y-93776190D01*
X104861904Y-93776190D01*
X105766666Y-93252380D02*
X106385714Y-93252380D01*
X106052380Y-93633333D01*
X106195238Y-93633333D01*
X106290476Y-93680952D01*
X106338095Y-93728571D01*
X106385714Y-93823809D01*
X106385714Y-94061904D01*
X106338095Y-94157142D01*
X106290476Y-94204761D01*
X106195238Y-94252380D01*
X105909523Y-94252380D01*
X105814285Y-94204761D01*
X105766666Y-94157142D01*
X138002380Y-87642857D02*
X137526190Y-87976190D01*
X138002380Y-88214285D02*
X137002380Y-88214285D01*
X137002380Y-87833333D01*
X137050000Y-87738095D01*
X137097619Y-87690476D01*
X137192857Y-87642857D01*
X137335714Y-87642857D01*
X137430952Y-87690476D01*
X137478571Y-87738095D01*
X137526190Y-87833333D01*
X137526190Y-88214285D01*
X137097619Y-87261904D02*
X137050000Y-87214285D01*
X137002380Y-87119047D01*
X137002380Y-86880952D01*
X137050000Y-86785714D01*
X137097619Y-86738095D01*
X137192857Y-86690476D01*
X137288095Y-86690476D01*
X137430952Y-86738095D01*
X138002380Y-87309523D01*
X138002380Y-86690476D01*
X138002380Y-85738095D02*
X138002380Y-86309523D01*
X138002380Y-86023809D02*
X137002380Y-86023809D01*
X137145238Y-86119047D01*
X137240476Y-86214285D01*
X137288095Y-86309523D01*
X161857142Y-54457142D02*
X161809523Y-54504761D01*
X161666666Y-54552380D01*
X161571428Y-54552380D01*
X161428571Y-54504761D01*
X161333333Y-54409523D01*
X161285714Y-54314285D01*
X161238095Y-54123809D01*
X161238095Y-53980952D01*
X161285714Y-53790476D01*
X161333333Y-53695238D01*
X161428571Y-53600000D01*
X161571428Y-53552380D01*
X161666666Y-53552380D01*
X161809523Y-53600000D01*
X161857142Y-53647619D01*
X162809523Y-54552380D02*
X162238095Y-54552380D01*
X162523809Y-54552380D02*
X162523809Y-53552380D01*
X162428571Y-53695238D01*
X162333333Y-53790476D01*
X162238095Y-53838095D01*
X163380952Y-53980952D02*
X163285714Y-53933333D01*
X163238095Y-53885714D01*
X163190476Y-53790476D01*
X163190476Y-53742857D01*
X163238095Y-53647619D01*
X163285714Y-53600000D01*
X163380952Y-53552380D01*
X163571428Y-53552380D01*
X163666666Y-53600000D01*
X163714285Y-53647619D01*
X163761904Y-53742857D01*
X163761904Y-53790476D01*
X163714285Y-53885714D01*
X163666666Y-53933333D01*
X163571428Y-53980952D01*
X163380952Y-53980952D01*
X163285714Y-54028571D01*
X163238095Y-54076190D01*
X163190476Y-54171428D01*
X163190476Y-54361904D01*
X163238095Y-54457142D01*
X163285714Y-54504761D01*
X163380952Y-54552380D01*
X163571428Y-54552380D01*
X163666666Y-54504761D01*
X163714285Y-54457142D01*
X163761904Y-54361904D01*
X163761904Y-54171428D01*
X163714285Y-54076190D01*
X163666666Y-54028571D01*
X163571428Y-53980952D01*
X134452380Y-87869921D02*
X133976190Y-88203254D01*
X134452380Y-88441349D02*
X133452380Y-88441349D01*
X133452380Y-88060397D01*
X133500000Y-87965159D01*
X133547619Y-87917540D01*
X133642857Y-87869921D01*
X133785714Y-87869921D01*
X133880952Y-87917540D01*
X133928571Y-87965159D01*
X133976190Y-88060397D01*
X133976190Y-88441349D01*
X133547619Y-87488968D02*
X133500000Y-87441349D01*
X133452380Y-87346111D01*
X133452380Y-87108016D01*
X133500000Y-87012778D01*
X133547619Y-86965159D01*
X133642857Y-86917540D01*
X133738095Y-86917540D01*
X133880952Y-86965159D01*
X134452380Y-87536587D01*
X134452380Y-86917540D01*
X133452380Y-86584206D02*
X133452380Y-85965159D01*
X133833333Y-86298492D01*
X133833333Y-86155635D01*
X133880952Y-86060397D01*
X133928571Y-86012778D01*
X134023809Y-85965159D01*
X134261904Y-85965159D01*
X134357142Y-86012778D01*
X134404761Y-86060397D01*
X134452380Y-86155635D01*
X134452380Y-86441349D01*
X134404761Y-86536587D01*
X134357142Y-86584206D01*
X147957142Y-75602380D02*
X147623809Y-75126190D01*
X147385714Y-75602380D02*
X147385714Y-74602380D01*
X147766666Y-74602380D01*
X147861904Y-74650000D01*
X147909523Y-74697619D01*
X147957142Y-74792857D01*
X147957142Y-74935714D01*
X147909523Y-75030952D01*
X147861904Y-75078571D01*
X147766666Y-75126190D01*
X147385714Y-75126190D01*
X148338095Y-74697619D02*
X148385714Y-74650000D01*
X148480952Y-74602380D01*
X148719047Y-74602380D01*
X148814285Y-74650000D01*
X148861904Y-74697619D01*
X148909523Y-74792857D01*
X148909523Y-74888095D01*
X148861904Y-75030952D01*
X148290476Y-75602380D01*
X148909523Y-75602380D01*
X149290476Y-74697619D02*
X149338095Y-74650000D01*
X149433333Y-74602380D01*
X149671428Y-74602380D01*
X149766666Y-74650000D01*
X149814285Y-74697619D01*
X149861904Y-74792857D01*
X149861904Y-74888095D01*
X149814285Y-75030952D01*
X149242857Y-75602380D01*
X149861904Y-75602380D01*
X107583333Y-73557142D02*
X107535714Y-73604761D01*
X107392857Y-73652380D01*
X107297619Y-73652380D01*
X107154761Y-73604761D01*
X107059523Y-73509523D01*
X107011904Y-73414285D01*
X106964285Y-73223809D01*
X106964285Y-73080952D01*
X107011904Y-72890476D01*
X107059523Y-72795238D01*
X107154761Y-72700000D01*
X107297619Y-72652380D01*
X107392857Y-72652380D01*
X107535714Y-72700000D01*
X107583333Y-72747619D01*
X107964285Y-72747619D02*
X108011904Y-72700000D01*
X108107142Y-72652380D01*
X108345238Y-72652380D01*
X108440476Y-72700000D01*
X108488095Y-72747619D01*
X108535714Y-72842857D01*
X108535714Y-72938095D01*
X108488095Y-73080952D01*
X107916666Y-73652380D01*
X108535714Y-73652380D01*
X157157142Y-54457142D02*
X157109523Y-54504761D01*
X156966666Y-54552380D01*
X156871428Y-54552380D01*
X156728571Y-54504761D01*
X156633333Y-54409523D01*
X156585714Y-54314285D01*
X156538095Y-54123809D01*
X156538095Y-53980952D01*
X156585714Y-53790476D01*
X156633333Y-53695238D01*
X156728571Y-53600000D01*
X156871428Y-53552380D01*
X156966666Y-53552380D01*
X157109523Y-53600000D01*
X157157142Y-53647619D01*
X158109523Y-54552380D02*
X157538095Y-54552380D01*
X157823809Y-54552380D02*
X157823809Y-53552380D01*
X157728571Y-53695238D01*
X157633333Y-53790476D01*
X157538095Y-53838095D01*
X158442857Y-53552380D02*
X159109523Y-53552380D01*
X158680952Y-54552380D01*
X130757142Y-87605357D02*
X130804761Y-87652976D01*
X130852380Y-87795833D01*
X130852380Y-87891071D01*
X130804761Y-88033928D01*
X130709523Y-88129166D01*
X130614285Y-88176785D01*
X130423809Y-88224404D01*
X130280952Y-88224404D01*
X130090476Y-88176785D01*
X129995238Y-88129166D01*
X129900000Y-88033928D01*
X129852380Y-87891071D01*
X129852380Y-87795833D01*
X129900000Y-87652976D01*
X129947619Y-87605357D01*
X130852380Y-86652976D02*
X130852380Y-87224404D01*
X130852380Y-86938690D02*
X129852380Y-86938690D01*
X129995238Y-87033928D01*
X130090476Y-87129166D01*
X130138095Y-87224404D01*
X130852380Y-85700595D02*
X130852380Y-86272023D01*
X130852380Y-85986309D02*
X129852380Y-85986309D01*
X129995238Y-86081547D01*
X130090476Y-86176785D01*
X130138095Y-86272023D01*
X158833333Y-64157142D02*
X158785714Y-64204761D01*
X158642857Y-64252380D01*
X158547619Y-64252380D01*
X158404761Y-64204761D01*
X158309523Y-64109523D01*
X158261904Y-64014285D01*
X158214285Y-63823809D01*
X158214285Y-63680952D01*
X158261904Y-63490476D01*
X158309523Y-63395238D01*
X158404761Y-63300000D01*
X158547619Y-63252380D01*
X158642857Y-63252380D01*
X158785714Y-63300000D01*
X158833333Y-63347619D01*
X159309523Y-64252380D02*
X159500000Y-64252380D01*
X159595238Y-64204761D01*
X159642857Y-64157142D01*
X159738095Y-64014285D01*
X159785714Y-63823809D01*
X159785714Y-63442857D01*
X159738095Y-63347619D01*
X159690476Y-63300000D01*
X159595238Y-63252380D01*
X159404761Y-63252380D01*
X159309523Y-63300000D01*
X159261904Y-63347619D01*
X159214285Y-63442857D01*
X159214285Y-63680952D01*
X159261904Y-63776190D01*
X159309523Y-63823809D01*
X159404761Y-63871428D01*
X159595238Y-63871428D01*
X159690476Y-63823809D01*
X159738095Y-63776190D01*
X159785714Y-63680952D01*
X128552380Y-95838095D02*
X127552380Y-95838095D01*
X127552380Y-95600000D01*
X127600000Y-95457142D01*
X127695238Y-95361904D01*
X127790476Y-95314285D01*
X127980952Y-95266666D01*
X128123809Y-95266666D01*
X128314285Y-95314285D01*
X128409523Y-95361904D01*
X128504761Y-95457142D01*
X128552380Y-95600000D01*
X128552380Y-95838095D01*
X127647619Y-94885714D02*
X127600000Y-94838095D01*
X127552380Y-94742857D01*
X127552380Y-94504761D01*
X127600000Y-94409523D01*
X127647619Y-94361904D01*
X127742857Y-94314285D01*
X127838095Y-94314285D01*
X127980952Y-94361904D01*
X128552380Y-94933333D01*
X128552380Y-94314285D01*
X115333333Y-99657142D02*
X115285714Y-99704761D01*
X115142857Y-99752380D01*
X115047619Y-99752380D01*
X114904761Y-99704761D01*
X114809523Y-99609523D01*
X114761904Y-99514285D01*
X114714285Y-99323809D01*
X114714285Y-99180952D01*
X114761904Y-98990476D01*
X114809523Y-98895238D01*
X114904761Y-98800000D01*
X115047619Y-98752380D01*
X115142857Y-98752380D01*
X115285714Y-98800000D01*
X115333333Y-98847619D01*
X115666666Y-98752380D02*
X116285714Y-98752380D01*
X115952380Y-99133333D01*
X116095238Y-99133333D01*
X116190476Y-99180952D01*
X116238095Y-99228571D01*
X116285714Y-99323809D01*
X116285714Y-99561904D01*
X116238095Y-99657142D01*
X116190476Y-99704761D01*
X116095238Y-99752380D01*
X115809523Y-99752380D01*
X115714285Y-99704761D01*
X115666666Y-99657142D01*
X109183333Y-68252380D02*
X108850000Y-67776190D01*
X108611904Y-68252380D02*
X108611904Y-67252380D01*
X108992857Y-67252380D01*
X109088095Y-67300000D01*
X109135714Y-67347619D01*
X109183333Y-67442857D01*
X109183333Y-67585714D01*
X109135714Y-67680952D01*
X109088095Y-67728571D01*
X108992857Y-67776190D01*
X108611904Y-67776190D01*
X109754761Y-67680952D02*
X109659523Y-67633333D01*
X109611904Y-67585714D01*
X109564285Y-67490476D01*
X109564285Y-67442857D01*
X109611904Y-67347619D01*
X109659523Y-67300000D01*
X109754761Y-67252380D01*
X109945238Y-67252380D01*
X110040476Y-67300000D01*
X110088095Y-67347619D01*
X110135714Y-67442857D01*
X110135714Y-67490476D01*
X110088095Y-67585714D01*
X110040476Y-67633333D01*
X109945238Y-67680952D01*
X109754761Y-67680952D01*
X109659523Y-67728571D01*
X109611904Y-67776190D01*
X109564285Y-67871428D01*
X109564285Y-68061904D01*
X109611904Y-68157142D01*
X109659523Y-68204761D01*
X109754761Y-68252380D01*
X109945238Y-68252380D01*
X110040476Y-68204761D01*
X110088095Y-68157142D01*
X110135714Y-68061904D01*
X110135714Y-67871428D01*
X110088095Y-67776190D01*
X110040476Y-67728571D01*
X109945238Y-67680952D01*
X114338095Y-88452380D02*
X114338095Y-89261904D01*
X114385714Y-89357142D01*
X114433333Y-89404761D01*
X114528571Y-89452380D01*
X114719047Y-89452380D01*
X114814285Y-89404761D01*
X114861904Y-89357142D01*
X114909523Y-89261904D01*
X114909523Y-88452380D01*
X115909523Y-89452380D02*
X115338095Y-89452380D01*
X115623809Y-89452380D02*
X115623809Y-88452380D01*
X115528571Y-88595238D01*
X115433333Y-88690476D01*
X115338095Y-88738095D01*
X131842380Y-80761904D02*
X132651904Y-80761904D01*
X132747142Y-80714285D01*
X132794761Y-80666666D01*
X132842380Y-80571428D01*
X132842380Y-80380952D01*
X132794761Y-80285714D01*
X132747142Y-80238095D01*
X132651904Y-80190476D01*
X131842380Y-80190476D01*
X131842380Y-79238095D02*
X131842380Y-79714285D01*
X132318571Y-79761904D01*
X132270952Y-79714285D01*
X132223333Y-79619047D01*
X132223333Y-79380952D01*
X132270952Y-79285714D01*
X132318571Y-79238095D01*
X132413809Y-79190476D01*
X132651904Y-79190476D01*
X132747142Y-79238095D01*
X132794761Y-79285714D01*
X132842380Y-79380952D01*
X132842380Y-79619047D01*
X132794761Y-79714285D01*
X132747142Y-79761904D01*
X121757142Y-60557142D02*
X121709523Y-60604761D01*
X121566666Y-60652380D01*
X121471428Y-60652380D01*
X121328571Y-60604761D01*
X121233333Y-60509523D01*
X121185714Y-60414285D01*
X121138095Y-60223809D01*
X121138095Y-60080952D01*
X121185714Y-59890476D01*
X121233333Y-59795238D01*
X121328571Y-59700000D01*
X121471428Y-59652380D01*
X121566666Y-59652380D01*
X121709523Y-59700000D01*
X121757142Y-59747619D01*
X122138095Y-59747619D02*
X122185714Y-59700000D01*
X122280952Y-59652380D01*
X122519047Y-59652380D01*
X122614285Y-59700000D01*
X122661904Y-59747619D01*
X122709523Y-59842857D01*
X122709523Y-59938095D01*
X122661904Y-60080952D01*
X122090476Y-60652380D01*
X122709523Y-60652380D01*
X123328571Y-59652380D02*
X123423809Y-59652380D01*
X123519047Y-59700000D01*
X123566666Y-59747619D01*
X123614285Y-59842857D01*
X123661904Y-60033333D01*
X123661904Y-60271428D01*
X123614285Y-60461904D01*
X123566666Y-60557142D01*
X123519047Y-60604761D01*
X123423809Y-60652380D01*
X123328571Y-60652380D01*
X123233333Y-60604761D01*
X123185714Y-60557142D01*
X123138095Y-60461904D01*
X123090476Y-60271428D01*
X123090476Y-60033333D01*
X123138095Y-59842857D01*
X123185714Y-59747619D01*
X123233333Y-59700000D01*
X123328571Y-59652380D01*
X122695833Y-53357142D02*
X122648214Y-53404761D01*
X122505357Y-53452380D01*
X122410119Y-53452380D01*
X122267261Y-53404761D01*
X122172023Y-53309523D01*
X122124404Y-53214285D01*
X122076785Y-53023809D01*
X122076785Y-52880952D01*
X122124404Y-52690476D01*
X122172023Y-52595238D01*
X122267261Y-52500000D01*
X122410119Y-52452380D01*
X122505357Y-52452380D01*
X122648214Y-52500000D01*
X122695833Y-52547619D01*
X123267261Y-52880952D02*
X123172023Y-52833333D01*
X123124404Y-52785714D01*
X123076785Y-52690476D01*
X123076785Y-52642857D01*
X123124404Y-52547619D01*
X123172023Y-52500000D01*
X123267261Y-52452380D01*
X123457738Y-52452380D01*
X123552976Y-52500000D01*
X123600595Y-52547619D01*
X123648214Y-52642857D01*
X123648214Y-52690476D01*
X123600595Y-52785714D01*
X123552976Y-52833333D01*
X123457738Y-52880952D01*
X123267261Y-52880952D01*
X123172023Y-52928571D01*
X123124404Y-52976190D01*
X123076785Y-53071428D01*
X123076785Y-53261904D01*
X123124404Y-53357142D01*
X123172023Y-53404761D01*
X123267261Y-53452380D01*
X123457738Y-53452380D01*
X123552976Y-53404761D01*
X123600595Y-53357142D01*
X123648214Y-53261904D01*
X123648214Y-53071428D01*
X123600595Y-52976190D01*
X123552976Y-52928571D01*
X123457738Y-52880952D01*
X109233333Y-62452380D02*
X108900000Y-61976190D01*
X108661904Y-62452380D02*
X108661904Y-61452380D01*
X109042857Y-61452380D01*
X109138095Y-61500000D01*
X109185714Y-61547619D01*
X109233333Y-61642857D01*
X109233333Y-61785714D01*
X109185714Y-61880952D01*
X109138095Y-61928571D01*
X109042857Y-61976190D01*
X108661904Y-61976190D01*
X109709523Y-62452380D02*
X109900000Y-62452380D01*
X109995238Y-62404761D01*
X110042857Y-62357142D01*
X110138095Y-62214285D01*
X110185714Y-62023809D01*
X110185714Y-61642857D01*
X110138095Y-61547619D01*
X110090476Y-61500000D01*
X109995238Y-61452380D01*
X109804761Y-61452380D01*
X109709523Y-61500000D01*
X109661904Y-61547619D01*
X109614285Y-61642857D01*
X109614285Y-61880952D01*
X109661904Y-61976190D01*
X109709523Y-62023809D01*
X109804761Y-62071428D01*
X109995238Y-62071428D01*
X110090476Y-62023809D01*
X110138095Y-61976190D01*
X110185714Y-61880952D01*
X158352380Y-37442857D02*
X157876190Y-37776190D01*
X158352380Y-38014285D02*
X157352380Y-38014285D01*
X157352380Y-37633333D01*
X157400000Y-37538095D01*
X157447619Y-37490476D01*
X157542857Y-37442857D01*
X157685714Y-37442857D01*
X157780952Y-37490476D01*
X157828571Y-37538095D01*
X157876190Y-37633333D01*
X157876190Y-38014285D01*
X158352380Y-36490476D02*
X158352380Y-37061904D01*
X158352380Y-36776190D02*
X157352380Y-36776190D01*
X157495238Y-36871428D01*
X157590476Y-36966666D01*
X157638095Y-37061904D01*
X157352380Y-35871428D02*
X157352380Y-35776190D01*
X157400000Y-35680952D01*
X157447619Y-35633333D01*
X157542857Y-35585714D01*
X157733333Y-35538095D01*
X157971428Y-35538095D01*
X158161904Y-35585714D01*
X158257142Y-35633333D01*
X158304761Y-35680952D01*
X158352380Y-35776190D01*
X158352380Y-35871428D01*
X158304761Y-35966666D01*
X158257142Y-36014285D01*
X158161904Y-36061904D01*
X157971428Y-36109523D01*
X157733333Y-36109523D01*
X157542857Y-36061904D01*
X157447619Y-36014285D01*
X157400000Y-35966666D01*
X157352380Y-35871428D01*
X110183333Y-73557142D02*
X110135714Y-73604761D01*
X109992857Y-73652380D01*
X109897619Y-73652380D01*
X109754761Y-73604761D01*
X109659523Y-73509523D01*
X109611904Y-73414285D01*
X109564285Y-73223809D01*
X109564285Y-73080952D01*
X109611904Y-72890476D01*
X109659523Y-72795238D01*
X109754761Y-72700000D01*
X109897619Y-72652380D01*
X109992857Y-72652380D01*
X110135714Y-72700000D01*
X110183333Y-72747619D01*
X111135714Y-73652380D02*
X110564285Y-73652380D01*
X110850000Y-73652380D02*
X110850000Y-72652380D01*
X110754761Y-72795238D01*
X110659523Y-72890476D01*
X110564285Y-72938095D01*
X107733333Y-94252380D02*
X107400000Y-93776190D01*
X107161904Y-94252380D02*
X107161904Y-93252380D01*
X107542857Y-93252380D01*
X107638095Y-93300000D01*
X107685714Y-93347619D01*
X107733333Y-93442857D01*
X107733333Y-93585714D01*
X107685714Y-93680952D01*
X107638095Y-93728571D01*
X107542857Y-93776190D01*
X107161904Y-93776190D01*
X108114285Y-93347619D02*
X108161904Y-93300000D01*
X108257142Y-93252380D01*
X108495238Y-93252380D01*
X108590476Y-93300000D01*
X108638095Y-93347619D01*
X108685714Y-93442857D01*
X108685714Y-93538095D01*
X108638095Y-93680952D01*
X108066666Y-94252380D01*
X108685714Y-94252380D01*
X104733333Y-87857142D02*
X104685714Y-87904761D01*
X104542857Y-87952380D01*
X104447619Y-87952380D01*
X104304761Y-87904761D01*
X104209523Y-87809523D01*
X104161904Y-87714285D01*
X104114285Y-87523809D01*
X104114285Y-87380952D01*
X104161904Y-87190476D01*
X104209523Y-87095238D01*
X104304761Y-87000000D01*
X104447619Y-86952380D01*
X104542857Y-86952380D01*
X104685714Y-87000000D01*
X104733333Y-87047619D01*
X105066666Y-86952380D02*
X105733333Y-86952380D01*
X105304761Y-87952380D01*
X113195833Y-76437142D02*
X113148214Y-76484761D01*
X113005357Y-76532380D01*
X112910119Y-76532380D01*
X112767261Y-76484761D01*
X112672023Y-76389523D01*
X112624404Y-76294285D01*
X112576785Y-76103809D01*
X112576785Y-75960952D01*
X112624404Y-75770476D01*
X112672023Y-75675238D01*
X112767261Y-75580000D01*
X112910119Y-75532380D01*
X113005357Y-75532380D01*
X113148214Y-75580000D01*
X113195833Y-75627619D01*
X114052976Y-75865714D02*
X114052976Y-76532380D01*
X113814880Y-75484761D02*
X113576785Y-76199047D01*
X114195833Y-76199047D01*
X105633333Y-99652380D02*
X105300000Y-99176190D01*
X105061904Y-99652380D02*
X105061904Y-98652380D01*
X105442857Y-98652380D01*
X105538095Y-98700000D01*
X105585714Y-98747619D01*
X105633333Y-98842857D01*
X105633333Y-98985714D01*
X105585714Y-99080952D01*
X105538095Y-99128571D01*
X105442857Y-99176190D01*
X105061904Y-99176190D01*
X106490476Y-98985714D02*
X106490476Y-99652380D01*
X106252380Y-98604761D02*
X106014285Y-99319047D01*
X106633333Y-99319047D01*
X122670833Y-55832142D02*
X122623214Y-55879761D01*
X122480357Y-55927380D01*
X122385119Y-55927380D01*
X122242261Y-55879761D01*
X122147023Y-55784523D01*
X122099404Y-55689285D01*
X122051785Y-55498809D01*
X122051785Y-55355952D01*
X122099404Y-55165476D01*
X122147023Y-55070238D01*
X122242261Y-54975000D01*
X122385119Y-54927380D01*
X122480357Y-54927380D01*
X122623214Y-54975000D01*
X122670833Y-55022619D01*
X123527976Y-54927380D02*
X123337500Y-54927380D01*
X123242261Y-54975000D01*
X123194642Y-55022619D01*
X123099404Y-55165476D01*
X123051785Y-55355952D01*
X123051785Y-55736904D01*
X123099404Y-55832142D01*
X123147023Y-55879761D01*
X123242261Y-55927380D01*
X123432738Y-55927380D01*
X123527976Y-55879761D01*
X123575595Y-55832142D01*
X123623214Y-55736904D01*
X123623214Y-55498809D01*
X123575595Y-55403571D01*
X123527976Y-55355952D01*
X123432738Y-55308333D01*
X123242261Y-55308333D01*
X123147023Y-55355952D01*
X123099404Y-55403571D01*
X123051785Y-55498809D01*
X163957142Y-52442857D02*
X164004761Y-52490476D01*
X164052380Y-52633333D01*
X164052380Y-52728571D01*
X164004761Y-52871428D01*
X163909523Y-52966666D01*
X163814285Y-53014285D01*
X163623809Y-53061904D01*
X163480952Y-53061904D01*
X163290476Y-53014285D01*
X163195238Y-52966666D01*
X163100000Y-52871428D01*
X163052380Y-52728571D01*
X163052380Y-52633333D01*
X163100000Y-52490476D01*
X163147619Y-52442857D01*
X163147619Y-52061904D02*
X163100000Y-52014285D01*
X163052380Y-51919047D01*
X163052380Y-51680952D01*
X163100000Y-51585714D01*
X163147619Y-51538095D01*
X163242857Y-51490476D01*
X163338095Y-51490476D01*
X163480952Y-51538095D01*
X164052380Y-52109523D01*
X164052380Y-51490476D01*
X163385714Y-50633333D02*
X164052380Y-50633333D01*
X163004761Y-50871428D02*
X163719047Y-51109523D01*
X163719047Y-50490476D01*
X171757142Y-52442857D02*
X171804761Y-52490476D01*
X171852380Y-52633333D01*
X171852380Y-52728571D01*
X171804761Y-52871428D01*
X171709523Y-52966666D01*
X171614285Y-53014285D01*
X171423809Y-53061904D01*
X171280952Y-53061904D01*
X171090476Y-53014285D01*
X170995238Y-52966666D01*
X170900000Y-52871428D01*
X170852380Y-52728571D01*
X170852380Y-52633333D01*
X170900000Y-52490476D01*
X170947619Y-52442857D01*
X171852380Y-51490476D02*
X171852380Y-52061904D01*
X171852380Y-51776190D02*
X170852380Y-51776190D01*
X170995238Y-51871428D01*
X171090476Y-51966666D01*
X171138095Y-52061904D01*
X170852380Y-50585714D02*
X170852380Y-51061904D01*
X171328571Y-51109523D01*
X171280952Y-51061904D01*
X171233333Y-50966666D01*
X171233333Y-50728571D01*
X171280952Y-50633333D01*
X171328571Y-50585714D01*
X171423809Y-50538095D01*
X171661904Y-50538095D01*
X171757142Y-50585714D01*
X171804761Y-50633333D01*
X171852380Y-50728571D01*
X171852380Y-50966666D01*
X171804761Y-51061904D01*
X171757142Y-51109523D01*
X114061904Y-84352380D02*
X114061904Y-83352380D01*
X114300000Y-83352380D01*
X114442857Y-83400000D01*
X114538095Y-83495238D01*
X114585714Y-83590476D01*
X114633333Y-83780952D01*
X114633333Y-83923809D01*
X114585714Y-84114285D01*
X114538095Y-84209523D01*
X114442857Y-84304761D01*
X114300000Y-84352380D01*
X114061904Y-84352380D01*
X115585714Y-84352380D02*
X115014285Y-84352380D01*
X115300000Y-84352380D02*
X115300000Y-83352380D01*
X115204761Y-83495238D01*
X115109523Y-83590476D01*
X115014285Y-83638095D01*
X121757142Y-67357142D02*
X121709523Y-67404761D01*
X121566666Y-67452380D01*
X121471428Y-67452380D01*
X121328571Y-67404761D01*
X121233333Y-67309523D01*
X121185714Y-67214285D01*
X121138095Y-67023809D01*
X121138095Y-66880952D01*
X121185714Y-66690476D01*
X121233333Y-66595238D01*
X121328571Y-66500000D01*
X121471428Y-66452380D01*
X121566666Y-66452380D01*
X121709523Y-66500000D01*
X121757142Y-66547619D01*
X122138095Y-66547619D02*
X122185714Y-66500000D01*
X122280952Y-66452380D01*
X122519047Y-66452380D01*
X122614285Y-66500000D01*
X122661904Y-66547619D01*
X122709523Y-66642857D01*
X122709523Y-66738095D01*
X122661904Y-66880952D01*
X122090476Y-67452380D01*
X122709523Y-67452380D01*
X123090476Y-66547619D02*
X123138095Y-66500000D01*
X123233333Y-66452380D01*
X123471428Y-66452380D01*
X123566666Y-66500000D01*
X123614285Y-66547619D01*
X123661904Y-66642857D01*
X123661904Y-66738095D01*
X123614285Y-66880952D01*
X123042857Y-67452380D01*
X123661904Y-67452380D01*
X161163809Y-63176190D02*
X161163809Y-63652380D01*
X160830476Y-62652380D02*
X161163809Y-63176190D01*
X161497142Y-62652380D01*
X162354285Y-63652380D02*
X161782857Y-63652380D01*
X162068571Y-63652380D02*
X162068571Y-62652380D01*
X161973333Y-62795238D01*
X161878095Y-62890476D01*
X161782857Y-62938095D01*
X139488095Y-76902380D02*
X139488095Y-77711904D01*
X139535714Y-77807142D01*
X139583333Y-77854761D01*
X139678571Y-77902380D01*
X139869047Y-77902380D01*
X139964285Y-77854761D01*
X140011904Y-77807142D01*
X140059523Y-77711904D01*
X140059523Y-76902380D01*
X140964285Y-77235714D02*
X140964285Y-77902380D01*
X140726190Y-76854761D02*
X140488095Y-77569047D01*
X141107142Y-77569047D01*
X171994642Y-54527142D02*
X171947023Y-54574761D01*
X171804166Y-54622380D01*
X171708928Y-54622380D01*
X171566071Y-54574761D01*
X171470833Y-54479523D01*
X171423214Y-54384285D01*
X171375595Y-54193809D01*
X171375595Y-54050952D01*
X171423214Y-53860476D01*
X171470833Y-53765238D01*
X171566071Y-53670000D01*
X171708928Y-53622380D01*
X171804166Y-53622380D01*
X171947023Y-53670000D01*
X171994642Y-53717619D01*
X172947023Y-54622380D02*
X172375595Y-54622380D01*
X172661309Y-54622380D02*
X172661309Y-53622380D01*
X172566071Y-53765238D01*
X172470833Y-53860476D01*
X172375595Y-53908095D01*
X173280357Y-53622380D02*
X173899404Y-53622380D01*
X173566071Y-54003333D01*
X173708928Y-54003333D01*
X173804166Y-54050952D01*
X173851785Y-54098571D01*
X173899404Y-54193809D01*
X173899404Y-54431904D01*
X173851785Y-54527142D01*
X173804166Y-54574761D01*
X173708928Y-54622380D01*
X173423214Y-54622380D01*
X173327976Y-54574761D01*
X173280357Y-54527142D01*
D12*
X103430000Y-70960000D02*
X105410000Y-70960000D01*
X103430000Y-63440000D02*
X105410000Y-63440000D01*
X105410000Y-63440000D02*
X105410000Y-63860000D01*
X101060000Y-63440000D02*
X101460000Y-63440000D01*
X105410000Y-70960000D02*
X105410000Y-70540000D01*
X101460000Y-70960000D02*
X101060000Y-70960000D01*
X106090000Y-65890000D02*
X106090000Y-65440000D01*
X105640000Y-65440000D02*
X106090000Y-65440000D01*
X103090000Y-52820000D02*
X115990000Y-52820000D01*
X111590000Y-59320000D02*
X111590000Y-59320000D01*
X115990000Y-59320000D02*
X111590000Y-59320000D01*
X101790000Y-51510000D02*
X117290000Y-51510000D01*
X107000000Y-61020000D02*
X106500000Y-62020000D01*
X111590000Y-59320000D02*
X111590000Y-60630000D01*
X107500000Y-62020000D02*
X107000000Y-61020000D01*
X117290000Y-60630000D02*
X101790000Y-60630000D01*
X106500000Y-62020000D02*
X107500000Y-62020000D01*
X107490000Y-60630000D02*
X107490000Y-59320000D01*
X115990000Y-52820000D02*
X115990000Y-59320000D01*
X101790000Y-60630000D02*
X101790000Y-51510000D01*
X103090000Y-59320000D02*
X103090000Y-52820000D01*
X117290000Y-51510000D02*
X117290000Y-60630000D01*
X107490000Y-59320000D02*
X103090000Y-59320000D01*
X126098752Y-57065000D02*
X125576248Y-57065000D01*
X126098752Y-58535000D02*
X125576248Y-58535000D01*
X101915000Y-74327064D02*
X101915000Y-73872936D01*
X103385000Y-74327064D02*
X103385000Y-73872936D01*
X170760000Y-57075000D02*
X177160000Y-57075000D01*
X170760000Y-62125000D02*
X177160000Y-62125000D01*
X170760000Y-57075000D02*
G75*
G03*
X170760000Y-62125000I0J-2525000D01*
G01*
X177160000Y-62125000D02*
G75*
G03*
X177160000Y-57075000I0J2525000D01*
G01*
X119470000Y-99130000D02*
X122130000Y-99130000D01*
X120800000Y-96470000D02*
X122130000Y-96470000D01*
X119470000Y-99010000D02*
X119470000Y-99130000D01*
X122130000Y-99010000D02*
X122130000Y-99130000D01*
X122130000Y-96470000D02*
X122130000Y-97800000D01*
X117325000Y-94510000D02*
X118425000Y-94510000D01*
X117325000Y-90290000D02*
X118425000Y-90290000D01*
X156423752Y-66935000D02*
X155901248Y-66935000D01*
X156423752Y-65465000D02*
X155901248Y-65465000D01*
X132345000Y-44600000D02*
X133845000Y-44600000D01*
X131345000Y-39600000D02*
X131345000Y-45600000D01*
X133845000Y-44600000D02*
X133845000Y-40600000D01*
X133845000Y-40600000D02*
X132345000Y-40600000D01*
X132345000Y-40600000D02*
X132345000Y-44600000D01*
X131345000Y-45600000D02*
X134845000Y-45600000D01*
X134845000Y-39600000D02*
X131345000Y-39600000D01*
X134845000Y-45600000D02*
X134845000Y-39600000D01*
X111570000Y-83410000D02*
X111570000Y-83530000D01*
X112900000Y-80870000D02*
X114230000Y-80870000D01*
X111570000Y-83530000D02*
X114230000Y-83530000D01*
X114230000Y-83410000D02*
X114230000Y-83530000D01*
X114230000Y-80870000D02*
X114230000Y-82200000D01*
X141840000Y-87000000D02*
X141840000Y-88675000D01*
X141840000Y-87000000D02*
X141840000Y-86350000D01*
X144960000Y-87000000D02*
X144960000Y-87650000D01*
X144960000Y-87000000D02*
X144960000Y-86350000D01*
X143445000Y-45600000D02*
X146945000Y-45600000D01*
X143445000Y-39600000D02*
X143445000Y-45600000D01*
X145945000Y-44600000D02*
X145945000Y-40600000D01*
X146945000Y-45600000D02*
X146945000Y-39600000D01*
X145945000Y-40600000D02*
X144445000Y-40600000D01*
X144445000Y-44600000D02*
X145945000Y-44600000D01*
X144445000Y-40600000D02*
X144445000Y-44600000D01*
X146945000Y-39600000D02*
X143445000Y-39600000D01*
X104515000Y-73872936D02*
X104515000Y-74327064D01*
X105985000Y-73872936D02*
X105985000Y-74327064D01*
X162215000Y-37740000D02*
X163165000Y-37740000D01*
X163165000Y-47960000D02*
X163165000Y-49300000D01*
X162215000Y-47010000D02*
X162215000Y-47960000D01*
X162215000Y-38690000D02*
X162215000Y-37740000D01*
X172435000Y-38690000D02*
X172435000Y-37740000D01*
X172435000Y-47010000D02*
X172435000Y-47960000D01*
X162215000Y-47960000D02*
X163165000Y-47960000D01*
X172435000Y-37740000D02*
X171485000Y-37740000D01*
X172435000Y-47960000D02*
X171485000Y-47960000D01*
X128500000Y-54500000D02*
X153500000Y-54500000D01*
X153500000Y-54500000D02*
X153500000Y-71500000D01*
X153500000Y-71500000D02*
X128500000Y-71500000D01*
X128500000Y-71500000D02*
X128500000Y-54500000D01*
X153927064Y-44765000D02*
X153472936Y-44765000D01*
X153927064Y-46235000D02*
X153472936Y-46235000D01*
X153977064Y-41735000D02*
X153522936Y-41735000D01*
X153977064Y-40265000D02*
X153522936Y-40265000D01*
X177216233Y-56110000D02*
X177508767Y-56110000D01*
X177216233Y-55090000D02*
X177508767Y-55090000D01*
X126023752Y-65335000D02*
X125501248Y-65335000D01*
X126023752Y-63865000D02*
X125501248Y-63865000D01*
X166665000Y-51976248D02*
X166665000Y-52498752D01*
X168135000Y-51976248D02*
X168135000Y-52498752D01*
X114660000Y-94904437D02*
X114660000Y-95540000D01*
X115212500Y-98597500D02*
X115212500Y-97972500D01*
X113595563Y-99360000D02*
X109140000Y-99360000D01*
X109140000Y-99360000D02*
X109140000Y-97660000D01*
X109140000Y-93840000D02*
X109140000Y-95540000D01*
X114660000Y-94904437D02*
X113595563Y-93840000D01*
X113595563Y-93840000D02*
X109140000Y-93840000D01*
X115525000Y-98285000D02*
X114900000Y-98285000D01*
X114660000Y-98295563D02*
X114660000Y-97660000D01*
X114660000Y-98295563D02*
X113595563Y-99360000D01*
X139445000Y-39600000D02*
X139445000Y-45600000D01*
X141945000Y-40600000D02*
X140445000Y-40600000D01*
X142945000Y-39600000D02*
X139445000Y-39600000D01*
X140445000Y-44600000D02*
X141945000Y-44600000D01*
X139445000Y-45600000D02*
X142945000Y-45600000D01*
X141945000Y-44600000D02*
X141945000Y-40600000D01*
X142945000Y-45600000D02*
X142945000Y-39600000D01*
X140445000Y-40600000D02*
X140445000Y-44600000D01*
X116275000Y-72695000D02*
X119725000Y-72695000D01*
X116275000Y-62575000D02*
X118225000Y-62575000D01*
X116275000Y-62575000D02*
X114325000Y-62575000D01*
X116275000Y-72695000D02*
X114325000Y-72695000D01*
X103740000Y-85560000D02*
X103740000Y-83860000D01*
X108195563Y-85560000D02*
X103740000Y-85560000D01*
X109260000Y-81104437D02*
X109260000Y-81740000D01*
X103740000Y-80040000D02*
X103740000Y-81740000D01*
X110125000Y-84485000D02*
X109500000Y-84485000D01*
X109260000Y-84495563D02*
X109260000Y-83860000D01*
X109812500Y-84797500D02*
X109812500Y-84172500D01*
X109260000Y-84495563D02*
X108195563Y-85560000D01*
X109260000Y-81104437D02*
X108195563Y-80040000D01*
X108195563Y-80040000D02*
X103740000Y-80040000D01*
X153977064Y-43985000D02*
X153522936Y-43985000D01*
X153977064Y-42515000D02*
X153522936Y-42515000D01*
X126027064Y-63135000D02*
X125572936Y-63135000D01*
X126027064Y-61665000D02*
X125572936Y-61665000D01*
X105565000Y-91427064D02*
X105565000Y-90972936D01*
X107035000Y-91427064D02*
X107035000Y-90972936D01*
X139935000Y-87227064D02*
X139935000Y-86772936D01*
X138465000Y-87227064D02*
X138465000Y-86772936D01*
X163108767Y-55090000D02*
X162816233Y-55090000D01*
X163108767Y-56110000D02*
X162816233Y-56110000D01*
X136535000Y-86772936D02*
X136535000Y-87227064D01*
X135065000Y-86772936D02*
X135065000Y-87227064D01*
X148372936Y-76065000D02*
X148827064Y-76065000D01*
X148372936Y-77535000D02*
X148827064Y-77535000D01*
X107214999Y-70898752D02*
X107214999Y-70376248D01*
X108684999Y-70898752D02*
X108684999Y-70376248D01*
X149620130Y-80683575D02*
X149650000Y-88100000D01*
X173450000Y-88200000D02*
X170550000Y-88200000D01*
X173450000Y-80600000D02*
X173450000Y-88200000D01*
X170650000Y-80600000D02*
X173450000Y-80600000D01*
X170650000Y-80600001D02*
G75*
G03*
X149620130Y-80683575I-10500000J-3799999D01*
G01*
X149650000Y-88099999D02*
G75*
G03*
X170618373Y-88188555I10500000J3699999D01*
G01*
X158308767Y-55090000D02*
X158016233Y-55090000D01*
X158308767Y-56110000D02*
X158016233Y-56110000D01*
X132935000Y-86701248D02*
X132935000Y-87223752D01*
X131465000Y-86701248D02*
X131465000Y-87223752D01*
X156423752Y-63065000D02*
X155901248Y-63065000D01*
X156423752Y-64535000D02*
X155901248Y-64535000D01*
X123950000Y-91700000D02*
X123950000Y-97100000D01*
X127250000Y-91700000D02*
X123950000Y-91700000D01*
X127250000Y-91700000D02*
X127250000Y-97100000D01*
X116765000Y-97376248D02*
X116765000Y-97898752D01*
X118235000Y-97376248D02*
X118235000Y-97898752D01*
X109122936Y-66735000D02*
X109577064Y-66735000D01*
X109122936Y-65265000D02*
X109577064Y-65265000D01*
X113910000Y-91062500D02*
X113910000Y-89262500D01*
X110790000Y-91062500D02*
X110790000Y-90262500D01*
X110790000Y-91062500D02*
X110790000Y-91862500D01*
X113910000Y-91062500D02*
X113910000Y-91862500D01*
X126052500Y-77252500D02*
X126335000Y-77252500D01*
X126052500Y-82747500D02*
X126335000Y-82747500D01*
X131265000Y-77252500D02*
X131265000Y-75600000D01*
X131547500Y-77252500D02*
X131265000Y-77252500D01*
X131547500Y-82747500D02*
X131265000Y-82747500D01*
X131547500Y-80000000D02*
X131547500Y-77252500D01*
X126052500Y-80000000D02*
X126052500Y-82747500D01*
X126052500Y-80000000D02*
X126052500Y-77252500D01*
X131547500Y-80000000D02*
X131547500Y-82747500D01*
X137845000Y-40600000D02*
X136345000Y-40600000D01*
X135345000Y-39600000D02*
X135345000Y-45600000D01*
X138845000Y-39600000D02*
X135345000Y-39600000D01*
X138845000Y-45600000D02*
X138845000Y-39600000D01*
X135345000Y-45600000D02*
X138845000Y-45600000D01*
X137845000Y-44600000D02*
X137845000Y-40600000D01*
X136345000Y-44600000D02*
X137845000Y-44600000D01*
X136345000Y-40600000D02*
X136345000Y-44600000D01*
X126098752Y-59465000D02*
X125576248Y-59465000D01*
X126098752Y-60935000D02*
X125576248Y-60935000D01*
X126023752Y-53735000D02*
X125501248Y-53735000D01*
X126023752Y-52265000D02*
X125501248Y-52265000D01*
X109577064Y-62865000D02*
X109122936Y-62865000D01*
X109577064Y-64335000D02*
X109122936Y-64335000D01*
X160235000Y-36572936D02*
X160235000Y-37027064D01*
X158765000Y-36572936D02*
X158765000Y-37027064D01*
X109815000Y-70898752D02*
X109815000Y-70376248D01*
X111285000Y-70898752D02*
X111285000Y-70376248D01*
X108165000Y-90972936D02*
X108165000Y-91427064D01*
X109635000Y-90972936D02*
X109635000Y-91427064D01*
X108123752Y-86665000D02*
X107601248Y-86665000D01*
X108123752Y-88135000D02*
X107601248Y-88135000D01*
X113623752Y-73665000D02*
X113101248Y-73665000D01*
X113623752Y-75135000D02*
X113101248Y-75135000D01*
X127345000Y-39500000D02*
X127345000Y-45500000D01*
X129845000Y-40500000D02*
X128345000Y-40500000D01*
X129845000Y-44500000D02*
X129845000Y-40500000D01*
X127345000Y-45500000D02*
X130845000Y-45500000D01*
X128345000Y-44500000D02*
X129845000Y-44500000D01*
X130845000Y-45500000D02*
X130845000Y-39500000D01*
X128345000Y-40500000D02*
X128345000Y-44500000D01*
X130845000Y-39500000D02*
X127345000Y-39500000D01*
X105265000Y-96827064D02*
X105265000Y-96372936D01*
X106735000Y-96827064D02*
X106735000Y-96372936D01*
X126011252Y-54640000D02*
X125488748Y-54640000D01*
X126011252Y-56110000D02*
X125488748Y-56110000D01*
X165935000Y-51976248D02*
X165935000Y-52498752D01*
X164465000Y-51976248D02*
X164465000Y-52498752D01*
X149955000Y-44600000D02*
X149955000Y-40600000D01*
X149955000Y-40600000D02*
X148455000Y-40600000D01*
X147455000Y-39600000D02*
X147455000Y-45600000D01*
X148455000Y-44600000D02*
X149955000Y-44600000D01*
X150955000Y-45600000D02*
X150955000Y-39600000D01*
X150955000Y-39600000D02*
X147455000Y-39600000D01*
X148455000Y-40600000D02*
X148455000Y-44600000D01*
X147455000Y-45600000D02*
X150955000Y-45600000D01*
X121050000Y-34880000D02*
X121050000Y-37580000D01*
X106250000Y-34980000D02*
X106250000Y-37480000D01*
X121050000Y-39980000D02*
X121050000Y-47480000D01*
X121050000Y-34880000D02*
X120750000Y-34880000D01*
X121050000Y-49380000D02*
X120750000Y-49380000D01*
X106250000Y-40080000D02*
X106250000Y-47380000D01*
X121050000Y-49380000D02*
X121050000Y-49280000D01*
X106250000Y-34880000D02*
X120750000Y-34880000D01*
X106250000Y-49380000D02*
X110950000Y-49380000D01*
X106250000Y-49380000D02*
X106250000Y-49280000D01*
X168865000Y-51976248D02*
X168865000Y-52498752D01*
X170335000Y-51976248D02*
X170335000Y-52498752D01*
X111400000Y-84750000D02*
X116800000Y-84750000D01*
X111400000Y-88050000D02*
X116800000Y-88050000D01*
X111400000Y-84750000D02*
X111400000Y-88050000D01*
X126023752Y-67735000D02*
X125501248Y-67735000D01*
X126023752Y-66265000D02*
X125501248Y-66265000D01*
X168480000Y-76000000D02*
X168480000Y-64000000D01*
X180480000Y-64000000D02*
X180480000Y-76000000D01*
X168480000Y-64000000D02*
X180480000Y-64000000D01*
X174480000Y-76000000D02*
X168480000Y-76000000D01*
X180480000Y-76000000D02*
X174480000Y-76000000D01*
X178516093Y-69990000D02*
G75*
G03*
X178516093Y-69990000I-4016093J0D01*
G01*
X158440000Y-62125000D02*
X164840000Y-62125000D01*
X158440000Y-57075000D02*
X164840000Y-57075000D01*
X158440000Y-57075000D02*
G75*
G03*
X158440000Y-62125000I0J-2525000D01*
G01*
X164840000Y-62125000D02*
G75*
G03*
X164840000Y-57075000I0J2525000D01*
G01*
X138300000Y-78250000D02*
X141950000Y-78250000D01*
X136750000Y-78450000D02*
X138300000Y-78450000D01*
X138550000Y-82250000D02*
X141950000Y-82250000D01*
X138300000Y-78250000D02*
X138300000Y-78450000D01*
X172491233Y-56110000D02*
X172783767Y-56110000D01*
X172491233Y-55090000D02*
X172783767Y-55090000D01*
%LPC*%
D13*
X105150000Y-65900000D03*
X105150000Y-66550000D03*
X105150000Y-67200000D03*
X105150000Y-67850000D03*
X105150000Y-68500000D03*
D14*
X105150000Y-64700000D03*
D15*
X102450000Y-64300000D03*
D16*
X102450000Y-63700000D03*
D14*
X105150000Y-69700000D03*
D17*
X102450000Y-66200000D03*
D15*
X102450000Y-70100000D03*
D16*
X102450000Y-70700000D03*
D17*
X102450000Y-68200000D03*
D18*
X107000000Y-57340000D03*
D19*
X107000000Y-54800000D03*
X109540000Y-57340000D03*
X109540000Y-54800000D03*
X112080000Y-57340000D03*
X112080000Y-54800000D03*
D20*
X100000000Y-92500000D03*
X182000000Y-92500000D03*
X100000000Y-42500000D03*
X182000000Y-42500000D03*
D21*
X126875000Y-57800000D03*
X124800000Y-57800000D03*
D22*
X102650000Y-75100000D03*
X102650000Y-73100000D03*
D23*
X171520000Y-59600000D03*
X176400000Y-59600000D03*
D24*
X120800000Y-97800000D03*
D25*
X116250000Y-92400000D03*
X119500000Y-92400000D03*
D21*
X157200000Y-66200000D03*
X155125000Y-66200000D03*
D26*
X133095000Y-38775000D03*
X133095000Y-46425000D03*
D24*
X112900000Y-82200000D03*
D27*
X142450000Y-87937500D03*
X144350000Y-87937500D03*
X143400000Y-86062500D03*
D26*
X145195000Y-38775000D03*
X145195000Y-46425000D03*
D28*
X105250000Y-73100000D03*
X105250000Y-75100000D03*
D29*
X163575000Y-48525000D03*
X164075000Y-48525000D03*
X164575000Y-48525000D03*
X165075000Y-48525000D03*
X165575000Y-48525000D03*
X166075000Y-48525000D03*
X166575000Y-48525000D03*
X167075000Y-48525000D03*
X167575000Y-48525000D03*
X168075000Y-48525000D03*
X168575000Y-48525000D03*
X169075000Y-48525000D03*
X169575000Y-48525000D03*
X170075000Y-48525000D03*
X170575000Y-48525000D03*
X171075000Y-48525000D03*
D30*
X173000000Y-46600000D03*
X173000000Y-46100000D03*
X173000000Y-45600000D03*
X173000000Y-45100000D03*
X173000000Y-44600000D03*
X173000000Y-44100000D03*
X173000000Y-43600000D03*
X173000000Y-43100000D03*
X173000000Y-42600000D03*
X173000000Y-42100000D03*
X173000000Y-41600000D03*
X173000000Y-41100000D03*
X173000000Y-40600000D03*
X173000000Y-40100000D03*
X173000000Y-39600000D03*
X173000000Y-39100000D03*
D29*
X171075000Y-37175000D03*
X170575000Y-37175000D03*
X170075000Y-37175000D03*
X169575000Y-37175000D03*
X169075000Y-37175000D03*
X168575000Y-37175000D03*
X168075000Y-37175000D03*
X167575000Y-37175000D03*
X167075000Y-37175000D03*
X166575000Y-37175000D03*
X166075000Y-37175000D03*
X165575000Y-37175000D03*
X165075000Y-37175000D03*
X164575000Y-37175000D03*
X164075000Y-37175000D03*
X163575000Y-37175000D03*
D30*
X161650000Y-39100000D03*
X161650000Y-39600000D03*
X161650000Y-40100000D03*
X161650000Y-40600000D03*
X161650000Y-41100000D03*
X161650000Y-41600000D03*
X161650000Y-42100000D03*
X161650000Y-42600000D03*
X161650000Y-43100000D03*
X161650000Y-43600000D03*
X161650000Y-44100000D03*
X161650000Y-44600000D03*
X161650000Y-45100000D03*
X161650000Y-45600000D03*
X161650000Y-46100000D03*
X161650000Y-46600000D03*
D31*
X154700000Y-45500000D03*
X152700000Y-45500000D03*
X154750000Y-41000000D03*
X152750000Y-41000000D03*
D32*
X176500000Y-55600000D03*
X178225000Y-55600000D03*
D21*
X126800000Y-64600000D03*
X124725000Y-64600000D03*
D33*
X167400000Y-51200000D03*
X167400000Y-53275000D03*
D34*
X114100000Y-96600000D03*
X109700000Y-96600000D03*
D26*
X141195000Y-38775000D03*
X141195000Y-46425000D03*
D35*
X118750000Y-72080000D03*
X118750000Y-70810000D03*
X118750000Y-69540000D03*
X118750000Y-68270000D03*
X118750000Y-67000000D03*
X118750000Y-65730000D03*
X118750000Y-64460000D03*
X118750000Y-63190000D03*
X113800000Y-63190000D03*
X113800000Y-64460000D03*
X113800000Y-65730000D03*
X113800000Y-67000000D03*
X113800000Y-68270000D03*
X113800000Y-69540000D03*
X113800000Y-70810000D03*
X113800000Y-72080000D03*
D34*
X108700000Y-82800000D03*
X104300000Y-82800000D03*
D31*
X154750000Y-43250000D03*
X152750000Y-43250000D03*
X126800000Y-62400000D03*
X124800000Y-62400000D03*
D22*
X106300000Y-92200000D03*
X106300000Y-90200000D03*
X139200000Y-88000000D03*
X139200000Y-86000000D03*
D36*
X163825000Y-55600000D03*
X162100000Y-55600000D03*
D28*
X135800000Y-86000000D03*
X135800000Y-88000000D03*
D37*
X147600000Y-76800000D03*
X149600000Y-76800000D03*
D38*
X107949999Y-71675000D03*
X107949999Y-69600000D03*
D39*
X172000000Y-84400000D03*
X152000000Y-84400000D03*
D36*
X159025000Y-55600000D03*
X157300000Y-55600000D03*
D33*
X132200000Y-85925000D03*
X132200000Y-88000000D03*
D21*
X157200000Y-63800000D03*
X155125000Y-63800000D03*
D40*
X125600000Y-93100000D03*
X125600000Y-97100000D03*
D33*
X117500000Y-96600000D03*
X117500000Y-98675000D03*
D37*
X108350000Y-66000000D03*
X110350000Y-66000000D03*
D41*
X113300000Y-89925000D03*
X112350000Y-89925000D03*
X111400000Y-89925000D03*
X111400000Y-92200000D03*
X112350000Y-92200000D03*
X113300000Y-92200000D03*
D42*
X130705000Y-76400000D03*
X129435000Y-76400000D03*
X128165000Y-76400000D03*
X126895000Y-76400000D03*
X126895000Y-83600000D03*
X128165000Y-83600000D03*
X129435000Y-83600000D03*
X130705000Y-83600000D03*
D26*
X137095000Y-38775000D03*
X137095000Y-46425000D03*
D21*
X126875000Y-60200000D03*
X124800000Y-60200000D03*
X126800000Y-53000000D03*
X124725000Y-53000000D03*
D31*
X110350000Y-63600000D03*
X108350000Y-63600000D03*
D28*
X159500000Y-35800000D03*
X159500000Y-37800000D03*
D38*
X110550000Y-71675000D03*
X110550000Y-69600000D03*
D28*
X108900000Y-90200000D03*
X108900000Y-92200000D03*
D21*
X108900000Y-87400000D03*
X106825000Y-87400000D03*
X114400000Y-74400000D03*
X112325000Y-74400000D03*
D26*
X129095000Y-38675000D03*
X129095000Y-46325000D03*
D22*
X106000000Y-97600000D03*
X106000000Y-95600000D03*
D21*
X126787500Y-55375000D03*
X124712500Y-55375000D03*
D33*
X165200000Y-51200000D03*
X165200000Y-53275000D03*
D26*
X149205000Y-46425000D03*
X149205000Y-38775000D03*
D43*
X121450000Y-48380000D03*
D44*
X106550000Y-38780000D03*
X121450000Y-38780000D03*
D45*
X106850000Y-48380000D03*
D46*
X111450000Y-49380000D03*
X112550000Y-49380000D03*
X113650000Y-49380000D03*
X114750000Y-49380000D03*
X115850000Y-49380000D03*
X116950000Y-49380000D03*
X118050000Y-49380000D03*
X119150000Y-49380000D03*
X120250000Y-49380000D03*
D33*
X169600000Y-51200000D03*
X169600000Y-53275000D03*
D47*
X112800000Y-86400000D03*
X116800000Y-86400000D03*
D21*
X126800000Y-67000000D03*
X124725000Y-67000000D03*
D48*
X177040000Y-63640000D03*
X177040000Y-76340000D03*
X171960000Y-76340000D03*
X171960000Y-63640000D03*
D23*
X159200000Y-59600000D03*
X164080000Y-59600000D03*
D49*
X137450000Y-79350000D03*
X143050000Y-79350000D03*
X137450000Y-81150000D03*
X143050000Y-81150000D03*
D32*
X171775000Y-55600000D03*
X173500000Y-55600000D03*
M02*
