G04 #@! TF.GenerationSoftware,KiCad,Pcbnew,6.0.11*
G04 #@! TF.CreationDate,2023-02-08T13:55:16+01:00*
G04 #@! TF.ProjectId,pullup_counter_schematic,70756c6c-7570-45f6-936f-756e7465725f,1*
G04 #@! TF.SameCoordinates,Original*
G04 #@! TF.FileFunction,Profile,NP*
%FSLAX46Y46*%
G04 Gerber Fmt 4.6, Leading zero omitted, Abs format (unit mm)*
G04 Created by KiCad (PCBNEW 6.0.11) date 2023-02-08 13:55:16*
%MOMM*%
%LPD*%
G01*
G04 APERTURE LIST*
G04 #@! TA.AperFunction,Profile*
%ADD10C,0.100000*%
G04 #@! TD*
G04 #@! TA.AperFunction,Profile*
%ADD11C,0.038100*%
G04 #@! TD*
G04 APERTURE END LIST*
D10*
X101000000Y-51000000D02*
X101000000Y-84000000D01*
D11*
X181000000Y-84000000D02*
X181000000Y-51000000D01*
X182000000Y-50000000D02*
G75*
G03*
X181000000Y-51000000I0J-1000000D01*
G01*
D10*
X100000000Y-85000000D02*
G75*
G03*
X100000000Y-100000000I0J-7500000D01*
G01*
D11*
X180000000Y-35000000D02*
X182000000Y-35000000D01*
X181000000Y-84000000D02*
G75*
G03*
X182000000Y-85000000I1000000J0D01*
G01*
X182000000Y-50000000D02*
G75*
G03*
X182000000Y-35000000I0J7500000D01*
G01*
D10*
X100000000Y-85000000D02*
G75*
G03*
X101000000Y-84000000I0J1000000D01*
G01*
X180000000Y-35000000D02*
X100000000Y-35000000D01*
X180000000Y-100000000D02*
X182000000Y-100000000D01*
X100000000Y-35000000D02*
G75*
G03*
X100000000Y-50000000I0J-7500000D01*
G01*
X101000000Y-51000000D02*
G75*
G03*
X100000000Y-50000000I-1000000J0D01*
G01*
X182000000Y-100000000D02*
G75*
G03*
X182000000Y-85000000I0J7500000D01*
G01*
X100000000Y-100000000D02*
X180000000Y-100000000D01*
X151750000Y-51500000D02*
X130000000Y-51500000D01*
X130000000Y-50000000D02*
X151750000Y-50000000D01*
X130000000Y-50000000D02*
G75*
G03*
X130000000Y-51500000I0J-750000D01*
G01*
X151750000Y-51500000D02*
G75*
G03*
X151750000Y-50000000I0J750000D01*
G01*
X111150000Y-38380000D02*
G75*
G03*
X111150000Y-38380000I-500000J0D01*
G01*
X119150000Y-38380000D02*
G75*
G03*
X119150000Y-38380000I-500000J0D01*
G01*
M02*
