%FSLAX45Y45*%
G04 Gerber Fmt 4.5, Leading zero omitted, Abs format (unit mm)*
G04 Created by KiCad (PCBNEW (5.1.10)-1) date 2022-05-27 17:28:44*
%MOMM*%
%LPD*%
G01*
G04 APERTURE LIST*
%TA.AperFunction,Profile*%
%ADD10C,0.038100*%
%TD*%
%ADD11C,0.200000*%
%ADD12C,0.300000*%
G04 APERTURE END LIST*
D10*
X17900000Y-8400000D02*
X17900000Y-5100000D01*
X10100000Y-5100000D02*
X10100000Y-8400000D01*
X10100000Y-8400000D02*
G75*
G02*
X10000000Y-8500000I-100000J0D01*
G01*
X18000000Y-8500000D02*
G75*
G02*
X17900000Y-8400000I0J100000D01*
G01*
X17900000Y-5100000D02*
G75*
G02*
X18000000Y-5000000I100000J0D01*
G01*
X10000000Y-5000000D02*
G75*
G02*
X10100000Y-5100000I0J-100000D01*
G01*
X18000000Y-3500000D02*
G75*
G02*
X18000000Y-5000000I0J-750000D01*
G01*
X18000000Y-8500000D02*
G75*
G02*
X18000000Y-10000000I0J-750000D01*
G01*
X10000000Y-10000000D02*
G75*
G02*
X10000000Y-8500000I0J750000D01*
G01*
X10000000Y-5000000D02*
G75*
G02*
X10000000Y-3500000I0J750000D01*
G01*
X18000000Y-3500000D02*
X10000000Y-3500000D01*
X10000000Y-10000000D02*
X18000000Y-10000000D01*
D11*
X9840000Y-4090000D02*
X10160000Y-4410000D01*
X10160000Y-4090000D02*
X9840000Y-4410000D01*
X9840000Y-9090000D02*
X10160000Y-9410000D01*
X10160000Y-9090000D02*
X9840000Y-9410000D01*
X17840000Y-4090000D02*
X18160000Y-4410000D01*
X18160000Y-4090000D02*
X17840000Y-4410000D01*
X17840000Y-9090000D02*
X18160000Y-9410000D01*
X18160000Y-9090000D02*
X17840000Y-9410000D01*
D12*
X9534523Y-10467619D02*
X9534523Y-10167619D01*
X9605952Y-10167619D01*
X9648809Y-10181905D01*
X9677381Y-10210477D01*
X9691666Y-10239048D01*
X9705952Y-10296191D01*
X9705952Y-10339048D01*
X9691666Y-10396191D01*
X9677381Y-10424762D01*
X9648809Y-10453334D01*
X9605952Y-10467619D01*
X9534523Y-10467619D01*
X9834523Y-10467619D02*
X9834523Y-10267619D01*
X9834523Y-10324762D02*
X9848809Y-10296191D01*
X9863095Y-10281905D01*
X9891666Y-10267619D01*
X9920238Y-10267619D01*
X10020238Y-10467619D02*
X10020238Y-10267619D01*
X10020238Y-10167619D02*
X10005952Y-10181905D01*
X10020238Y-10196191D01*
X10034523Y-10181905D01*
X10020238Y-10167619D01*
X10020238Y-10196191D01*
X10205952Y-10467619D02*
X10177381Y-10453334D01*
X10163095Y-10424762D01*
X10163095Y-10167619D01*
X10363095Y-10467619D02*
X10334523Y-10453334D01*
X10320238Y-10424762D01*
X10320238Y-10167619D01*
X10705952Y-10467619D02*
X10705952Y-10167619D01*
X10805952Y-10381905D01*
X10905952Y-10167619D01*
X10905952Y-10467619D01*
X11177381Y-10467619D02*
X11177381Y-10310477D01*
X11163095Y-10281905D01*
X11134523Y-10267619D01*
X11077381Y-10267619D01*
X11048809Y-10281905D01*
X11177381Y-10453334D02*
X11148809Y-10467619D01*
X11077381Y-10467619D01*
X11048809Y-10453334D01*
X11034523Y-10424762D01*
X11034523Y-10396191D01*
X11048809Y-10367619D01*
X11077381Y-10353334D01*
X11148809Y-10353334D01*
X11177381Y-10339048D01*
X11320238Y-10267619D02*
X11320238Y-10567619D01*
X11320238Y-10281905D02*
X11348809Y-10267619D01*
X11405952Y-10267619D01*
X11434523Y-10281905D01*
X11448809Y-10296191D01*
X11463095Y-10324762D01*
X11463095Y-10410477D01*
X11448809Y-10439048D01*
X11434523Y-10453334D01*
X11405952Y-10467619D01*
X11348809Y-10467619D01*
X11320238Y-10453334D01*
X11591666Y-10439048D02*
X11605952Y-10453334D01*
X11591666Y-10467619D01*
X11577381Y-10453334D01*
X11591666Y-10439048D01*
X11591666Y-10467619D01*
X11591666Y-10281905D02*
X11605952Y-10296191D01*
X11591666Y-10310477D01*
X11577381Y-10296191D01*
X11591666Y-10281905D01*
X11591666Y-10310477D01*
X8928095Y-10801905D02*
X9248095Y-11121905D01*
X9248095Y-10801905D02*
X8928095Y-11121905D01*
X9505952Y-10797619D02*
X9691666Y-10797619D01*
X9591666Y-10911905D01*
X9634523Y-10911905D01*
X9663095Y-10926191D01*
X9677381Y-10940477D01*
X9691666Y-10969048D01*
X9691666Y-11040477D01*
X9677381Y-11069048D01*
X9663095Y-11083334D01*
X9634523Y-11097619D01*
X9548809Y-11097619D01*
X9520238Y-11083334D01*
X9505952Y-11069048D01*
X9820238Y-11069048D02*
X9834523Y-11083334D01*
X9820238Y-11097619D01*
X9805952Y-11083334D01*
X9820238Y-11069048D01*
X9820238Y-11097619D01*
X9948809Y-10826191D02*
X9963095Y-10811905D01*
X9991666Y-10797619D01*
X10063095Y-10797619D01*
X10091666Y-10811905D01*
X10105952Y-10826191D01*
X10120238Y-10854762D01*
X10120238Y-10883334D01*
X10105952Y-10926191D01*
X9934523Y-11097619D01*
X10120238Y-11097619D01*
X10305952Y-10797619D02*
X10334523Y-10797619D01*
X10363095Y-10811905D01*
X10377381Y-10826191D01*
X10391666Y-10854762D01*
X10405952Y-10911905D01*
X10405952Y-10983334D01*
X10391666Y-11040477D01*
X10377381Y-11069048D01*
X10363095Y-11083334D01*
X10334523Y-11097619D01*
X10305952Y-11097619D01*
X10277381Y-11083334D01*
X10263095Y-11069048D01*
X10248809Y-11040477D01*
X10234523Y-10983334D01*
X10234523Y-10911905D01*
X10248809Y-10854762D01*
X10263095Y-10826191D01*
X10277381Y-10811905D01*
X10305952Y-10797619D01*
X10591666Y-10797619D02*
X10620238Y-10797619D01*
X10648809Y-10811905D01*
X10663095Y-10826191D01*
X10677381Y-10854762D01*
X10691666Y-10911905D01*
X10691666Y-10983334D01*
X10677381Y-11040477D01*
X10663095Y-11069048D01*
X10648809Y-11083334D01*
X10620238Y-11097619D01*
X10591666Y-11097619D01*
X10563095Y-11083334D01*
X10548809Y-11069048D01*
X10534523Y-11040477D01*
X10520238Y-10983334D01*
X10520238Y-10911905D01*
X10534523Y-10854762D01*
X10548809Y-10826191D01*
X10563095Y-10811905D01*
X10591666Y-10797619D01*
X10820238Y-11097619D02*
X10820238Y-10897619D01*
X10820238Y-10926191D02*
X10834523Y-10911905D01*
X10863095Y-10897619D01*
X10905952Y-10897619D01*
X10934523Y-10911905D01*
X10948809Y-10940477D01*
X10948809Y-11097619D01*
X10948809Y-10940477D02*
X10963095Y-10911905D01*
X10991666Y-10897619D01*
X11034523Y-10897619D01*
X11063095Y-10911905D01*
X11077381Y-10940477D01*
X11077381Y-11097619D01*
X11220238Y-11097619D02*
X11220238Y-10897619D01*
X11220238Y-10926191D02*
X11234523Y-10911905D01*
X11263095Y-10897619D01*
X11305952Y-10897619D01*
X11334523Y-10911905D01*
X11348809Y-10940477D01*
X11348809Y-11097619D01*
X11348809Y-10940477D02*
X11363095Y-10911905D01*
X11391666Y-10897619D01*
X11434523Y-10897619D01*
X11463095Y-10911905D01*
X11477381Y-10940477D01*
X11477381Y-11097619D01*
X12063095Y-10783334D02*
X11805952Y-11169048D01*
X12448809Y-10797619D02*
X12477381Y-10797619D01*
X12505952Y-10811905D01*
X12520238Y-10826191D01*
X12534523Y-10854762D01*
X12548809Y-10911905D01*
X12548809Y-10983334D01*
X12534523Y-11040477D01*
X12520238Y-11069048D01*
X12505952Y-11083334D01*
X12477381Y-11097619D01*
X12448809Y-11097619D01*
X12420238Y-11083334D01*
X12405952Y-11069048D01*
X12391666Y-11040477D01*
X12377381Y-10983334D01*
X12377381Y-10911905D01*
X12391666Y-10854762D01*
X12405952Y-10826191D01*
X12420238Y-10811905D01*
X12448809Y-10797619D01*
X12677381Y-11069048D02*
X12691666Y-11083334D01*
X12677381Y-11097619D01*
X12663095Y-11083334D01*
X12677381Y-11069048D01*
X12677381Y-11097619D01*
X12977381Y-11097619D02*
X12805952Y-11097619D01*
X12891666Y-11097619D02*
X12891666Y-10797619D01*
X12863095Y-10840477D01*
X12834523Y-10869048D01*
X12805952Y-10883334D01*
X13091666Y-10826191D02*
X13105952Y-10811905D01*
X13134523Y-10797619D01*
X13205952Y-10797619D01*
X13234523Y-10811905D01*
X13248809Y-10826191D01*
X13263095Y-10854762D01*
X13263095Y-10883334D01*
X13248809Y-10926191D01*
X13077381Y-11097619D01*
X13263095Y-11097619D01*
X13520238Y-10797619D02*
X13463095Y-10797619D01*
X13434523Y-10811905D01*
X13420238Y-10826191D01*
X13391666Y-10869048D01*
X13377381Y-10926191D01*
X13377381Y-11040477D01*
X13391666Y-11069048D01*
X13405952Y-11083334D01*
X13434523Y-11097619D01*
X13491666Y-11097619D01*
X13520238Y-11083334D01*
X13534523Y-11069048D01*
X13548809Y-11040477D01*
X13548809Y-10969048D01*
X13534523Y-10940477D01*
X13520238Y-10926191D01*
X13491666Y-10911905D01*
X13434523Y-10911905D01*
X13405952Y-10926191D01*
X13391666Y-10940477D01*
X13377381Y-10969048D01*
X13734523Y-10797619D02*
X13763095Y-10797619D01*
X13791666Y-10811905D01*
X13805952Y-10826191D01*
X13820238Y-10854762D01*
X13834523Y-10911905D01*
X13834523Y-10983334D01*
X13820238Y-11040477D01*
X13805952Y-11069048D01*
X13791666Y-11083334D01*
X13763095Y-11097619D01*
X13734523Y-11097619D01*
X13705952Y-11083334D01*
X13691666Y-11069048D01*
X13677381Y-11040477D01*
X13663095Y-10983334D01*
X13663095Y-10911905D01*
X13677381Y-10854762D01*
X13691666Y-10826191D01*
X13705952Y-10811905D01*
X13734523Y-10797619D01*
X13948809Y-10797619D02*
X13948809Y-10854762D01*
X14063095Y-10797619D02*
X14063095Y-10854762D01*
X14505952Y-11211905D02*
X14491666Y-11197619D01*
X14463095Y-11154762D01*
X14448809Y-11126191D01*
X14434523Y-11083334D01*
X14420238Y-11011905D01*
X14420238Y-10954762D01*
X14434523Y-10883334D01*
X14448809Y-10840477D01*
X14463095Y-10811905D01*
X14491666Y-10769048D01*
X14505952Y-10754762D01*
X14748809Y-10897619D02*
X14748809Y-11097619D01*
X14677381Y-10783334D02*
X14605952Y-10997619D01*
X14791666Y-10997619D01*
X15134523Y-11097619D02*
X15134523Y-10797619D01*
X15263095Y-11097619D02*
X15263095Y-10940477D01*
X15248809Y-10911905D01*
X15220238Y-10897619D01*
X15177381Y-10897619D01*
X15148809Y-10911905D01*
X15134523Y-10926191D01*
X15448809Y-11097619D02*
X15420238Y-11083334D01*
X15405952Y-11069048D01*
X15391666Y-11040477D01*
X15391666Y-10954762D01*
X15405952Y-10926191D01*
X15420238Y-10911905D01*
X15448809Y-10897619D01*
X15491666Y-10897619D01*
X15520238Y-10911905D01*
X15534523Y-10926191D01*
X15548809Y-10954762D01*
X15548809Y-11040477D01*
X15534523Y-11069048D01*
X15520238Y-11083334D01*
X15491666Y-11097619D01*
X15448809Y-11097619D01*
X15720238Y-11097619D02*
X15691666Y-11083334D01*
X15677381Y-11054762D01*
X15677381Y-10797619D01*
X15948809Y-11083334D02*
X15920238Y-11097619D01*
X15863095Y-11097619D01*
X15834523Y-11083334D01*
X15820238Y-11054762D01*
X15820238Y-10940477D01*
X15834523Y-10911905D01*
X15863095Y-10897619D01*
X15920238Y-10897619D01*
X15948809Y-10911905D01*
X15963095Y-10940477D01*
X15963095Y-10969048D01*
X15820238Y-10997619D01*
X16077381Y-11083334D02*
X16105952Y-11097619D01*
X16163095Y-11097619D01*
X16191666Y-11083334D01*
X16205952Y-11054762D01*
X16205952Y-11040477D01*
X16191666Y-11011905D01*
X16163095Y-10997619D01*
X16120238Y-10997619D01*
X16091666Y-10983334D01*
X16077381Y-10954762D01*
X16077381Y-10940477D01*
X16091666Y-10911905D01*
X16120238Y-10897619D01*
X16163095Y-10897619D01*
X16191666Y-10911905D01*
X16305952Y-11211905D02*
X16320238Y-11197619D01*
X16348809Y-11154762D01*
X16363095Y-11126191D01*
X16377381Y-11083334D01*
X16391666Y-11011905D01*
X16391666Y-10954762D01*
X16377381Y-10883334D01*
X16363095Y-10840477D01*
X16348809Y-10811905D01*
X16320238Y-10769048D01*
X16305952Y-10754762D01*
X16848809Y-11211905D02*
X16834523Y-11197619D01*
X16805952Y-11154762D01*
X16791666Y-11126191D01*
X16777381Y-11083334D01*
X16763095Y-11011905D01*
X16763095Y-10954762D01*
X16777381Y-10883334D01*
X16791666Y-10840477D01*
X16805952Y-10811905D01*
X16834523Y-10769048D01*
X16848809Y-10754762D01*
X16963095Y-10897619D02*
X16963095Y-11097619D01*
X16963095Y-10926191D02*
X16977381Y-10911905D01*
X17005952Y-10897619D01*
X17048809Y-10897619D01*
X17077381Y-10911905D01*
X17091666Y-10940477D01*
X17091666Y-11097619D01*
X17277381Y-11097619D02*
X17248809Y-11083334D01*
X17234523Y-11069048D01*
X17220238Y-11040477D01*
X17220238Y-10954762D01*
X17234523Y-10926191D01*
X17248809Y-10911905D01*
X17277381Y-10897619D01*
X17320238Y-10897619D01*
X17348809Y-10911905D01*
X17363095Y-10926191D01*
X17377381Y-10954762D01*
X17377381Y-11040477D01*
X17363095Y-11069048D01*
X17348809Y-11083334D01*
X17320238Y-11097619D01*
X17277381Y-11097619D01*
X17463095Y-10897619D02*
X17577381Y-10897619D01*
X17505952Y-10797619D02*
X17505952Y-11054762D01*
X17520238Y-11083334D01*
X17548809Y-11097619D01*
X17577381Y-11097619D01*
X17905952Y-10897619D02*
X17905952Y-11197619D01*
X17905952Y-10911905D02*
X17934523Y-10897619D01*
X17991666Y-10897619D01*
X18020238Y-10911905D01*
X18034523Y-10926191D01*
X18048809Y-10954762D01*
X18048809Y-11040477D01*
X18034523Y-11069048D01*
X18020238Y-11083334D01*
X17991666Y-11097619D01*
X17934523Y-11097619D01*
X17905952Y-11083334D01*
X18220238Y-11097619D02*
X18191666Y-11083334D01*
X18177381Y-11054762D01*
X18177381Y-10797619D01*
X18463095Y-11097619D02*
X18463095Y-10940477D01*
X18448809Y-10911905D01*
X18420238Y-10897619D01*
X18363095Y-10897619D01*
X18334523Y-10911905D01*
X18463095Y-11083334D02*
X18434523Y-11097619D01*
X18363095Y-11097619D01*
X18334523Y-11083334D01*
X18320238Y-11054762D01*
X18320238Y-11026191D01*
X18334523Y-10997619D01*
X18363095Y-10983334D01*
X18434523Y-10983334D01*
X18463095Y-10969048D01*
X18563095Y-10897619D02*
X18677381Y-10897619D01*
X18605952Y-10797619D02*
X18605952Y-11054762D01*
X18620238Y-11083334D01*
X18648809Y-11097619D01*
X18677381Y-11097619D01*
X18891666Y-11083334D02*
X18863095Y-11097619D01*
X18805952Y-11097619D01*
X18777381Y-11083334D01*
X18763095Y-11054762D01*
X18763095Y-10940477D01*
X18777381Y-10911905D01*
X18805952Y-10897619D01*
X18863095Y-10897619D01*
X18891666Y-10911905D01*
X18905952Y-10940477D01*
X18905952Y-10969048D01*
X18763095Y-10997619D01*
X19163095Y-11097619D02*
X19163095Y-10797619D01*
X19163095Y-11083334D02*
X19134523Y-11097619D01*
X19077381Y-11097619D01*
X19048809Y-11083334D01*
X19034523Y-11069048D01*
X19020238Y-11040477D01*
X19020238Y-10954762D01*
X19034523Y-10926191D01*
X19048809Y-10911905D01*
X19077381Y-10897619D01*
X19134523Y-10897619D01*
X19163095Y-10911905D01*
X19277381Y-11211905D02*
X19291666Y-11197619D01*
X19320238Y-11154762D01*
X19334523Y-11126191D01*
X19348809Y-11083334D01*
X19363095Y-11011905D01*
X19363095Y-10954762D01*
X19348809Y-10883334D01*
X19334523Y-10840477D01*
X19320238Y-10811905D01*
X19291666Y-10769048D01*
X19277381Y-10754762D01*
M02*
