G04 #@! TF.GenerationSoftware,KiCad,Pcbnew,(5.1.10)-1*
G04 #@! TF.CreationDate,2022-03-27T16:28:06+02:00*
G04 #@! TF.ProjectId,pullup_counter_schematic,70756c6c-7570-45f6-936f-756e7465725f,1*
G04 #@! TF.SameCoordinates,Original*
G04 #@! TF.FileFunction,Legend,Bot*
G04 #@! TF.FilePolarity,Positive*
%FSLAX46Y46*%
G04 Gerber Fmt 4.6, Leading zero omitted, Abs format (unit mm)*
G04 Created by KiCad (PCBNEW (5.1.10)-1) date 2022-03-27 16:28:06*
%MOMM*%
%LPD*%
G01*
G04 APERTURE LIST*
%ADD10C,0.152400*%
%ADD11C,0.120000*%
%ADD12C,0.150000*%
%ADD13C,2.340000*%
%ADD14O,1.700000X1.700000*%
%ADD15R,1.700000X1.700000*%
%ADD16C,2.000000*%
%ADD17C,1.500000*%
%ADD18C,1.524000*%
%ADD19C,1.600000*%
%ADD20R,0.800000X0.900000*%
%ADD21C,3.200000*%
G04 APERTURE END LIST*
D10*
X222931847Y-46767695D02*
X222931847Y-45954895D01*
X222738323Y-45954895D01*
X222622209Y-45993600D01*
X222544800Y-46071009D01*
X222506095Y-46148419D01*
X222467390Y-46303238D01*
X222467390Y-46419352D01*
X222506095Y-46574171D01*
X222544800Y-46651580D01*
X222622209Y-46728990D01*
X222738323Y-46767695D01*
X222931847Y-46767695D01*
X221809409Y-46728990D02*
X221886819Y-46767695D01*
X222041638Y-46767695D01*
X222119047Y-46728990D01*
X222157752Y-46651580D01*
X222157752Y-46341942D01*
X222119047Y-46264533D01*
X222041638Y-46225828D01*
X221886819Y-46225828D01*
X221809409Y-46264533D01*
X221770704Y-46341942D01*
X221770704Y-46419352D01*
X222157752Y-46496761D01*
X221422361Y-46767695D02*
X221422361Y-45954895D01*
X221422361Y-46264533D02*
X221344952Y-46225828D01*
X221190133Y-46225828D01*
X221112723Y-46264533D01*
X221074019Y-46303238D01*
X221035314Y-46380647D01*
X221035314Y-46612876D01*
X221074019Y-46690285D01*
X221112723Y-46728990D01*
X221190133Y-46767695D01*
X221344952Y-46767695D01*
X221422361Y-46728990D01*
X220338628Y-46225828D02*
X220338628Y-46767695D01*
X220686971Y-46225828D02*
X220686971Y-46651580D01*
X220648266Y-46728990D01*
X220570857Y-46767695D01*
X220454742Y-46767695D01*
X220377333Y-46728990D01*
X220338628Y-46690285D01*
X219603238Y-46225828D02*
X219603238Y-46883809D01*
X219641942Y-46961219D01*
X219680647Y-46999923D01*
X219758057Y-47038628D01*
X219874171Y-47038628D01*
X219951580Y-46999923D01*
X219603238Y-46728990D02*
X219680647Y-46767695D01*
X219835466Y-46767695D01*
X219912876Y-46728990D01*
X219951580Y-46690285D01*
X219990285Y-46612876D01*
X219990285Y-46380647D01*
X219951580Y-46303238D01*
X219912876Y-46264533D01*
X219835466Y-46225828D01*
X219680647Y-46225828D01*
X219603238Y-46264533D01*
X218596914Y-46767695D02*
X218596914Y-45954895D01*
X218287276Y-45954895D01*
X218209866Y-45993600D01*
X218171161Y-46032304D01*
X218132457Y-46109714D01*
X218132457Y-46225828D01*
X218171161Y-46303238D01*
X218209866Y-46341942D01*
X218287276Y-46380647D01*
X218596914Y-46380647D01*
X217668000Y-46767695D02*
X217745409Y-46728990D01*
X217784114Y-46690285D01*
X217822819Y-46612876D01*
X217822819Y-46380647D01*
X217784114Y-46303238D01*
X217745409Y-46264533D01*
X217668000Y-46225828D01*
X217551885Y-46225828D01*
X217474476Y-46264533D01*
X217435771Y-46303238D01*
X217397066Y-46380647D01*
X217397066Y-46612876D01*
X217435771Y-46690285D01*
X217474476Y-46728990D01*
X217551885Y-46767695D01*
X217668000Y-46767695D01*
X217048723Y-46767695D02*
X217048723Y-46225828D01*
X217048723Y-46380647D02*
X217010019Y-46303238D01*
X216971314Y-46264533D01*
X216893904Y-46225828D01*
X216816495Y-46225828D01*
X216661676Y-46225828D02*
X216352038Y-46225828D01*
X216545561Y-45954895D02*
X216545561Y-46651580D01*
X216506857Y-46728990D01*
X216429447Y-46767695D01*
X216352038Y-46767695D01*
X223328457Y-38441942D02*
X223599390Y-38441942D01*
X223599390Y-38867695D02*
X223599390Y-38054895D01*
X223212342Y-38054895D01*
X222786590Y-38867695D02*
X222864000Y-38828990D01*
X222902704Y-38751580D01*
X222902704Y-38054895D01*
X222128609Y-38867695D02*
X222128609Y-38441942D01*
X222167314Y-38364533D01*
X222244723Y-38325828D01*
X222399542Y-38325828D01*
X222476952Y-38364533D01*
X222128609Y-38828990D02*
X222206019Y-38867695D01*
X222399542Y-38867695D01*
X222476952Y-38828990D01*
X222515657Y-38751580D01*
X222515657Y-38674171D01*
X222476952Y-38596761D01*
X222399542Y-38558057D01*
X222206019Y-38558057D01*
X222128609Y-38519352D01*
X221780266Y-38828990D02*
X221702857Y-38867695D01*
X221548038Y-38867695D01*
X221470628Y-38828990D01*
X221431923Y-38751580D01*
X221431923Y-38712876D01*
X221470628Y-38635466D01*
X221548038Y-38596761D01*
X221664152Y-38596761D01*
X221741561Y-38558057D01*
X221780266Y-38480647D01*
X221780266Y-38441942D01*
X221741561Y-38364533D01*
X221664152Y-38325828D01*
X221548038Y-38325828D01*
X221470628Y-38364533D01*
X221083580Y-38867695D02*
X221083580Y-38054895D01*
X220735238Y-38867695D02*
X220735238Y-38441942D01*
X220773942Y-38364533D01*
X220851352Y-38325828D01*
X220967466Y-38325828D01*
X221044876Y-38364533D01*
X221083580Y-38403238D01*
X219264457Y-38867695D02*
X219535390Y-38480647D01*
X219728914Y-38867695D02*
X219728914Y-38054895D01*
X219419276Y-38054895D01*
X219341866Y-38093600D01*
X219303161Y-38132304D01*
X219264457Y-38209714D01*
X219264457Y-38325828D01*
X219303161Y-38403238D01*
X219341866Y-38441942D01*
X219419276Y-38480647D01*
X219728914Y-38480647D01*
X218606476Y-38828990D02*
X218683885Y-38867695D01*
X218838704Y-38867695D01*
X218916114Y-38828990D01*
X218954819Y-38751580D01*
X218954819Y-38441942D01*
X218916114Y-38364533D01*
X218838704Y-38325828D01*
X218683885Y-38325828D01*
X218606476Y-38364533D01*
X218567771Y-38441942D01*
X218567771Y-38519352D01*
X218954819Y-38596761D01*
X217871085Y-38867695D02*
X217871085Y-38441942D01*
X217909790Y-38364533D01*
X217987200Y-38325828D01*
X218142019Y-38325828D01*
X218219428Y-38364533D01*
X217871085Y-38828990D02*
X217948495Y-38867695D01*
X218142019Y-38867695D01*
X218219428Y-38828990D01*
X218258133Y-38751580D01*
X218258133Y-38674171D01*
X218219428Y-38596761D01*
X218142019Y-38558057D01*
X217948495Y-38558057D01*
X217871085Y-38519352D01*
X217135695Y-38867695D02*
X217135695Y-38054895D01*
X217135695Y-38828990D02*
X217213104Y-38867695D01*
X217367923Y-38867695D01*
X217445333Y-38828990D01*
X217484038Y-38790285D01*
X217522742Y-38712876D01*
X217522742Y-38480647D01*
X217484038Y-38403238D01*
X217445333Y-38364533D01*
X217367923Y-38325828D01*
X217213104Y-38325828D01*
X217135695Y-38364533D01*
X216129371Y-38867695D02*
X216129371Y-38054895D01*
X215819733Y-38054895D01*
X215742323Y-38093600D01*
X215703619Y-38132304D01*
X215664914Y-38209714D01*
X215664914Y-38325828D01*
X215703619Y-38403238D01*
X215742323Y-38441942D01*
X215819733Y-38480647D01*
X216129371Y-38480647D01*
X215200457Y-38867695D02*
X215277866Y-38828990D01*
X215316571Y-38790285D01*
X215355276Y-38712876D01*
X215355276Y-38480647D01*
X215316571Y-38403238D01*
X215277866Y-38364533D01*
X215200457Y-38325828D01*
X215084342Y-38325828D01*
X215006933Y-38364533D01*
X214968228Y-38403238D01*
X214929523Y-38480647D01*
X214929523Y-38712876D01*
X214968228Y-38790285D01*
X215006933Y-38828990D01*
X215084342Y-38867695D01*
X215200457Y-38867695D01*
X214581180Y-38867695D02*
X214581180Y-38325828D01*
X214581180Y-38480647D02*
X214542476Y-38403238D01*
X214503771Y-38364533D01*
X214426361Y-38325828D01*
X214348952Y-38325828D01*
X214194133Y-38325828D02*
X213884495Y-38325828D01*
X214078019Y-38054895D02*
X214078019Y-38751580D01*
X214039314Y-38828990D01*
X213961904Y-38867695D01*
X213884495Y-38867695D01*
X219219276Y-56193600D02*
X219296685Y-56154895D01*
X219412800Y-56154895D01*
X219528914Y-56193600D01*
X219606323Y-56271009D01*
X219645028Y-56348419D01*
X219683733Y-56503238D01*
X219683733Y-56619352D01*
X219645028Y-56774171D01*
X219606323Y-56851580D01*
X219528914Y-56928990D01*
X219412800Y-56967695D01*
X219335390Y-56967695D01*
X219219276Y-56928990D01*
X219180571Y-56890285D01*
X219180571Y-56619352D01*
X219335390Y-56619352D01*
X218832228Y-56967695D02*
X218832228Y-56154895D01*
X218367771Y-56967695D01*
X218367771Y-56154895D01*
X217980723Y-56967695D02*
X217980723Y-56154895D01*
X217787200Y-56154895D01*
X217671085Y-56193600D01*
X217593676Y-56271009D01*
X217554971Y-56348419D01*
X217516266Y-56503238D01*
X217516266Y-56619352D01*
X217554971Y-56774171D01*
X217593676Y-56851580D01*
X217671085Y-56928990D01*
X217787200Y-56967695D01*
X217980723Y-56967695D01*
X220338476Y-54328990D02*
X220222361Y-54367695D01*
X220028838Y-54367695D01*
X219951428Y-54328990D01*
X219912723Y-54290285D01*
X219874019Y-54212876D01*
X219874019Y-54135466D01*
X219912723Y-54058057D01*
X219951428Y-54019352D01*
X220028838Y-53980647D01*
X220183657Y-53941942D01*
X220261066Y-53903238D01*
X220299771Y-53864533D01*
X220338476Y-53787123D01*
X220338476Y-53709714D01*
X220299771Y-53632304D01*
X220261066Y-53593600D01*
X220183657Y-53554895D01*
X219990133Y-53554895D01*
X219874019Y-53593600D01*
X219603085Y-53554895D02*
X219409561Y-54367695D01*
X219254742Y-53787123D01*
X219099923Y-54367695D01*
X218906400Y-53554895D01*
X218132304Y-54290285D02*
X218171009Y-54328990D01*
X218287123Y-54367695D01*
X218364533Y-54367695D01*
X218480647Y-54328990D01*
X218558057Y-54251580D01*
X218596761Y-54174171D01*
X218635466Y-54019352D01*
X218635466Y-53903238D01*
X218596761Y-53748419D01*
X218558057Y-53671009D01*
X218480647Y-53593600D01*
X218364533Y-53554895D01*
X218287123Y-53554895D01*
X218171009Y-53593600D01*
X218132304Y-53632304D01*
X217396914Y-54367695D02*
X217783961Y-54367695D01*
X217783961Y-53554895D01*
X217125980Y-54367695D02*
X217125980Y-53554895D01*
X216661523Y-54367695D02*
X217009866Y-53903238D01*
X216661523Y-53554895D02*
X217125980Y-54019352D01*
X220322361Y-51528990D02*
X220206247Y-51567695D01*
X220012723Y-51567695D01*
X219935314Y-51528990D01*
X219896609Y-51490285D01*
X219857904Y-51412876D01*
X219857904Y-51335466D01*
X219896609Y-51258057D01*
X219935314Y-51219352D01*
X220012723Y-51180647D01*
X220167542Y-51141942D01*
X220244952Y-51103238D01*
X220283657Y-51064533D01*
X220322361Y-50987123D01*
X220322361Y-50909714D01*
X220283657Y-50832304D01*
X220244952Y-50793600D01*
X220167542Y-50754895D01*
X219974019Y-50754895D01*
X219857904Y-50793600D01*
X219586971Y-50754895D02*
X219393447Y-51567695D01*
X219238628Y-50987123D01*
X219083809Y-51567695D01*
X218890285Y-50754895D01*
X218580647Y-51567695D02*
X218580647Y-50754895D01*
X218387123Y-50754895D01*
X218271009Y-50793600D01*
X218193600Y-50871009D01*
X218154895Y-50948419D01*
X218116190Y-51103238D01*
X218116190Y-51219352D01*
X218154895Y-51374171D01*
X218193600Y-51451580D01*
X218271009Y-51528990D01*
X218387123Y-51567695D01*
X218580647Y-51567695D01*
X217767847Y-51567695D02*
X217767847Y-50754895D01*
X217225980Y-50754895D02*
X217071161Y-50754895D01*
X216993752Y-50793600D01*
X216916342Y-50871009D01*
X216877638Y-51025828D01*
X216877638Y-51296761D01*
X216916342Y-51451580D01*
X216993752Y-51528990D01*
X217071161Y-51567695D01*
X217225980Y-51567695D01*
X217303390Y-51528990D01*
X217380800Y-51451580D01*
X217419504Y-51296761D01*
X217419504Y-51025828D01*
X217380800Y-50871009D01*
X217303390Y-50793600D01*
X217225980Y-50754895D01*
X219883733Y-48454895D02*
X219612800Y-49267695D01*
X219341866Y-48454895D01*
X218606476Y-49190285D02*
X218645180Y-49228990D01*
X218761295Y-49267695D01*
X218838704Y-49267695D01*
X218954819Y-49228990D01*
X219032228Y-49151580D01*
X219070933Y-49074171D01*
X219109638Y-48919352D01*
X219109638Y-48803238D01*
X219070933Y-48648419D01*
X219032228Y-48571009D01*
X218954819Y-48493600D01*
X218838704Y-48454895D01*
X218761295Y-48454895D01*
X218645180Y-48493600D01*
X218606476Y-48532304D01*
X217793676Y-49190285D02*
X217832380Y-49228990D01*
X217948495Y-49267695D01*
X218025904Y-49267695D01*
X218142019Y-49228990D01*
X218219428Y-49151580D01*
X218258133Y-49074171D01*
X218296838Y-48919352D01*
X218296838Y-48803238D01*
X218258133Y-48648419D01*
X218219428Y-48571009D01*
X218142019Y-48493600D01*
X218025904Y-48454895D01*
X217948495Y-48454895D01*
X217832380Y-48493600D01*
X217793676Y-48532304D01*
X215267161Y-32781895D02*
X215267161Y-31969095D01*
X214996228Y-32549666D01*
X214725295Y-31969095D01*
X214725295Y-32781895D01*
X214183428Y-31969095D02*
X214028609Y-31969095D01*
X213951200Y-32007800D01*
X213873790Y-32085209D01*
X213835085Y-32240028D01*
X213835085Y-32510961D01*
X213873790Y-32665780D01*
X213951200Y-32743190D01*
X214028609Y-32781895D01*
X214183428Y-32781895D01*
X214260838Y-32743190D01*
X214338247Y-32665780D01*
X214376952Y-32510961D01*
X214376952Y-32240028D01*
X214338247Y-32085209D01*
X214260838Y-32007800D01*
X214183428Y-31969095D01*
X213525447Y-32743190D02*
X213409333Y-32781895D01*
X213215809Y-32781895D01*
X213138400Y-32743190D01*
X213099695Y-32704485D01*
X213060990Y-32627076D01*
X213060990Y-32549666D01*
X213099695Y-32472257D01*
X213138400Y-32433552D01*
X213215809Y-32394847D01*
X213370628Y-32356142D01*
X213448038Y-32317438D01*
X213486742Y-32278733D01*
X213525447Y-32201323D01*
X213525447Y-32123914D01*
X213486742Y-32046504D01*
X213448038Y-32007800D01*
X213370628Y-31969095D01*
X213177104Y-31969095D01*
X213060990Y-32007800D01*
X212712647Y-32781895D02*
X212712647Y-31969095D01*
X211745028Y-31930390D02*
X212441714Y-32975419D01*
X211512800Y-32743190D02*
X211396685Y-32781895D01*
X211203161Y-32781895D01*
X211125752Y-32743190D01*
X211087047Y-32704485D01*
X211048342Y-32627076D01*
X211048342Y-32549666D01*
X211087047Y-32472257D01*
X211125752Y-32433552D01*
X211203161Y-32394847D01*
X211357980Y-32356142D01*
X211435390Y-32317438D01*
X211474095Y-32278733D01*
X211512800Y-32201323D01*
X211512800Y-32123914D01*
X211474095Y-32046504D01*
X211435390Y-32007800D01*
X211357980Y-31969095D01*
X211164457Y-31969095D01*
X211048342Y-32007800D01*
X210235542Y-32704485D02*
X210274247Y-32743190D01*
X210390361Y-32781895D01*
X210467771Y-32781895D01*
X210583885Y-32743190D01*
X210661295Y-32665780D01*
X210700000Y-32588371D01*
X210738704Y-32433552D01*
X210738704Y-32317438D01*
X210700000Y-32162619D01*
X210661295Y-32085209D01*
X210583885Y-32007800D01*
X210467771Y-31969095D01*
X210390361Y-31969095D01*
X210274247Y-32007800D01*
X210235542Y-32046504D01*
X209887200Y-32781895D02*
X209887200Y-31969095D01*
X209422742Y-32781895D02*
X209771085Y-32317438D01*
X209422742Y-31969095D02*
X209887200Y-32433552D01*
X208493828Y-31930390D02*
X209190514Y-32975419D01*
X207797142Y-32007800D02*
X207874552Y-31969095D01*
X207990666Y-31969095D01*
X208106780Y-32007800D01*
X208184190Y-32085209D01*
X208222895Y-32162619D01*
X208261600Y-32317438D01*
X208261600Y-32433552D01*
X208222895Y-32588371D01*
X208184190Y-32665780D01*
X208106780Y-32743190D01*
X207990666Y-32781895D01*
X207913257Y-32781895D01*
X207797142Y-32743190D01*
X207758438Y-32704485D01*
X207758438Y-32433552D01*
X207913257Y-32433552D01*
X207410095Y-32781895D02*
X207410095Y-31969095D01*
X206945638Y-32781895D01*
X206945638Y-31969095D01*
X206558590Y-32781895D02*
X206558590Y-31969095D01*
X206365066Y-31969095D01*
X206248952Y-32007800D01*
X206171542Y-32085209D01*
X206132838Y-32162619D01*
X206094133Y-32317438D01*
X206094133Y-32433552D01*
X206132838Y-32588371D01*
X206171542Y-32665780D01*
X206248952Y-32743190D01*
X206365066Y-32781895D01*
X206558590Y-32781895D01*
X214880114Y-33340695D02*
X214609180Y-34153495D01*
X214338247Y-33340695D01*
X213602857Y-34076085D02*
X213641561Y-34114790D01*
X213757676Y-34153495D01*
X213835085Y-34153495D01*
X213951200Y-34114790D01*
X214028609Y-34037380D01*
X214067314Y-33959971D01*
X214106019Y-33805152D01*
X214106019Y-33689038D01*
X214067314Y-33534219D01*
X214028609Y-33456809D01*
X213951200Y-33379400D01*
X213835085Y-33340695D01*
X213757676Y-33340695D01*
X213641561Y-33379400D01*
X213602857Y-33418104D01*
X212790057Y-34076085D02*
X212828761Y-34114790D01*
X212944876Y-34153495D01*
X213022285Y-34153495D01*
X213138400Y-34114790D01*
X213215809Y-34037380D01*
X213254514Y-33959971D01*
X213293219Y-33805152D01*
X213293219Y-33689038D01*
X213254514Y-33534219D01*
X213215809Y-33456809D01*
X213138400Y-33379400D01*
X213022285Y-33340695D01*
X212944876Y-33340695D01*
X212828761Y-33379400D01*
X212790057Y-33418104D01*
X211861142Y-33301990D02*
X212557828Y-34347019D01*
X211783733Y-33002464D02*
X210970933Y-33002464D01*
X211125752Y-34076085D02*
X211164457Y-34114790D01*
X211280571Y-34153495D01*
X211357980Y-34153495D01*
X211474095Y-34114790D01*
X211551504Y-34037380D01*
X211590209Y-33959971D01*
X211628914Y-33805152D01*
X211628914Y-33689038D01*
X211590209Y-33534219D01*
X211551504Y-33456809D01*
X211474095Y-33379400D01*
X211357980Y-33340695D01*
X211280571Y-33340695D01*
X211164457Y-33379400D01*
X211125752Y-33418104D01*
X210970933Y-33002464D02*
X210235542Y-33002464D01*
X210777409Y-33727742D02*
X210506476Y-33727742D01*
X210390361Y-34153495D02*
X210777409Y-34153495D01*
X210777409Y-33340695D01*
X210390361Y-33340695D01*
X209461447Y-33301990D02*
X210158133Y-34347019D01*
X209190514Y-34153495D02*
X209190514Y-33340695D01*
X208919580Y-33921266D01*
X208648647Y-33340695D01*
X208648647Y-34153495D01*
X208261600Y-34153495D02*
X208261600Y-33340695D01*
X207913257Y-34114790D02*
X207797142Y-34153495D01*
X207603619Y-34153495D01*
X207526209Y-34114790D01*
X207487504Y-34076085D01*
X207448800Y-33998676D01*
X207448800Y-33921266D01*
X207487504Y-33843857D01*
X207526209Y-33805152D01*
X207603619Y-33766447D01*
X207758438Y-33727742D01*
X207835847Y-33689038D01*
X207874552Y-33650333D01*
X207913257Y-33572923D01*
X207913257Y-33495514D01*
X207874552Y-33418104D01*
X207835847Y-33379400D01*
X207758438Y-33340695D01*
X207564914Y-33340695D01*
X207448800Y-33379400D01*
X206945638Y-33340695D02*
X206790819Y-33340695D01*
X206713409Y-33379400D01*
X206636000Y-33456809D01*
X206597295Y-33611628D01*
X206597295Y-33882561D01*
X206636000Y-34037380D01*
X206713409Y-34114790D01*
X206790819Y-34153495D01*
X206945638Y-34153495D01*
X207023047Y-34114790D01*
X207100457Y-34037380D01*
X207139161Y-33882561D01*
X207139161Y-33611628D01*
X207100457Y-33456809D01*
X207023047Y-33379400D01*
X206945638Y-33340695D01*
X222341790Y-64581895D02*
X222612723Y-64194847D01*
X222806247Y-64581895D02*
X222806247Y-63769095D01*
X222496609Y-63769095D01*
X222419200Y-63807800D01*
X222380495Y-63846504D01*
X222341790Y-63923914D01*
X222341790Y-64040028D01*
X222380495Y-64117438D01*
X222419200Y-64156142D01*
X222496609Y-64194847D01*
X222806247Y-64194847D01*
X221683809Y-64543190D02*
X221761219Y-64581895D01*
X221916038Y-64581895D01*
X221993447Y-64543190D01*
X222032152Y-64465780D01*
X222032152Y-64156142D01*
X221993447Y-64078733D01*
X221916038Y-64040028D01*
X221761219Y-64040028D01*
X221683809Y-64078733D01*
X221645104Y-64156142D01*
X221645104Y-64233552D01*
X222032152Y-64310961D01*
X220948419Y-64581895D02*
X220948419Y-64156142D01*
X220987123Y-64078733D01*
X221064533Y-64040028D01*
X221219352Y-64040028D01*
X221296761Y-64078733D01*
X220948419Y-64543190D02*
X221025828Y-64581895D01*
X221219352Y-64581895D01*
X221296761Y-64543190D01*
X221335466Y-64465780D01*
X221335466Y-64388371D01*
X221296761Y-64310961D01*
X221219352Y-64272257D01*
X221025828Y-64272257D01*
X220948419Y-64233552D01*
X220213028Y-64581895D02*
X220213028Y-63769095D01*
X220213028Y-64543190D02*
X220290438Y-64581895D01*
X220445257Y-64581895D01*
X220522666Y-64543190D01*
X220561371Y-64504485D01*
X220600076Y-64427076D01*
X220600076Y-64194847D01*
X220561371Y-64117438D01*
X220522666Y-64078733D01*
X220445257Y-64040028D01*
X220290438Y-64040028D01*
X220213028Y-64078733D01*
X222380495Y-65953495D02*
X222380495Y-65140695D01*
X222186971Y-65140695D01*
X222070857Y-65179400D01*
X221993447Y-65256809D01*
X221954742Y-65334219D01*
X221916038Y-65489038D01*
X221916038Y-65605152D01*
X221954742Y-65759971D01*
X221993447Y-65837380D01*
X222070857Y-65914790D01*
X222186971Y-65953495D01*
X222380495Y-65953495D01*
X221219352Y-65953495D02*
X221219352Y-65527742D01*
X221258057Y-65450333D01*
X221335466Y-65411628D01*
X221490285Y-65411628D01*
X221567695Y-65450333D01*
X221219352Y-65914790D02*
X221296761Y-65953495D01*
X221490285Y-65953495D01*
X221567695Y-65914790D01*
X221606400Y-65837380D01*
X221606400Y-65759971D01*
X221567695Y-65682561D01*
X221490285Y-65643857D01*
X221296761Y-65643857D01*
X221219352Y-65605152D01*
X220948419Y-65411628D02*
X220638780Y-65411628D01*
X220832304Y-65140695D02*
X220832304Y-65837380D01*
X220793600Y-65914790D01*
X220716190Y-65953495D01*
X220638780Y-65953495D01*
X220019504Y-65953495D02*
X220019504Y-65527742D01*
X220058209Y-65450333D01*
X220135619Y-65411628D01*
X220290438Y-65411628D01*
X220367847Y-65450333D01*
X220019504Y-65914790D02*
X220096914Y-65953495D01*
X220290438Y-65953495D01*
X220367847Y-65914790D01*
X220406552Y-65837380D01*
X220406552Y-65759971D01*
X220367847Y-65682561D01*
X220290438Y-65643857D01*
X220096914Y-65643857D01*
X220019504Y-65605152D01*
X217383580Y-64581895D02*
X217383580Y-63769095D01*
X216919123Y-64581895D01*
X216919123Y-63769095D01*
X216415961Y-64581895D02*
X216493371Y-64543190D01*
X216532076Y-64504485D01*
X216570780Y-64427076D01*
X216570780Y-64194847D01*
X216532076Y-64117438D01*
X216493371Y-64078733D01*
X216415961Y-64040028D01*
X216299847Y-64040028D01*
X216222438Y-64078733D01*
X216183733Y-64117438D01*
X216145028Y-64194847D01*
X216145028Y-64427076D01*
X216183733Y-64504485D01*
X216222438Y-64543190D01*
X216299847Y-64581895D01*
X216415961Y-64581895D01*
X215796685Y-64581895D02*
X215796685Y-64040028D01*
X215796685Y-64194847D02*
X215757980Y-64117438D01*
X215719276Y-64078733D01*
X215641866Y-64040028D01*
X215564457Y-64040028D01*
X215293523Y-64581895D02*
X215293523Y-64040028D01*
X215293523Y-64117438D02*
X215254819Y-64078733D01*
X215177409Y-64040028D01*
X215061295Y-64040028D01*
X214983885Y-64078733D01*
X214945180Y-64156142D01*
X214945180Y-64581895D01*
X214945180Y-64156142D02*
X214906476Y-64078733D01*
X214829066Y-64040028D01*
X214712952Y-64040028D01*
X214635542Y-64078733D01*
X214596838Y-64156142D01*
X214596838Y-64581895D01*
X213861447Y-64581895D02*
X213861447Y-64156142D01*
X213900152Y-64078733D01*
X213977561Y-64040028D01*
X214132380Y-64040028D01*
X214209790Y-64078733D01*
X213861447Y-64543190D02*
X213938857Y-64581895D01*
X214132380Y-64581895D01*
X214209790Y-64543190D01*
X214248495Y-64465780D01*
X214248495Y-64388371D01*
X214209790Y-64310961D01*
X214132380Y-64272257D01*
X213938857Y-64272257D01*
X213861447Y-64233552D01*
X213358285Y-64581895D02*
X213435695Y-64543190D01*
X213474399Y-64465780D01*
X213474399Y-63769095D01*
X217673866Y-65140695D02*
X217519047Y-65140695D01*
X217441638Y-65179400D01*
X217364228Y-65256809D01*
X217325523Y-65411628D01*
X217325523Y-65682561D01*
X217364228Y-65837380D01*
X217441638Y-65914790D01*
X217519047Y-65953495D01*
X217673866Y-65953495D01*
X217751276Y-65914790D01*
X217828685Y-65837380D01*
X217867390Y-65682561D01*
X217867390Y-65411628D01*
X217828685Y-65256809D01*
X217751276Y-65179400D01*
X217673866Y-65140695D01*
X216977180Y-65411628D02*
X216977180Y-66224428D01*
X216977180Y-65450333D02*
X216899771Y-65411628D01*
X216744952Y-65411628D01*
X216667542Y-65450333D01*
X216628838Y-65489038D01*
X216590133Y-65566447D01*
X216590133Y-65798676D01*
X216628838Y-65876085D01*
X216667542Y-65914790D01*
X216744952Y-65953495D01*
X216899771Y-65953495D01*
X216977180Y-65914790D01*
X215932152Y-65914790D02*
X216009561Y-65953495D01*
X216164380Y-65953495D01*
X216241790Y-65914790D01*
X216280495Y-65837380D01*
X216280495Y-65527742D01*
X216241790Y-65450333D01*
X216164380Y-65411628D01*
X216009561Y-65411628D01*
X215932152Y-65450333D01*
X215893447Y-65527742D01*
X215893447Y-65605152D01*
X216280495Y-65682561D01*
X215545104Y-65953495D02*
X215545104Y-65411628D01*
X215545104Y-65566447D02*
X215506400Y-65489038D01*
X215467695Y-65450333D01*
X215390285Y-65411628D01*
X215312876Y-65411628D01*
X214693600Y-65953495D02*
X214693600Y-65527742D01*
X214732304Y-65450333D01*
X214809714Y-65411628D01*
X214964533Y-65411628D01*
X215041942Y-65450333D01*
X214693600Y-65914790D02*
X214771009Y-65953495D01*
X214964533Y-65953495D01*
X215041942Y-65914790D01*
X215080647Y-65837380D01*
X215080647Y-65759971D01*
X215041942Y-65682561D01*
X214964533Y-65643857D01*
X214771009Y-65643857D01*
X214693600Y-65605152D01*
X214422666Y-65411628D02*
X214113028Y-65411628D01*
X214306552Y-65140695D02*
X214306552Y-65837380D01*
X214267847Y-65914790D01*
X214190438Y-65953495D01*
X214113028Y-65953495D01*
X213842095Y-65953495D02*
X213842095Y-65411628D01*
X213842095Y-65140695D02*
X213880800Y-65179400D01*
X213842095Y-65218104D01*
X213803390Y-65179400D01*
X213842095Y-65140695D01*
X213842095Y-65218104D01*
X213338933Y-65953495D02*
X213416342Y-65914790D01*
X213455047Y-65876085D01*
X213493752Y-65798676D01*
X213493752Y-65566447D01*
X213455047Y-65489038D01*
X213416342Y-65450333D01*
X213338933Y-65411628D01*
X213222819Y-65411628D01*
X213145409Y-65450333D01*
X213106704Y-65489038D01*
X213068000Y-65566447D01*
X213068000Y-65798676D01*
X213106704Y-65876085D01*
X213145409Y-65914790D01*
X213222819Y-65953495D01*
X213338933Y-65953495D01*
X212719657Y-65411628D02*
X212719657Y-65953495D01*
X212719657Y-65489038D02*
X212680952Y-65450333D01*
X212603542Y-65411628D01*
X212487428Y-65411628D01*
X212410019Y-65450333D01*
X212371314Y-65527742D01*
X212371314Y-65953495D01*
X209024380Y-69867695D02*
X209024380Y-69054895D01*
X208714742Y-69054895D01*
X208637333Y-69093600D01*
X208598628Y-69132304D01*
X208559923Y-69209714D01*
X208559923Y-69325828D01*
X208598628Y-69403238D01*
X208637333Y-69441942D01*
X208714742Y-69480647D01*
X209024380Y-69480647D01*
X207863238Y-69325828D02*
X207863238Y-69867695D01*
X208211580Y-69325828D02*
X208211580Y-69751580D01*
X208172876Y-69828990D01*
X208095466Y-69867695D01*
X207979352Y-69867695D01*
X207901942Y-69828990D01*
X207863238Y-69790285D01*
X207360076Y-69867695D02*
X207437485Y-69828990D01*
X207476190Y-69751580D01*
X207476190Y-69054895D01*
X206934323Y-69867695D02*
X207011733Y-69828990D01*
X207050438Y-69751580D01*
X207050438Y-69054895D01*
X206624685Y-69558057D02*
X206005409Y-69558057D01*
X205270019Y-69325828D02*
X205270019Y-69867695D01*
X205618361Y-69325828D02*
X205618361Y-69751580D01*
X205579657Y-69828990D01*
X205502247Y-69867695D01*
X205386133Y-69867695D01*
X205308723Y-69828990D01*
X205270019Y-69790285D01*
X204882971Y-69325828D02*
X204882971Y-70138628D01*
X204882971Y-69364533D02*
X204805561Y-69325828D01*
X204650742Y-69325828D01*
X204573333Y-69364533D01*
X204534628Y-69403238D01*
X204495923Y-69480647D01*
X204495923Y-69712876D01*
X204534628Y-69790285D01*
X204573333Y-69828990D01*
X204650742Y-69867695D01*
X204805561Y-69867695D01*
X204882971Y-69828990D01*
X203063847Y-69790285D02*
X203102552Y-69828990D01*
X203218666Y-69867695D01*
X203296076Y-69867695D01*
X203412190Y-69828990D01*
X203489600Y-69751580D01*
X203528304Y-69674171D01*
X203567009Y-69519352D01*
X203567009Y-69403238D01*
X203528304Y-69248419D01*
X203489600Y-69171009D01*
X203412190Y-69093600D01*
X203296076Y-69054895D01*
X203218666Y-69054895D01*
X203102552Y-69093600D01*
X203063847Y-69132304D01*
X202599390Y-69867695D02*
X202676800Y-69828990D01*
X202715504Y-69790285D01*
X202754209Y-69712876D01*
X202754209Y-69480647D01*
X202715504Y-69403238D01*
X202676800Y-69364533D01*
X202599390Y-69325828D01*
X202483276Y-69325828D01*
X202405866Y-69364533D01*
X202367161Y-69403238D01*
X202328457Y-69480647D01*
X202328457Y-69712876D01*
X202367161Y-69790285D01*
X202405866Y-69828990D01*
X202483276Y-69867695D01*
X202599390Y-69867695D01*
X201631771Y-69325828D02*
X201631771Y-69867695D01*
X201980114Y-69325828D02*
X201980114Y-69751580D01*
X201941409Y-69828990D01*
X201864000Y-69867695D01*
X201747885Y-69867695D01*
X201670476Y-69828990D01*
X201631771Y-69790285D01*
X201244723Y-69325828D02*
X201244723Y-69867695D01*
X201244723Y-69403238D02*
X201206019Y-69364533D01*
X201128609Y-69325828D01*
X201012495Y-69325828D01*
X200935085Y-69364533D01*
X200896380Y-69441942D01*
X200896380Y-69867695D01*
X200625447Y-69325828D02*
X200315809Y-69325828D01*
X200509333Y-69054895D02*
X200509333Y-69751580D01*
X200470628Y-69828990D01*
X200393219Y-69867695D01*
X200315809Y-69867695D01*
X199735238Y-69828990D02*
X199812647Y-69867695D01*
X199967466Y-69867695D01*
X200044876Y-69828990D01*
X200083580Y-69751580D01*
X200083580Y-69441942D01*
X200044876Y-69364533D01*
X199967466Y-69325828D01*
X199812647Y-69325828D01*
X199735238Y-69364533D01*
X199696533Y-69441942D01*
X199696533Y-69519352D01*
X200083580Y-69596761D01*
X199348190Y-69867695D02*
X199348190Y-69325828D01*
X199348190Y-69480647D02*
X199309485Y-69403238D01*
X199270780Y-69364533D01*
X199193371Y-69325828D01*
X199115961Y-69325828D01*
X198225752Y-69558057D02*
X197606476Y-69558057D01*
X196677561Y-69325828D02*
X196484038Y-69867695D01*
X196290514Y-69325828D01*
X195826057Y-69054895D02*
X195748647Y-69054895D01*
X195671238Y-69093600D01*
X195632533Y-69132304D01*
X195593828Y-69209714D01*
X195555123Y-69364533D01*
X195555123Y-69558057D01*
X195593828Y-69712876D01*
X195632533Y-69790285D01*
X195671238Y-69828990D01*
X195748647Y-69867695D01*
X195826057Y-69867695D01*
X195903466Y-69828990D01*
X195942171Y-69790285D01*
X195980876Y-69712876D01*
X196019580Y-69558057D01*
X196019580Y-69364533D01*
X195980876Y-69209714D01*
X195942171Y-69132304D01*
X195903466Y-69093600D01*
X195826057Y-69054895D01*
X194781028Y-69867695D02*
X195245485Y-69867695D01*
X195013257Y-69867695D02*
X195013257Y-69054895D01*
X195090666Y-69171009D01*
X195168076Y-69248419D01*
X195245485Y-69287123D01*
X193813409Y-69558057D02*
X193194133Y-69558057D01*
X192187809Y-69867695D02*
X192187809Y-69054895D01*
X192187809Y-69364533D02*
X192110400Y-69325828D01*
X191955580Y-69325828D01*
X191878171Y-69364533D01*
X191839466Y-69403238D01*
X191800761Y-69480647D01*
X191800761Y-69712876D01*
X191839466Y-69790285D01*
X191878171Y-69828990D01*
X191955580Y-69867695D01*
X192110400Y-69867695D01*
X192187809Y-69828990D01*
X191529828Y-69325828D02*
X191336304Y-69867695D01*
X191142780Y-69325828D02*
X191336304Y-69867695D01*
X191413714Y-70061219D01*
X191452419Y-70099923D01*
X191529828Y-70138628D01*
X190213866Y-69867695D02*
X190213866Y-69054895D01*
X189942933Y-69635466D01*
X189672000Y-69054895D01*
X189672000Y-69867695D01*
X189284952Y-69867695D02*
X189284952Y-69054895D01*
X189207542Y-69558057D02*
X188975314Y-69867695D01*
X188975314Y-69325828D02*
X189284952Y-69635466D01*
X188626971Y-69867695D02*
X188626971Y-69325828D01*
X188626971Y-69480647D02*
X188588266Y-69403238D01*
X188549561Y-69364533D01*
X188472152Y-69325828D01*
X188394742Y-69325828D01*
X188201219Y-69325828D02*
X188007695Y-69867695D01*
X187814171Y-69325828D02*
X188007695Y-69867695D01*
X188085104Y-70061219D01*
X188123809Y-70099923D01*
X188201219Y-70138628D01*
X187543238Y-69828990D02*
X187465828Y-69867695D01*
X187311009Y-69867695D01*
X187233600Y-69828990D01*
X187194895Y-69751580D01*
X187194895Y-69712876D01*
X187233600Y-69635466D01*
X187311009Y-69596761D01*
X187427123Y-69596761D01*
X187504533Y-69558057D01*
X187543238Y-69480647D01*
X187543238Y-69441942D01*
X187504533Y-69364533D01*
X187427123Y-69325828D01*
X187311009Y-69325828D01*
X187233600Y-69364533D01*
X186923961Y-69325828D02*
X186498209Y-69325828D01*
X186923961Y-69867695D01*
X186498209Y-69867695D01*
X153508285Y-43941942D02*
X154127561Y-43941942D01*
X153817923Y-43632304D02*
X153817923Y-44251580D01*
X156372438Y-43941942D02*
X156991714Y-43941942D01*
D11*
X215570000Y-43600000D02*
X215570000Y-44930000D01*
X215570000Y-44930000D02*
X216900000Y-44930000D01*
X215570000Y-42330000D02*
X218170000Y-42330000D01*
X218170000Y-42330000D02*
X218170000Y-44930000D01*
X218170000Y-44930000D02*
X223310000Y-44930000D01*
X223310000Y-39730000D02*
X223310000Y-44930000D01*
X215570000Y-39730000D02*
X223310000Y-39730000D01*
X215570000Y-39730000D02*
X215570000Y-42330000D01*
X222730000Y-61900000D02*
X222730000Y-60570000D01*
X222730000Y-60570000D02*
X221400000Y-60570000D01*
X220130000Y-60570000D02*
X214990000Y-60570000D01*
X214990000Y-63230000D02*
X214990000Y-60570000D01*
X220130000Y-63230000D02*
X214990000Y-63230000D01*
X220130000Y-63230000D02*
X220130000Y-60570000D01*
X211300000Y-41200000D02*
X208400000Y-41200000D01*
X211300000Y-48800000D02*
X211300000Y-41200000D01*
X208500000Y-48800000D02*
X211300000Y-48800000D01*
X187470130Y-48716425D02*
X187500000Y-41300000D01*
X208468373Y-41211445D02*
G75*
G03*
X187500001Y-41300001I-10468373J-3788555D01*
G01*
X187470131Y-48716425D02*
G75*
G03*
X208499999Y-48799999I10529869J3716425D01*
G01*
X153735000Y-56477064D02*
X153735000Y-56022936D01*
X152265000Y-56477064D02*
X152265000Y-56022936D01*
X153735000Y-51727064D02*
X153735000Y-51272936D01*
X152265000Y-51727064D02*
X152265000Y-51272936D01*
X155515000Y-55772936D02*
X155515000Y-56227064D01*
X156985000Y-55772936D02*
X156985000Y-56227064D01*
X179805000Y-48757064D02*
X179805000Y-48302936D01*
X178335000Y-48757064D02*
X178335000Y-48302936D01*
X178335000Y-40142936D02*
X178335000Y-40597064D01*
X179805000Y-40142936D02*
X179805000Y-40597064D01*
X174725000Y-48757064D02*
X174725000Y-48302936D01*
X173255000Y-48757064D02*
X173255000Y-48302936D01*
X177265000Y-48757064D02*
X177265000Y-48302936D01*
X175795000Y-48757064D02*
X175795000Y-48302936D01*
X169645000Y-48757064D02*
X169645000Y-48302936D01*
X168175000Y-48757064D02*
X168175000Y-48302936D01*
X170715000Y-40142936D02*
X170715000Y-40597064D01*
X172185000Y-40142936D02*
X172185000Y-40597064D01*
X168175000Y-40142936D02*
X168175000Y-40597064D01*
X169645000Y-40142936D02*
X169645000Y-40597064D01*
X152670000Y-45740000D02*
X153600000Y-45740000D01*
X155830000Y-45740000D02*
X154900000Y-45740000D01*
X155830000Y-45740000D02*
X155830000Y-47900000D01*
X152670000Y-45740000D02*
X152670000Y-47200000D01*
X155920000Y-49990000D02*
X156850000Y-49990000D01*
X159080000Y-49990000D02*
X158150000Y-49990000D01*
X159080000Y-49990000D02*
X159080000Y-52150000D01*
X155920000Y-49990000D02*
X155920000Y-51450000D01*
D12*
X155052380Y-55607142D02*
X154576190Y-55273809D01*
X155052380Y-55035714D02*
X154052380Y-55035714D01*
X154052380Y-55416666D01*
X154100000Y-55511904D01*
X154147619Y-55559523D01*
X154242857Y-55607142D01*
X154385714Y-55607142D01*
X154480952Y-55559523D01*
X154528571Y-55511904D01*
X154576190Y-55416666D01*
X154576190Y-55035714D01*
X155052380Y-56559523D02*
X155052380Y-55988095D01*
X155052380Y-56273809D02*
X154052380Y-56273809D01*
X154195238Y-56178571D01*
X154290476Y-56083333D01*
X154338095Y-55988095D01*
X154052380Y-56892857D02*
X154052380Y-57559523D01*
X155052380Y-57130952D01*
X155102380Y-50857142D02*
X154626190Y-50523809D01*
X155102380Y-50285714D02*
X154102380Y-50285714D01*
X154102380Y-50666666D01*
X154150000Y-50761904D01*
X154197619Y-50809523D01*
X154292857Y-50857142D01*
X154435714Y-50857142D01*
X154530952Y-50809523D01*
X154578571Y-50761904D01*
X154626190Y-50666666D01*
X154626190Y-50285714D01*
X155102380Y-51809523D02*
X155102380Y-51238095D01*
X155102380Y-51523809D02*
X154102380Y-51523809D01*
X154245238Y-51428571D01*
X154340476Y-51333333D01*
X154388095Y-51238095D01*
X154102380Y-52666666D02*
X154102380Y-52476190D01*
X154150000Y-52380952D01*
X154197619Y-52333333D01*
X154340476Y-52238095D01*
X154530952Y-52190476D01*
X154911904Y-52190476D01*
X155007142Y-52238095D01*
X155054761Y-52285714D01*
X155102380Y-52380952D01*
X155102380Y-52571428D01*
X155054761Y-52666666D01*
X155007142Y-52714285D01*
X154911904Y-52761904D01*
X154673809Y-52761904D01*
X154578571Y-52714285D01*
X154530952Y-52666666D01*
X154483333Y-52571428D01*
X154483333Y-52380952D01*
X154530952Y-52285714D01*
X154578571Y-52238095D01*
X154673809Y-52190476D01*
X158452380Y-55357142D02*
X157976190Y-55023809D01*
X158452380Y-54785714D02*
X157452380Y-54785714D01*
X157452380Y-55166666D01*
X157500000Y-55261904D01*
X157547619Y-55309523D01*
X157642857Y-55357142D01*
X157785714Y-55357142D01*
X157880952Y-55309523D01*
X157928571Y-55261904D01*
X157976190Y-55166666D01*
X157976190Y-54785714D01*
X158452380Y-56309523D02*
X158452380Y-55738095D01*
X158452380Y-56023809D02*
X157452380Y-56023809D01*
X157595238Y-55928571D01*
X157690476Y-55833333D01*
X157738095Y-55738095D01*
X157452380Y-57214285D02*
X157452380Y-56738095D01*
X157928571Y-56690476D01*
X157880952Y-56738095D01*
X157833333Y-56833333D01*
X157833333Y-57071428D01*
X157880952Y-57166666D01*
X157928571Y-57214285D01*
X158023809Y-57261904D01*
X158261904Y-57261904D01*
X158357142Y-57214285D01*
X158404761Y-57166666D01*
X158452380Y-57071428D01*
X158452380Y-56833333D01*
X158404761Y-56738095D01*
X158357142Y-56690476D01*
X179522380Y-45585333D02*
X179046190Y-45252000D01*
X179522380Y-45013904D02*
X178522380Y-45013904D01*
X178522380Y-45394857D01*
X178570000Y-45490095D01*
X178617619Y-45537714D01*
X178712857Y-45585333D01*
X178855714Y-45585333D01*
X178950952Y-45537714D01*
X178998571Y-45490095D01*
X179046190Y-45394857D01*
X179046190Y-45013904D01*
X179522380Y-46061523D02*
X179522380Y-46252000D01*
X179474761Y-46347238D01*
X179427142Y-46394857D01*
X179284285Y-46490095D01*
X179093809Y-46537714D01*
X178712857Y-46537714D01*
X178617619Y-46490095D01*
X178570000Y-46442476D01*
X178522380Y-46347238D01*
X178522380Y-46156761D01*
X178570000Y-46061523D01*
X178617619Y-46013904D01*
X178712857Y-45966285D01*
X178950952Y-45966285D01*
X179046190Y-46013904D01*
X179093809Y-46061523D01*
X179141428Y-46156761D01*
X179141428Y-46347238D01*
X179093809Y-46442476D01*
X179046190Y-46490095D01*
X178950952Y-46537714D01*
X179522380Y-43013333D02*
X179046190Y-42680000D01*
X179522380Y-42441904D02*
X178522380Y-42441904D01*
X178522380Y-42822857D01*
X178570000Y-42918095D01*
X178617619Y-42965714D01*
X178712857Y-43013333D01*
X178855714Y-43013333D01*
X178950952Y-42965714D01*
X178998571Y-42918095D01*
X179046190Y-42822857D01*
X179046190Y-42441904D01*
X178950952Y-43584761D02*
X178903333Y-43489523D01*
X178855714Y-43441904D01*
X178760476Y-43394285D01*
X178712857Y-43394285D01*
X178617619Y-43441904D01*
X178570000Y-43489523D01*
X178522380Y-43584761D01*
X178522380Y-43775238D01*
X178570000Y-43870476D01*
X178617619Y-43918095D01*
X178712857Y-43965714D01*
X178760476Y-43965714D01*
X178855714Y-43918095D01*
X178903333Y-43870476D01*
X178950952Y-43775238D01*
X178950952Y-43584761D01*
X178998571Y-43489523D01*
X179046190Y-43441904D01*
X179141428Y-43394285D01*
X179331904Y-43394285D01*
X179427142Y-43441904D01*
X179474761Y-43489523D01*
X179522380Y-43584761D01*
X179522380Y-43775238D01*
X179474761Y-43870476D01*
X179427142Y-43918095D01*
X179331904Y-43965714D01*
X179141428Y-43965714D01*
X179046190Y-43918095D01*
X178998571Y-43870476D01*
X178950952Y-43775238D01*
X174442380Y-45585333D02*
X173966190Y-45252000D01*
X174442380Y-45013904D02*
X173442380Y-45013904D01*
X173442380Y-45394857D01*
X173490000Y-45490095D01*
X173537619Y-45537714D01*
X173632857Y-45585333D01*
X173775714Y-45585333D01*
X173870952Y-45537714D01*
X173918571Y-45490095D01*
X173966190Y-45394857D01*
X173966190Y-45013904D01*
X173442380Y-45918666D02*
X173442380Y-46585333D01*
X174442380Y-46156761D01*
X176982380Y-45585333D02*
X176506190Y-45252000D01*
X176982380Y-45013904D02*
X175982380Y-45013904D01*
X175982380Y-45394857D01*
X176030000Y-45490095D01*
X176077619Y-45537714D01*
X176172857Y-45585333D01*
X176315714Y-45585333D01*
X176410952Y-45537714D01*
X176458571Y-45490095D01*
X176506190Y-45394857D01*
X176506190Y-45013904D01*
X175982380Y-46442476D02*
X175982380Y-46252000D01*
X176030000Y-46156761D01*
X176077619Y-46109142D01*
X176220476Y-46013904D01*
X176410952Y-45966285D01*
X176791904Y-45966285D01*
X176887142Y-46013904D01*
X176934761Y-46061523D01*
X176982380Y-46156761D01*
X176982380Y-46347238D01*
X176934761Y-46442476D01*
X176887142Y-46490095D01*
X176791904Y-46537714D01*
X176553809Y-46537714D01*
X176458571Y-46490095D01*
X176410952Y-46442476D01*
X176363333Y-46347238D01*
X176363333Y-46156761D01*
X176410952Y-46061523D01*
X176458571Y-46013904D01*
X176553809Y-45966285D01*
X169362380Y-45569333D02*
X168886190Y-45236000D01*
X169362380Y-44997904D02*
X168362380Y-44997904D01*
X168362380Y-45378857D01*
X168410000Y-45474095D01*
X168457619Y-45521714D01*
X168552857Y-45569333D01*
X168695714Y-45569333D01*
X168790952Y-45521714D01*
X168838571Y-45474095D01*
X168886190Y-45378857D01*
X168886190Y-44997904D01*
X168362380Y-46474095D02*
X168362380Y-45997904D01*
X168838571Y-45950285D01*
X168790952Y-45997904D01*
X168743333Y-46093142D01*
X168743333Y-46331238D01*
X168790952Y-46426476D01*
X168838571Y-46474095D01*
X168933809Y-46521714D01*
X169171904Y-46521714D01*
X169267142Y-46474095D01*
X169314761Y-46426476D01*
X169362380Y-46331238D01*
X169362380Y-46093142D01*
X169314761Y-45997904D01*
X169267142Y-45950285D01*
X171902380Y-43013333D02*
X171426190Y-42680000D01*
X171902380Y-42441904D02*
X170902380Y-42441904D01*
X170902380Y-42822857D01*
X170950000Y-42918095D01*
X170997619Y-42965714D01*
X171092857Y-43013333D01*
X171235714Y-43013333D01*
X171330952Y-42965714D01*
X171378571Y-42918095D01*
X171426190Y-42822857D01*
X171426190Y-42441904D01*
X171235714Y-43870476D02*
X171902380Y-43870476D01*
X170854761Y-43632380D02*
X171569047Y-43394285D01*
X171569047Y-44013333D01*
X169362380Y-43013333D02*
X168886190Y-42680000D01*
X169362380Y-42441904D02*
X168362380Y-42441904D01*
X168362380Y-42822857D01*
X168410000Y-42918095D01*
X168457619Y-42965714D01*
X168552857Y-43013333D01*
X168695714Y-43013333D01*
X168790952Y-42965714D01*
X168838571Y-42918095D01*
X168886190Y-42822857D01*
X168886190Y-42441904D01*
X168362380Y-43346666D02*
X168362380Y-43965714D01*
X168743333Y-43632380D01*
X168743333Y-43775238D01*
X168790952Y-43870476D01*
X168838571Y-43918095D01*
X168933809Y-43965714D01*
X169171904Y-43965714D01*
X169267142Y-43918095D01*
X169314761Y-43870476D01*
X169362380Y-43775238D01*
X169362380Y-43489523D01*
X169314761Y-43394285D01*
X169267142Y-43346666D01*
X157297619Y-46404761D02*
X157250000Y-46309523D01*
X157154761Y-46214285D01*
X157011904Y-46071428D01*
X156964285Y-45976190D01*
X156964285Y-45880952D01*
X157202380Y-45928571D02*
X157154761Y-45833333D01*
X157059523Y-45738095D01*
X156869047Y-45690476D01*
X156535714Y-45690476D01*
X156345238Y-45738095D01*
X156250000Y-45833333D01*
X156202380Y-45928571D01*
X156202380Y-46119047D01*
X156250000Y-46214285D01*
X156345238Y-46309523D01*
X156535714Y-46357142D01*
X156869047Y-46357142D01*
X157059523Y-46309523D01*
X157154761Y-46214285D01*
X157202380Y-46119047D01*
X157202380Y-45928571D01*
X156535714Y-47214285D02*
X157202380Y-47214285D01*
X156154761Y-46976190D02*
X156869047Y-46738095D01*
X156869047Y-47357142D01*
X160547619Y-50654761D02*
X160500000Y-50559523D01*
X160404761Y-50464285D01*
X160261904Y-50321428D01*
X160214285Y-50226190D01*
X160214285Y-50130952D01*
X160452380Y-50178571D02*
X160404761Y-50083333D01*
X160309523Y-49988095D01*
X160119047Y-49940476D01*
X159785714Y-49940476D01*
X159595238Y-49988095D01*
X159500000Y-50083333D01*
X159452380Y-50178571D01*
X159452380Y-50369047D01*
X159500000Y-50464285D01*
X159595238Y-50559523D01*
X159785714Y-50607142D01*
X160119047Y-50607142D01*
X160309523Y-50559523D01*
X160404761Y-50464285D01*
X160452380Y-50369047D01*
X160452380Y-50178571D01*
X159452380Y-50940476D02*
X159452380Y-51559523D01*
X159833333Y-51226190D01*
X159833333Y-51369047D01*
X159880952Y-51464285D01*
X159928571Y-51511904D01*
X160023809Y-51559523D01*
X160261904Y-51559523D01*
X160357142Y-51511904D01*
X160404761Y-51464285D01*
X160452380Y-51369047D01*
X160452380Y-51083333D01*
X160404761Y-50988095D01*
X160357142Y-50940476D01*
%LPC*%
D13*
X164500000Y-67500000D03*
X169500000Y-65000000D03*
X164500000Y-62500000D03*
D14*
X221980000Y-41060000D03*
X221980000Y-43600000D03*
X219440000Y-41060000D03*
X219440000Y-43600000D03*
X216900000Y-41060000D03*
D15*
X216900000Y-43600000D03*
D14*
X216320000Y-61900000D03*
X218860000Y-61900000D03*
D15*
X221400000Y-61900000D03*
D16*
X189850000Y-45000000D03*
X209850000Y-45000000D03*
D17*
X215000000Y-50500000D03*
X215000000Y-55380000D03*
D14*
X222000000Y-48880000D03*
X222000000Y-51420000D03*
X222000000Y-53960000D03*
D15*
X222000000Y-56500000D03*
D18*
X168920000Y-36720000D03*
X171460000Y-36720000D03*
X174000000Y-36720000D03*
X176540000Y-36720000D03*
X179080000Y-36720000D03*
X179080000Y-51960000D03*
X176540000Y-51960000D03*
X174000000Y-51960000D03*
X171460000Y-51960000D03*
X168920000Y-51960000D03*
G36*
G01*
X153450001Y-55850000D02*
X152549999Y-55850000D01*
G75*
G02*
X152300000Y-55600001I0J249999D01*
G01*
X152300000Y-54899999D01*
G75*
G02*
X152549999Y-54650000I249999J0D01*
G01*
X153450001Y-54650000D01*
G75*
G02*
X153700000Y-54899999I0J-249999D01*
G01*
X153700000Y-55600001D01*
G75*
G02*
X153450001Y-55850000I-249999J0D01*
G01*
G37*
G36*
G01*
X153450001Y-57850000D02*
X152549999Y-57850000D01*
G75*
G02*
X152300000Y-57600001I0J249999D01*
G01*
X152300000Y-56899999D01*
G75*
G02*
X152549999Y-56650000I249999J0D01*
G01*
X153450001Y-56650000D01*
G75*
G02*
X153700000Y-56899999I0J-249999D01*
G01*
X153700000Y-57600001D01*
G75*
G02*
X153450001Y-57850000I-249999J0D01*
G01*
G37*
G36*
G01*
X153450001Y-51100000D02*
X152549999Y-51100000D01*
G75*
G02*
X152300000Y-50850001I0J249999D01*
G01*
X152300000Y-50149999D01*
G75*
G02*
X152549999Y-49900000I249999J0D01*
G01*
X153450001Y-49900000D01*
G75*
G02*
X153700000Y-50149999I0J-249999D01*
G01*
X153700000Y-50850001D01*
G75*
G02*
X153450001Y-51100000I-249999J0D01*
G01*
G37*
G36*
G01*
X153450001Y-53100000D02*
X152549999Y-53100000D01*
G75*
G02*
X152300000Y-52850001I0J249999D01*
G01*
X152300000Y-52149999D01*
G75*
G02*
X152549999Y-51900000I249999J0D01*
G01*
X153450001Y-51900000D01*
G75*
G02*
X153700000Y-52149999I0J-249999D01*
G01*
X153700000Y-52850001D01*
G75*
G02*
X153450001Y-53100000I-249999J0D01*
G01*
G37*
G36*
G01*
X155799999Y-56400000D02*
X156700001Y-56400000D01*
G75*
G02*
X156950000Y-56649999I0J-249999D01*
G01*
X156950000Y-57350001D01*
G75*
G02*
X156700001Y-57600000I-249999J0D01*
G01*
X155799999Y-57600000D01*
G75*
G02*
X155550000Y-57350001I0J249999D01*
G01*
X155550000Y-56649999D01*
G75*
G02*
X155799999Y-56400000I249999J0D01*
G01*
G37*
G36*
G01*
X155799999Y-54400000D02*
X156700001Y-54400000D01*
G75*
G02*
X156950000Y-54649999I0J-249999D01*
G01*
X156950000Y-55350001D01*
G75*
G02*
X156700001Y-55600000I-249999J0D01*
G01*
X155799999Y-55600000D01*
G75*
G02*
X155550000Y-55350001I0J249999D01*
G01*
X155550000Y-54649999D01*
G75*
G02*
X155799999Y-54400000I249999J0D01*
G01*
G37*
G36*
G01*
X179520001Y-48130000D02*
X178619999Y-48130000D01*
G75*
G02*
X178370000Y-47880001I0J249999D01*
G01*
X178370000Y-47179999D01*
G75*
G02*
X178619999Y-46930000I249999J0D01*
G01*
X179520001Y-46930000D01*
G75*
G02*
X179770000Y-47179999I0J-249999D01*
G01*
X179770000Y-47880001D01*
G75*
G02*
X179520001Y-48130000I-249999J0D01*
G01*
G37*
G36*
G01*
X179520001Y-50130000D02*
X178619999Y-50130000D01*
G75*
G02*
X178370000Y-49880001I0J249999D01*
G01*
X178370000Y-49179999D01*
G75*
G02*
X178619999Y-48930000I249999J0D01*
G01*
X179520001Y-48930000D01*
G75*
G02*
X179770000Y-49179999I0J-249999D01*
G01*
X179770000Y-49880001D01*
G75*
G02*
X179520001Y-50130000I-249999J0D01*
G01*
G37*
G36*
G01*
X178619999Y-40770000D02*
X179520001Y-40770000D01*
G75*
G02*
X179770000Y-41019999I0J-249999D01*
G01*
X179770000Y-41720001D01*
G75*
G02*
X179520001Y-41970000I-249999J0D01*
G01*
X178619999Y-41970000D01*
G75*
G02*
X178370000Y-41720001I0J249999D01*
G01*
X178370000Y-41019999D01*
G75*
G02*
X178619999Y-40770000I249999J0D01*
G01*
G37*
G36*
G01*
X178619999Y-38770000D02*
X179520001Y-38770000D01*
G75*
G02*
X179770000Y-39019999I0J-249999D01*
G01*
X179770000Y-39720001D01*
G75*
G02*
X179520001Y-39970000I-249999J0D01*
G01*
X178619999Y-39970000D01*
G75*
G02*
X178370000Y-39720001I0J249999D01*
G01*
X178370000Y-39019999D01*
G75*
G02*
X178619999Y-38770000I249999J0D01*
G01*
G37*
G36*
G01*
X174440001Y-48130000D02*
X173539999Y-48130000D01*
G75*
G02*
X173290000Y-47880001I0J249999D01*
G01*
X173290000Y-47179999D01*
G75*
G02*
X173539999Y-46930000I249999J0D01*
G01*
X174440001Y-46930000D01*
G75*
G02*
X174690000Y-47179999I0J-249999D01*
G01*
X174690000Y-47880001D01*
G75*
G02*
X174440001Y-48130000I-249999J0D01*
G01*
G37*
G36*
G01*
X174440001Y-50130000D02*
X173539999Y-50130000D01*
G75*
G02*
X173290000Y-49880001I0J249999D01*
G01*
X173290000Y-49179999D01*
G75*
G02*
X173539999Y-48930000I249999J0D01*
G01*
X174440001Y-48930000D01*
G75*
G02*
X174690000Y-49179999I0J-249999D01*
G01*
X174690000Y-49880001D01*
G75*
G02*
X174440001Y-50130000I-249999J0D01*
G01*
G37*
G36*
G01*
X176980001Y-48130000D02*
X176079999Y-48130000D01*
G75*
G02*
X175830000Y-47880001I0J249999D01*
G01*
X175830000Y-47179999D01*
G75*
G02*
X176079999Y-46930000I249999J0D01*
G01*
X176980001Y-46930000D01*
G75*
G02*
X177230000Y-47179999I0J-249999D01*
G01*
X177230000Y-47880001D01*
G75*
G02*
X176980001Y-48130000I-249999J0D01*
G01*
G37*
G36*
G01*
X176980001Y-50130000D02*
X176079999Y-50130000D01*
G75*
G02*
X175830000Y-49880001I0J249999D01*
G01*
X175830000Y-49179999D01*
G75*
G02*
X176079999Y-48930000I249999J0D01*
G01*
X176980001Y-48930000D01*
G75*
G02*
X177230000Y-49179999I0J-249999D01*
G01*
X177230000Y-49880001D01*
G75*
G02*
X176980001Y-50130000I-249999J0D01*
G01*
G37*
G36*
G01*
X169360001Y-48130000D02*
X168459999Y-48130000D01*
G75*
G02*
X168210000Y-47880001I0J249999D01*
G01*
X168210000Y-47179999D01*
G75*
G02*
X168459999Y-46930000I249999J0D01*
G01*
X169360001Y-46930000D01*
G75*
G02*
X169610000Y-47179999I0J-249999D01*
G01*
X169610000Y-47880001D01*
G75*
G02*
X169360001Y-48130000I-249999J0D01*
G01*
G37*
G36*
G01*
X169360001Y-50130000D02*
X168459999Y-50130000D01*
G75*
G02*
X168210000Y-49880001I0J249999D01*
G01*
X168210000Y-49179999D01*
G75*
G02*
X168459999Y-48930000I249999J0D01*
G01*
X169360001Y-48930000D01*
G75*
G02*
X169610000Y-49179999I0J-249999D01*
G01*
X169610000Y-49880001D01*
G75*
G02*
X169360001Y-50130000I-249999J0D01*
G01*
G37*
G36*
G01*
X170999999Y-40770000D02*
X171900001Y-40770000D01*
G75*
G02*
X172150000Y-41019999I0J-249999D01*
G01*
X172150000Y-41720001D01*
G75*
G02*
X171900001Y-41970000I-249999J0D01*
G01*
X170999999Y-41970000D01*
G75*
G02*
X170750000Y-41720001I0J249999D01*
G01*
X170750000Y-41019999D01*
G75*
G02*
X170999999Y-40770000I249999J0D01*
G01*
G37*
G36*
G01*
X170999999Y-38770000D02*
X171900001Y-38770000D01*
G75*
G02*
X172150000Y-39019999I0J-249999D01*
G01*
X172150000Y-39720001D01*
G75*
G02*
X171900001Y-39970000I-249999J0D01*
G01*
X170999999Y-39970000D01*
G75*
G02*
X170750000Y-39720001I0J249999D01*
G01*
X170750000Y-39019999D01*
G75*
G02*
X170999999Y-38770000I249999J0D01*
G01*
G37*
G36*
G01*
X168459999Y-40770000D02*
X169360001Y-40770000D01*
G75*
G02*
X169610000Y-41019999I0J-249999D01*
G01*
X169610000Y-41720001D01*
G75*
G02*
X169360001Y-41970000I-249999J0D01*
G01*
X168459999Y-41970000D01*
G75*
G02*
X168210000Y-41720001I0J249999D01*
G01*
X168210000Y-41019999D01*
G75*
G02*
X168459999Y-40770000I249999J0D01*
G01*
G37*
G36*
G01*
X168459999Y-38770000D02*
X169360001Y-38770000D01*
G75*
G02*
X169610000Y-39019999I0J-249999D01*
G01*
X169610000Y-39720001D01*
G75*
G02*
X169360001Y-39970000I-249999J0D01*
G01*
X168459999Y-39970000D01*
G75*
G02*
X168210000Y-39720001I0J249999D01*
G01*
X168210000Y-39019999D01*
G75*
G02*
X168459999Y-38770000I249999J0D01*
G01*
G37*
D19*
X189250000Y-61000000D03*
X186250000Y-61000000D03*
D20*
X154250000Y-45500000D03*
X153300000Y-47500000D03*
X155200000Y-47500000D03*
X157500000Y-49750000D03*
X156550000Y-51750000D03*
X158450000Y-51750000D03*
D21*
X220000000Y-69000000D03*
X155000000Y-34000000D03*
X155000000Y-69000000D03*
X220000000Y-34000000D03*
D14*
X156790000Y-41000000D03*
D15*
X154250000Y-41000000D03*
M02*
