G04 #@! TF.GenerationSoftware,KiCad,Pcbnew,6.0.11*
G04 #@! TF.CreationDate,2023-02-08T13:55:16+01:00*
G04 #@! TF.ProjectId,pullup_counter_schematic,70756c6c-7570-45f6-936f-756e7465725f,1*
G04 #@! TF.SameCoordinates,Original*
G04 #@! TF.FileFunction,Soldermask,Bot*
G04 #@! TF.FilePolarity,Negative*
%FSLAX46Y46*%
G04 Gerber Fmt 4.6, Leading zero omitted, Abs format (unit mm)*
G04 Created by KiCad (PCBNEW 6.0.11) date 2023-02-08 13:55:16*
%MOMM*%
%LPD*%
G01*
G04 APERTURE LIST*
G04 Aperture macros list*
%AMRoundRect*
0 Rectangle with rounded corners*
0 $1 Rounding radius*
0 $2 $3 $4 $5 $6 $7 $8 $9 X,Y pos of 4 corners*
0 Add a 4 corners polygon primitive as box body*
4,1,4,$2,$3,$4,$5,$6,$7,$8,$9,$2,$3,0*
0 Add four circle primitives for the rounded corners*
1,1,$1+$1,$2,$3*
1,1,$1+$1,$4,$5*
1,1,$1+$1,$6,$7*
1,1,$1+$1,$8,$9*
0 Add four rect primitives between the rounded corners*
20,1,$1+$1,$2,$3,$4,$5,0*
20,1,$1+$1,$4,$5,$6,$7,0*
20,1,$1+$1,$6,$7,$8,$9,0*
20,1,$1+$1,$8,$9,$2,$3,0*%
G04 Aperture macros list end*
%ADD10O,0.950000X1.250000*%
%ADD11O,1.550000X0.890000*%
%ADD12RoundRect,0.250000X0.600000X-0.600000X0.600000X0.600000X-0.600000X0.600000X-0.600000X-0.600000X0*%
%ADD13C,1.700000*%
%ADD14C,3.200000*%
%ADD15C,1.500000*%
%ADD16R,1.700000X1.700000*%
%ADD17R,0.400000X2.000000*%
%ADD18C,2.000000*%
%ADD19C,1.524000*%
%ADD20RoundRect,1.270000X-2.540000X-1.270000X2.540000X-1.270000X2.540000X1.270000X-2.540000X1.270000X0*%
%ADD21RoundRect,1.270000X2.540000X1.270000X-2.540000X1.270000X-2.540000X-1.270000X2.540000X-1.270000X0*%
G04 APERTURE END LIST*
D10*
X105150000Y-64700000D03*
D11*
X102450000Y-63700000D03*
D10*
X105150000Y-69700000D03*
D11*
X102450000Y-70700000D03*
D12*
X107000000Y-57340000D03*
D13*
X107000000Y-54800000D03*
X109540000Y-57340000D03*
X109540000Y-54800000D03*
X112080000Y-57340000D03*
X112080000Y-54800000D03*
D14*
X100000000Y-92500000D03*
X182000000Y-92500000D03*
X100000000Y-42500000D03*
X182000000Y-42500000D03*
D15*
X171520000Y-59600000D03*
X176400000Y-59600000D03*
D16*
X120800000Y-97800000D03*
X112900000Y-82200000D03*
D17*
X151150000Y-57500000D03*
X150450000Y-57500000D03*
X149750000Y-57500000D03*
X149050000Y-57500000D03*
X148350000Y-57500000D03*
X147650000Y-57500000D03*
X146950000Y-57500000D03*
X146250000Y-57500000D03*
X145550000Y-57500000D03*
X144850000Y-57500000D03*
X144150000Y-57500000D03*
X143450000Y-57500000D03*
X142750000Y-57500000D03*
X142050000Y-57500000D03*
X141350000Y-57500000D03*
X140650000Y-57500000D03*
X139950000Y-57500000D03*
X139250000Y-57500000D03*
X138550000Y-57500000D03*
X137850000Y-57500000D03*
X137150000Y-57500000D03*
X136450000Y-57500000D03*
X135750000Y-57500000D03*
X135050000Y-57500000D03*
X134350000Y-57500000D03*
X133650000Y-57500000D03*
X132950000Y-57500000D03*
X132250000Y-57500000D03*
X131550000Y-57500000D03*
X130850000Y-57500000D03*
D18*
X172000000Y-84400000D03*
X152000000Y-84400000D03*
D19*
X177040000Y-63640000D03*
X177040000Y-76340000D03*
X171960000Y-76340000D03*
X171960000Y-63640000D03*
D15*
X159200000Y-59600000D03*
X164080000Y-59600000D03*
D20*
X110905000Y-93000000D03*
X169325000Y-93000000D03*
D21*
X169095000Y-42500000D03*
X110675000Y-42500000D03*
M02*
