M48
; DRILL file {KiCad (5.1.10)-1} date 03/27/22 16:28:09
; FORMAT={-:-/ absolute / metric / decimal}
; #@! TF.CreationDate,2022-03-27T16:28:09+02:00
; #@! TF.GenerationSoftware,Kicad,Pcbnew,(5.1.10)-1
; #@! TF.FileFunction,Plated,1,2,PTH
FMAT,2
METRIC
T1C0.300
T2C0.400
T3C0.762
T4C0.800
T5C1.000
T6C1.300
%
G90
G05
T1
X154.7Y-56.0
X170.8Y-62.5
X171.3Y-48.6
X174.4Y-70.4
X174.5Y-68.0
X175.4Y-40.9
X177.8Y-61.3
X179.6Y-69.0
X184.0Y-48.0
X184.0Y-49.75
X184.0Y-51.5
X184.024Y-47.176
X184.024Y-48.926
X184.024Y-50.676
X184.034Y-46.337
X184.2Y-38.1
X189.0Y-66.0
X191.75Y-63.25
X193.0Y-63.25
X195.65Y-59.15
X196.5Y-35.64
X196.5Y-48.25
X196.5Y-59.75
X196.75Y-34.75
X197.573Y-46.5
X198.25Y-44.75
X198.25Y-62.25
X198.25Y-66.75
X198.5Y-52.262
X199.3Y-42.5
X199.3Y-51.8
X200.0Y-40.8
X200.75Y-56.0
X201.6Y-39.75
X202.1Y-35.1
X202.2Y-40.9
X202.2Y-42.0
X203.5Y-35.2
X203.7Y-39.9
X205.0Y-58.0
X205.75Y-54.0
X206.09Y-40.01
X206.25Y-58.25
X206.656Y-40.575
X206.75Y-51.75
X207.5Y-61.7
X207.5Y-63.6
X209.3Y-35.4
X216.2Y-49.2
X216.9Y-53.5
T2
X207.8Y-56.0
X214.1Y-37.8
X214.1Y-44.9
T3
X168.92Y-36.72
X168.92Y-51.96
X171.46Y-36.72
X171.46Y-51.96
X174.0Y-36.72
X174.0Y-51.96
X176.54Y-36.72
X176.54Y-51.96
X179.08Y-36.72
X179.08Y-51.96
T4
X186.25Y-61.0
X189.25Y-61.0
X215.0Y-50.5
X215.0Y-55.38
T5
X154.25Y-41.0
X156.79Y-41.0
X216.32Y-61.9
X216.9Y-41.06
X216.9Y-43.6
X218.86Y-61.9
X219.44Y-41.06
X219.44Y-43.6
X221.4Y-61.9
X221.98Y-41.06
X221.98Y-43.6
X222.0Y-48.88
X222.0Y-51.42
X222.0Y-53.96
X222.0Y-56.5
T6
X164.5Y-62.5
X164.5Y-67.5
X169.5Y-65.0
X189.85Y-45.0
X209.85Y-45.0
T0
M30
