G04 #@! TF.GenerationSoftware,KiCad,Pcbnew,(5.1.10)-1*
G04 #@! TF.CreationDate,2022-03-27T16:28:06+02:00*
G04 #@! TF.ProjectId,pullup_counter_schematic,70756c6c-7570-45f6-936f-756e7465725f,1*
G04 #@! TF.SameCoordinates,Original*
G04 #@! TF.FileFunction,Soldermask,Top*
G04 #@! TF.FilePolarity,Negative*
%FSLAX46Y46*%
G04 Gerber Fmt 4.6, Leading zero omitted, Abs format (unit mm)*
G04 Created by KiCad (PCBNEW (5.1.10)-1) date 2022-03-27 16:28:06*
%MOMM*%
%LPD*%
G01*
G04 APERTURE LIST*
%ADD10C,2.340000*%
%ADD11O,1.700000X1.700000*%
%ADD12R,1.700000X1.700000*%
%ADD13R,1.500000X0.600000*%
%ADD14C,2.000000*%
%ADD15C,1.500000*%
%ADD16C,1.524000*%
%ADD17C,0.152400*%
%ADD18R,0.900000X1.300000*%
%ADD19C,1.600000*%
%ADD20R,0.900000X0.800000*%
%ADD21C,3.200000*%
G04 APERTURE END LIST*
D10*
X164500000Y-67500000D03*
X169500000Y-65000000D03*
X164500000Y-62500000D03*
D11*
X221980000Y-41060000D03*
X221980000Y-43600000D03*
X219440000Y-41060000D03*
X219440000Y-43600000D03*
X216900000Y-41060000D03*
D12*
X216900000Y-43600000D03*
D11*
X216320000Y-61900000D03*
X218860000Y-61900000D03*
D12*
X221400000Y-61900000D03*
G36*
G01*
X198900000Y-33900000D02*
X198900000Y-33600000D01*
G75*
G02*
X199050000Y-33450000I150000J0D01*
G01*
X200700000Y-33450000D01*
G75*
G02*
X200850000Y-33600000I0J-150000D01*
G01*
X200850000Y-33900000D01*
G75*
G02*
X200700000Y-34050000I-150000J0D01*
G01*
X199050000Y-34050000D01*
G75*
G02*
X198900000Y-33900000I0J150000D01*
G01*
G37*
G36*
G01*
X198900000Y-35170000D02*
X198900000Y-34870000D01*
G75*
G02*
X199050000Y-34720000I150000J0D01*
G01*
X200700000Y-34720000D01*
G75*
G02*
X200850000Y-34870000I0J-150000D01*
G01*
X200850000Y-35170000D01*
G75*
G02*
X200700000Y-35320000I-150000J0D01*
G01*
X199050000Y-35320000D01*
G75*
G02*
X198900000Y-35170000I0J150000D01*
G01*
G37*
G36*
G01*
X198900000Y-36440000D02*
X198900000Y-36140000D01*
G75*
G02*
X199050000Y-35990000I150000J0D01*
G01*
X200700000Y-35990000D01*
G75*
G02*
X200850000Y-36140000I0J-150000D01*
G01*
X200850000Y-36440000D01*
G75*
G02*
X200700000Y-36590000I-150000J0D01*
G01*
X199050000Y-36590000D01*
G75*
G02*
X198900000Y-36440000I0J150000D01*
G01*
G37*
G36*
G01*
X198900000Y-37710000D02*
X198900000Y-37410000D01*
G75*
G02*
X199050000Y-37260000I150000J0D01*
G01*
X200700000Y-37260000D01*
G75*
G02*
X200850000Y-37410000I0J-150000D01*
G01*
X200850000Y-37710000D01*
G75*
G02*
X200700000Y-37860000I-150000J0D01*
G01*
X199050000Y-37860000D01*
G75*
G02*
X198900000Y-37710000I0J150000D01*
G01*
G37*
G36*
G01*
X193950000Y-37710000D02*
X193950000Y-37410000D01*
G75*
G02*
X194100000Y-37260000I150000J0D01*
G01*
X195750000Y-37260000D01*
G75*
G02*
X195900000Y-37410000I0J-150000D01*
G01*
X195900000Y-37710000D01*
G75*
G02*
X195750000Y-37860000I-150000J0D01*
G01*
X194100000Y-37860000D01*
G75*
G02*
X193950000Y-37710000I0J150000D01*
G01*
G37*
G36*
G01*
X193950000Y-36440000D02*
X193950000Y-36140000D01*
G75*
G02*
X194100000Y-35990000I150000J0D01*
G01*
X195750000Y-35990000D01*
G75*
G02*
X195900000Y-36140000I0J-150000D01*
G01*
X195900000Y-36440000D01*
G75*
G02*
X195750000Y-36590000I-150000J0D01*
G01*
X194100000Y-36590000D01*
G75*
G02*
X193950000Y-36440000I0J150000D01*
G01*
G37*
G36*
G01*
X193950000Y-35170000D02*
X193950000Y-34870000D01*
G75*
G02*
X194100000Y-34720000I150000J0D01*
G01*
X195750000Y-34720000D01*
G75*
G02*
X195900000Y-34870000I0J-150000D01*
G01*
X195900000Y-35170000D01*
G75*
G02*
X195750000Y-35320000I-150000J0D01*
G01*
X194100000Y-35320000D01*
G75*
G02*
X193950000Y-35170000I0J150000D01*
G01*
G37*
G36*
G01*
X193950000Y-33900000D02*
X193950000Y-33600000D01*
G75*
G02*
X194100000Y-33450000I150000J0D01*
G01*
X195750000Y-33450000D01*
G75*
G02*
X195900000Y-33600000I0J-150000D01*
G01*
X195900000Y-33900000D01*
G75*
G02*
X195750000Y-34050000I-150000J0D01*
G01*
X194100000Y-34050000D01*
G75*
G02*
X193950000Y-33900000I0J150000D01*
G01*
G37*
D13*
X213825000Y-68750000D03*
X206175000Y-68750000D03*
D14*
X189850000Y-45000000D03*
X209850000Y-45000000D03*
D15*
X215000000Y-50500000D03*
X215000000Y-55380000D03*
G36*
G01*
X205549999Y-64150000D02*
X206450001Y-64150000D01*
G75*
G02*
X206700000Y-64399999I0J-249999D01*
G01*
X206700000Y-65100001D01*
G75*
G02*
X206450001Y-65350000I-249999J0D01*
G01*
X205549999Y-65350000D01*
G75*
G02*
X205300000Y-65100001I0J249999D01*
G01*
X205300000Y-64399999D01*
G75*
G02*
X205549999Y-64150000I249999J0D01*
G01*
G37*
G36*
G01*
X205549999Y-62150000D02*
X206450001Y-62150000D01*
G75*
G02*
X206700000Y-62399999I0J-249999D01*
G01*
X206700000Y-63100001D01*
G75*
G02*
X206450001Y-63350000I-249999J0D01*
G01*
X205549999Y-63350000D01*
G75*
G02*
X205300000Y-63100001I0J249999D01*
G01*
X205300000Y-62399999D01*
G75*
G02*
X205549999Y-62150000I249999J0D01*
G01*
G37*
D11*
X222000000Y-48880000D03*
X222000000Y-51420000D03*
X222000000Y-53960000D03*
D12*
X222000000Y-56500000D03*
G36*
G01*
X207462500Y-60650002D02*
X207462500Y-59349998D01*
G75*
G02*
X207712498Y-59100000I249998J0D01*
G01*
X208537502Y-59100000D01*
G75*
G02*
X208787500Y-59349998I0J-249998D01*
G01*
X208787500Y-60650002D01*
G75*
G02*
X208537502Y-60900000I-249998J0D01*
G01*
X207712498Y-60900000D01*
G75*
G02*
X207462500Y-60650002I0J249998D01*
G01*
G37*
G36*
G01*
X204337500Y-60650002D02*
X204337500Y-59349998D01*
G75*
G02*
X204587498Y-59100000I249998J0D01*
G01*
X205412502Y-59100000D01*
G75*
G02*
X205662500Y-59349998I0J-249998D01*
G01*
X205662500Y-60650002D01*
G75*
G02*
X205412502Y-60900000I-249998J0D01*
G01*
X204587498Y-60900000D01*
G75*
G02*
X204337500Y-60650002I0J249998D01*
G01*
G37*
G36*
G01*
X209737500Y-50675000D02*
X209262500Y-50675000D01*
G75*
G02*
X209025000Y-50437500I0J237500D01*
G01*
X209025000Y-49837500D01*
G75*
G02*
X209262500Y-49600000I237500J0D01*
G01*
X209737500Y-49600000D01*
G75*
G02*
X209975000Y-49837500I0J-237500D01*
G01*
X209975000Y-50437500D01*
G75*
G02*
X209737500Y-50675000I-237500J0D01*
G01*
G37*
G36*
G01*
X209737500Y-52400000D02*
X209262500Y-52400000D01*
G75*
G02*
X209025000Y-52162500I0J237500D01*
G01*
X209025000Y-51562500D01*
G75*
G02*
X209262500Y-51325000I237500J0D01*
G01*
X209737500Y-51325000D01*
G75*
G02*
X209975000Y-51562500I0J-237500D01*
G01*
X209975000Y-52162500D01*
G75*
G02*
X209737500Y-52400000I-237500J0D01*
G01*
G37*
G36*
G01*
X209262500Y-55687501D02*
X209737500Y-55687501D01*
G75*
G02*
X209975000Y-55925001I0J-237500D01*
G01*
X209975000Y-56525001D01*
G75*
G02*
X209737500Y-56762501I-237500J0D01*
G01*
X209262500Y-56762501D01*
G75*
G02*
X209025000Y-56525001I0J237500D01*
G01*
X209025000Y-55925001D01*
G75*
G02*
X209262500Y-55687501I237500J0D01*
G01*
G37*
G36*
G01*
X209262500Y-53962501D02*
X209737500Y-53962501D01*
G75*
G02*
X209975000Y-54200001I0J-237500D01*
G01*
X209975000Y-54800001D01*
G75*
G02*
X209737500Y-55037501I-237500J0D01*
G01*
X209262500Y-55037501D01*
G75*
G02*
X209025000Y-54800001I0J237500D01*
G01*
X209025000Y-54200001D01*
G75*
G02*
X209262500Y-53962501I237500J0D01*
G01*
G37*
G36*
G01*
X202150000Y-57662500D02*
X202150000Y-58987500D01*
G75*
G02*
X202075000Y-59062500I-75000J0D01*
G01*
X201925000Y-59062500D01*
G75*
G02*
X201850000Y-58987500I0J75000D01*
G01*
X201850000Y-57662500D01*
G75*
G02*
X201925000Y-57587500I75000J0D01*
G01*
X202075000Y-57587500D01*
G75*
G02*
X202150000Y-57662500I0J-75000D01*
G01*
G37*
G36*
G01*
X201650000Y-57662500D02*
X201650000Y-58987500D01*
G75*
G02*
X201575000Y-59062500I-75000J0D01*
G01*
X201425000Y-59062500D01*
G75*
G02*
X201350000Y-58987500I0J75000D01*
G01*
X201350000Y-57662500D01*
G75*
G02*
X201425000Y-57587500I75000J0D01*
G01*
X201575000Y-57587500D01*
G75*
G02*
X201650000Y-57662500I0J-75000D01*
G01*
G37*
G36*
G01*
X201150000Y-57662500D02*
X201150000Y-58987500D01*
G75*
G02*
X201075000Y-59062500I-75000J0D01*
G01*
X200925000Y-59062500D01*
G75*
G02*
X200850000Y-58987500I0J75000D01*
G01*
X200850000Y-57662500D01*
G75*
G02*
X200925000Y-57587500I75000J0D01*
G01*
X201075000Y-57587500D01*
G75*
G02*
X201150000Y-57662500I0J-75000D01*
G01*
G37*
G36*
G01*
X200650000Y-57662500D02*
X200650000Y-58987500D01*
G75*
G02*
X200575000Y-59062500I-75000J0D01*
G01*
X200425000Y-59062500D01*
G75*
G02*
X200350000Y-58987500I0J75000D01*
G01*
X200350000Y-57662500D01*
G75*
G02*
X200425000Y-57587500I75000J0D01*
G01*
X200575000Y-57587500D01*
G75*
G02*
X200650000Y-57662500I0J-75000D01*
G01*
G37*
G36*
G01*
X200150000Y-57662500D02*
X200150000Y-58987500D01*
G75*
G02*
X200075000Y-59062500I-75000J0D01*
G01*
X199925000Y-59062500D01*
G75*
G02*
X199850000Y-58987500I0J75000D01*
G01*
X199850000Y-57662500D01*
G75*
G02*
X199925000Y-57587500I75000J0D01*
G01*
X200075000Y-57587500D01*
G75*
G02*
X200150000Y-57662500I0J-75000D01*
G01*
G37*
G36*
G01*
X199650000Y-57662500D02*
X199650000Y-58987500D01*
G75*
G02*
X199575000Y-59062500I-75000J0D01*
G01*
X199425000Y-59062500D01*
G75*
G02*
X199350000Y-58987500I0J75000D01*
G01*
X199350000Y-57662500D01*
G75*
G02*
X199425000Y-57587500I75000J0D01*
G01*
X199575000Y-57587500D01*
G75*
G02*
X199650000Y-57662500I0J-75000D01*
G01*
G37*
G36*
G01*
X199150000Y-57662500D02*
X199150000Y-58987500D01*
G75*
G02*
X199075000Y-59062500I-75000J0D01*
G01*
X198925000Y-59062500D01*
G75*
G02*
X198850000Y-58987500I0J75000D01*
G01*
X198850000Y-57662500D01*
G75*
G02*
X198925000Y-57587500I75000J0D01*
G01*
X199075000Y-57587500D01*
G75*
G02*
X199150000Y-57662500I0J-75000D01*
G01*
G37*
G36*
G01*
X198650000Y-57662500D02*
X198650000Y-58987500D01*
G75*
G02*
X198575000Y-59062500I-75000J0D01*
G01*
X198425000Y-59062500D01*
G75*
G02*
X198350000Y-58987500I0J75000D01*
G01*
X198350000Y-57662500D01*
G75*
G02*
X198425000Y-57587500I75000J0D01*
G01*
X198575000Y-57587500D01*
G75*
G02*
X198650000Y-57662500I0J-75000D01*
G01*
G37*
G36*
G01*
X198150000Y-57662500D02*
X198150000Y-58987500D01*
G75*
G02*
X198075000Y-59062500I-75000J0D01*
G01*
X197925000Y-59062500D01*
G75*
G02*
X197850000Y-58987500I0J75000D01*
G01*
X197850000Y-57662500D01*
G75*
G02*
X197925000Y-57587500I75000J0D01*
G01*
X198075000Y-57587500D01*
G75*
G02*
X198150000Y-57662500I0J-75000D01*
G01*
G37*
G36*
G01*
X197650000Y-57662500D02*
X197650000Y-58987500D01*
G75*
G02*
X197575000Y-59062500I-75000J0D01*
G01*
X197425000Y-59062500D01*
G75*
G02*
X197350000Y-58987500I0J75000D01*
G01*
X197350000Y-57662500D01*
G75*
G02*
X197425000Y-57587500I75000J0D01*
G01*
X197575000Y-57587500D01*
G75*
G02*
X197650000Y-57662500I0J-75000D01*
G01*
G37*
G36*
G01*
X197150000Y-57662500D02*
X197150000Y-58987500D01*
G75*
G02*
X197075000Y-59062500I-75000J0D01*
G01*
X196925000Y-59062500D01*
G75*
G02*
X196850000Y-58987500I0J75000D01*
G01*
X196850000Y-57662500D01*
G75*
G02*
X196925000Y-57587500I75000J0D01*
G01*
X197075000Y-57587500D01*
G75*
G02*
X197150000Y-57662500I0J-75000D01*
G01*
G37*
G36*
G01*
X196650000Y-57662500D02*
X196650000Y-58987500D01*
G75*
G02*
X196575000Y-59062500I-75000J0D01*
G01*
X196425000Y-59062500D01*
G75*
G02*
X196350000Y-58987500I0J75000D01*
G01*
X196350000Y-57662500D01*
G75*
G02*
X196425000Y-57587500I75000J0D01*
G01*
X196575000Y-57587500D01*
G75*
G02*
X196650000Y-57662500I0J-75000D01*
G01*
G37*
G36*
G01*
X195825000Y-56837500D02*
X195825000Y-56987500D01*
G75*
G02*
X195750000Y-57062500I-75000J0D01*
G01*
X194425000Y-57062500D01*
G75*
G02*
X194350000Y-56987500I0J75000D01*
G01*
X194350000Y-56837500D01*
G75*
G02*
X194425000Y-56762500I75000J0D01*
G01*
X195750000Y-56762500D01*
G75*
G02*
X195825000Y-56837500I0J-75000D01*
G01*
G37*
G36*
G01*
X195825000Y-56337500D02*
X195825000Y-56487500D01*
G75*
G02*
X195750000Y-56562500I-75000J0D01*
G01*
X194425000Y-56562500D01*
G75*
G02*
X194350000Y-56487500I0J75000D01*
G01*
X194350000Y-56337500D01*
G75*
G02*
X194425000Y-56262500I75000J0D01*
G01*
X195750000Y-56262500D01*
G75*
G02*
X195825000Y-56337500I0J-75000D01*
G01*
G37*
G36*
G01*
X195825000Y-55837500D02*
X195825000Y-55987500D01*
G75*
G02*
X195750000Y-56062500I-75000J0D01*
G01*
X194425000Y-56062500D01*
G75*
G02*
X194350000Y-55987500I0J75000D01*
G01*
X194350000Y-55837500D01*
G75*
G02*
X194425000Y-55762500I75000J0D01*
G01*
X195750000Y-55762500D01*
G75*
G02*
X195825000Y-55837500I0J-75000D01*
G01*
G37*
G36*
G01*
X195825000Y-55337500D02*
X195825000Y-55487500D01*
G75*
G02*
X195750000Y-55562500I-75000J0D01*
G01*
X194425000Y-55562500D01*
G75*
G02*
X194350000Y-55487500I0J75000D01*
G01*
X194350000Y-55337500D01*
G75*
G02*
X194425000Y-55262500I75000J0D01*
G01*
X195750000Y-55262500D01*
G75*
G02*
X195825000Y-55337500I0J-75000D01*
G01*
G37*
G36*
G01*
X195825000Y-54837500D02*
X195825000Y-54987500D01*
G75*
G02*
X195750000Y-55062500I-75000J0D01*
G01*
X194425000Y-55062500D01*
G75*
G02*
X194350000Y-54987500I0J75000D01*
G01*
X194350000Y-54837500D01*
G75*
G02*
X194425000Y-54762500I75000J0D01*
G01*
X195750000Y-54762500D01*
G75*
G02*
X195825000Y-54837500I0J-75000D01*
G01*
G37*
G36*
G01*
X195825000Y-54337500D02*
X195825000Y-54487500D01*
G75*
G02*
X195750000Y-54562500I-75000J0D01*
G01*
X194425000Y-54562500D01*
G75*
G02*
X194350000Y-54487500I0J75000D01*
G01*
X194350000Y-54337500D01*
G75*
G02*
X194425000Y-54262500I75000J0D01*
G01*
X195750000Y-54262500D01*
G75*
G02*
X195825000Y-54337500I0J-75000D01*
G01*
G37*
G36*
G01*
X195825000Y-53837500D02*
X195825000Y-53987500D01*
G75*
G02*
X195750000Y-54062500I-75000J0D01*
G01*
X194425000Y-54062500D01*
G75*
G02*
X194350000Y-53987500I0J75000D01*
G01*
X194350000Y-53837500D01*
G75*
G02*
X194425000Y-53762500I75000J0D01*
G01*
X195750000Y-53762500D01*
G75*
G02*
X195825000Y-53837500I0J-75000D01*
G01*
G37*
G36*
G01*
X195825000Y-53337500D02*
X195825000Y-53487500D01*
G75*
G02*
X195750000Y-53562500I-75000J0D01*
G01*
X194425000Y-53562500D01*
G75*
G02*
X194350000Y-53487500I0J75000D01*
G01*
X194350000Y-53337500D01*
G75*
G02*
X194425000Y-53262500I75000J0D01*
G01*
X195750000Y-53262500D01*
G75*
G02*
X195825000Y-53337500I0J-75000D01*
G01*
G37*
G36*
G01*
X195825000Y-52837500D02*
X195825000Y-52987500D01*
G75*
G02*
X195750000Y-53062500I-75000J0D01*
G01*
X194425000Y-53062500D01*
G75*
G02*
X194350000Y-52987500I0J75000D01*
G01*
X194350000Y-52837500D01*
G75*
G02*
X194425000Y-52762500I75000J0D01*
G01*
X195750000Y-52762500D01*
G75*
G02*
X195825000Y-52837500I0J-75000D01*
G01*
G37*
G36*
G01*
X195825000Y-52337500D02*
X195825000Y-52487500D01*
G75*
G02*
X195750000Y-52562500I-75000J0D01*
G01*
X194425000Y-52562500D01*
G75*
G02*
X194350000Y-52487500I0J75000D01*
G01*
X194350000Y-52337500D01*
G75*
G02*
X194425000Y-52262500I75000J0D01*
G01*
X195750000Y-52262500D01*
G75*
G02*
X195825000Y-52337500I0J-75000D01*
G01*
G37*
G36*
G01*
X195825000Y-51837500D02*
X195825000Y-51987500D01*
G75*
G02*
X195750000Y-52062500I-75000J0D01*
G01*
X194425000Y-52062500D01*
G75*
G02*
X194350000Y-51987500I0J75000D01*
G01*
X194350000Y-51837500D01*
G75*
G02*
X194425000Y-51762500I75000J0D01*
G01*
X195750000Y-51762500D01*
G75*
G02*
X195825000Y-51837500I0J-75000D01*
G01*
G37*
G36*
G01*
X195825000Y-51337500D02*
X195825000Y-51487500D01*
G75*
G02*
X195750000Y-51562500I-75000J0D01*
G01*
X194425000Y-51562500D01*
G75*
G02*
X194350000Y-51487500I0J75000D01*
G01*
X194350000Y-51337500D01*
G75*
G02*
X194425000Y-51262500I75000J0D01*
G01*
X195750000Y-51262500D01*
G75*
G02*
X195825000Y-51337500I0J-75000D01*
G01*
G37*
G36*
G01*
X196650000Y-49337500D02*
X196650000Y-50662500D01*
G75*
G02*
X196575000Y-50737500I-75000J0D01*
G01*
X196425000Y-50737500D01*
G75*
G02*
X196350000Y-50662500I0J75000D01*
G01*
X196350000Y-49337500D01*
G75*
G02*
X196425000Y-49262500I75000J0D01*
G01*
X196575000Y-49262500D01*
G75*
G02*
X196650000Y-49337500I0J-75000D01*
G01*
G37*
G36*
G01*
X197150000Y-49337500D02*
X197150000Y-50662500D01*
G75*
G02*
X197075000Y-50737500I-75000J0D01*
G01*
X196925000Y-50737500D01*
G75*
G02*
X196850000Y-50662500I0J75000D01*
G01*
X196850000Y-49337500D01*
G75*
G02*
X196925000Y-49262500I75000J0D01*
G01*
X197075000Y-49262500D01*
G75*
G02*
X197150000Y-49337500I0J-75000D01*
G01*
G37*
G36*
G01*
X197650000Y-49337500D02*
X197650000Y-50662500D01*
G75*
G02*
X197575000Y-50737500I-75000J0D01*
G01*
X197425000Y-50737500D01*
G75*
G02*
X197350000Y-50662500I0J75000D01*
G01*
X197350000Y-49337500D01*
G75*
G02*
X197425000Y-49262500I75000J0D01*
G01*
X197575000Y-49262500D01*
G75*
G02*
X197650000Y-49337500I0J-75000D01*
G01*
G37*
G36*
G01*
X198150000Y-49337500D02*
X198150000Y-50662500D01*
G75*
G02*
X198075000Y-50737500I-75000J0D01*
G01*
X197925000Y-50737500D01*
G75*
G02*
X197850000Y-50662500I0J75000D01*
G01*
X197850000Y-49337500D01*
G75*
G02*
X197925000Y-49262500I75000J0D01*
G01*
X198075000Y-49262500D01*
G75*
G02*
X198150000Y-49337500I0J-75000D01*
G01*
G37*
G36*
G01*
X198650000Y-49337500D02*
X198650000Y-50662500D01*
G75*
G02*
X198575000Y-50737500I-75000J0D01*
G01*
X198425000Y-50737500D01*
G75*
G02*
X198350000Y-50662500I0J75000D01*
G01*
X198350000Y-49337500D01*
G75*
G02*
X198425000Y-49262500I75000J0D01*
G01*
X198575000Y-49262500D01*
G75*
G02*
X198650000Y-49337500I0J-75000D01*
G01*
G37*
G36*
G01*
X199150000Y-49337500D02*
X199150000Y-50662500D01*
G75*
G02*
X199075000Y-50737500I-75000J0D01*
G01*
X198925000Y-50737500D01*
G75*
G02*
X198850000Y-50662500I0J75000D01*
G01*
X198850000Y-49337500D01*
G75*
G02*
X198925000Y-49262500I75000J0D01*
G01*
X199075000Y-49262500D01*
G75*
G02*
X199150000Y-49337500I0J-75000D01*
G01*
G37*
G36*
G01*
X199650000Y-49337500D02*
X199650000Y-50662500D01*
G75*
G02*
X199575000Y-50737500I-75000J0D01*
G01*
X199425000Y-50737500D01*
G75*
G02*
X199350000Y-50662500I0J75000D01*
G01*
X199350000Y-49337500D01*
G75*
G02*
X199425000Y-49262500I75000J0D01*
G01*
X199575000Y-49262500D01*
G75*
G02*
X199650000Y-49337500I0J-75000D01*
G01*
G37*
G36*
G01*
X200150000Y-49337500D02*
X200150000Y-50662500D01*
G75*
G02*
X200075000Y-50737500I-75000J0D01*
G01*
X199925000Y-50737500D01*
G75*
G02*
X199850000Y-50662500I0J75000D01*
G01*
X199850000Y-49337500D01*
G75*
G02*
X199925000Y-49262500I75000J0D01*
G01*
X200075000Y-49262500D01*
G75*
G02*
X200150000Y-49337500I0J-75000D01*
G01*
G37*
G36*
G01*
X200650000Y-49337500D02*
X200650000Y-50662500D01*
G75*
G02*
X200575000Y-50737500I-75000J0D01*
G01*
X200425000Y-50737500D01*
G75*
G02*
X200350000Y-50662500I0J75000D01*
G01*
X200350000Y-49337500D01*
G75*
G02*
X200425000Y-49262500I75000J0D01*
G01*
X200575000Y-49262500D01*
G75*
G02*
X200650000Y-49337500I0J-75000D01*
G01*
G37*
G36*
G01*
X201150000Y-49337500D02*
X201150000Y-50662500D01*
G75*
G02*
X201075000Y-50737500I-75000J0D01*
G01*
X200925000Y-50737500D01*
G75*
G02*
X200850000Y-50662500I0J75000D01*
G01*
X200850000Y-49337500D01*
G75*
G02*
X200925000Y-49262500I75000J0D01*
G01*
X201075000Y-49262500D01*
G75*
G02*
X201150000Y-49337500I0J-75000D01*
G01*
G37*
G36*
G01*
X201650000Y-49337500D02*
X201650000Y-50662500D01*
G75*
G02*
X201575000Y-50737500I-75000J0D01*
G01*
X201425000Y-50737500D01*
G75*
G02*
X201350000Y-50662500I0J75000D01*
G01*
X201350000Y-49337500D01*
G75*
G02*
X201425000Y-49262500I75000J0D01*
G01*
X201575000Y-49262500D01*
G75*
G02*
X201650000Y-49337500I0J-75000D01*
G01*
G37*
G36*
G01*
X202150000Y-49337500D02*
X202150000Y-50662500D01*
G75*
G02*
X202075000Y-50737500I-75000J0D01*
G01*
X201925000Y-50737500D01*
G75*
G02*
X201850000Y-50662500I0J75000D01*
G01*
X201850000Y-49337500D01*
G75*
G02*
X201925000Y-49262500I75000J0D01*
G01*
X202075000Y-49262500D01*
G75*
G02*
X202150000Y-49337500I0J-75000D01*
G01*
G37*
G36*
G01*
X204150000Y-51337500D02*
X204150000Y-51487500D01*
G75*
G02*
X204075000Y-51562500I-75000J0D01*
G01*
X202750000Y-51562500D01*
G75*
G02*
X202675000Y-51487500I0J75000D01*
G01*
X202675000Y-51337500D01*
G75*
G02*
X202750000Y-51262500I75000J0D01*
G01*
X204075000Y-51262500D01*
G75*
G02*
X204150000Y-51337500I0J-75000D01*
G01*
G37*
G36*
G01*
X204150000Y-51837500D02*
X204150000Y-51987500D01*
G75*
G02*
X204075000Y-52062500I-75000J0D01*
G01*
X202750000Y-52062500D01*
G75*
G02*
X202675000Y-51987500I0J75000D01*
G01*
X202675000Y-51837500D01*
G75*
G02*
X202750000Y-51762500I75000J0D01*
G01*
X204075000Y-51762500D01*
G75*
G02*
X204150000Y-51837500I0J-75000D01*
G01*
G37*
G36*
G01*
X204150000Y-52337500D02*
X204150000Y-52487500D01*
G75*
G02*
X204075000Y-52562500I-75000J0D01*
G01*
X202750000Y-52562500D01*
G75*
G02*
X202675000Y-52487500I0J75000D01*
G01*
X202675000Y-52337500D01*
G75*
G02*
X202750000Y-52262500I75000J0D01*
G01*
X204075000Y-52262500D01*
G75*
G02*
X204150000Y-52337500I0J-75000D01*
G01*
G37*
G36*
G01*
X204150000Y-52837500D02*
X204150000Y-52987500D01*
G75*
G02*
X204075000Y-53062500I-75000J0D01*
G01*
X202750000Y-53062500D01*
G75*
G02*
X202675000Y-52987500I0J75000D01*
G01*
X202675000Y-52837500D01*
G75*
G02*
X202750000Y-52762500I75000J0D01*
G01*
X204075000Y-52762500D01*
G75*
G02*
X204150000Y-52837500I0J-75000D01*
G01*
G37*
G36*
G01*
X204150000Y-53337500D02*
X204150000Y-53487500D01*
G75*
G02*
X204075000Y-53562500I-75000J0D01*
G01*
X202750000Y-53562500D01*
G75*
G02*
X202675000Y-53487500I0J75000D01*
G01*
X202675000Y-53337500D01*
G75*
G02*
X202750000Y-53262500I75000J0D01*
G01*
X204075000Y-53262500D01*
G75*
G02*
X204150000Y-53337500I0J-75000D01*
G01*
G37*
G36*
G01*
X204150000Y-53837500D02*
X204150000Y-53987500D01*
G75*
G02*
X204075000Y-54062500I-75000J0D01*
G01*
X202750000Y-54062500D01*
G75*
G02*
X202675000Y-53987500I0J75000D01*
G01*
X202675000Y-53837500D01*
G75*
G02*
X202750000Y-53762500I75000J0D01*
G01*
X204075000Y-53762500D01*
G75*
G02*
X204150000Y-53837500I0J-75000D01*
G01*
G37*
G36*
G01*
X204150000Y-54337500D02*
X204150000Y-54487500D01*
G75*
G02*
X204075000Y-54562500I-75000J0D01*
G01*
X202750000Y-54562500D01*
G75*
G02*
X202675000Y-54487500I0J75000D01*
G01*
X202675000Y-54337500D01*
G75*
G02*
X202750000Y-54262500I75000J0D01*
G01*
X204075000Y-54262500D01*
G75*
G02*
X204150000Y-54337500I0J-75000D01*
G01*
G37*
G36*
G01*
X204150000Y-54837500D02*
X204150000Y-54987500D01*
G75*
G02*
X204075000Y-55062500I-75000J0D01*
G01*
X202750000Y-55062500D01*
G75*
G02*
X202675000Y-54987500I0J75000D01*
G01*
X202675000Y-54837500D01*
G75*
G02*
X202750000Y-54762500I75000J0D01*
G01*
X204075000Y-54762500D01*
G75*
G02*
X204150000Y-54837500I0J-75000D01*
G01*
G37*
G36*
G01*
X204150000Y-55337500D02*
X204150000Y-55487500D01*
G75*
G02*
X204075000Y-55562500I-75000J0D01*
G01*
X202750000Y-55562500D01*
G75*
G02*
X202675000Y-55487500I0J75000D01*
G01*
X202675000Y-55337500D01*
G75*
G02*
X202750000Y-55262500I75000J0D01*
G01*
X204075000Y-55262500D01*
G75*
G02*
X204150000Y-55337500I0J-75000D01*
G01*
G37*
G36*
G01*
X204150000Y-55837500D02*
X204150000Y-55987500D01*
G75*
G02*
X204075000Y-56062500I-75000J0D01*
G01*
X202750000Y-56062500D01*
G75*
G02*
X202675000Y-55987500I0J75000D01*
G01*
X202675000Y-55837500D01*
G75*
G02*
X202750000Y-55762500I75000J0D01*
G01*
X204075000Y-55762500D01*
G75*
G02*
X204150000Y-55837500I0J-75000D01*
G01*
G37*
G36*
G01*
X204150000Y-56337500D02*
X204150000Y-56487500D01*
G75*
G02*
X204075000Y-56562500I-75000J0D01*
G01*
X202750000Y-56562500D01*
G75*
G02*
X202675000Y-56487500I0J75000D01*
G01*
X202675000Y-56337500D01*
G75*
G02*
X202750000Y-56262500I75000J0D01*
G01*
X204075000Y-56262500D01*
G75*
G02*
X204150000Y-56337500I0J-75000D01*
G01*
G37*
G36*
G01*
X204150000Y-56837500D02*
X204150000Y-56987500D01*
G75*
G02*
X204075000Y-57062500I-75000J0D01*
G01*
X202750000Y-57062500D01*
G75*
G02*
X202675000Y-56987500I0J75000D01*
G01*
X202675000Y-56837500D01*
G75*
G02*
X202750000Y-56762500I75000J0D01*
G01*
X204075000Y-56762500D01*
G75*
G02*
X204150000Y-56837500I0J-75000D01*
G01*
G37*
G36*
G01*
X210750000Y-33995000D02*
X210750000Y-33695000D01*
G75*
G02*
X210900000Y-33545000I150000J0D01*
G01*
X212550000Y-33545000D01*
G75*
G02*
X212700000Y-33695000I0J-150000D01*
G01*
X212700000Y-33995000D01*
G75*
G02*
X212550000Y-34145000I-150000J0D01*
G01*
X210900000Y-34145000D01*
G75*
G02*
X210750000Y-33995000I0J150000D01*
G01*
G37*
G36*
G01*
X210750000Y-35265000D02*
X210750000Y-34965000D01*
G75*
G02*
X210900000Y-34815000I150000J0D01*
G01*
X212550000Y-34815000D01*
G75*
G02*
X212700000Y-34965000I0J-150000D01*
G01*
X212700000Y-35265000D01*
G75*
G02*
X212550000Y-35415000I-150000J0D01*
G01*
X210900000Y-35415000D01*
G75*
G02*
X210750000Y-35265000I0J150000D01*
G01*
G37*
G36*
G01*
X210750000Y-36535000D02*
X210750000Y-36235000D01*
G75*
G02*
X210900000Y-36085000I150000J0D01*
G01*
X212550000Y-36085000D01*
G75*
G02*
X212700000Y-36235000I0J-150000D01*
G01*
X212700000Y-36535000D01*
G75*
G02*
X212550000Y-36685000I-150000J0D01*
G01*
X210900000Y-36685000D01*
G75*
G02*
X210750000Y-36535000I0J150000D01*
G01*
G37*
G36*
G01*
X210750000Y-37805000D02*
X210750000Y-37505000D01*
G75*
G02*
X210900000Y-37355000I150000J0D01*
G01*
X212550000Y-37355000D01*
G75*
G02*
X212700000Y-37505000I0J-150000D01*
G01*
X212700000Y-37805000D01*
G75*
G02*
X212550000Y-37955000I-150000J0D01*
G01*
X210900000Y-37955000D01*
G75*
G02*
X210750000Y-37805000I0J150000D01*
G01*
G37*
G36*
G01*
X205800000Y-37805000D02*
X205800000Y-37505000D01*
G75*
G02*
X205950000Y-37355000I150000J0D01*
G01*
X207600000Y-37355000D01*
G75*
G02*
X207750000Y-37505000I0J-150000D01*
G01*
X207750000Y-37805000D01*
G75*
G02*
X207600000Y-37955000I-150000J0D01*
G01*
X205950000Y-37955000D01*
G75*
G02*
X205800000Y-37805000I0J150000D01*
G01*
G37*
G36*
G01*
X205800000Y-36535000D02*
X205800000Y-36235000D01*
G75*
G02*
X205950000Y-36085000I150000J0D01*
G01*
X207600000Y-36085000D01*
G75*
G02*
X207750000Y-36235000I0J-150000D01*
G01*
X207750000Y-36535000D01*
G75*
G02*
X207600000Y-36685000I-150000J0D01*
G01*
X205950000Y-36685000D01*
G75*
G02*
X205800000Y-36535000I0J150000D01*
G01*
G37*
G36*
G01*
X205800000Y-35265000D02*
X205800000Y-34965000D01*
G75*
G02*
X205950000Y-34815000I150000J0D01*
G01*
X207600000Y-34815000D01*
G75*
G02*
X207750000Y-34965000I0J-150000D01*
G01*
X207750000Y-35265000D01*
G75*
G02*
X207600000Y-35415000I-150000J0D01*
G01*
X205950000Y-35415000D01*
G75*
G02*
X205800000Y-35265000I0J150000D01*
G01*
G37*
G36*
G01*
X205800000Y-33995000D02*
X205800000Y-33695000D01*
G75*
G02*
X205950000Y-33545000I150000J0D01*
G01*
X207600000Y-33545000D01*
G75*
G02*
X207750000Y-33695000I0J-150000D01*
G01*
X207750000Y-33995000D01*
G75*
G02*
X207600000Y-34145000I-150000J0D01*
G01*
X205950000Y-34145000D01*
G75*
G02*
X205800000Y-33995000I0J150000D01*
G01*
G37*
D16*
X168920000Y-36720000D03*
X171460000Y-36720000D03*
X174000000Y-36720000D03*
X176540000Y-36720000D03*
X179080000Y-36720000D03*
X179080000Y-51960000D03*
X176540000Y-51960000D03*
X174000000Y-51960000D03*
X171460000Y-51960000D03*
X168920000Y-51960000D03*
D17*
G36*
X156116500Y-49950000D02*
G01*
X156116500Y-53075000D01*
X155700000Y-53075000D01*
X155700000Y-54550000D01*
X154800000Y-54550000D01*
X154800000Y-53075000D01*
X154383500Y-53075000D01*
X154383500Y-49950000D01*
X156116500Y-49950000D01*
G37*
D18*
X156750000Y-53900000D03*
X153750000Y-53900000D03*
G36*
G01*
X181000000Y-66995000D02*
X181000000Y-66695000D01*
G75*
G02*
X181150000Y-66545000I150000J0D01*
G01*
X182800000Y-66545000D01*
G75*
G02*
X182950000Y-66695000I0J-150000D01*
G01*
X182950000Y-66995000D01*
G75*
G02*
X182800000Y-67145000I-150000J0D01*
G01*
X181150000Y-67145000D01*
G75*
G02*
X181000000Y-66995000I0J150000D01*
G01*
G37*
G36*
G01*
X181000000Y-68265000D02*
X181000000Y-67965000D01*
G75*
G02*
X181150000Y-67815000I150000J0D01*
G01*
X182800000Y-67815000D01*
G75*
G02*
X182950000Y-67965000I0J-150000D01*
G01*
X182950000Y-68265000D01*
G75*
G02*
X182800000Y-68415000I-150000J0D01*
G01*
X181150000Y-68415000D01*
G75*
G02*
X181000000Y-68265000I0J150000D01*
G01*
G37*
G36*
G01*
X181000000Y-69535000D02*
X181000000Y-69235000D01*
G75*
G02*
X181150000Y-69085000I150000J0D01*
G01*
X182800000Y-69085000D01*
G75*
G02*
X182950000Y-69235000I0J-150000D01*
G01*
X182950000Y-69535000D01*
G75*
G02*
X182800000Y-69685000I-150000J0D01*
G01*
X181150000Y-69685000D01*
G75*
G02*
X181000000Y-69535000I0J150000D01*
G01*
G37*
G36*
G01*
X181000000Y-70805000D02*
X181000000Y-70505000D01*
G75*
G02*
X181150000Y-70355000I150000J0D01*
G01*
X182800000Y-70355000D01*
G75*
G02*
X182950000Y-70505000I0J-150000D01*
G01*
X182950000Y-70805000D01*
G75*
G02*
X182800000Y-70955000I-150000J0D01*
G01*
X181150000Y-70955000D01*
G75*
G02*
X181000000Y-70805000I0J150000D01*
G01*
G37*
G36*
G01*
X176050000Y-70805000D02*
X176050000Y-70505000D01*
G75*
G02*
X176200000Y-70355000I150000J0D01*
G01*
X177850000Y-70355000D01*
G75*
G02*
X178000000Y-70505000I0J-150000D01*
G01*
X178000000Y-70805000D01*
G75*
G02*
X177850000Y-70955000I-150000J0D01*
G01*
X176200000Y-70955000D01*
G75*
G02*
X176050000Y-70805000I0J150000D01*
G01*
G37*
G36*
G01*
X176050000Y-69535000D02*
X176050000Y-69235000D01*
G75*
G02*
X176200000Y-69085000I150000J0D01*
G01*
X177850000Y-69085000D01*
G75*
G02*
X178000000Y-69235000I0J-150000D01*
G01*
X178000000Y-69535000D01*
G75*
G02*
X177850000Y-69685000I-150000J0D01*
G01*
X176200000Y-69685000D01*
G75*
G02*
X176050000Y-69535000I0J150000D01*
G01*
G37*
G36*
G01*
X176050000Y-68265000D02*
X176050000Y-67965000D01*
G75*
G02*
X176200000Y-67815000I150000J0D01*
G01*
X177850000Y-67815000D01*
G75*
G02*
X178000000Y-67965000I0J-150000D01*
G01*
X178000000Y-68265000D01*
G75*
G02*
X177850000Y-68415000I-150000J0D01*
G01*
X176200000Y-68415000D01*
G75*
G02*
X176050000Y-68265000I0J150000D01*
G01*
G37*
G36*
G01*
X176050000Y-66995000D02*
X176050000Y-66695000D01*
G75*
G02*
X176200000Y-66545000I150000J0D01*
G01*
X177850000Y-66545000D01*
G75*
G02*
X178000000Y-66695000I0J-150000D01*
G01*
X178000000Y-66995000D01*
G75*
G02*
X177850000Y-67145000I-150000J0D01*
G01*
X176200000Y-67145000D01*
G75*
G02*
X176050000Y-66995000I0J150000D01*
G01*
G37*
G36*
G01*
X186100000Y-67549999D02*
X186100000Y-68450001D01*
G75*
G02*
X185850001Y-68700000I-249999J0D01*
G01*
X185149999Y-68700000D01*
G75*
G02*
X184900000Y-68450001I0J249999D01*
G01*
X184900000Y-67549999D01*
G75*
G02*
X185149999Y-67300000I249999J0D01*
G01*
X185850001Y-67300000D01*
G75*
G02*
X186100000Y-67549999I0J-249999D01*
G01*
G37*
G36*
G01*
X188100000Y-67549999D02*
X188100000Y-68450001D01*
G75*
G02*
X187850001Y-68700000I-249999J0D01*
G01*
X187149999Y-68700000D01*
G75*
G02*
X186900000Y-68450001I0J249999D01*
G01*
X186900000Y-67549999D01*
G75*
G02*
X187149999Y-67300000I249999J0D01*
G01*
X187850001Y-67300000D01*
G75*
G02*
X188100000Y-67549999I0J-249999D01*
G01*
G37*
G36*
G01*
X186900000Y-71950001D02*
X186900000Y-71049999D01*
G75*
G02*
X187149999Y-70800000I249999J0D01*
G01*
X187850001Y-70800000D01*
G75*
G02*
X188100000Y-71049999I0J-249999D01*
G01*
X188100000Y-71950001D01*
G75*
G02*
X187850001Y-72200000I-249999J0D01*
G01*
X187149999Y-72200000D01*
G75*
G02*
X186900000Y-71950001I0J249999D01*
G01*
G37*
G36*
G01*
X184900000Y-71950001D02*
X184900000Y-71049999D01*
G75*
G02*
X185149999Y-70800000I249999J0D01*
G01*
X185850001Y-70800000D01*
G75*
G02*
X186100000Y-71049999I0J-249999D01*
G01*
X186100000Y-71950001D01*
G75*
G02*
X185850001Y-72200000I-249999J0D01*
G01*
X185149999Y-72200000D01*
G75*
G02*
X184900000Y-71950001I0J249999D01*
G01*
G37*
G36*
G01*
X187400000Y-32200001D02*
X187400000Y-31299999D01*
G75*
G02*
X187649999Y-31050000I249999J0D01*
G01*
X188350001Y-31050000D01*
G75*
G02*
X188600000Y-31299999I0J-249999D01*
G01*
X188600000Y-32200001D01*
G75*
G02*
X188350001Y-32450000I-249999J0D01*
G01*
X187649999Y-32450000D01*
G75*
G02*
X187400000Y-32200001I0J249999D01*
G01*
G37*
G36*
G01*
X185400000Y-32200001D02*
X185400000Y-31299999D01*
G75*
G02*
X185649999Y-31050000I249999J0D01*
G01*
X186350001Y-31050000D01*
G75*
G02*
X186600000Y-31299999I0J-249999D01*
G01*
X186600000Y-32200001D01*
G75*
G02*
X186350001Y-32450000I-249999J0D01*
G01*
X185649999Y-32450000D01*
G75*
G02*
X185400000Y-32200001I0J249999D01*
G01*
G37*
G36*
G01*
X176660000Y-32200001D02*
X176660000Y-31299999D01*
G75*
G02*
X176909999Y-31050000I249999J0D01*
G01*
X177610001Y-31050000D01*
G75*
G02*
X177860000Y-31299999I0J-249999D01*
G01*
X177860000Y-32200001D01*
G75*
G02*
X177610001Y-32450000I-249999J0D01*
G01*
X176909999Y-32450000D01*
G75*
G02*
X176660000Y-32200001I0J249999D01*
G01*
G37*
G36*
G01*
X174660000Y-32200001D02*
X174660000Y-31299999D01*
G75*
G02*
X174909999Y-31050000I249999J0D01*
G01*
X175610001Y-31050000D01*
G75*
G02*
X175860000Y-31299999I0J-249999D01*
G01*
X175860000Y-32200001D01*
G75*
G02*
X175610001Y-32450000I-249999J0D01*
G01*
X174909999Y-32450000D01*
G75*
G02*
X174660000Y-32200001I0J249999D01*
G01*
G37*
G36*
G01*
X195100000Y-61799999D02*
X195100000Y-62700001D01*
G75*
G02*
X194850001Y-62950000I-249999J0D01*
G01*
X194149999Y-62950000D01*
G75*
G02*
X193900000Y-62700001I0J249999D01*
G01*
X193900000Y-61799999D01*
G75*
G02*
X194149999Y-61550000I249999J0D01*
G01*
X194850001Y-61550000D01*
G75*
G02*
X195100000Y-61799999I0J-249999D01*
G01*
G37*
G36*
G01*
X197100000Y-61799999D02*
X197100000Y-62700001D01*
G75*
G02*
X196850001Y-62950000I-249999J0D01*
G01*
X196149999Y-62950000D01*
G75*
G02*
X195900000Y-62700001I0J249999D01*
G01*
X195900000Y-61799999D01*
G75*
G02*
X196149999Y-61550000I249999J0D01*
G01*
X196850001Y-61550000D01*
G75*
G02*
X197100000Y-61799999I0J-249999D01*
G01*
G37*
D19*
X189250000Y-61000000D03*
X186250000Y-61000000D03*
G36*
G01*
X182400000Y-61450001D02*
X182400000Y-60549999D01*
G75*
G02*
X182649999Y-60300000I249999J0D01*
G01*
X183350001Y-60300000D01*
G75*
G02*
X183600000Y-60549999I0J-249999D01*
G01*
X183600000Y-61450001D01*
G75*
G02*
X183350001Y-61700000I-249999J0D01*
G01*
X182649999Y-61700000D01*
G75*
G02*
X182400000Y-61450001I0J249999D01*
G01*
G37*
G36*
G01*
X180400000Y-61450001D02*
X180400000Y-60549999D01*
G75*
G02*
X180649999Y-60300000I249999J0D01*
G01*
X181350001Y-60300000D01*
G75*
G02*
X181600000Y-60549999I0J-249999D01*
G01*
X181600000Y-61450001D01*
G75*
G02*
X181350001Y-61700000I-249999J0D01*
G01*
X180649999Y-61700000D01*
G75*
G02*
X180400000Y-61450001I0J249999D01*
G01*
G37*
D20*
X181250000Y-31800000D03*
X183250000Y-30850000D03*
X183250000Y-32750000D03*
X170450000Y-31750000D03*
X172450000Y-30800000D03*
X172450000Y-32700000D03*
D17*
G36*
X196000000Y-66750602D02*
G01*
X196024534Y-66750602D01*
X196073365Y-66755412D01*
X196121490Y-66764984D01*
X196168445Y-66779228D01*
X196213778Y-66798005D01*
X196257051Y-66821136D01*
X196297850Y-66848396D01*
X196335779Y-66879524D01*
X196370476Y-66914221D01*
X196401604Y-66952150D01*
X196428864Y-66992949D01*
X196451995Y-67036222D01*
X196470772Y-67081555D01*
X196485016Y-67128510D01*
X196494588Y-67176635D01*
X196499398Y-67225466D01*
X196499398Y-67250000D01*
X196500000Y-67250000D01*
X196500000Y-67750000D01*
X196499398Y-67750000D01*
X196499398Y-67774534D01*
X196494588Y-67823365D01*
X196485016Y-67871490D01*
X196470772Y-67918445D01*
X196451995Y-67963778D01*
X196428864Y-68007051D01*
X196401604Y-68047850D01*
X196370476Y-68085779D01*
X196335779Y-68120476D01*
X196297850Y-68151604D01*
X196257051Y-68178864D01*
X196213778Y-68201995D01*
X196168445Y-68220772D01*
X196121490Y-68235016D01*
X196073365Y-68244588D01*
X196024534Y-68249398D01*
X196000000Y-68249398D01*
X196000000Y-68250000D01*
X195500000Y-68250000D01*
X195500000Y-66750000D01*
X196000000Y-66750000D01*
X196000000Y-66750602D01*
G37*
G36*
X195200000Y-68250000D02*
G01*
X194700000Y-68250000D01*
X194700000Y-68249398D01*
X194675466Y-68249398D01*
X194626635Y-68244588D01*
X194578510Y-68235016D01*
X194531555Y-68220772D01*
X194486222Y-68201995D01*
X194442949Y-68178864D01*
X194402150Y-68151604D01*
X194364221Y-68120476D01*
X194329524Y-68085779D01*
X194298396Y-68047850D01*
X194271136Y-68007051D01*
X194248005Y-67963778D01*
X194229228Y-67918445D01*
X194214984Y-67871490D01*
X194205412Y-67823365D01*
X194200602Y-67774534D01*
X194200602Y-67750000D01*
X194200000Y-67750000D01*
X194200000Y-67250000D01*
X194200602Y-67250000D01*
X194200602Y-67225466D01*
X194205412Y-67176635D01*
X194214984Y-67128510D01*
X194229228Y-67081555D01*
X194248005Y-67036222D01*
X194271136Y-66992949D01*
X194298396Y-66952150D01*
X194329524Y-66914221D01*
X194364221Y-66879524D01*
X194402150Y-66848396D01*
X194442949Y-66821136D01*
X194486222Y-66798005D01*
X194531555Y-66779228D01*
X194578510Y-66764984D01*
X194626635Y-66755412D01*
X194675466Y-66750602D01*
X194700000Y-66750602D01*
X194700000Y-66750000D01*
X195200000Y-66750000D01*
X195200000Y-68250000D01*
G37*
D21*
X220000000Y-69000000D03*
X155000000Y-34000000D03*
X155000000Y-69000000D03*
X220000000Y-34000000D03*
G36*
G01*
X191037500Y-47849998D02*
X191037500Y-49150002D01*
G75*
G02*
X190787502Y-49400000I-249998J0D01*
G01*
X189962498Y-49400000D01*
G75*
G02*
X189712500Y-49150002I0J249998D01*
G01*
X189712500Y-47849998D01*
G75*
G02*
X189962498Y-47600000I249998J0D01*
G01*
X190787502Y-47600000D01*
G75*
G02*
X191037500Y-47849998I0J-249998D01*
G01*
G37*
G36*
G01*
X194162500Y-47849998D02*
X194162500Y-49150002D01*
G75*
G02*
X193912502Y-49400000I-249998J0D01*
G01*
X193087498Y-49400000D01*
G75*
G02*
X192837500Y-49150002I0J249998D01*
G01*
X192837500Y-47849998D01*
G75*
G02*
X193087498Y-47600000I249998J0D01*
G01*
X193912502Y-47600000D01*
G75*
G02*
X194162500Y-47849998I0J-249998D01*
G01*
G37*
G36*
G01*
X201349998Y-64462500D02*
X202650002Y-64462500D01*
G75*
G02*
X202900000Y-64712498I0J-249998D01*
G01*
X202900000Y-65537502D01*
G75*
G02*
X202650002Y-65787500I-249998J0D01*
G01*
X201349998Y-65787500D01*
G75*
G02*
X201100000Y-65537502I0J249998D01*
G01*
X201100000Y-64712498D01*
G75*
G02*
X201349998Y-64462500I249998J0D01*
G01*
G37*
G36*
G01*
X201349998Y-61337500D02*
X202650002Y-61337500D01*
G75*
G02*
X202900000Y-61587498I0J-249998D01*
G01*
X202900000Y-62412502D01*
G75*
G02*
X202650002Y-62662500I-249998J0D01*
G01*
X201349998Y-62662500D01*
G75*
G02*
X201100000Y-62412502I0J249998D01*
G01*
X201100000Y-61587498D01*
G75*
G02*
X201349998Y-61337500I249998J0D01*
G01*
G37*
G36*
G01*
X205650002Y-46037500D02*
X204349998Y-46037500D01*
G75*
G02*
X204100000Y-45787502I0J249998D01*
G01*
X204100000Y-44962498D01*
G75*
G02*
X204349998Y-44712500I249998J0D01*
G01*
X205650002Y-44712500D01*
G75*
G02*
X205900000Y-44962498I0J-249998D01*
G01*
X205900000Y-45787502D01*
G75*
G02*
X205650002Y-46037500I-249998J0D01*
G01*
G37*
G36*
G01*
X205650002Y-49162500D02*
X204349998Y-49162500D01*
G75*
G02*
X204100000Y-48912502I0J249998D01*
G01*
X204100000Y-48087498D01*
G75*
G02*
X204349998Y-47837500I249998J0D01*
G01*
X205650002Y-47837500D01*
G75*
G02*
X205900000Y-48087498I0J-249998D01*
G01*
X205900000Y-48912502D01*
G75*
G02*
X205650002Y-49162500I-249998J0D01*
G01*
G37*
G36*
G01*
X208787500Y-30599998D02*
X208787500Y-31900002D01*
G75*
G02*
X208537502Y-32150000I-249998J0D01*
G01*
X207712498Y-32150000D01*
G75*
G02*
X207462500Y-31900002I0J249998D01*
G01*
X207462500Y-30599998D01*
G75*
G02*
X207712498Y-30350000I249998J0D01*
G01*
X208537502Y-30350000D01*
G75*
G02*
X208787500Y-30599998I0J-249998D01*
G01*
G37*
G36*
G01*
X211912500Y-30599998D02*
X211912500Y-31900002D01*
G75*
G02*
X211662502Y-32150000I-249998J0D01*
G01*
X210837498Y-32150000D01*
G75*
G02*
X210587500Y-31900002I0J249998D01*
G01*
X210587500Y-30599998D01*
G75*
G02*
X210837498Y-30350000I249998J0D01*
G01*
X211662502Y-30350000D01*
G75*
G02*
X211912500Y-30599998I0J-249998D01*
G01*
G37*
G36*
G01*
X196600000Y-30349998D02*
X196600000Y-31650002D01*
G75*
G02*
X196350002Y-31900000I-249998J0D01*
G01*
X195524998Y-31900000D01*
G75*
G02*
X195275000Y-31650002I0J249998D01*
G01*
X195275000Y-30349998D01*
G75*
G02*
X195524998Y-30100000I249998J0D01*
G01*
X196350002Y-30100000D01*
G75*
G02*
X196600000Y-30349998I0J-249998D01*
G01*
G37*
G36*
G01*
X199725000Y-30349998D02*
X199725000Y-31650002D01*
G75*
G02*
X199475002Y-31900000I-249998J0D01*
G01*
X198649998Y-31900000D01*
G75*
G02*
X198400000Y-31650002I0J249998D01*
G01*
X198400000Y-30349998D01*
G75*
G02*
X198649998Y-30100000I249998J0D01*
G01*
X199475002Y-30100000D01*
G75*
G02*
X199725000Y-30349998I0J-249998D01*
G01*
G37*
G36*
G01*
X154350000Y-60849998D02*
X154350000Y-62150002D01*
G75*
G02*
X154100002Y-62400000I-249998J0D01*
G01*
X153274998Y-62400000D01*
G75*
G02*
X153025000Y-62150002I0J249998D01*
G01*
X153025000Y-60849998D01*
G75*
G02*
X153274998Y-60600000I249998J0D01*
G01*
X154100002Y-60600000D01*
G75*
G02*
X154350000Y-60849998I0J-249998D01*
G01*
G37*
G36*
G01*
X157475000Y-60849998D02*
X157475000Y-62150002D01*
G75*
G02*
X157225002Y-62400000I-249998J0D01*
G01*
X156399998Y-62400000D01*
G75*
G02*
X156150000Y-62150002I0J249998D01*
G01*
X156150000Y-60849998D01*
G75*
G02*
X156399998Y-60600000I249998J0D01*
G01*
X157225002Y-60600000D01*
G75*
G02*
X157475000Y-60849998I0J-249998D01*
G01*
G37*
G36*
G01*
X154350000Y-57349998D02*
X154350000Y-58650002D01*
G75*
G02*
X154100002Y-58900000I-249998J0D01*
G01*
X153274998Y-58900000D01*
G75*
G02*
X153025000Y-58650002I0J249998D01*
G01*
X153025000Y-57349998D01*
G75*
G02*
X153274998Y-57100000I249998J0D01*
G01*
X154100002Y-57100000D01*
G75*
G02*
X154350000Y-57349998I0J-249998D01*
G01*
G37*
G36*
G01*
X157475000Y-57349998D02*
X157475000Y-58650002D01*
G75*
G02*
X157225002Y-58900000I-249998J0D01*
G01*
X156399998Y-58900000D01*
G75*
G02*
X156150000Y-58650002I0J249998D01*
G01*
X156150000Y-57349998D01*
G75*
G02*
X156399998Y-57100000I249998J0D01*
G01*
X157225002Y-57100000D01*
G75*
G02*
X157475000Y-57349998I0J-249998D01*
G01*
G37*
G36*
G01*
X156212500Y-47650002D02*
X156212500Y-46349998D01*
G75*
G02*
X156462498Y-46100000I249998J0D01*
G01*
X157287502Y-46100000D01*
G75*
G02*
X157537500Y-46349998I0J-249998D01*
G01*
X157537500Y-47650002D01*
G75*
G02*
X157287502Y-47900000I-249998J0D01*
G01*
X156462498Y-47900000D01*
G75*
G02*
X156212500Y-47650002I0J249998D01*
G01*
G37*
G36*
G01*
X153087500Y-47650002D02*
X153087500Y-46349998D01*
G75*
G02*
X153337498Y-46100000I249998J0D01*
G01*
X154162502Y-46100000D01*
G75*
G02*
X154412500Y-46349998I0J-249998D01*
G01*
X154412500Y-47650002D01*
G75*
G02*
X154162502Y-47900000I-249998J0D01*
G01*
X153337498Y-47900000D01*
G75*
G02*
X153087500Y-47650002I0J249998D01*
G01*
G37*
G36*
G01*
X178537500Y-63349998D02*
X178537500Y-64650002D01*
G75*
G02*
X178287502Y-64900000I-249998J0D01*
G01*
X177462498Y-64900000D01*
G75*
G02*
X177212500Y-64650002I0J249998D01*
G01*
X177212500Y-63349998D01*
G75*
G02*
X177462498Y-63100000I249998J0D01*
G01*
X178287502Y-63100000D01*
G75*
G02*
X178537500Y-63349998I0J-249998D01*
G01*
G37*
G36*
G01*
X181662500Y-63349998D02*
X181662500Y-64650002D01*
G75*
G02*
X181412502Y-64900000I-249998J0D01*
G01*
X180587498Y-64900000D01*
G75*
G02*
X180337500Y-64650002I0J249998D01*
G01*
X180337500Y-63349998D01*
G75*
G02*
X180587498Y-63100000I249998J0D01*
G01*
X181412502Y-63100000D01*
G75*
G02*
X181662500Y-63349998I0J-249998D01*
G01*
G37*
D11*
X156790000Y-41000000D03*
D12*
X154250000Y-41000000D03*
M02*
