G04 #@! TF.GenerationSoftware,KiCad,Pcbnew,(5.1.10)-1*
G04 #@! TF.CreationDate,2022-05-27T17:28:41+02:00*
G04 #@! TF.ProjectId,pullup_counter_schematic,70756c6c-7570-45f6-936f-756e7465725f,1*
G04 #@! TF.SameCoordinates,Original*
G04 #@! TF.FileFunction,Copper,L2,Bot*
G04 #@! TF.FilePolarity,Positive*
%FSLAX46Y46*%
G04 Gerber Fmt 4.6, Leading zero omitted, Abs format (unit mm)*
G04 Created by KiCad (PCBNEW (5.1.10)-1) date 2022-05-27 17:28:41*
%MOMM*%
%LPD*%
G01*
G04 APERTURE LIST*
G04 #@! TA.AperFunction,ComponentPad*
%ADD10C,1.524000*%
G04 #@! TD*
G04 #@! TA.AperFunction,ComponentPad*
%ADD11C,1.500000*%
G04 #@! TD*
G04 #@! TA.AperFunction,ComponentPad*
%ADD12C,1.700000*%
G04 #@! TD*
G04 #@! TA.AperFunction,ComponentPad*
%ADD13O,1.550000X0.890000*%
G04 #@! TD*
G04 #@! TA.AperFunction,ComponentPad*
%ADD14O,0.950000X1.250000*%
G04 #@! TD*
G04 #@! TA.AperFunction,ComponentPad*
%ADD15C,2.000000*%
G04 #@! TD*
G04 #@! TA.AperFunction,ViaPad*
%ADD16C,0.600000*%
G04 #@! TD*
G04 #@! TA.AperFunction,ViaPad*
%ADD17C,0.900000*%
G04 #@! TD*
G04 #@! TA.AperFunction,Conductor*
%ADD18C,0.300000*%
G04 #@! TD*
G04 #@! TA.AperFunction,Conductor*
%ADD19C,0.150000*%
G04 #@! TD*
G04 #@! TA.AperFunction,Conductor*
%ADD20C,0.600000*%
G04 #@! TD*
G04 #@! TA.AperFunction,Conductor*
%ADD21C,0.254000*%
G04 #@! TD*
G04 #@! TA.AperFunction,Conductor*
%ADD22C,0.152400*%
G04 #@! TD*
G04 APERTURE END LIST*
G04 #@! TA.AperFunction,SMDPad,CuDef*
G36*
G01*
X165515000Y-94270000D02*
X165515000Y-91730000D01*
G75*
G02*
X166785000Y-90460000I1270000J0D01*
G01*
X171865000Y-90460000D01*
G75*
G02*
X173135000Y-91730000I0J-1270000D01*
G01*
X173135000Y-94270000D01*
G75*
G02*
X171865000Y-95540000I-1270000J0D01*
G01*
X166785000Y-95540000D01*
G75*
G02*
X165515000Y-94270000I0J1270000D01*
G01*
G37*
G04 #@! TD.AperFunction*
G04 #@! TA.AperFunction,SMDPad,CuDef*
G36*
G01*
X107095000Y-94270000D02*
X107095000Y-91730000D01*
G75*
G02*
X108365000Y-90460000I1270000J0D01*
G01*
X113445000Y-90460000D01*
G75*
G02*
X114715000Y-91730000I0J-1270000D01*
G01*
X114715000Y-94270000D01*
G75*
G02*
X113445000Y-95540000I-1270000J0D01*
G01*
X108365000Y-95540000D01*
G75*
G02*
X107095000Y-94270000I0J1270000D01*
G01*
G37*
G04 #@! TD.AperFunction*
D10*
X148420000Y-53000000D03*
X150960000Y-53000000D03*
X153500000Y-53000000D03*
X156040000Y-53000000D03*
X158580000Y-53000000D03*
X158580000Y-68240000D03*
X156040000Y-68240000D03*
X153500000Y-68240000D03*
X150960000Y-68240000D03*
X148420000Y-68240000D03*
D11*
X143000000Y-76000000D03*
X143000000Y-80880000D03*
D12*
X174740000Y-66080000D03*
X174740000Y-63540000D03*
X174740000Y-61000000D03*
X172200000Y-66080000D03*
X172200000Y-63540000D03*
G04 #@! TA.AperFunction,ComponentPad*
G36*
G01*
X171350000Y-61600000D02*
X171350000Y-60400000D01*
G75*
G02*
X171600000Y-60150000I250000J0D01*
G01*
X172800000Y-60150000D01*
G75*
G02*
X173050000Y-60400000I0J-250000D01*
G01*
X173050000Y-61600000D01*
G75*
G02*
X172800000Y-61850000I-250000J0D01*
G01*
X171600000Y-61850000D01*
G75*
G02*
X171350000Y-61600000I0J250000D01*
G01*
G37*
G04 #@! TD.AperFunction*
D13*
X177550000Y-74500000D03*
X177550000Y-81500000D03*
D14*
X174850000Y-75500000D03*
X174850000Y-80500000D03*
D15*
X107237080Y-54237080D03*
X121379215Y-68379215D03*
G04 #@! TA.AperFunction,SMDPad,CuDef*
G36*
G01*
X114485000Y-41230000D02*
X114485000Y-43770000D01*
G75*
G02*
X113215000Y-45040000I-1270000J0D01*
G01*
X108135000Y-45040000D01*
G75*
G02*
X106865000Y-43770000I0J1270000D01*
G01*
X106865000Y-41230000D01*
G75*
G02*
X108135000Y-39960000I1270000J0D01*
G01*
X113215000Y-39960000D01*
G75*
G02*
X114485000Y-41230000I0J-1270000D01*
G01*
G37*
G04 #@! TD.AperFunction*
G04 #@! TA.AperFunction,SMDPad,CuDef*
G36*
G01*
X172905000Y-41230000D02*
X172905000Y-43770000D01*
G75*
G02*
X171635000Y-45040000I-1270000J0D01*
G01*
X166555000Y-45040000D01*
G75*
G02*
X165285000Y-43770000I0J1270000D01*
G01*
X165285000Y-41230000D01*
G75*
G02*
X166555000Y-39960000I1270000J0D01*
G01*
X171635000Y-39960000D01*
G75*
G02*
X172905000Y-41230000I0J-1270000D01*
G01*
G37*
G04 #@! TD.AperFunction*
D16*
X159000000Y-94750000D03*
X131500000Y-73500000D03*
X130000000Y-73500000D03*
X130000000Y-75000000D03*
X132500000Y-78000000D03*
X134000000Y-78000000D03*
X134000000Y-76500000D03*
X131500000Y-60500000D03*
X129000000Y-60500000D03*
X129000000Y-57000000D03*
X129000000Y-67000000D03*
X109000000Y-97500000D03*
X109500000Y-87500000D03*
X109250000Y-78000000D03*
X136500000Y-50000000D03*
X146500000Y-50500000D03*
X149500000Y-62000000D03*
X150000000Y-66000000D03*
X154500000Y-66000000D03*
X130000000Y-82500000D03*
X126000000Y-79000000D03*
X112000000Y-97500000D03*
X120000000Y-76000000D03*
X167000000Y-78000000D03*
X167500000Y-84000000D03*
X155000000Y-92250000D03*
X155000000Y-97000000D03*
X150750000Y-43000000D03*
X155250000Y-48250000D03*
X105000000Y-50000000D03*
X105000000Y-60000000D03*
X105000000Y-70000000D03*
X105000000Y-80000000D03*
X105000000Y-90000000D03*
X175000000Y-42500000D03*
X175000000Y-57500000D03*
X175000000Y-72500000D03*
X175000000Y-85000000D03*
X157500000Y-82500000D03*
X110750000Y-84000000D03*
X110500000Y-98250000D03*
X115000000Y-89500000D03*
X127250000Y-83750000D03*
X123000000Y-86000000D03*
X150750000Y-50250000D03*
X128750000Y-69000000D03*
X123250000Y-70000000D03*
X119000000Y-77000000D03*
X115000000Y-96000000D03*
X128500000Y-86000000D03*
X137750000Y-76675000D03*
X140500000Y-73925000D03*
X132500000Y-69750000D03*
X134500000Y-61000000D03*
X129250000Y-77750000D03*
X167250000Y-63750000D03*
X129250000Y-78550003D03*
X168000000Y-64500000D03*
D17*
X133750000Y-65000000D03*
X127000000Y-65000000D03*
X151750000Y-89000000D03*
X145250000Y-89000000D03*
X167500000Y-71250000D03*
D16*
X165500000Y-76500000D03*
X161000000Y-76500000D03*
X133400000Y-87350000D03*
X132175000Y-81750000D03*
X137750000Y-79500000D03*
X156000000Y-84500000D03*
X137350000Y-73300000D03*
X156200000Y-80000000D03*
X137300000Y-72400000D03*
X157100000Y-81300000D03*
X144250000Y-44750000D03*
X124500000Y-75575000D03*
X146750000Y-44750000D03*
X123334620Y-75584620D03*
X134250000Y-44750000D03*
X125750000Y-73250000D03*
X139250000Y-44750000D03*
X124585156Y-74400000D03*
X136750000Y-44750000D03*
X125184313Y-73825000D03*
X149250000Y-44750000D03*
X122768933Y-76150306D03*
X141750000Y-44750000D03*
X125250000Y-75000000D03*
X151000000Y-40750000D03*
X123500000Y-77075011D03*
X154750000Y-39500000D03*
X124250000Y-77650011D03*
X127250000Y-82949997D03*
X119750000Y-88500000D03*
X137750000Y-74000000D03*
X146000000Y-77500000D03*
X134000000Y-83000000D03*
X136000000Y-85000000D03*
X133250000Y-83500000D03*
X134750000Y-84750000D03*
X138500000Y-88399990D03*
X156250000Y-95500000D03*
D18*
X110905000Y-84155000D02*
X110750000Y-84000000D01*
X110905000Y-93000000D02*
X110905000Y-84155000D01*
X110500000Y-93405000D02*
X110905000Y-93000000D01*
X110500000Y-98250000D02*
X110500000Y-93405000D01*
X115000000Y-89500000D02*
X115000000Y-90250000D01*
X112250000Y-93000000D02*
X110905000Y-93000000D01*
X115000000Y-90250000D02*
X112250000Y-93000000D01*
D19*
X125250000Y-83750000D02*
X123000000Y-86000000D01*
X127250000Y-83750000D02*
X125250000Y-83750000D01*
X155830000Y-50250000D02*
X158580000Y-53000000D01*
X150750000Y-50250000D02*
X155830000Y-50250000D01*
X124250000Y-69000000D02*
X123250000Y-70000000D01*
X128750000Y-69000000D02*
X124250000Y-69000000D01*
X119000000Y-92000000D02*
X115000000Y-96000000D01*
X119000000Y-77000000D02*
X119000000Y-92000000D01*
X137750000Y-76675000D02*
X140500000Y-73925000D01*
X137174999Y-77250001D02*
X137750000Y-76675000D01*
X137174999Y-85075001D02*
X137174999Y-77250001D01*
X134324999Y-87925001D02*
X137174999Y-85075001D01*
X133324999Y-87925001D02*
X134324999Y-87925001D01*
X133250000Y-88000000D02*
X133324999Y-87925001D01*
X130500000Y-88000000D02*
X133250000Y-88000000D01*
X128500000Y-86000000D02*
X130500000Y-88000000D01*
X132500000Y-69750000D02*
X134500000Y-67750000D01*
X134500000Y-67750000D02*
X134500000Y-64000000D01*
X134500000Y-64000000D02*
X134500000Y-61000000D01*
X129250000Y-77750000D02*
X129750000Y-77750000D01*
X143750000Y-63750000D02*
X167250000Y-63750000D01*
X129750000Y-77750000D02*
X143750000Y-63750000D01*
X129250000Y-78550003D02*
X129449997Y-78550003D01*
X129449997Y-78550003D02*
X143899990Y-64100010D01*
X144299980Y-64500000D02*
X168000000Y-64500000D01*
X143899990Y-64100010D02*
X144299980Y-64500000D01*
D20*
X169095000Y-92770000D02*
X169325000Y-93000000D01*
X169095000Y-42500000D02*
X169095000Y-92770000D01*
D18*
X133750000Y-65000000D02*
X127000000Y-65000000D01*
X151750000Y-89000000D02*
X145250000Y-89000000D01*
X153962002Y-89000000D02*
X167500000Y-75462002D01*
X167500000Y-75462002D02*
X167500000Y-71250000D01*
X151750000Y-89000000D02*
X153962002Y-89000000D01*
D19*
X165500000Y-76500000D02*
X161000000Y-76500000D01*
X132175000Y-86125000D02*
X132175000Y-81750000D01*
X133400000Y-87350000D02*
X132175000Y-86125000D01*
X151000000Y-79500000D02*
X156000000Y-84500000D01*
X137750000Y-79500000D02*
X151000000Y-79500000D01*
X137350000Y-73300000D02*
X137750000Y-72900000D01*
X149100000Y-72900000D02*
X147800000Y-72900000D01*
X156200000Y-80000000D02*
X149100000Y-72900000D01*
X147800000Y-72900000D02*
X147900000Y-72900000D01*
X137750000Y-72900000D02*
X147800000Y-72900000D01*
X157100000Y-81300000D02*
X157100000Y-80000000D01*
X149500000Y-72400000D02*
X148100000Y-72400000D01*
X157100000Y-80000000D02*
X149500000Y-72400000D01*
X137300000Y-72400000D02*
X148100000Y-72400000D01*
X144250000Y-44750000D02*
X141099960Y-41599960D01*
X126420088Y-41599960D02*
X115849960Y-52170088D01*
X141099960Y-41599960D02*
X126420088Y-41599960D01*
X115849960Y-52170088D02*
X115849960Y-67099960D01*
X124325000Y-75575000D02*
X124500000Y-75575000D01*
X115849960Y-67099960D02*
X124325000Y-75575000D01*
X146750000Y-44750000D02*
X143249950Y-41249950D01*
X126275110Y-41249950D02*
X126275108Y-41249952D01*
X143249950Y-41249950D02*
X126275110Y-41249950D01*
X126275108Y-41249952D02*
X115499950Y-52025110D01*
X115499950Y-52025110D02*
X115499950Y-67249950D01*
X115499950Y-67249950D02*
X115499950Y-67749950D01*
X115499950Y-67749950D02*
X123334620Y-75584620D01*
X134250000Y-44750000D02*
X134250000Y-44000000D01*
X134250000Y-44000000D02*
X133250000Y-43000000D01*
X133250000Y-43000000D02*
X127000000Y-43000000D01*
X127000000Y-43000000D02*
X117250000Y-52750000D01*
X124362998Y-73250000D02*
X125750000Y-73250000D01*
X117250000Y-66137002D02*
X124362998Y-73250000D01*
X117250000Y-52750000D02*
X117250000Y-66137002D01*
X139250000Y-44750000D02*
X139250000Y-43750000D01*
X139250000Y-43750000D02*
X137799980Y-42299980D01*
X126710044Y-42299980D02*
X126710042Y-42299982D01*
X137799980Y-42299980D02*
X126710044Y-42299980D01*
X126710042Y-42299982D02*
X116549980Y-52460044D01*
X116549980Y-66426958D02*
X116549982Y-66426960D01*
X116549980Y-52460044D02*
X116549980Y-66426958D01*
X124523022Y-74400000D02*
X124585156Y-74400000D01*
X116549982Y-66426960D02*
X124523022Y-74400000D01*
X136750000Y-44750000D02*
X134649990Y-42649990D01*
X126855022Y-42649990D02*
X116899990Y-52605022D01*
X134649990Y-42649990D02*
X126855022Y-42649990D01*
X124443010Y-73825000D02*
X125184313Y-73825000D01*
X116899990Y-66281980D02*
X124443010Y-73825000D01*
X116899990Y-52605022D02*
X116899990Y-66281980D01*
X149250000Y-44750000D02*
X145399940Y-40899940D01*
X126130132Y-40899940D02*
X126130128Y-40899944D01*
X145399940Y-40899940D02*
X126130132Y-40899940D01*
X126130128Y-40899944D02*
X115149940Y-51880132D01*
X115149940Y-68531313D02*
X122768933Y-76150306D01*
X115149940Y-51880132D02*
X115149940Y-68531313D01*
X141750000Y-44750000D02*
X138949970Y-41949970D01*
X126565066Y-41949970D02*
X126565062Y-41949974D01*
X138949970Y-41949970D02*
X126565066Y-41949970D01*
X126565062Y-41949974D02*
X116199970Y-52315066D01*
X116199970Y-52315066D02*
X116199970Y-66571936D01*
X116199970Y-66571936D02*
X116199970Y-66865816D01*
X124334154Y-75000000D02*
X125250000Y-75000000D01*
X116199970Y-66865816D02*
X124334154Y-75000000D01*
X150750000Y-40500000D02*
X151000000Y-40750000D01*
X126000000Y-40500000D02*
X150750000Y-40500000D01*
X114750000Y-51750000D02*
X126000000Y-40500000D01*
X122825011Y-77075011D02*
X114750000Y-69000000D01*
X123500000Y-77075011D02*
X122825011Y-77075011D01*
X114750000Y-69000000D02*
X114750000Y-51750000D01*
X123349989Y-77650011D02*
X124250000Y-77650011D01*
X114399990Y-51605022D02*
X114399990Y-69144978D01*
X122905023Y-77650011D02*
X123349989Y-77650011D01*
X125855022Y-40149990D02*
X114399990Y-51605022D01*
X154100010Y-40149990D02*
X125855022Y-40149990D01*
X114399990Y-69144978D02*
X122905023Y-77650011D01*
X154750000Y-39500000D02*
X154100010Y-40149990D01*
X119750000Y-88398998D02*
X119750000Y-88500000D01*
X125199001Y-82949997D02*
X119750000Y-88398998D01*
X127250000Y-82949997D02*
X125199001Y-82949997D01*
X138400001Y-73349999D02*
X143349999Y-73349999D01*
X137750000Y-74000000D02*
X138400001Y-73349999D01*
X146000000Y-76000000D02*
X146000000Y-77500000D01*
X143349999Y-73349999D02*
X146000000Y-76000000D01*
X134000000Y-83000000D02*
X136000000Y-85000000D01*
X134500000Y-84750000D02*
X134750000Y-84750000D01*
X133250000Y-83500000D02*
X134500000Y-84750000D01*
X145500000Y-95399990D02*
X145050005Y-94949995D01*
X145050005Y-94949995D02*
X145100010Y-95000000D01*
X138500000Y-88399990D02*
X145050005Y-94949995D01*
X145500000Y-95400000D02*
X145600000Y-95500000D01*
X145500000Y-95399990D02*
X145500000Y-95400000D01*
X156250000Y-95500000D02*
X145600000Y-95500000D01*
D21*
X180988005Y-35727458D02*
X181955321Y-35941021D01*
X182881665Y-36291981D01*
X183747653Y-36772995D01*
X184535123Y-37373974D01*
X185227595Y-38082337D01*
X185810560Y-38883249D01*
X186271796Y-39759915D01*
X186601655Y-40693996D01*
X186793214Y-41665896D01*
X186842469Y-42655280D01*
X186748384Y-43641403D01*
X186512933Y-44603616D01*
X186141043Y-45521767D01*
X185640509Y-46376614D01*
X185021819Y-47150251D01*
X184297925Y-47826476D01*
X183483999Y-48391116D01*
X182597084Y-48832350D01*
X181655774Y-49140927D01*
X180672421Y-49311665D01*
X179967480Y-49346759D01*
X179950970Y-49348786D01*
X179933739Y-49348666D01*
X179924650Y-49349557D01*
X179730553Y-49369958D01*
X179672423Y-49381890D01*
X179614257Y-49392986D01*
X179605521Y-49395623D01*
X179605512Y-49395625D01*
X179605504Y-49395629D01*
X179419077Y-49453337D01*
X179364393Y-49476324D01*
X179309466Y-49498515D01*
X179301407Y-49502800D01*
X179301402Y-49502802D01*
X179301401Y-49502803D01*
X179129726Y-49595627D01*
X179080570Y-49628783D01*
X179030976Y-49661237D01*
X179023899Y-49667009D01*
X178873521Y-49791413D01*
X178831746Y-49833480D01*
X178789398Y-49874951D01*
X178783577Y-49881987D01*
X178660227Y-50033229D01*
X178627409Y-50082624D01*
X178593931Y-50131517D01*
X178589587Y-50139550D01*
X178497962Y-50311873D01*
X178475365Y-50366696D01*
X178452020Y-50421165D01*
X178449319Y-50429889D01*
X178392910Y-50616725D01*
X178381390Y-50674906D01*
X178369071Y-50732860D01*
X178368118Y-50741931D01*
X178368116Y-50741942D01*
X178368116Y-50741952D01*
X178349072Y-50936175D01*
X178349072Y-50936186D01*
X178345951Y-50967875D01*
X178345950Y-73522576D01*
X178215257Y-73465528D01*
X178007000Y-73420000D01*
X177677000Y-73420000D01*
X177677000Y-74373000D01*
X177697000Y-74373000D01*
X177697000Y-74627000D01*
X177677000Y-74627000D01*
X177677000Y-75580000D01*
X178007000Y-75580000D01*
X178215257Y-75534472D01*
X178345950Y-75477424D01*
X178345950Y-80522576D01*
X178215257Y-80465528D01*
X178007000Y-80420000D01*
X177677000Y-80420000D01*
X177677000Y-81373000D01*
X177697000Y-81373000D01*
X177697000Y-81627000D01*
X177677000Y-81627000D01*
X177677000Y-82580000D01*
X178007000Y-82580000D01*
X178215257Y-82534472D01*
X178345950Y-82477424D01*
X178345950Y-84032124D01*
X178348709Y-84060135D01*
X178348666Y-84066261D01*
X178349557Y-84075350D01*
X178369958Y-84269447D01*
X178381890Y-84327577D01*
X178392986Y-84385743D01*
X178395623Y-84394479D01*
X178395625Y-84394488D01*
X178395629Y-84394496D01*
X178453337Y-84580923D01*
X178476319Y-84635595D01*
X178498515Y-84690534D01*
X178502802Y-84698597D01*
X178595627Y-84870274D01*
X178628793Y-84919445D01*
X178661237Y-84969024D01*
X178667009Y-84976101D01*
X178791412Y-85126479D01*
X178833499Y-85168273D01*
X178874951Y-85210602D01*
X178881987Y-85216423D01*
X179033229Y-85339773D01*
X179082642Y-85372603D01*
X179131518Y-85406069D01*
X179139546Y-85410410D01*
X179139550Y-85410413D01*
X179139554Y-85410415D01*
X179311873Y-85502038D01*
X179366685Y-85524630D01*
X179421165Y-85547980D01*
X179429889Y-85550681D01*
X179616725Y-85607090D01*
X179674892Y-85618608D01*
X179732859Y-85630929D01*
X179741932Y-85631882D01*
X179741942Y-85631884D01*
X179741951Y-85631884D01*
X179936175Y-85650928D01*
X179941209Y-85650928D01*
X179952668Y-85652335D01*
X180988005Y-85727458D01*
X181955321Y-85941021D01*
X182881665Y-86291981D01*
X183747653Y-86772995D01*
X184535123Y-87373974D01*
X185227595Y-88082337D01*
X185810560Y-88883249D01*
X186271796Y-89759915D01*
X186601655Y-90693996D01*
X186793214Y-91665896D01*
X186842469Y-92655280D01*
X186748384Y-93641403D01*
X186512933Y-94603616D01*
X186141043Y-95521767D01*
X185640509Y-96376614D01*
X185021819Y-97150251D01*
X184297925Y-97826476D01*
X183483999Y-98391116D01*
X182597084Y-98832350D01*
X181655774Y-99140927D01*
X180672421Y-99311665D01*
X179983731Y-99345950D01*
X100023696Y-99345950D01*
X99011995Y-99272543D01*
X98044679Y-99058979D01*
X97118335Y-98708019D01*
X96252352Y-98227008D01*
X95464879Y-97626029D01*
X94772405Y-96917663D01*
X94189441Y-96116753D01*
X93728204Y-95240084D01*
X93398345Y-94306004D01*
X93206785Y-93334104D01*
X93157531Y-92344720D01*
X93163718Y-92279872D01*
X97765000Y-92279872D01*
X97765000Y-92720128D01*
X97850890Y-93151925D01*
X98019369Y-93558669D01*
X98263962Y-93924729D01*
X98575271Y-94236038D01*
X98941331Y-94480631D01*
X99348075Y-94649110D01*
X99779872Y-94735000D01*
X100220128Y-94735000D01*
X100651925Y-94649110D01*
X101058669Y-94480631D01*
X101424729Y-94236038D01*
X101736038Y-93924729D01*
X101980631Y-93558669D01*
X102149110Y-93151925D01*
X102235000Y-92720128D01*
X102235000Y-92279872D01*
X102149110Y-91848075D01*
X102100202Y-91730000D01*
X106456928Y-91730000D01*
X106456928Y-94270000D01*
X106493591Y-94642246D01*
X106602171Y-95000188D01*
X106778496Y-95330068D01*
X107015789Y-95619211D01*
X107304932Y-95856504D01*
X107634812Y-96032829D01*
X107992754Y-96141409D01*
X108365000Y-96178072D01*
X109715000Y-96178072D01*
X109715000Y-97741880D01*
X109671414Y-97807111D01*
X109600932Y-97977271D01*
X109565000Y-98157911D01*
X109565000Y-98342089D01*
X109600932Y-98522729D01*
X109671414Y-98692889D01*
X109773738Y-98846028D01*
X109903972Y-98976262D01*
X110057111Y-99078586D01*
X110227271Y-99149068D01*
X110407911Y-99185000D01*
X110592089Y-99185000D01*
X110772729Y-99149068D01*
X110942889Y-99078586D01*
X111096028Y-98976262D01*
X111226262Y-98846028D01*
X111328586Y-98692889D01*
X111399068Y-98522729D01*
X111435000Y-98342089D01*
X111435000Y-98157911D01*
X111399068Y-97977271D01*
X111328586Y-97807111D01*
X111285000Y-97741880D01*
X111285000Y-96178072D01*
X113445000Y-96178072D01*
X113817246Y-96141409D01*
X114065000Y-96066254D01*
X114065000Y-96092089D01*
X114100932Y-96272729D01*
X114171414Y-96442889D01*
X114273738Y-96596028D01*
X114403972Y-96726262D01*
X114557111Y-96828586D01*
X114727271Y-96899068D01*
X114907911Y-96935000D01*
X115092089Y-96935000D01*
X115272729Y-96899068D01*
X115442889Y-96828586D01*
X115596028Y-96726262D01*
X115726262Y-96596028D01*
X115828586Y-96442889D01*
X115899068Y-96272729D01*
X115935000Y-96092089D01*
X115935000Y-96069091D01*
X119477384Y-92526708D01*
X119504475Y-92504475D01*
X119593200Y-92396363D01*
X119659128Y-92273020D01*
X119699727Y-92139184D01*
X119710000Y-92034877D01*
X119710000Y-92034876D01*
X119713435Y-92000001D01*
X119710000Y-91965126D01*
X119710000Y-89435000D01*
X119842089Y-89435000D01*
X120022729Y-89399068D01*
X120192889Y-89328586D01*
X120346028Y-89226262D01*
X120476262Y-89096028D01*
X120578586Y-88942889D01*
X120649068Y-88772729D01*
X120685000Y-88592089D01*
X120685000Y-88468089D01*
X122417673Y-86735417D01*
X122557111Y-86828586D01*
X122727271Y-86899068D01*
X122907911Y-86935000D01*
X123092089Y-86935000D01*
X123272729Y-86899068D01*
X123442889Y-86828586D01*
X123596028Y-86726262D01*
X123726262Y-86596028D01*
X123828586Y-86442889D01*
X123899068Y-86272729D01*
X123935000Y-86092089D01*
X123935000Y-86069091D01*
X124096180Y-85907911D01*
X127565000Y-85907911D01*
X127565000Y-86092089D01*
X127600932Y-86272729D01*
X127671414Y-86442889D01*
X127773738Y-86596028D01*
X127903972Y-86726262D01*
X128057111Y-86828586D01*
X128227271Y-86899068D01*
X128407911Y-86935000D01*
X128430909Y-86935000D01*
X129973292Y-88477384D01*
X129995525Y-88504475D01*
X130103637Y-88593200D01*
X130226980Y-88659128D01*
X130360816Y-88699727D01*
X130465123Y-88710000D01*
X130465124Y-88710000D01*
X130499999Y-88713435D01*
X130534874Y-88710000D01*
X133215125Y-88710000D01*
X133250000Y-88713435D01*
X133284875Y-88710000D01*
X133284877Y-88710000D01*
X133389184Y-88699727D01*
X133523020Y-88659128D01*
X133568159Y-88635001D01*
X134290124Y-88635001D01*
X134324999Y-88638436D01*
X134359874Y-88635001D01*
X134359876Y-88635001D01*
X134464183Y-88624728D01*
X134598019Y-88584129D01*
X134721362Y-88518201D01*
X134829474Y-88429476D01*
X134851711Y-88402380D01*
X134946190Y-88307901D01*
X137565000Y-88307901D01*
X137565000Y-88492079D01*
X137600932Y-88672719D01*
X137671414Y-88842879D01*
X137773738Y-88996018D01*
X137903972Y-89126252D01*
X138057111Y-89228576D01*
X138227271Y-89299058D01*
X138407911Y-89334990D01*
X138430909Y-89334990D01*
X144973246Y-95877327D01*
X144995526Y-95904475D01*
X145022617Y-95926708D01*
X145073288Y-95977379D01*
X145095525Y-96004475D01*
X145203637Y-96093200D01*
X145326980Y-96159128D01*
X145460816Y-96199727D01*
X145565123Y-96210000D01*
X145565124Y-96210000D01*
X145599999Y-96213435D01*
X145634874Y-96210000D01*
X155637710Y-96210000D01*
X155653972Y-96226262D01*
X155807111Y-96328586D01*
X155977271Y-96399068D01*
X156157911Y-96435000D01*
X156342089Y-96435000D01*
X156522729Y-96399068D01*
X156692889Y-96328586D01*
X156846028Y-96226262D01*
X156976262Y-96096028D01*
X157078586Y-95942889D01*
X157149068Y-95772729D01*
X157185000Y-95592089D01*
X157185000Y-95407911D01*
X157149068Y-95227271D01*
X157078586Y-95057111D01*
X156976262Y-94903972D01*
X156846028Y-94773738D01*
X156692889Y-94671414D01*
X156522729Y-94600932D01*
X156342089Y-94565000D01*
X156157911Y-94565000D01*
X155977271Y-94600932D01*
X155807111Y-94671414D01*
X155653972Y-94773738D01*
X155637710Y-94790000D01*
X145894101Y-94790000D01*
X139435000Y-88330899D01*
X139435000Y-88307901D01*
X139399068Y-88127261D01*
X139328586Y-87957101D01*
X139226262Y-87803962D01*
X139096028Y-87673728D01*
X138942889Y-87571404D01*
X138772729Y-87500922D01*
X138592089Y-87464990D01*
X138407911Y-87464990D01*
X138227271Y-87500922D01*
X138057111Y-87571404D01*
X137903972Y-87673728D01*
X137773738Y-87803962D01*
X137671414Y-87957101D01*
X137600932Y-88127261D01*
X137565000Y-88307901D01*
X134946190Y-88307901D01*
X137652382Y-85601709D01*
X137679473Y-85579476D01*
X137768199Y-85471364D01*
X137834127Y-85348021D01*
X137874726Y-85214185D01*
X137884999Y-85109878D01*
X137884999Y-85109876D01*
X137888434Y-85075001D01*
X137884999Y-85040126D01*
X137884999Y-80426465D01*
X138022729Y-80399068D01*
X138192889Y-80328586D01*
X138346028Y-80226262D01*
X138362290Y-80210000D01*
X141781955Y-80210000D01*
X141772629Y-80223957D01*
X141668225Y-80476011D01*
X141615000Y-80743589D01*
X141615000Y-81016411D01*
X141668225Y-81283989D01*
X141772629Y-81536043D01*
X141924201Y-81762886D01*
X142117114Y-81955799D01*
X142343957Y-82107371D01*
X142596011Y-82211775D01*
X142863589Y-82265000D01*
X143136411Y-82265000D01*
X143403989Y-82211775D01*
X143656043Y-82107371D01*
X143882886Y-81955799D01*
X144075799Y-81762886D01*
X144227371Y-81536043D01*
X144331775Y-81283989D01*
X144385000Y-81016411D01*
X144385000Y-80743589D01*
X144331775Y-80476011D01*
X144227371Y-80223957D01*
X144218045Y-80210000D01*
X150705909Y-80210000D01*
X155065000Y-84569091D01*
X155065000Y-84592089D01*
X155100932Y-84772729D01*
X155171414Y-84942889D01*
X155273738Y-85096028D01*
X155403972Y-85226262D01*
X155557111Y-85328586D01*
X155727271Y-85399068D01*
X155907911Y-85435000D01*
X156092089Y-85435000D01*
X156272729Y-85399068D01*
X156442889Y-85328586D01*
X156596028Y-85226262D01*
X156726262Y-85096028D01*
X156828586Y-84942889D01*
X156899068Y-84772729D01*
X156935000Y-84592089D01*
X156935000Y-84407911D01*
X156899068Y-84227271D01*
X156828586Y-84057111D01*
X156726262Y-83903972D01*
X156596028Y-83773738D01*
X156442889Y-83671414D01*
X156272729Y-83600932D01*
X156092089Y-83565000D01*
X156069091Y-83565000D01*
X151526712Y-79022621D01*
X151504475Y-78995525D01*
X151396363Y-78906800D01*
X151273020Y-78840872D01*
X151139184Y-78800273D01*
X151034877Y-78790000D01*
X151034875Y-78790000D01*
X151000000Y-78786565D01*
X150965125Y-78790000D01*
X138362290Y-78790000D01*
X138346028Y-78773738D01*
X138192889Y-78671414D01*
X138022729Y-78600932D01*
X137884999Y-78573535D01*
X137884999Y-77601465D01*
X138022729Y-77574068D01*
X138192889Y-77503586D01*
X138346028Y-77401262D01*
X138476262Y-77271028D01*
X138578586Y-77117889D01*
X138649068Y-76947729D01*
X138685000Y-76767089D01*
X138685000Y-76744091D01*
X139565502Y-75863589D01*
X141615000Y-75863589D01*
X141615000Y-76136411D01*
X141668225Y-76403989D01*
X141772629Y-76656043D01*
X141924201Y-76882886D01*
X142117114Y-77075799D01*
X142343957Y-77227371D01*
X142596011Y-77331775D01*
X142863589Y-77385000D01*
X143136411Y-77385000D01*
X143403989Y-77331775D01*
X143656043Y-77227371D01*
X143882886Y-77075799D01*
X144075799Y-76882886D01*
X144227371Y-76656043D01*
X144331775Y-76403989D01*
X144385000Y-76136411D01*
X144385000Y-75863589D01*
X144331775Y-75596011D01*
X144227371Y-75343957D01*
X144075799Y-75117114D01*
X143882886Y-74924201D01*
X143656043Y-74772629D01*
X143403989Y-74668225D01*
X143136411Y-74615000D01*
X142863589Y-74615000D01*
X142596011Y-74668225D01*
X142343957Y-74772629D01*
X142117114Y-74924201D01*
X141924201Y-75117114D01*
X141772629Y-75343957D01*
X141668225Y-75596011D01*
X141615000Y-75863589D01*
X139565502Y-75863589D01*
X140569092Y-74860000D01*
X140592089Y-74860000D01*
X140772729Y-74824068D01*
X140942889Y-74753586D01*
X141096028Y-74651262D01*
X141226262Y-74521028D01*
X141328586Y-74367889D01*
X141399068Y-74197729D01*
X141426465Y-74059999D01*
X143055908Y-74059999D01*
X145290000Y-76294092D01*
X145290001Y-76887709D01*
X145273738Y-76903972D01*
X145171414Y-77057111D01*
X145100932Y-77227271D01*
X145065000Y-77407911D01*
X145065000Y-77592089D01*
X145100932Y-77772729D01*
X145171414Y-77942889D01*
X145273738Y-78096028D01*
X145403972Y-78226262D01*
X145557111Y-78328586D01*
X145727271Y-78399068D01*
X145907911Y-78435000D01*
X146092089Y-78435000D01*
X146272729Y-78399068D01*
X146442889Y-78328586D01*
X146596028Y-78226262D01*
X146726262Y-78096028D01*
X146828586Y-77942889D01*
X146899068Y-77772729D01*
X146935000Y-77592089D01*
X146935000Y-77407911D01*
X146899068Y-77227271D01*
X146828586Y-77057111D01*
X146726262Y-76903972D01*
X146710000Y-76887710D01*
X146710000Y-76034874D01*
X146713435Y-75999999D01*
X146710000Y-75965123D01*
X146699727Y-75860816D01*
X146659128Y-75726980D01*
X146593200Y-75603637D01*
X146593199Y-75603635D01*
X146526707Y-75522615D01*
X146526704Y-75522612D01*
X146504474Y-75495525D01*
X146477389Y-75473297D01*
X144614091Y-73610000D01*
X148805909Y-73610000D01*
X155265000Y-80069092D01*
X155265000Y-80092089D01*
X155300932Y-80272729D01*
X155371414Y-80442889D01*
X155473738Y-80596028D01*
X155603972Y-80726262D01*
X155757111Y-80828586D01*
X155927271Y-80899068D01*
X156107911Y-80935000D01*
X156239152Y-80935000D01*
X156200932Y-81027271D01*
X156165000Y-81207911D01*
X156165000Y-81392089D01*
X156200932Y-81572729D01*
X156271414Y-81742889D01*
X156373738Y-81896028D01*
X156503972Y-82026262D01*
X156657111Y-82128586D01*
X156827271Y-82199068D01*
X157007911Y-82235000D01*
X157192089Y-82235000D01*
X157372729Y-82199068D01*
X157542889Y-82128586D01*
X157696028Y-82026262D01*
X157826262Y-81896028D01*
X157928586Y-81742889D01*
X157999068Y-81572729D01*
X158035000Y-81392089D01*
X158035000Y-81207911D01*
X157999068Y-81027271D01*
X157928586Y-80857111D01*
X157826262Y-80703972D01*
X157810000Y-80687710D01*
X157810000Y-80034874D01*
X157813435Y-79999999D01*
X157804365Y-79907911D01*
X157799727Y-79860816D01*
X157759128Y-79726980D01*
X157693200Y-79603637D01*
X157604475Y-79495525D01*
X157577384Y-79473292D01*
X150026712Y-71922621D01*
X150004475Y-71895525D01*
X149896363Y-71806800D01*
X149773020Y-71740872D01*
X149639184Y-71700273D01*
X149534877Y-71690000D01*
X149534875Y-71690000D01*
X149500000Y-71686565D01*
X149465125Y-71690000D01*
X137912290Y-71690000D01*
X137896028Y-71673738D01*
X137742889Y-71571414D01*
X137572729Y-71500932D01*
X137514702Y-71489390D01*
X140901684Y-68102408D01*
X147023000Y-68102408D01*
X147023000Y-68377592D01*
X147076686Y-68647490D01*
X147181995Y-68901727D01*
X147334880Y-69130535D01*
X147529465Y-69325120D01*
X147758273Y-69478005D01*
X148012510Y-69583314D01*
X148282408Y-69637000D01*
X148557592Y-69637000D01*
X148827490Y-69583314D01*
X149081727Y-69478005D01*
X149310535Y-69325120D01*
X149505120Y-69130535D01*
X149658005Y-68901727D01*
X149690000Y-68824485D01*
X149721995Y-68901727D01*
X149874880Y-69130535D01*
X150069465Y-69325120D01*
X150298273Y-69478005D01*
X150552510Y-69583314D01*
X150822408Y-69637000D01*
X151097592Y-69637000D01*
X151367490Y-69583314D01*
X151621727Y-69478005D01*
X151850535Y-69325120D01*
X152045120Y-69130535D01*
X152198005Y-68901727D01*
X152230000Y-68824485D01*
X152261995Y-68901727D01*
X152414880Y-69130535D01*
X152609465Y-69325120D01*
X152838273Y-69478005D01*
X153092510Y-69583314D01*
X153362408Y-69637000D01*
X153637592Y-69637000D01*
X153907490Y-69583314D01*
X154161727Y-69478005D01*
X154390535Y-69325120D01*
X154585120Y-69130535D01*
X154738005Y-68901727D01*
X154770000Y-68824485D01*
X154801995Y-68901727D01*
X154954880Y-69130535D01*
X155149465Y-69325120D01*
X155378273Y-69478005D01*
X155632510Y-69583314D01*
X155902408Y-69637000D01*
X156177592Y-69637000D01*
X156447490Y-69583314D01*
X156701727Y-69478005D01*
X156930535Y-69325120D01*
X157125120Y-69130535D01*
X157278005Y-68901727D01*
X157310000Y-68824485D01*
X157341995Y-68901727D01*
X157494880Y-69130535D01*
X157689465Y-69325120D01*
X157918273Y-69478005D01*
X158172510Y-69583314D01*
X158442408Y-69637000D01*
X158717592Y-69637000D01*
X158987490Y-69583314D01*
X159241727Y-69478005D01*
X159470535Y-69325120D01*
X159665120Y-69130535D01*
X159818005Y-68901727D01*
X159923314Y-68647490D01*
X159977000Y-68377592D01*
X159977000Y-68102408D01*
X159923314Y-67832510D01*
X159818005Y-67578273D01*
X159665120Y-67349465D01*
X159470535Y-67154880D01*
X159241727Y-67001995D01*
X158987490Y-66896686D01*
X158717592Y-66843000D01*
X158442408Y-66843000D01*
X158172510Y-66896686D01*
X157918273Y-67001995D01*
X157689465Y-67154880D01*
X157494880Y-67349465D01*
X157341995Y-67578273D01*
X157310000Y-67655515D01*
X157278005Y-67578273D01*
X157125120Y-67349465D01*
X156930535Y-67154880D01*
X156701727Y-67001995D01*
X156447490Y-66896686D01*
X156177592Y-66843000D01*
X155902408Y-66843000D01*
X155632510Y-66896686D01*
X155378273Y-67001995D01*
X155149465Y-67154880D01*
X154954880Y-67349465D01*
X154801995Y-67578273D01*
X154770000Y-67655515D01*
X154738005Y-67578273D01*
X154585120Y-67349465D01*
X154390535Y-67154880D01*
X154161727Y-67001995D01*
X153907490Y-66896686D01*
X153637592Y-66843000D01*
X153362408Y-66843000D01*
X153092510Y-66896686D01*
X152838273Y-67001995D01*
X152609465Y-67154880D01*
X152414880Y-67349465D01*
X152261995Y-67578273D01*
X152230000Y-67655515D01*
X152198005Y-67578273D01*
X152045120Y-67349465D01*
X151850535Y-67154880D01*
X151621727Y-67001995D01*
X151367490Y-66896686D01*
X151097592Y-66843000D01*
X150822408Y-66843000D01*
X150552510Y-66896686D01*
X150298273Y-67001995D01*
X150069465Y-67154880D01*
X149874880Y-67349465D01*
X149721995Y-67578273D01*
X149690000Y-67655515D01*
X149658005Y-67578273D01*
X149505120Y-67349465D01*
X149310535Y-67154880D01*
X149081727Y-67001995D01*
X148827490Y-66896686D01*
X148557592Y-66843000D01*
X148282408Y-66843000D01*
X148012510Y-66896686D01*
X147758273Y-67001995D01*
X147529465Y-67154880D01*
X147334880Y-67349465D01*
X147181995Y-67578273D01*
X147076686Y-67832510D01*
X147023000Y-68102408D01*
X140901684Y-68102408D01*
X143908358Y-65095734D01*
X144026960Y-65159128D01*
X144160796Y-65199727D01*
X144265103Y-65210000D01*
X144265104Y-65210000D01*
X144299979Y-65213435D01*
X144334854Y-65210000D01*
X167387710Y-65210000D01*
X167403972Y-65226262D01*
X167557111Y-65328586D01*
X167727271Y-65399068D01*
X167907911Y-65435000D01*
X168092089Y-65435000D01*
X168160000Y-65421491D01*
X168160001Y-70386080D01*
X168013940Y-70288485D01*
X167816483Y-70206696D01*
X167606863Y-70165000D01*
X167393137Y-70165000D01*
X167183517Y-70206696D01*
X166986060Y-70288485D01*
X166808353Y-70407225D01*
X166657225Y-70558353D01*
X166538485Y-70736060D01*
X166456696Y-70933517D01*
X166415000Y-71143137D01*
X166415000Y-71356863D01*
X166456696Y-71566483D01*
X166538485Y-71763940D01*
X166657225Y-71941647D01*
X166715001Y-71999423D01*
X166715000Y-75136844D01*
X166085285Y-75766559D01*
X165942889Y-75671414D01*
X165772729Y-75600932D01*
X165592089Y-75565000D01*
X165407911Y-75565000D01*
X165227271Y-75600932D01*
X165057111Y-75671414D01*
X164903972Y-75773738D01*
X164887710Y-75790000D01*
X161612290Y-75790000D01*
X161596028Y-75773738D01*
X161442889Y-75671414D01*
X161272729Y-75600932D01*
X161092089Y-75565000D01*
X160907911Y-75565000D01*
X160727271Y-75600932D01*
X160557111Y-75671414D01*
X160403972Y-75773738D01*
X160273738Y-75903972D01*
X160171414Y-76057111D01*
X160100932Y-76227271D01*
X160065000Y-76407911D01*
X160065000Y-76592089D01*
X160100932Y-76772729D01*
X160171414Y-76942889D01*
X160273738Y-77096028D01*
X160403972Y-77226262D01*
X160557111Y-77328586D01*
X160727271Y-77399068D01*
X160907911Y-77435000D01*
X161092089Y-77435000D01*
X161272729Y-77399068D01*
X161442889Y-77328586D01*
X161596028Y-77226262D01*
X161612290Y-77210000D01*
X164641844Y-77210000D01*
X153636845Y-88215000D01*
X152499422Y-88215000D01*
X152441647Y-88157225D01*
X152263940Y-88038485D01*
X152066483Y-87956696D01*
X151856863Y-87915000D01*
X151643137Y-87915000D01*
X151433517Y-87956696D01*
X151236060Y-88038485D01*
X151058353Y-88157225D01*
X151000578Y-88215000D01*
X145999422Y-88215000D01*
X145941647Y-88157225D01*
X145763940Y-88038485D01*
X145566483Y-87956696D01*
X145356863Y-87915000D01*
X145143137Y-87915000D01*
X144933517Y-87956696D01*
X144736060Y-88038485D01*
X144558353Y-88157225D01*
X144407225Y-88308353D01*
X144288485Y-88486060D01*
X144206696Y-88683517D01*
X144165000Y-88893137D01*
X144165000Y-89106863D01*
X144206696Y-89316483D01*
X144288485Y-89513940D01*
X144407225Y-89691647D01*
X144558353Y-89842775D01*
X144736060Y-89961515D01*
X144933517Y-90043304D01*
X145143137Y-90085000D01*
X145356863Y-90085000D01*
X145566483Y-90043304D01*
X145763940Y-89961515D01*
X145941647Y-89842775D01*
X145999422Y-89785000D01*
X151000578Y-89785000D01*
X151058353Y-89842775D01*
X151236060Y-89961515D01*
X151433517Y-90043304D01*
X151643137Y-90085000D01*
X151856863Y-90085000D01*
X152066483Y-90043304D01*
X152263940Y-89961515D01*
X152441647Y-89842775D01*
X152499422Y-89785000D01*
X153923449Y-89785000D01*
X153962002Y-89788797D01*
X154000555Y-89785000D01*
X154000563Y-89785000D01*
X154115889Y-89773641D01*
X154263862Y-89728754D01*
X154400235Y-89655862D01*
X154519766Y-89557764D01*
X154544349Y-89527810D01*
X168027817Y-76044343D01*
X168057764Y-76019766D01*
X168155862Y-75900235D01*
X168160001Y-75892492D01*
X168160001Y-89821928D01*
X166785000Y-89821928D01*
X166412754Y-89858591D01*
X166054812Y-89967171D01*
X165724932Y-90143496D01*
X165435789Y-90380789D01*
X165198496Y-90669932D01*
X165022171Y-90999812D01*
X164913591Y-91357754D01*
X164876928Y-91730000D01*
X164876928Y-94270000D01*
X164913591Y-94642246D01*
X165022171Y-95000188D01*
X165198496Y-95330068D01*
X165435789Y-95619211D01*
X165724932Y-95856504D01*
X166054812Y-96032829D01*
X166412754Y-96141409D01*
X166785000Y-96178072D01*
X171865000Y-96178072D01*
X172237246Y-96141409D01*
X172595188Y-96032829D01*
X172925068Y-95856504D01*
X173214211Y-95619211D01*
X173451504Y-95330068D01*
X173627829Y-95000188D01*
X173736409Y-94642246D01*
X173773072Y-94270000D01*
X173773072Y-92279872D01*
X177765000Y-92279872D01*
X177765000Y-92720128D01*
X177850890Y-93151925D01*
X178019369Y-93558669D01*
X178263962Y-93924729D01*
X178575271Y-94236038D01*
X178941331Y-94480631D01*
X179348075Y-94649110D01*
X179779872Y-94735000D01*
X180220128Y-94735000D01*
X180651925Y-94649110D01*
X181058669Y-94480631D01*
X181424729Y-94236038D01*
X181736038Y-93924729D01*
X181980631Y-93558669D01*
X182149110Y-93151925D01*
X182235000Y-92720128D01*
X182235000Y-92279872D01*
X182149110Y-91848075D01*
X181980631Y-91441331D01*
X181736038Y-91075271D01*
X181424729Y-90763962D01*
X181058669Y-90519369D01*
X180651925Y-90350890D01*
X180220128Y-90265000D01*
X179779872Y-90265000D01*
X179348075Y-90350890D01*
X178941331Y-90519369D01*
X178575271Y-90763962D01*
X178263962Y-91075271D01*
X178019369Y-91441331D01*
X177850890Y-91848075D01*
X177765000Y-92279872D01*
X173773072Y-92279872D01*
X173773072Y-91730000D01*
X173736409Y-91357754D01*
X173627829Y-90999812D01*
X173451504Y-90669932D01*
X173214211Y-90380789D01*
X172925068Y-90143496D01*
X172595188Y-89967171D01*
X172237246Y-89858591D01*
X171865000Y-89821928D01*
X170030000Y-89821928D01*
X170030000Y-81793213D01*
X176180565Y-81793213D01*
X176251454Y-81994420D01*
X176366521Y-82173874D01*
X176514387Y-82327431D01*
X176689369Y-82449190D01*
X176884743Y-82534472D01*
X177093000Y-82580000D01*
X177423000Y-82580000D01*
X177423000Y-81627000D01*
X176307546Y-81627000D01*
X176180565Y-81793213D01*
X170030000Y-81793213D01*
X170030000Y-80801131D01*
X173748770Y-80801131D01*
X173799414Y-81013066D01*
X173890431Y-81211049D01*
X174018324Y-81387471D01*
X174178178Y-81535553D01*
X174363850Y-81649603D01*
X174552062Y-81719268D01*
X174723000Y-81592734D01*
X174723000Y-80627000D01*
X174977000Y-80627000D01*
X174977000Y-81592734D01*
X175147938Y-81719268D01*
X175336150Y-81649603D01*
X175521822Y-81535553D01*
X175681676Y-81387471D01*
X175809569Y-81211049D01*
X175811528Y-81206787D01*
X176180565Y-81206787D01*
X176307546Y-81373000D01*
X177423000Y-81373000D01*
X177423000Y-80420000D01*
X177093000Y-80420000D01*
X176884743Y-80465528D01*
X176689369Y-80550810D01*
X176514387Y-80672569D01*
X176366521Y-80826126D01*
X176251454Y-81005580D01*
X176180565Y-81206787D01*
X175811528Y-81206787D01*
X175900586Y-81013066D01*
X175951230Y-80801131D01*
X175802564Y-80627000D01*
X174977000Y-80627000D01*
X174723000Y-80627000D01*
X173897436Y-80627000D01*
X173748770Y-80801131D01*
X170030000Y-80801131D01*
X170030000Y-80198869D01*
X173748770Y-80198869D01*
X173897436Y-80373000D01*
X174723000Y-80373000D01*
X174723000Y-79407266D01*
X174977000Y-79407266D01*
X174977000Y-80373000D01*
X175802564Y-80373000D01*
X175951230Y-80198869D01*
X175900586Y-79986934D01*
X175809569Y-79788951D01*
X175681676Y-79612529D01*
X175521822Y-79464447D01*
X175336150Y-79350397D01*
X175147938Y-79280732D01*
X174977000Y-79407266D01*
X174723000Y-79407266D01*
X174552062Y-79280732D01*
X174363850Y-79350397D01*
X174178178Y-79464447D01*
X174018324Y-79612529D01*
X173890431Y-79788951D01*
X173799414Y-79986934D01*
X173748770Y-80198869D01*
X170030000Y-80198869D01*
X170030000Y-75801131D01*
X173748770Y-75801131D01*
X173799414Y-76013066D01*
X173890431Y-76211049D01*
X174018324Y-76387471D01*
X174178178Y-76535553D01*
X174363850Y-76649603D01*
X174552062Y-76719268D01*
X174723000Y-76592734D01*
X174723000Y-75627000D01*
X174977000Y-75627000D01*
X174977000Y-76592734D01*
X175147938Y-76719268D01*
X175336150Y-76649603D01*
X175521822Y-76535553D01*
X175681676Y-76387471D01*
X175809569Y-76211049D01*
X175900586Y-76013066D01*
X175951230Y-75801131D01*
X175802564Y-75627000D01*
X174977000Y-75627000D01*
X174723000Y-75627000D01*
X173897436Y-75627000D01*
X173748770Y-75801131D01*
X170030000Y-75801131D01*
X170030000Y-75198869D01*
X173748770Y-75198869D01*
X173897436Y-75373000D01*
X174723000Y-75373000D01*
X174723000Y-74407266D01*
X174977000Y-74407266D01*
X174977000Y-75373000D01*
X175802564Y-75373000D01*
X175951230Y-75198869D01*
X175900586Y-74986934D01*
X175811529Y-74793213D01*
X176180565Y-74793213D01*
X176251454Y-74994420D01*
X176366521Y-75173874D01*
X176514387Y-75327431D01*
X176689369Y-75449190D01*
X176884743Y-75534472D01*
X177093000Y-75580000D01*
X177423000Y-75580000D01*
X177423000Y-74627000D01*
X176307546Y-74627000D01*
X176180565Y-74793213D01*
X175811529Y-74793213D01*
X175809569Y-74788951D01*
X175681676Y-74612529D01*
X175521822Y-74464447D01*
X175336150Y-74350397D01*
X175147938Y-74280732D01*
X174977000Y-74407266D01*
X174723000Y-74407266D01*
X174552062Y-74280732D01*
X174363850Y-74350397D01*
X174178178Y-74464447D01*
X174018324Y-74612529D01*
X173890431Y-74788951D01*
X173799414Y-74986934D01*
X173748770Y-75198869D01*
X170030000Y-75198869D01*
X170030000Y-74206787D01*
X176180565Y-74206787D01*
X176307546Y-74373000D01*
X177423000Y-74373000D01*
X177423000Y-73420000D01*
X177093000Y-73420000D01*
X176884743Y-73465528D01*
X176689369Y-73550810D01*
X176514387Y-73672569D01*
X176366521Y-73826126D01*
X176251454Y-74005580D01*
X176180565Y-74206787D01*
X170030000Y-74206787D01*
X170030000Y-61850000D01*
X170711928Y-61850000D01*
X170724188Y-61974482D01*
X170760498Y-62094180D01*
X170819463Y-62204494D01*
X170898815Y-62301185D01*
X170995506Y-62380537D01*
X171105820Y-62439502D01*
X171178380Y-62461513D01*
X171046525Y-62593368D01*
X170884010Y-62836589D01*
X170772068Y-63106842D01*
X170715000Y-63393740D01*
X170715000Y-63686260D01*
X170772068Y-63973158D01*
X170884010Y-64243411D01*
X171046525Y-64486632D01*
X171253368Y-64693475D01*
X171427760Y-64810000D01*
X171253368Y-64926525D01*
X171046525Y-65133368D01*
X170884010Y-65376589D01*
X170772068Y-65646842D01*
X170715000Y-65933740D01*
X170715000Y-66226260D01*
X170772068Y-66513158D01*
X170884010Y-66783411D01*
X171046525Y-67026632D01*
X171253368Y-67233475D01*
X171496589Y-67395990D01*
X171766842Y-67507932D01*
X172053740Y-67565000D01*
X172346260Y-67565000D01*
X172633158Y-67507932D01*
X172903411Y-67395990D01*
X173146632Y-67233475D01*
X173353475Y-67026632D01*
X173470000Y-66852240D01*
X173586525Y-67026632D01*
X173793368Y-67233475D01*
X174036589Y-67395990D01*
X174306842Y-67507932D01*
X174593740Y-67565000D01*
X174886260Y-67565000D01*
X175173158Y-67507932D01*
X175443411Y-67395990D01*
X175686632Y-67233475D01*
X175893475Y-67026632D01*
X176055990Y-66783411D01*
X176167932Y-66513158D01*
X176225000Y-66226260D01*
X176225000Y-65933740D01*
X176167932Y-65646842D01*
X176055990Y-65376589D01*
X175893475Y-65133368D01*
X175686632Y-64926525D01*
X175512240Y-64810000D01*
X175686632Y-64693475D01*
X175893475Y-64486632D01*
X176055990Y-64243411D01*
X176167932Y-63973158D01*
X176225000Y-63686260D01*
X176225000Y-63393740D01*
X176167932Y-63106842D01*
X176055990Y-62836589D01*
X175893475Y-62593368D01*
X175686632Y-62386525D01*
X175512240Y-62270000D01*
X175686632Y-62153475D01*
X175893475Y-61946632D01*
X176055990Y-61703411D01*
X176167932Y-61433158D01*
X176225000Y-61146260D01*
X176225000Y-60853740D01*
X176167932Y-60566842D01*
X176055990Y-60296589D01*
X175893475Y-60053368D01*
X175686632Y-59846525D01*
X175443411Y-59684010D01*
X175173158Y-59572068D01*
X174886260Y-59515000D01*
X174593740Y-59515000D01*
X174306842Y-59572068D01*
X174036589Y-59684010D01*
X173793368Y-59846525D01*
X173661513Y-59978380D01*
X173639502Y-59905820D01*
X173580537Y-59795506D01*
X173501185Y-59698815D01*
X173404494Y-59619463D01*
X173294180Y-59560498D01*
X173174482Y-59524188D01*
X173050000Y-59511928D01*
X172485750Y-59515000D01*
X172327000Y-59673750D01*
X172327000Y-60873000D01*
X172347000Y-60873000D01*
X172347000Y-61127000D01*
X172327000Y-61127000D01*
X172327000Y-61147000D01*
X172073000Y-61147000D01*
X172073000Y-61127000D01*
X170873750Y-61127000D01*
X170715000Y-61285750D01*
X170711928Y-61850000D01*
X170030000Y-61850000D01*
X170030000Y-60150000D01*
X170711928Y-60150000D01*
X170715000Y-60714250D01*
X170873750Y-60873000D01*
X172073000Y-60873000D01*
X172073000Y-59673750D01*
X171914250Y-59515000D01*
X171350000Y-59511928D01*
X171225518Y-59524188D01*
X171105820Y-59560498D01*
X170995506Y-59619463D01*
X170898815Y-59698815D01*
X170819463Y-59795506D01*
X170760498Y-59905820D01*
X170724188Y-60025518D01*
X170711928Y-60150000D01*
X170030000Y-60150000D01*
X170030000Y-45678072D01*
X171635000Y-45678072D01*
X172007246Y-45641409D01*
X172365188Y-45532829D01*
X172695068Y-45356504D01*
X172984211Y-45119211D01*
X173221504Y-44830068D01*
X173397829Y-44500188D01*
X173506409Y-44142246D01*
X173543072Y-43770000D01*
X173543072Y-42279872D01*
X177765000Y-42279872D01*
X177765000Y-42720128D01*
X177850890Y-43151925D01*
X178019369Y-43558669D01*
X178263962Y-43924729D01*
X178575271Y-44236038D01*
X178941331Y-44480631D01*
X179348075Y-44649110D01*
X179779872Y-44735000D01*
X180220128Y-44735000D01*
X180651925Y-44649110D01*
X181058669Y-44480631D01*
X181424729Y-44236038D01*
X181736038Y-43924729D01*
X181980631Y-43558669D01*
X182149110Y-43151925D01*
X182235000Y-42720128D01*
X182235000Y-42279872D01*
X182149110Y-41848075D01*
X181980631Y-41441331D01*
X181736038Y-41075271D01*
X181424729Y-40763962D01*
X181058669Y-40519369D01*
X180651925Y-40350890D01*
X180220128Y-40265000D01*
X179779872Y-40265000D01*
X179348075Y-40350890D01*
X178941331Y-40519369D01*
X178575271Y-40763962D01*
X178263962Y-41075271D01*
X178019369Y-41441331D01*
X177850890Y-41848075D01*
X177765000Y-42279872D01*
X173543072Y-42279872D01*
X173543072Y-41230000D01*
X173506409Y-40857754D01*
X173397829Y-40499812D01*
X173221504Y-40169932D01*
X172984211Y-39880789D01*
X172695068Y-39643496D01*
X172365188Y-39467171D01*
X172007246Y-39358591D01*
X171635000Y-39321928D01*
X166555000Y-39321928D01*
X166182754Y-39358591D01*
X165824812Y-39467171D01*
X165494932Y-39643496D01*
X165205789Y-39880789D01*
X164968496Y-40169932D01*
X164792171Y-40499812D01*
X164683591Y-40857754D01*
X164646928Y-41230000D01*
X164646928Y-43770000D01*
X164683591Y-44142246D01*
X164792171Y-44500188D01*
X164968496Y-44830068D01*
X165205789Y-45119211D01*
X165494932Y-45356504D01*
X165824812Y-45532829D01*
X166182754Y-45641409D01*
X166555000Y-45678072D01*
X168160000Y-45678072D01*
X168160000Y-63532231D01*
X168149068Y-63477271D01*
X168078586Y-63307111D01*
X167976262Y-63153972D01*
X167846028Y-63023738D01*
X167692889Y-62921414D01*
X167522729Y-62850932D01*
X167342089Y-62815000D01*
X167157911Y-62815000D01*
X166977271Y-62850932D01*
X166807111Y-62921414D01*
X166653972Y-63023738D01*
X166637710Y-63040000D01*
X143784875Y-63040000D01*
X143750000Y-63036565D01*
X143715125Y-63040000D01*
X143715123Y-63040000D01*
X143610816Y-63050273D01*
X143476980Y-63090872D01*
X143353637Y-63156800D01*
X143245525Y-63245525D01*
X143223288Y-63272621D01*
X129609172Y-76886737D01*
X129522729Y-76850932D01*
X129342089Y-76815000D01*
X129157911Y-76815000D01*
X128977271Y-76850932D01*
X128807111Y-76921414D01*
X128653972Y-77023738D01*
X128523738Y-77153972D01*
X128421414Y-77307111D01*
X128350932Y-77477271D01*
X128315000Y-77657911D01*
X128315000Y-77842089D01*
X128350932Y-78022729D01*
X128403650Y-78150001D01*
X128350932Y-78277274D01*
X128315000Y-78457914D01*
X128315000Y-78642092D01*
X128350932Y-78822732D01*
X128421414Y-78992892D01*
X128523738Y-79146031D01*
X128653972Y-79276265D01*
X128807111Y-79378589D01*
X128977271Y-79449071D01*
X129157911Y-79485003D01*
X129342089Y-79485003D01*
X129522729Y-79449071D01*
X129692889Y-79378589D01*
X129846028Y-79276265D01*
X129976262Y-79146031D01*
X130078586Y-78992892D01*
X130126235Y-78877856D01*
X136389390Y-72614702D01*
X136400932Y-72672729D01*
X136471414Y-72842889D01*
X136505916Y-72894526D01*
X136450932Y-73027271D01*
X136415000Y-73207911D01*
X136415000Y-73392089D01*
X136450932Y-73572729D01*
X136521414Y-73742889D01*
X136623738Y-73896028D01*
X136753972Y-74026262D01*
X136815000Y-74067040D01*
X136815000Y-74092089D01*
X136850932Y-74272729D01*
X136921414Y-74442889D01*
X137023738Y-74596028D01*
X137153972Y-74726262D01*
X137307111Y-74828586D01*
X137477271Y-74899068D01*
X137657911Y-74935000D01*
X137842089Y-74935000D01*
X138022729Y-74899068D01*
X138192889Y-74828586D01*
X138346028Y-74726262D01*
X138476262Y-74596028D01*
X138578586Y-74442889D01*
X138649068Y-74272729D01*
X138685000Y-74092089D01*
X138685000Y-74069092D01*
X138694093Y-74059999D01*
X139360909Y-74059999D01*
X137680909Y-75740000D01*
X137657911Y-75740000D01*
X137477271Y-75775932D01*
X137307111Y-75846414D01*
X137153972Y-75948738D01*
X137023738Y-76078972D01*
X136921414Y-76232111D01*
X136850932Y-76402271D01*
X136815000Y-76582911D01*
X136815000Y-76605909D01*
X136697615Y-76723294D01*
X136670525Y-76745526D01*
X136648292Y-76772617D01*
X136581800Y-76853638D01*
X136515871Y-76976982D01*
X136475273Y-77110817D01*
X136461564Y-77250001D01*
X136465000Y-77284886D01*
X136464999Y-84186187D01*
X136442889Y-84171414D01*
X136272729Y-84100932D01*
X136092089Y-84065000D01*
X136069092Y-84065000D01*
X134935000Y-82930909D01*
X134935000Y-82907911D01*
X134899068Y-82727271D01*
X134828586Y-82557111D01*
X134726262Y-82403972D01*
X134596028Y-82273738D01*
X134442889Y-82171414D01*
X134272729Y-82100932D01*
X134092089Y-82065000D01*
X133907911Y-82065000D01*
X133727271Y-82100932D01*
X133557111Y-82171414D01*
X133403972Y-82273738D01*
X133273738Y-82403972D01*
X133171414Y-82557111D01*
X133168146Y-82565000D01*
X133157911Y-82565000D01*
X132977271Y-82600932D01*
X132885000Y-82639152D01*
X132885000Y-82362290D01*
X132901262Y-82346028D01*
X133003586Y-82192889D01*
X133074068Y-82022729D01*
X133110000Y-81842089D01*
X133110000Y-81657911D01*
X133074068Y-81477271D01*
X133003586Y-81307111D01*
X132901262Y-81153972D01*
X132771028Y-81023738D01*
X132617889Y-80921414D01*
X132447729Y-80850932D01*
X132267089Y-80815000D01*
X132082911Y-80815000D01*
X131902271Y-80850932D01*
X131732111Y-80921414D01*
X131578972Y-81023738D01*
X131448738Y-81153972D01*
X131346414Y-81307111D01*
X131275932Y-81477271D01*
X131240000Y-81657911D01*
X131240000Y-81842089D01*
X131275932Y-82022729D01*
X131346414Y-82192889D01*
X131448738Y-82346028D01*
X131465001Y-82362291D01*
X131465000Y-86090125D01*
X131461565Y-86125000D01*
X131465000Y-86159875D01*
X131465000Y-86159876D01*
X131475273Y-86264183D01*
X131515872Y-86398019D01*
X131581800Y-86521362D01*
X131670525Y-86629474D01*
X131697617Y-86651708D01*
X132335909Y-87290000D01*
X130794092Y-87290000D01*
X129435000Y-85930909D01*
X129435000Y-85907911D01*
X129399068Y-85727271D01*
X129328586Y-85557111D01*
X129226262Y-85403972D01*
X129096028Y-85273738D01*
X128942889Y-85171414D01*
X128772729Y-85100932D01*
X128592089Y-85065000D01*
X128407911Y-85065000D01*
X128227271Y-85100932D01*
X128057111Y-85171414D01*
X127903972Y-85273738D01*
X127773738Y-85403972D01*
X127671414Y-85557111D01*
X127600932Y-85727271D01*
X127565000Y-85907911D01*
X124096180Y-85907911D01*
X125544091Y-84460000D01*
X126637710Y-84460000D01*
X126653972Y-84476262D01*
X126807111Y-84578586D01*
X126977271Y-84649068D01*
X127157911Y-84685000D01*
X127342089Y-84685000D01*
X127522729Y-84649068D01*
X127692889Y-84578586D01*
X127846028Y-84476262D01*
X127976262Y-84346028D01*
X128078586Y-84192889D01*
X128149068Y-84022729D01*
X128185000Y-83842089D01*
X128185000Y-83657911D01*
X128149068Y-83477271D01*
X128096350Y-83349999D01*
X128149068Y-83222726D01*
X128185000Y-83042086D01*
X128185000Y-82857908D01*
X128149068Y-82677268D01*
X128078586Y-82507108D01*
X127976262Y-82353969D01*
X127846028Y-82223735D01*
X127692889Y-82121411D01*
X127522729Y-82050929D01*
X127342089Y-82014997D01*
X127157911Y-82014997D01*
X126977271Y-82050929D01*
X126807111Y-82121411D01*
X126653972Y-82223735D01*
X126637710Y-82239997D01*
X125233875Y-82239997D01*
X125199000Y-82236562D01*
X125164125Y-82239997D01*
X125164124Y-82239997D01*
X125059817Y-82250270D01*
X124925981Y-82290869D01*
X124802638Y-82356797D01*
X124694526Y-82445522D01*
X124672293Y-82472613D01*
X119710000Y-87434907D01*
X119710000Y-77612290D01*
X119726262Y-77596028D01*
X119828586Y-77442889D01*
X119899068Y-77272729D01*
X119935000Y-77092089D01*
X119935000Y-76907911D01*
X119899068Y-76727271D01*
X119828586Y-76557111D01*
X119726262Y-76403972D01*
X119596028Y-76273738D01*
X119442889Y-76171414D01*
X119272729Y-76100932D01*
X119092089Y-76065000D01*
X118907911Y-76065000D01*
X118727271Y-76100932D01*
X118557111Y-76171414D01*
X118403972Y-76273738D01*
X118273738Y-76403972D01*
X118171414Y-76557111D01*
X118100932Y-76727271D01*
X118065000Y-76907911D01*
X118065000Y-77092089D01*
X118100932Y-77272729D01*
X118171414Y-77442889D01*
X118273738Y-77596028D01*
X118290000Y-77612290D01*
X118290001Y-91705907D01*
X115300188Y-94695721D01*
X115316409Y-94642246D01*
X115353072Y-94270000D01*
X115353072Y-91730000D01*
X115316409Y-91357754D01*
X115243326Y-91116832D01*
X115527816Y-90832342D01*
X115557764Y-90807764D01*
X115655862Y-90688233D01*
X115728754Y-90551860D01*
X115773641Y-90403887D01*
X115785000Y-90288561D01*
X115785000Y-90288554D01*
X115788797Y-90250001D01*
X115785000Y-90211448D01*
X115785000Y-90008120D01*
X115828586Y-89942889D01*
X115899068Y-89772729D01*
X115935000Y-89592089D01*
X115935000Y-89407911D01*
X115899068Y-89227271D01*
X115828586Y-89057111D01*
X115726262Y-88903972D01*
X115596028Y-88773738D01*
X115442889Y-88671414D01*
X115272729Y-88600932D01*
X115092089Y-88565000D01*
X114907911Y-88565000D01*
X114727271Y-88600932D01*
X114557111Y-88671414D01*
X114403972Y-88773738D01*
X114273738Y-88903972D01*
X114171414Y-89057111D01*
X114100932Y-89227271D01*
X114065000Y-89407911D01*
X114065000Y-89592089D01*
X114100932Y-89772729D01*
X114171414Y-89942889D01*
X114181644Y-89958199D01*
X114173257Y-89966585D01*
X113817246Y-89858591D01*
X113445000Y-89821928D01*
X111690000Y-89821928D01*
X111690000Y-84193552D01*
X111693797Y-84154999D01*
X111690000Y-84116446D01*
X111690000Y-84116439D01*
X111685000Y-84065675D01*
X111685000Y-83907911D01*
X111649068Y-83727271D01*
X111578586Y-83557111D01*
X111476262Y-83403972D01*
X111346028Y-83273738D01*
X111192889Y-83171414D01*
X111022729Y-83100932D01*
X110842089Y-83065000D01*
X110657911Y-83065000D01*
X110477271Y-83100932D01*
X110307111Y-83171414D01*
X110153972Y-83273738D01*
X110023738Y-83403972D01*
X109921414Y-83557111D01*
X109850932Y-83727271D01*
X109815000Y-83907911D01*
X109815000Y-84092089D01*
X109850932Y-84272729D01*
X109921414Y-84442889D01*
X110023738Y-84596028D01*
X110120001Y-84692291D01*
X110120000Y-89821928D01*
X108365000Y-89821928D01*
X107992754Y-89858591D01*
X107634812Y-89967171D01*
X107304932Y-90143496D01*
X107015789Y-90380789D01*
X106778496Y-90669932D01*
X106602171Y-90999812D01*
X106493591Y-91357754D01*
X106456928Y-91730000D01*
X102100202Y-91730000D01*
X101980631Y-91441331D01*
X101736038Y-91075271D01*
X101424729Y-90763962D01*
X101058669Y-90519369D01*
X100651925Y-90350890D01*
X100220128Y-90265000D01*
X99779872Y-90265000D01*
X99348075Y-90350890D01*
X98941331Y-90519369D01*
X98575271Y-90763962D01*
X98263962Y-91075271D01*
X98019369Y-91441331D01*
X97850890Y-91848075D01*
X97765000Y-92279872D01*
X93163718Y-92279872D01*
X93251616Y-91358595D01*
X93487067Y-90396384D01*
X93858955Y-89478236D01*
X94359490Y-88623386D01*
X94978187Y-87849743D01*
X95702079Y-87173522D01*
X96516001Y-86608884D01*
X97402913Y-86167651D01*
X98344228Y-85859073D01*
X99327579Y-85688335D01*
X100032520Y-85653241D01*
X100049030Y-85651214D01*
X100066261Y-85651334D01*
X100075350Y-85650443D01*
X100269447Y-85630042D01*
X100327577Y-85618110D01*
X100385743Y-85607014D01*
X100394479Y-85604377D01*
X100394488Y-85604375D01*
X100394496Y-85604371D01*
X100580923Y-85546663D01*
X100635595Y-85523681D01*
X100690534Y-85501485D01*
X100698597Y-85497198D01*
X100870274Y-85404373D01*
X100919445Y-85371207D01*
X100969024Y-85338763D01*
X100976101Y-85332991D01*
X101126479Y-85208588D01*
X101168273Y-85166501D01*
X101210602Y-85125049D01*
X101216423Y-85118013D01*
X101339773Y-84966771D01*
X101372603Y-84917358D01*
X101406069Y-84868482D01*
X101410412Y-84860451D01*
X101410413Y-84860450D01*
X101410415Y-84860446D01*
X101502038Y-84688127D01*
X101524630Y-84633315D01*
X101547980Y-84578835D01*
X101550681Y-84570111D01*
X101607090Y-84383275D01*
X101618612Y-84325085D01*
X101630929Y-84267141D01*
X101631882Y-84258068D01*
X101631884Y-84258058D01*
X101631884Y-84258049D01*
X101650928Y-84063825D01*
X101650928Y-84063824D01*
X101654050Y-84032125D01*
X101654050Y-54618755D01*
X105639119Y-54618755D01*
X105744284Y-54923168D01*
X105906817Y-55201215D01*
X106120471Y-55442211D01*
X106377036Y-55636894D01*
X106666652Y-55777783D01*
X106855405Y-55835041D01*
X107110080Y-55715797D01*
X107110080Y-54364080D01*
X107364080Y-54364080D01*
X107364080Y-55715797D01*
X107618755Y-55835041D01*
X107923168Y-55729876D01*
X108201215Y-55567343D01*
X108442211Y-55353689D01*
X108636894Y-55097124D01*
X108777783Y-54807508D01*
X108835041Y-54618755D01*
X108715797Y-54364080D01*
X107364080Y-54364080D01*
X107110080Y-54364080D01*
X105758363Y-54364080D01*
X105639119Y-54618755D01*
X101654050Y-54618755D01*
X101654050Y-53855405D01*
X105639119Y-53855405D01*
X105758363Y-54110080D01*
X107110080Y-54110080D01*
X107110080Y-52758363D01*
X107364080Y-52758363D01*
X107364080Y-54110080D01*
X108715797Y-54110080D01*
X108835041Y-53855405D01*
X108729876Y-53550992D01*
X108567343Y-53272945D01*
X108353689Y-53031949D01*
X108097124Y-52837266D01*
X107807508Y-52696377D01*
X107618755Y-52639119D01*
X107364080Y-52758363D01*
X107110080Y-52758363D01*
X106855405Y-52639119D01*
X106550992Y-52744284D01*
X106272945Y-52906817D01*
X106031949Y-53120471D01*
X105837266Y-53377036D01*
X105696377Y-53666652D01*
X105639119Y-53855405D01*
X101654050Y-53855405D01*
X101654050Y-51605022D01*
X113686555Y-51605022D01*
X113689990Y-51639897D01*
X113689991Y-69110093D01*
X113686555Y-69144978D01*
X113700264Y-69284162D01*
X113740862Y-69417997D01*
X113806791Y-69541341D01*
X113863808Y-69610816D01*
X113895516Y-69649453D01*
X113922607Y-69671686D01*
X122378315Y-78127395D01*
X122400548Y-78154486D01*
X122508660Y-78243211D01*
X122632003Y-78309139D01*
X122765839Y-78349738D01*
X122870146Y-78360011D01*
X122870147Y-78360011D01*
X122905022Y-78363446D01*
X122939897Y-78360011D01*
X123637710Y-78360011D01*
X123653972Y-78376273D01*
X123807111Y-78478597D01*
X123977271Y-78549079D01*
X124157911Y-78585011D01*
X124342089Y-78585011D01*
X124522729Y-78549079D01*
X124692889Y-78478597D01*
X124846028Y-78376273D01*
X124976262Y-78246039D01*
X125078586Y-78092900D01*
X125149068Y-77922740D01*
X125185000Y-77742100D01*
X125185000Y-77557922D01*
X125149068Y-77377282D01*
X125078586Y-77207122D01*
X124976262Y-77053983D01*
X124846028Y-76923749D01*
X124692889Y-76821425D01*
X124522729Y-76750943D01*
X124364790Y-76719527D01*
X124328586Y-76632122D01*
X124226262Y-76478983D01*
X124217158Y-76469879D01*
X124227271Y-76474068D01*
X124407911Y-76510000D01*
X124592089Y-76510000D01*
X124772729Y-76474068D01*
X124942889Y-76403586D01*
X125096028Y-76301262D01*
X125226262Y-76171028D01*
X125328586Y-76017889D01*
X125364790Y-75930484D01*
X125522729Y-75899068D01*
X125692889Y-75828586D01*
X125846028Y-75726262D01*
X125976262Y-75596028D01*
X126078586Y-75442889D01*
X126149068Y-75272729D01*
X126185000Y-75092089D01*
X126185000Y-74907911D01*
X126149068Y-74727271D01*
X126078586Y-74557111D01*
X125976262Y-74403972D01*
X125943717Y-74371427D01*
X126012899Y-74267889D01*
X126070273Y-74129375D01*
X126192889Y-74078586D01*
X126346028Y-73976262D01*
X126476262Y-73846028D01*
X126578586Y-73692889D01*
X126649068Y-73522729D01*
X126685000Y-73342089D01*
X126685000Y-73157911D01*
X126649068Y-72977271D01*
X126578586Y-72807111D01*
X126476262Y-72653972D01*
X126346028Y-72523738D01*
X126192889Y-72421414D01*
X126022729Y-72350932D01*
X125842089Y-72315000D01*
X125657911Y-72315000D01*
X125477271Y-72350932D01*
X125307111Y-72421414D01*
X125153972Y-72523738D01*
X125137710Y-72540000D01*
X124657090Y-72540000D01*
X123025814Y-70908724D01*
X123157911Y-70935000D01*
X123342089Y-70935000D01*
X123522729Y-70899068D01*
X123692889Y-70828586D01*
X123846028Y-70726262D01*
X123976262Y-70596028D01*
X124078586Y-70442889D01*
X124149068Y-70272729D01*
X124185000Y-70092089D01*
X124185000Y-70069091D01*
X124544091Y-69710000D01*
X128137710Y-69710000D01*
X128153972Y-69726262D01*
X128307111Y-69828586D01*
X128477271Y-69899068D01*
X128657911Y-69935000D01*
X128842089Y-69935000D01*
X129022729Y-69899068D01*
X129192889Y-69828586D01*
X129346028Y-69726262D01*
X129476262Y-69596028D01*
X129578586Y-69442889D01*
X129649068Y-69272729D01*
X129685000Y-69092089D01*
X129685000Y-68907911D01*
X129649068Y-68727271D01*
X129578586Y-68557111D01*
X129476262Y-68403972D01*
X129346028Y-68273738D01*
X129192889Y-68171414D01*
X129022729Y-68100932D01*
X128842089Y-68065000D01*
X128657911Y-68065000D01*
X128477271Y-68100932D01*
X128307111Y-68171414D01*
X128153972Y-68273738D01*
X128137710Y-68290000D01*
X124284877Y-68290000D01*
X124250000Y-68286565D01*
X124110815Y-68300273D01*
X123976980Y-68340872D01*
X123853637Y-68406800D01*
X123745525Y-68495525D01*
X123723288Y-68522621D01*
X123180909Y-69065000D01*
X123157911Y-69065000D01*
X122977271Y-69100932D01*
X122819792Y-69166161D01*
X122828133Y-69153678D01*
X122951383Y-68856127D01*
X123014215Y-68540248D01*
X123014215Y-68218182D01*
X122951383Y-67902303D01*
X122828133Y-67604752D01*
X122649202Y-67336963D01*
X122421467Y-67109228D01*
X122153678Y-66930297D01*
X121856127Y-66807047D01*
X121540248Y-66744215D01*
X121218182Y-66744215D01*
X120902303Y-66807047D01*
X120604752Y-66930297D01*
X120336963Y-67109228D01*
X120109228Y-67336963D01*
X119930297Y-67604752D01*
X119869242Y-67752152D01*
X117960000Y-65842911D01*
X117960000Y-64893137D01*
X125915000Y-64893137D01*
X125915000Y-65106863D01*
X125956696Y-65316483D01*
X126038485Y-65513940D01*
X126157225Y-65691647D01*
X126308353Y-65842775D01*
X126486060Y-65961515D01*
X126683517Y-66043304D01*
X126893137Y-66085000D01*
X127106863Y-66085000D01*
X127316483Y-66043304D01*
X127513940Y-65961515D01*
X127691647Y-65842775D01*
X127749422Y-65785000D01*
X133000578Y-65785000D01*
X133058353Y-65842775D01*
X133236060Y-65961515D01*
X133433517Y-66043304D01*
X133643137Y-66085000D01*
X133790000Y-66085000D01*
X133790000Y-67455908D01*
X132430909Y-68815000D01*
X132407911Y-68815000D01*
X132227271Y-68850932D01*
X132057111Y-68921414D01*
X131903972Y-69023738D01*
X131773738Y-69153972D01*
X131671414Y-69307111D01*
X131600932Y-69477271D01*
X131565000Y-69657911D01*
X131565000Y-69842089D01*
X131600932Y-70022729D01*
X131671414Y-70192889D01*
X131773738Y-70346028D01*
X131903972Y-70476262D01*
X132057111Y-70578586D01*
X132227271Y-70649068D01*
X132407911Y-70685000D01*
X132592089Y-70685000D01*
X132772729Y-70649068D01*
X132942889Y-70578586D01*
X133096028Y-70476262D01*
X133226262Y-70346028D01*
X133328586Y-70192889D01*
X133399068Y-70022729D01*
X133435000Y-69842089D01*
X133435000Y-69819091D01*
X134977389Y-68276703D01*
X135004474Y-68254475D01*
X135026704Y-68227388D01*
X135026707Y-68227385D01*
X135093199Y-68146364D01*
X135093201Y-68146362D01*
X135159128Y-68023020D01*
X135199727Y-67889184D01*
X135210000Y-67784877D01*
X135210000Y-67784876D01*
X135213435Y-67750001D01*
X135210000Y-67715126D01*
X135210000Y-61612290D01*
X135226262Y-61596028D01*
X135328586Y-61442889D01*
X135399068Y-61272729D01*
X135435000Y-61092089D01*
X135435000Y-60907911D01*
X135399068Y-60727271D01*
X135328586Y-60557111D01*
X135226262Y-60403972D01*
X135096028Y-60273738D01*
X134942889Y-60171414D01*
X134772729Y-60100932D01*
X134592089Y-60065000D01*
X134407911Y-60065000D01*
X134227271Y-60100932D01*
X134057111Y-60171414D01*
X133903972Y-60273738D01*
X133773738Y-60403972D01*
X133671414Y-60557111D01*
X133600932Y-60727271D01*
X133565000Y-60907911D01*
X133565000Y-61092089D01*
X133600932Y-61272729D01*
X133671414Y-61442889D01*
X133773738Y-61596028D01*
X133790001Y-61612291D01*
X133790000Y-63915000D01*
X133643137Y-63915000D01*
X133433517Y-63956696D01*
X133236060Y-64038485D01*
X133058353Y-64157225D01*
X133000578Y-64215000D01*
X127749422Y-64215000D01*
X127691647Y-64157225D01*
X127513940Y-64038485D01*
X127316483Y-63956696D01*
X127106863Y-63915000D01*
X126893137Y-63915000D01*
X126683517Y-63956696D01*
X126486060Y-64038485D01*
X126308353Y-64157225D01*
X126157225Y-64308353D01*
X126038485Y-64486060D01*
X125956696Y-64683517D01*
X125915000Y-64893137D01*
X117960000Y-64893137D01*
X117960000Y-53044091D01*
X118141683Y-52862408D01*
X147023000Y-52862408D01*
X147023000Y-53137592D01*
X147076686Y-53407490D01*
X147181995Y-53661727D01*
X147334880Y-53890535D01*
X147529465Y-54085120D01*
X147758273Y-54238005D01*
X148012510Y-54343314D01*
X148282408Y-54397000D01*
X148557592Y-54397000D01*
X148827490Y-54343314D01*
X149081727Y-54238005D01*
X149310535Y-54085120D01*
X149505120Y-53890535D01*
X149658005Y-53661727D01*
X149690000Y-53584485D01*
X149721995Y-53661727D01*
X149874880Y-53890535D01*
X150069465Y-54085120D01*
X150298273Y-54238005D01*
X150552510Y-54343314D01*
X150822408Y-54397000D01*
X151097592Y-54397000D01*
X151367490Y-54343314D01*
X151621727Y-54238005D01*
X151850535Y-54085120D01*
X152045120Y-53890535D01*
X152198005Y-53661727D01*
X152230000Y-53584485D01*
X152261995Y-53661727D01*
X152414880Y-53890535D01*
X152609465Y-54085120D01*
X152838273Y-54238005D01*
X153092510Y-54343314D01*
X153362408Y-54397000D01*
X153637592Y-54397000D01*
X153907490Y-54343314D01*
X154161727Y-54238005D01*
X154390535Y-54085120D01*
X154585120Y-53890535D01*
X154738005Y-53661727D01*
X154770000Y-53584485D01*
X154801995Y-53661727D01*
X154954880Y-53890535D01*
X155149465Y-54085120D01*
X155378273Y-54238005D01*
X155632510Y-54343314D01*
X155902408Y-54397000D01*
X156177592Y-54397000D01*
X156447490Y-54343314D01*
X156701727Y-54238005D01*
X156930535Y-54085120D01*
X157125120Y-53890535D01*
X157278005Y-53661727D01*
X157310000Y-53584485D01*
X157341995Y-53661727D01*
X157494880Y-53890535D01*
X157689465Y-54085120D01*
X157918273Y-54238005D01*
X158172510Y-54343314D01*
X158442408Y-54397000D01*
X158717592Y-54397000D01*
X158987490Y-54343314D01*
X159241727Y-54238005D01*
X159470535Y-54085120D01*
X159665120Y-53890535D01*
X159818005Y-53661727D01*
X159923314Y-53407490D01*
X159977000Y-53137592D01*
X159977000Y-52862408D01*
X159923314Y-52592510D01*
X159818005Y-52338273D01*
X159665120Y-52109465D01*
X159470535Y-51914880D01*
X159241727Y-51761995D01*
X158987490Y-51656686D01*
X158717592Y-51603000D01*
X158442408Y-51603000D01*
X158229451Y-51645360D01*
X156356712Y-49772621D01*
X156334475Y-49745525D01*
X156226363Y-49656800D01*
X156103020Y-49590872D01*
X155969184Y-49550273D01*
X155864877Y-49540000D01*
X155864875Y-49540000D01*
X155830000Y-49536565D01*
X155795125Y-49540000D01*
X151362290Y-49540000D01*
X151346028Y-49523738D01*
X151192889Y-49421414D01*
X151022729Y-49350932D01*
X150842089Y-49315000D01*
X150657911Y-49315000D01*
X150477271Y-49350932D01*
X150307111Y-49421414D01*
X150153972Y-49523738D01*
X150023738Y-49653972D01*
X149921414Y-49807111D01*
X149850932Y-49977271D01*
X149815000Y-50157911D01*
X149815000Y-50342089D01*
X149850932Y-50522729D01*
X149921414Y-50692889D01*
X150023738Y-50846028D01*
X150153972Y-50976262D01*
X150307111Y-51078586D01*
X150477271Y-51149068D01*
X150657911Y-51185000D01*
X150842089Y-51185000D01*
X151022729Y-51149068D01*
X151192889Y-51078586D01*
X151346028Y-50976262D01*
X151362290Y-50960000D01*
X155535909Y-50960000D01*
X156179236Y-51603327D01*
X156177592Y-51603000D01*
X155902408Y-51603000D01*
X155632510Y-51656686D01*
X155378273Y-51761995D01*
X155149465Y-51914880D01*
X154954880Y-52109465D01*
X154801995Y-52338273D01*
X154770000Y-52415515D01*
X154738005Y-52338273D01*
X154585120Y-52109465D01*
X154390535Y-51914880D01*
X154161727Y-51761995D01*
X153907490Y-51656686D01*
X153637592Y-51603000D01*
X153362408Y-51603000D01*
X153092510Y-51656686D01*
X152838273Y-51761995D01*
X152609465Y-51914880D01*
X152414880Y-52109465D01*
X152261995Y-52338273D01*
X152230000Y-52415515D01*
X152198005Y-52338273D01*
X152045120Y-52109465D01*
X151850535Y-51914880D01*
X151621727Y-51761995D01*
X151367490Y-51656686D01*
X151097592Y-51603000D01*
X150822408Y-51603000D01*
X150552510Y-51656686D01*
X150298273Y-51761995D01*
X150069465Y-51914880D01*
X149874880Y-52109465D01*
X149721995Y-52338273D01*
X149690000Y-52415515D01*
X149658005Y-52338273D01*
X149505120Y-52109465D01*
X149310535Y-51914880D01*
X149081727Y-51761995D01*
X148827490Y-51656686D01*
X148557592Y-51603000D01*
X148282408Y-51603000D01*
X148012510Y-51656686D01*
X147758273Y-51761995D01*
X147529465Y-51914880D01*
X147334880Y-52109465D01*
X147181995Y-52338273D01*
X147076686Y-52592510D01*
X147023000Y-52862408D01*
X118141683Y-52862408D01*
X127294092Y-43710000D01*
X132955909Y-43710000D01*
X133474128Y-44228219D01*
X133421414Y-44307111D01*
X133350932Y-44477271D01*
X133315000Y-44657911D01*
X133315000Y-44842089D01*
X133350932Y-45022729D01*
X133421414Y-45192889D01*
X133523738Y-45346028D01*
X133653972Y-45476262D01*
X133807111Y-45578586D01*
X133977271Y-45649068D01*
X134157911Y-45685000D01*
X134342089Y-45685000D01*
X134522729Y-45649068D01*
X134692889Y-45578586D01*
X134846028Y-45476262D01*
X134976262Y-45346028D01*
X135078586Y-45192889D01*
X135149068Y-45022729D01*
X135185000Y-44842089D01*
X135185000Y-44657911D01*
X135149068Y-44477271D01*
X135078586Y-44307111D01*
X134976262Y-44153972D01*
X134960000Y-44137710D01*
X134960000Y-44034877D01*
X134963435Y-44000000D01*
X134959887Y-43963978D01*
X135815000Y-44819091D01*
X135815000Y-44842089D01*
X135850932Y-45022729D01*
X135921414Y-45192889D01*
X136023738Y-45346028D01*
X136153972Y-45476262D01*
X136307111Y-45578586D01*
X136477271Y-45649068D01*
X136657911Y-45685000D01*
X136842089Y-45685000D01*
X137022729Y-45649068D01*
X137192889Y-45578586D01*
X137346028Y-45476262D01*
X137476262Y-45346028D01*
X137578586Y-45192889D01*
X137649068Y-45022729D01*
X137685000Y-44842089D01*
X137685000Y-44657911D01*
X137649068Y-44477271D01*
X137578586Y-44307111D01*
X137476262Y-44153972D01*
X137346028Y-44023738D01*
X137192889Y-43921414D01*
X137022729Y-43850932D01*
X136842089Y-43815000D01*
X136819091Y-43815000D01*
X136014071Y-43009980D01*
X137505889Y-43009980D01*
X138540001Y-44044093D01*
X138540001Y-44137709D01*
X138523738Y-44153972D01*
X138421414Y-44307111D01*
X138350932Y-44477271D01*
X138315000Y-44657911D01*
X138315000Y-44842089D01*
X138350932Y-45022729D01*
X138421414Y-45192889D01*
X138523738Y-45346028D01*
X138653972Y-45476262D01*
X138807111Y-45578586D01*
X138977271Y-45649068D01*
X139157911Y-45685000D01*
X139342089Y-45685000D01*
X139522729Y-45649068D01*
X139692889Y-45578586D01*
X139846028Y-45476262D01*
X139976262Y-45346028D01*
X140078586Y-45192889D01*
X140149068Y-45022729D01*
X140185000Y-44842089D01*
X140185000Y-44657911D01*
X140149068Y-44477271D01*
X140078586Y-44307111D01*
X139976262Y-44153972D01*
X139960000Y-44137710D01*
X139960000Y-43964092D01*
X140815000Y-44819092D01*
X140815000Y-44842089D01*
X140850932Y-45022729D01*
X140921414Y-45192889D01*
X141023738Y-45346028D01*
X141153972Y-45476262D01*
X141307111Y-45578586D01*
X141477271Y-45649068D01*
X141657911Y-45685000D01*
X141842089Y-45685000D01*
X142022729Y-45649068D01*
X142192889Y-45578586D01*
X142346028Y-45476262D01*
X142476262Y-45346028D01*
X142578586Y-45192889D01*
X142649068Y-45022729D01*
X142685000Y-44842089D01*
X142685000Y-44657911D01*
X142649068Y-44477271D01*
X142578586Y-44307111D01*
X142476262Y-44153972D01*
X142346028Y-44023738D01*
X142192889Y-43921414D01*
X142022729Y-43850932D01*
X141842089Y-43815000D01*
X141819092Y-43815000D01*
X140314051Y-42309960D01*
X140805869Y-42309960D01*
X143315000Y-44819092D01*
X143315000Y-44842089D01*
X143350932Y-45022729D01*
X143421414Y-45192889D01*
X143523738Y-45346028D01*
X143653972Y-45476262D01*
X143807111Y-45578586D01*
X143977271Y-45649068D01*
X144157911Y-45685000D01*
X144342089Y-45685000D01*
X144522729Y-45649068D01*
X144692889Y-45578586D01*
X144846028Y-45476262D01*
X144976262Y-45346028D01*
X145078586Y-45192889D01*
X145149068Y-45022729D01*
X145185000Y-44842089D01*
X145185000Y-44657911D01*
X145149068Y-44477271D01*
X145078586Y-44307111D01*
X144976262Y-44153972D01*
X144846028Y-44023738D01*
X144692889Y-43921414D01*
X144522729Y-43850932D01*
X144342089Y-43815000D01*
X144319092Y-43815000D01*
X142464041Y-41959950D01*
X142955859Y-41959950D01*
X145815000Y-44819092D01*
X145815000Y-44842089D01*
X145850932Y-45022729D01*
X145921414Y-45192889D01*
X146023738Y-45346028D01*
X146153972Y-45476262D01*
X146307111Y-45578586D01*
X146477271Y-45649068D01*
X146657911Y-45685000D01*
X146842089Y-45685000D01*
X147022729Y-45649068D01*
X147192889Y-45578586D01*
X147346028Y-45476262D01*
X147476262Y-45346028D01*
X147578586Y-45192889D01*
X147649068Y-45022729D01*
X147685000Y-44842089D01*
X147685000Y-44657911D01*
X147649068Y-44477271D01*
X147578586Y-44307111D01*
X147476262Y-44153972D01*
X147346028Y-44023738D01*
X147192889Y-43921414D01*
X147022729Y-43850932D01*
X146842089Y-43815000D01*
X146819092Y-43815000D01*
X144614031Y-41609940D01*
X145105849Y-41609940D01*
X148315000Y-44819092D01*
X148315000Y-44842089D01*
X148350932Y-45022729D01*
X148421414Y-45192889D01*
X148523738Y-45346028D01*
X148653972Y-45476262D01*
X148807111Y-45578586D01*
X148977271Y-45649068D01*
X149157911Y-45685000D01*
X149342089Y-45685000D01*
X149522729Y-45649068D01*
X149692889Y-45578586D01*
X149846028Y-45476262D01*
X149976262Y-45346028D01*
X150078586Y-45192889D01*
X150149068Y-45022729D01*
X150185000Y-44842089D01*
X150185000Y-44657911D01*
X150149068Y-44477271D01*
X150078586Y-44307111D01*
X149976262Y-44153972D01*
X149846028Y-44023738D01*
X149692889Y-43921414D01*
X149522729Y-43850932D01*
X149342089Y-43815000D01*
X149319092Y-43815000D01*
X146714091Y-41210000D01*
X150182847Y-41210000D01*
X150273738Y-41346028D01*
X150403972Y-41476262D01*
X150557111Y-41578586D01*
X150727271Y-41649068D01*
X150907911Y-41685000D01*
X151092089Y-41685000D01*
X151272729Y-41649068D01*
X151442889Y-41578586D01*
X151596028Y-41476262D01*
X151726262Y-41346028D01*
X151828586Y-41192889D01*
X151899068Y-41022729D01*
X151931439Y-40859990D01*
X154065135Y-40859990D01*
X154100010Y-40863425D01*
X154134885Y-40859990D01*
X154134887Y-40859990D01*
X154239194Y-40849717D01*
X154373030Y-40809118D01*
X154496373Y-40743190D01*
X154604485Y-40654465D01*
X154626722Y-40627369D01*
X154819091Y-40435000D01*
X154842089Y-40435000D01*
X155022729Y-40399068D01*
X155192889Y-40328586D01*
X155346028Y-40226262D01*
X155476262Y-40096028D01*
X155578586Y-39942889D01*
X155649068Y-39772729D01*
X155685000Y-39592089D01*
X155685000Y-39407911D01*
X155649068Y-39227271D01*
X155578586Y-39057111D01*
X155476262Y-38903972D01*
X155346028Y-38773738D01*
X155192889Y-38671414D01*
X155022729Y-38600932D01*
X154842089Y-38565000D01*
X154657911Y-38565000D01*
X154477271Y-38600932D01*
X154307111Y-38671414D01*
X154153972Y-38773738D01*
X154023738Y-38903972D01*
X153921414Y-39057111D01*
X153850932Y-39227271D01*
X153815000Y-39407911D01*
X153815000Y-39430909D01*
X153805919Y-39439990D01*
X125889897Y-39439990D01*
X125855022Y-39436555D01*
X125820147Y-39439990D01*
X125820145Y-39439990D01*
X125715838Y-39450263D01*
X125582002Y-39490862D01*
X125458659Y-39556790D01*
X125350547Y-39645515D01*
X125328310Y-39672611D01*
X113922607Y-51078314D01*
X113895515Y-51100548D01*
X113806790Y-51208660D01*
X113740862Y-51332003D01*
X113700263Y-51465839D01*
X113692616Y-51543486D01*
X113686555Y-51605022D01*
X101654050Y-51605022D01*
X101654050Y-50967875D01*
X101651291Y-50939864D01*
X101651334Y-50933739D01*
X101650443Y-50924650D01*
X101630042Y-50730553D01*
X101618110Y-50672423D01*
X101607014Y-50614257D01*
X101604377Y-50605521D01*
X101604375Y-50605512D01*
X101604371Y-50605504D01*
X101546663Y-50419077D01*
X101523676Y-50364393D01*
X101501485Y-50309466D01*
X101497198Y-50301403D01*
X101497198Y-50301402D01*
X101497195Y-50301398D01*
X101404373Y-50129726D01*
X101371217Y-50080570D01*
X101338763Y-50030976D01*
X101332991Y-50023899D01*
X101208587Y-49873521D01*
X101166520Y-49831746D01*
X101125049Y-49789398D01*
X101118013Y-49783577D01*
X100966771Y-49660227D01*
X100917376Y-49627409D01*
X100868483Y-49593931D01*
X100860450Y-49589587D01*
X100688127Y-49497962D01*
X100633304Y-49475365D01*
X100578835Y-49452020D01*
X100570111Y-49449319D01*
X100383275Y-49392910D01*
X100325094Y-49381390D01*
X100267140Y-49369071D01*
X100258069Y-49368118D01*
X100258058Y-49368116D01*
X100258048Y-49368116D01*
X100063825Y-49349072D01*
X100058791Y-49349072D01*
X100047332Y-49347665D01*
X99011995Y-49272543D01*
X98044679Y-49058979D01*
X97118335Y-48708019D01*
X96252352Y-48227008D01*
X95464879Y-47626029D01*
X94772405Y-46917663D01*
X94189441Y-46116753D01*
X93728204Y-45240084D01*
X93657547Y-45040000D01*
X106226928Y-45040000D01*
X106239188Y-45164482D01*
X106275498Y-45284180D01*
X106334463Y-45394494D01*
X106413815Y-45491185D01*
X106510506Y-45570537D01*
X106620820Y-45629502D01*
X106740518Y-45665812D01*
X106865000Y-45678072D01*
X110389250Y-45675000D01*
X110548000Y-45516250D01*
X110548000Y-42627000D01*
X110802000Y-42627000D01*
X110802000Y-45516250D01*
X110960750Y-45675000D01*
X114485000Y-45678072D01*
X114609482Y-45665812D01*
X114729180Y-45629502D01*
X114839494Y-45570537D01*
X114936185Y-45491185D01*
X115015537Y-45394494D01*
X115074502Y-45284180D01*
X115110812Y-45164482D01*
X115123072Y-45040000D01*
X115120000Y-42785750D01*
X114961250Y-42627000D01*
X110802000Y-42627000D01*
X110548000Y-42627000D01*
X106388750Y-42627000D01*
X106230000Y-42785750D01*
X106226928Y-45040000D01*
X93657547Y-45040000D01*
X93398345Y-44306004D01*
X93206785Y-43334104D01*
X93157531Y-42344720D01*
X93163718Y-42279872D01*
X97765000Y-42279872D01*
X97765000Y-42720128D01*
X97850890Y-43151925D01*
X98019369Y-43558669D01*
X98263962Y-43924729D01*
X98575271Y-44236038D01*
X98941331Y-44480631D01*
X99348075Y-44649110D01*
X99779872Y-44735000D01*
X100220128Y-44735000D01*
X100651925Y-44649110D01*
X101058669Y-44480631D01*
X101424729Y-44236038D01*
X101736038Y-43924729D01*
X101980631Y-43558669D01*
X102149110Y-43151925D01*
X102235000Y-42720128D01*
X102235000Y-42279872D01*
X102149110Y-41848075D01*
X101980631Y-41441331D01*
X101736038Y-41075271D01*
X101424729Y-40763962D01*
X101058669Y-40519369D01*
X100651925Y-40350890D01*
X100220128Y-40265000D01*
X99779872Y-40265000D01*
X99348075Y-40350890D01*
X98941331Y-40519369D01*
X98575271Y-40763962D01*
X98263962Y-41075271D01*
X98019369Y-41441331D01*
X97850890Y-41848075D01*
X97765000Y-42279872D01*
X93163718Y-42279872D01*
X93251616Y-41358595D01*
X93487067Y-40396384D01*
X93663820Y-39960000D01*
X106226928Y-39960000D01*
X106230000Y-42214250D01*
X106388750Y-42373000D01*
X110548000Y-42373000D01*
X110548000Y-39483750D01*
X110802000Y-39483750D01*
X110802000Y-42373000D01*
X114961250Y-42373000D01*
X115120000Y-42214250D01*
X115123072Y-39960000D01*
X115110812Y-39835518D01*
X115074502Y-39715820D01*
X115015537Y-39605506D01*
X114936185Y-39508815D01*
X114839494Y-39429463D01*
X114729180Y-39370498D01*
X114609482Y-39334188D01*
X114485000Y-39321928D01*
X110960750Y-39325000D01*
X110802000Y-39483750D01*
X110548000Y-39483750D01*
X110389250Y-39325000D01*
X106865000Y-39321928D01*
X106740518Y-39334188D01*
X106620820Y-39370498D01*
X106510506Y-39429463D01*
X106413815Y-39508815D01*
X106334463Y-39605506D01*
X106275498Y-39715820D01*
X106239188Y-39835518D01*
X106226928Y-39960000D01*
X93663820Y-39960000D01*
X93858955Y-39478236D01*
X94359490Y-38623386D01*
X94978187Y-37849743D01*
X95702079Y-37173522D01*
X96516001Y-36608884D01*
X97402913Y-36167651D01*
X98344228Y-35859073D01*
X99327579Y-35688335D01*
X100016269Y-35654050D01*
X179976304Y-35654050D01*
X180988005Y-35727458D01*
G04 #@! TA.AperFunction,Conductor*
D22*
G36*
X180988005Y-35727458D02*
G01*
X181955321Y-35941021D01*
X182881665Y-36291981D01*
X183747653Y-36772995D01*
X184535123Y-37373974D01*
X185227595Y-38082337D01*
X185810560Y-38883249D01*
X186271796Y-39759915D01*
X186601655Y-40693996D01*
X186793214Y-41665896D01*
X186842469Y-42655280D01*
X186748384Y-43641403D01*
X186512933Y-44603616D01*
X186141043Y-45521767D01*
X185640509Y-46376614D01*
X185021819Y-47150251D01*
X184297925Y-47826476D01*
X183483999Y-48391116D01*
X182597084Y-48832350D01*
X181655774Y-49140927D01*
X180672421Y-49311665D01*
X179967480Y-49346759D01*
X179950970Y-49348786D01*
X179933739Y-49348666D01*
X179924650Y-49349557D01*
X179730553Y-49369958D01*
X179672423Y-49381890D01*
X179614257Y-49392986D01*
X179605521Y-49395623D01*
X179605512Y-49395625D01*
X179605504Y-49395629D01*
X179419077Y-49453337D01*
X179364393Y-49476324D01*
X179309466Y-49498515D01*
X179301407Y-49502800D01*
X179301402Y-49502802D01*
X179301401Y-49502803D01*
X179129726Y-49595627D01*
X179080570Y-49628783D01*
X179030976Y-49661237D01*
X179023899Y-49667009D01*
X178873521Y-49791413D01*
X178831746Y-49833480D01*
X178789398Y-49874951D01*
X178783577Y-49881987D01*
X178660227Y-50033229D01*
X178627409Y-50082624D01*
X178593931Y-50131517D01*
X178589587Y-50139550D01*
X178497962Y-50311873D01*
X178475365Y-50366696D01*
X178452020Y-50421165D01*
X178449319Y-50429889D01*
X178392910Y-50616725D01*
X178381390Y-50674906D01*
X178369071Y-50732860D01*
X178368118Y-50741931D01*
X178368116Y-50741942D01*
X178368116Y-50741952D01*
X178349072Y-50936175D01*
X178349072Y-50936186D01*
X178345951Y-50967875D01*
X178345950Y-73522576D01*
X178215257Y-73465528D01*
X178007000Y-73420000D01*
X177677000Y-73420000D01*
X177677000Y-74373000D01*
X177697000Y-74373000D01*
X177697000Y-74627000D01*
X177677000Y-74627000D01*
X177677000Y-75580000D01*
X178007000Y-75580000D01*
X178215257Y-75534472D01*
X178345950Y-75477424D01*
X178345950Y-80522576D01*
X178215257Y-80465528D01*
X178007000Y-80420000D01*
X177677000Y-80420000D01*
X177677000Y-81373000D01*
X177697000Y-81373000D01*
X177697000Y-81627000D01*
X177677000Y-81627000D01*
X177677000Y-82580000D01*
X178007000Y-82580000D01*
X178215257Y-82534472D01*
X178345950Y-82477424D01*
X178345950Y-84032124D01*
X178348709Y-84060135D01*
X178348666Y-84066261D01*
X178349557Y-84075350D01*
X178369958Y-84269447D01*
X178381890Y-84327577D01*
X178392986Y-84385743D01*
X178395623Y-84394479D01*
X178395625Y-84394488D01*
X178395629Y-84394496D01*
X178453337Y-84580923D01*
X178476319Y-84635595D01*
X178498515Y-84690534D01*
X178502802Y-84698597D01*
X178595627Y-84870274D01*
X178628793Y-84919445D01*
X178661237Y-84969024D01*
X178667009Y-84976101D01*
X178791412Y-85126479D01*
X178833499Y-85168273D01*
X178874951Y-85210602D01*
X178881987Y-85216423D01*
X179033229Y-85339773D01*
X179082642Y-85372603D01*
X179131518Y-85406069D01*
X179139546Y-85410410D01*
X179139550Y-85410413D01*
X179139554Y-85410415D01*
X179311873Y-85502038D01*
X179366685Y-85524630D01*
X179421165Y-85547980D01*
X179429889Y-85550681D01*
X179616725Y-85607090D01*
X179674892Y-85618608D01*
X179732859Y-85630929D01*
X179741932Y-85631882D01*
X179741942Y-85631884D01*
X179741951Y-85631884D01*
X179936175Y-85650928D01*
X179941209Y-85650928D01*
X179952668Y-85652335D01*
X180988005Y-85727458D01*
X181955321Y-85941021D01*
X182881665Y-86291981D01*
X183747653Y-86772995D01*
X184535123Y-87373974D01*
X185227595Y-88082337D01*
X185810560Y-88883249D01*
X186271796Y-89759915D01*
X186601655Y-90693996D01*
X186793214Y-91665896D01*
X186842469Y-92655280D01*
X186748384Y-93641403D01*
X186512933Y-94603616D01*
X186141043Y-95521767D01*
X185640509Y-96376614D01*
X185021819Y-97150251D01*
X184297925Y-97826476D01*
X183483999Y-98391116D01*
X182597084Y-98832350D01*
X181655774Y-99140927D01*
X180672421Y-99311665D01*
X179983731Y-99345950D01*
X100023696Y-99345950D01*
X99011995Y-99272543D01*
X98044679Y-99058979D01*
X97118335Y-98708019D01*
X96252352Y-98227008D01*
X95464879Y-97626029D01*
X94772405Y-96917663D01*
X94189441Y-96116753D01*
X93728204Y-95240084D01*
X93398345Y-94306004D01*
X93206785Y-93334104D01*
X93157531Y-92344720D01*
X93163718Y-92279872D01*
X97765000Y-92279872D01*
X97765000Y-92720128D01*
X97850890Y-93151925D01*
X98019369Y-93558669D01*
X98263962Y-93924729D01*
X98575271Y-94236038D01*
X98941331Y-94480631D01*
X99348075Y-94649110D01*
X99779872Y-94735000D01*
X100220128Y-94735000D01*
X100651925Y-94649110D01*
X101058669Y-94480631D01*
X101424729Y-94236038D01*
X101736038Y-93924729D01*
X101980631Y-93558669D01*
X102149110Y-93151925D01*
X102235000Y-92720128D01*
X102235000Y-92279872D01*
X102149110Y-91848075D01*
X102100202Y-91730000D01*
X106456928Y-91730000D01*
X106456928Y-94270000D01*
X106493591Y-94642246D01*
X106602171Y-95000188D01*
X106778496Y-95330068D01*
X107015789Y-95619211D01*
X107304932Y-95856504D01*
X107634812Y-96032829D01*
X107992754Y-96141409D01*
X108365000Y-96178072D01*
X109715000Y-96178072D01*
X109715000Y-97741880D01*
X109671414Y-97807111D01*
X109600932Y-97977271D01*
X109565000Y-98157911D01*
X109565000Y-98342089D01*
X109600932Y-98522729D01*
X109671414Y-98692889D01*
X109773738Y-98846028D01*
X109903972Y-98976262D01*
X110057111Y-99078586D01*
X110227271Y-99149068D01*
X110407911Y-99185000D01*
X110592089Y-99185000D01*
X110772729Y-99149068D01*
X110942889Y-99078586D01*
X111096028Y-98976262D01*
X111226262Y-98846028D01*
X111328586Y-98692889D01*
X111399068Y-98522729D01*
X111435000Y-98342089D01*
X111435000Y-98157911D01*
X111399068Y-97977271D01*
X111328586Y-97807111D01*
X111285000Y-97741880D01*
X111285000Y-96178072D01*
X113445000Y-96178072D01*
X113817246Y-96141409D01*
X114065000Y-96066254D01*
X114065000Y-96092089D01*
X114100932Y-96272729D01*
X114171414Y-96442889D01*
X114273738Y-96596028D01*
X114403972Y-96726262D01*
X114557111Y-96828586D01*
X114727271Y-96899068D01*
X114907911Y-96935000D01*
X115092089Y-96935000D01*
X115272729Y-96899068D01*
X115442889Y-96828586D01*
X115596028Y-96726262D01*
X115726262Y-96596028D01*
X115828586Y-96442889D01*
X115899068Y-96272729D01*
X115935000Y-96092089D01*
X115935000Y-96069091D01*
X119477384Y-92526708D01*
X119504475Y-92504475D01*
X119593200Y-92396363D01*
X119659128Y-92273020D01*
X119699727Y-92139184D01*
X119710000Y-92034877D01*
X119710000Y-92034876D01*
X119713435Y-92000001D01*
X119710000Y-91965126D01*
X119710000Y-89435000D01*
X119842089Y-89435000D01*
X120022729Y-89399068D01*
X120192889Y-89328586D01*
X120346028Y-89226262D01*
X120476262Y-89096028D01*
X120578586Y-88942889D01*
X120649068Y-88772729D01*
X120685000Y-88592089D01*
X120685000Y-88468089D01*
X122417673Y-86735417D01*
X122557111Y-86828586D01*
X122727271Y-86899068D01*
X122907911Y-86935000D01*
X123092089Y-86935000D01*
X123272729Y-86899068D01*
X123442889Y-86828586D01*
X123596028Y-86726262D01*
X123726262Y-86596028D01*
X123828586Y-86442889D01*
X123899068Y-86272729D01*
X123935000Y-86092089D01*
X123935000Y-86069091D01*
X124096180Y-85907911D01*
X127565000Y-85907911D01*
X127565000Y-86092089D01*
X127600932Y-86272729D01*
X127671414Y-86442889D01*
X127773738Y-86596028D01*
X127903972Y-86726262D01*
X128057111Y-86828586D01*
X128227271Y-86899068D01*
X128407911Y-86935000D01*
X128430909Y-86935000D01*
X129973292Y-88477384D01*
X129995525Y-88504475D01*
X130103637Y-88593200D01*
X130226980Y-88659128D01*
X130360816Y-88699727D01*
X130465123Y-88710000D01*
X130465124Y-88710000D01*
X130499999Y-88713435D01*
X130534874Y-88710000D01*
X133215125Y-88710000D01*
X133250000Y-88713435D01*
X133284875Y-88710000D01*
X133284877Y-88710000D01*
X133389184Y-88699727D01*
X133523020Y-88659128D01*
X133568159Y-88635001D01*
X134290124Y-88635001D01*
X134324999Y-88638436D01*
X134359874Y-88635001D01*
X134359876Y-88635001D01*
X134464183Y-88624728D01*
X134598019Y-88584129D01*
X134721362Y-88518201D01*
X134829474Y-88429476D01*
X134851711Y-88402380D01*
X134946190Y-88307901D01*
X137565000Y-88307901D01*
X137565000Y-88492079D01*
X137600932Y-88672719D01*
X137671414Y-88842879D01*
X137773738Y-88996018D01*
X137903972Y-89126252D01*
X138057111Y-89228576D01*
X138227271Y-89299058D01*
X138407911Y-89334990D01*
X138430909Y-89334990D01*
X144973246Y-95877327D01*
X144995526Y-95904475D01*
X145022617Y-95926708D01*
X145073288Y-95977379D01*
X145095525Y-96004475D01*
X145203637Y-96093200D01*
X145326980Y-96159128D01*
X145460816Y-96199727D01*
X145565123Y-96210000D01*
X145565124Y-96210000D01*
X145599999Y-96213435D01*
X145634874Y-96210000D01*
X155637710Y-96210000D01*
X155653972Y-96226262D01*
X155807111Y-96328586D01*
X155977271Y-96399068D01*
X156157911Y-96435000D01*
X156342089Y-96435000D01*
X156522729Y-96399068D01*
X156692889Y-96328586D01*
X156846028Y-96226262D01*
X156976262Y-96096028D01*
X157078586Y-95942889D01*
X157149068Y-95772729D01*
X157185000Y-95592089D01*
X157185000Y-95407911D01*
X157149068Y-95227271D01*
X157078586Y-95057111D01*
X156976262Y-94903972D01*
X156846028Y-94773738D01*
X156692889Y-94671414D01*
X156522729Y-94600932D01*
X156342089Y-94565000D01*
X156157911Y-94565000D01*
X155977271Y-94600932D01*
X155807111Y-94671414D01*
X155653972Y-94773738D01*
X155637710Y-94790000D01*
X145894101Y-94790000D01*
X139435000Y-88330899D01*
X139435000Y-88307901D01*
X139399068Y-88127261D01*
X139328586Y-87957101D01*
X139226262Y-87803962D01*
X139096028Y-87673728D01*
X138942889Y-87571404D01*
X138772729Y-87500922D01*
X138592089Y-87464990D01*
X138407911Y-87464990D01*
X138227271Y-87500922D01*
X138057111Y-87571404D01*
X137903972Y-87673728D01*
X137773738Y-87803962D01*
X137671414Y-87957101D01*
X137600932Y-88127261D01*
X137565000Y-88307901D01*
X134946190Y-88307901D01*
X137652382Y-85601709D01*
X137679473Y-85579476D01*
X137768199Y-85471364D01*
X137834127Y-85348021D01*
X137874726Y-85214185D01*
X137884999Y-85109878D01*
X137884999Y-85109876D01*
X137888434Y-85075001D01*
X137884999Y-85040126D01*
X137884999Y-80426465D01*
X138022729Y-80399068D01*
X138192889Y-80328586D01*
X138346028Y-80226262D01*
X138362290Y-80210000D01*
X141781955Y-80210000D01*
X141772629Y-80223957D01*
X141668225Y-80476011D01*
X141615000Y-80743589D01*
X141615000Y-81016411D01*
X141668225Y-81283989D01*
X141772629Y-81536043D01*
X141924201Y-81762886D01*
X142117114Y-81955799D01*
X142343957Y-82107371D01*
X142596011Y-82211775D01*
X142863589Y-82265000D01*
X143136411Y-82265000D01*
X143403989Y-82211775D01*
X143656043Y-82107371D01*
X143882886Y-81955799D01*
X144075799Y-81762886D01*
X144227371Y-81536043D01*
X144331775Y-81283989D01*
X144385000Y-81016411D01*
X144385000Y-80743589D01*
X144331775Y-80476011D01*
X144227371Y-80223957D01*
X144218045Y-80210000D01*
X150705909Y-80210000D01*
X155065000Y-84569091D01*
X155065000Y-84592089D01*
X155100932Y-84772729D01*
X155171414Y-84942889D01*
X155273738Y-85096028D01*
X155403972Y-85226262D01*
X155557111Y-85328586D01*
X155727271Y-85399068D01*
X155907911Y-85435000D01*
X156092089Y-85435000D01*
X156272729Y-85399068D01*
X156442889Y-85328586D01*
X156596028Y-85226262D01*
X156726262Y-85096028D01*
X156828586Y-84942889D01*
X156899068Y-84772729D01*
X156935000Y-84592089D01*
X156935000Y-84407911D01*
X156899068Y-84227271D01*
X156828586Y-84057111D01*
X156726262Y-83903972D01*
X156596028Y-83773738D01*
X156442889Y-83671414D01*
X156272729Y-83600932D01*
X156092089Y-83565000D01*
X156069091Y-83565000D01*
X151526712Y-79022621D01*
X151504475Y-78995525D01*
X151396363Y-78906800D01*
X151273020Y-78840872D01*
X151139184Y-78800273D01*
X151034877Y-78790000D01*
X151034875Y-78790000D01*
X151000000Y-78786565D01*
X150965125Y-78790000D01*
X138362290Y-78790000D01*
X138346028Y-78773738D01*
X138192889Y-78671414D01*
X138022729Y-78600932D01*
X137884999Y-78573535D01*
X137884999Y-77601465D01*
X138022729Y-77574068D01*
X138192889Y-77503586D01*
X138346028Y-77401262D01*
X138476262Y-77271028D01*
X138578586Y-77117889D01*
X138649068Y-76947729D01*
X138685000Y-76767089D01*
X138685000Y-76744091D01*
X139565502Y-75863589D01*
X141615000Y-75863589D01*
X141615000Y-76136411D01*
X141668225Y-76403989D01*
X141772629Y-76656043D01*
X141924201Y-76882886D01*
X142117114Y-77075799D01*
X142343957Y-77227371D01*
X142596011Y-77331775D01*
X142863589Y-77385000D01*
X143136411Y-77385000D01*
X143403989Y-77331775D01*
X143656043Y-77227371D01*
X143882886Y-77075799D01*
X144075799Y-76882886D01*
X144227371Y-76656043D01*
X144331775Y-76403989D01*
X144385000Y-76136411D01*
X144385000Y-75863589D01*
X144331775Y-75596011D01*
X144227371Y-75343957D01*
X144075799Y-75117114D01*
X143882886Y-74924201D01*
X143656043Y-74772629D01*
X143403989Y-74668225D01*
X143136411Y-74615000D01*
X142863589Y-74615000D01*
X142596011Y-74668225D01*
X142343957Y-74772629D01*
X142117114Y-74924201D01*
X141924201Y-75117114D01*
X141772629Y-75343957D01*
X141668225Y-75596011D01*
X141615000Y-75863589D01*
X139565502Y-75863589D01*
X140569092Y-74860000D01*
X140592089Y-74860000D01*
X140772729Y-74824068D01*
X140942889Y-74753586D01*
X141096028Y-74651262D01*
X141226262Y-74521028D01*
X141328586Y-74367889D01*
X141399068Y-74197729D01*
X141426465Y-74059999D01*
X143055908Y-74059999D01*
X145290000Y-76294092D01*
X145290001Y-76887709D01*
X145273738Y-76903972D01*
X145171414Y-77057111D01*
X145100932Y-77227271D01*
X145065000Y-77407911D01*
X145065000Y-77592089D01*
X145100932Y-77772729D01*
X145171414Y-77942889D01*
X145273738Y-78096028D01*
X145403972Y-78226262D01*
X145557111Y-78328586D01*
X145727271Y-78399068D01*
X145907911Y-78435000D01*
X146092089Y-78435000D01*
X146272729Y-78399068D01*
X146442889Y-78328586D01*
X146596028Y-78226262D01*
X146726262Y-78096028D01*
X146828586Y-77942889D01*
X146899068Y-77772729D01*
X146935000Y-77592089D01*
X146935000Y-77407911D01*
X146899068Y-77227271D01*
X146828586Y-77057111D01*
X146726262Y-76903972D01*
X146710000Y-76887710D01*
X146710000Y-76034874D01*
X146713435Y-75999999D01*
X146710000Y-75965123D01*
X146699727Y-75860816D01*
X146659128Y-75726980D01*
X146593200Y-75603637D01*
X146593199Y-75603635D01*
X146526707Y-75522615D01*
X146526704Y-75522612D01*
X146504474Y-75495525D01*
X146477389Y-75473297D01*
X144614091Y-73610000D01*
X148805909Y-73610000D01*
X155265000Y-80069092D01*
X155265000Y-80092089D01*
X155300932Y-80272729D01*
X155371414Y-80442889D01*
X155473738Y-80596028D01*
X155603972Y-80726262D01*
X155757111Y-80828586D01*
X155927271Y-80899068D01*
X156107911Y-80935000D01*
X156239152Y-80935000D01*
X156200932Y-81027271D01*
X156165000Y-81207911D01*
X156165000Y-81392089D01*
X156200932Y-81572729D01*
X156271414Y-81742889D01*
X156373738Y-81896028D01*
X156503972Y-82026262D01*
X156657111Y-82128586D01*
X156827271Y-82199068D01*
X157007911Y-82235000D01*
X157192089Y-82235000D01*
X157372729Y-82199068D01*
X157542889Y-82128586D01*
X157696028Y-82026262D01*
X157826262Y-81896028D01*
X157928586Y-81742889D01*
X157999068Y-81572729D01*
X158035000Y-81392089D01*
X158035000Y-81207911D01*
X157999068Y-81027271D01*
X157928586Y-80857111D01*
X157826262Y-80703972D01*
X157810000Y-80687710D01*
X157810000Y-80034874D01*
X157813435Y-79999999D01*
X157804365Y-79907911D01*
X157799727Y-79860816D01*
X157759128Y-79726980D01*
X157693200Y-79603637D01*
X157604475Y-79495525D01*
X157577384Y-79473292D01*
X150026712Y-71922621D01*
X150004475Y-71895525D01*
X149896363Y-71806800D01*
X149773020Y-71740872D01*
X149639184Y-71700273D01*
X149534877Y-71690000D01*
X149534875Y-71690000D01*
X149500000Y-71686565D01*
X149465125Y-71690000D01*
X137912290Y-71690000D01*
X137896028Y-71673738D01*
X137742889Y-71571414D01*
X137572729Y-71500932D01*
X137514702Y-71489390D01*
X140901684Y-68102408D01*
X147023000Y-68102408D01*
X147023000Y-68377592D01*
X147076686Y-68647490D01*
X147181995Y-68901727D01*
X147334880Y-69130535D01*
X147529465Y-69325120D01*
X147758273Y-69478005D01*
X148012510Y-69583314D01*
X148282408Y-69637000D01*
X148557592Y-69637000D01*
X148827490Y-69583314D01*
X149081727Y-69478005D01*
X149310535Y-69325120D01*
X149505120Y-69130535D01*
X149658005Y-68901727D01*
X149690000Y-68824485D01*
X149721995Y-68901727D01*
X149874880Y-69130535D01*
X150069465Y-69325120D01*
X150298273Y-69478005D01*
X150552510Y-69583314D01*
X150822408Y-69637000D01*
X151097592Y-69637000D01*
X151367490Y-69583314D01*
X151621727Y-69478005D01*
X151850535Y-69325120D01*
X152045120Y-69130535D01*
X152198005Y-68901727D01*
X152230000Y-68824485D01*
X152261995Y-68901727D01*
X152414880Y-69130535D01*
X152609465Y-69325120D01*
X152838273Y-69478005D01*
X153092510Y-69583314D01*
X153362408Y-69637000D01*
X153637592Y-69637000D01*
X153907490Y-69583314D01*
X154161727Y-69478005D01*
X154390535Y-69325120D01*
X154585120Y-69130535D01*
X154738005Y-68901727D01*
X154770000Y-68824485D01*
X154801995Y-68901727D01*
X154954880Y-69130535D01*
X155149465Y-69325120D01*
X155378273Y-69478005D01*
X155632510Y-69583314D01*
X155902408Y-69637000D01*
X156177592Y-69637000D01*
X156447490Y-69583314D01*
X156701727Y-69478005D01*
X156930535Y-69325120D01*
X157125120Y-69130535D01*
X157278005Y-68901727D01*
X157310000Y-68824485D01*
X157341995Y-68901727D01*
X157494880Y-69130535D01*
X157689465Y-69325120D01*
X157918273Y-69478005D01*
X158172510Y-69583314D01*
X158442408Y-69637000D01*
X158717592Y-69637000D01*
X158987490Y-69583314D01*
X159241727Y-69478005D01*
X159470535Y-69325120D01*
X159665120Y-69130535D01*
X159818005Y-68901727D01*
X159923314Y-68647490D01*
X159977000Y-68377592D01*
X159977000Y-68102408D01*
X159923314Y-67832510D01*
X159818005Y-67578273D01*
X159665120Y-67349465D01*
X159470535Y-67154880D01*
X159241727Y-67001995D01*
X158987490Y-66896686D01*
X158717592Y-66843000D01*
X158442408Y-66843000D01*
X158172510Y-66896686D01*
X157918273Y-67001995D01*
X157689465Y-67154880D01*
X157494880Y-67349465D01*
X157341995Y-67578273D01*
X157310000Y-67655515D01*
X157278005Y-67578273D01*
X157125120Y-67349465D01*
X156930535Y-67154880D01*
X156701727Y-67001995D01*
X156447490Y-66896686D01*
X156177592Y-66843000D01*
X155902408Y-66843000D01*
X155632510Y-66896686D01*
X155378273Y-67001995D01*
X155149465Y-67154880D01*
X154954880Y-67349465D01*
X154801995Y-67578273D01*
X154770000Y-67655515D01*
X154738005Y-67578273D01*
X154585120Y-67349465D01*
X154390535Y-67154880D01*
X154161727Y-67001995D01*
X153907490Y-66896686D01*
X153637592Y-66843000D01*
X153362408Y-66843000D01*
X153092510Y-66896686D01*
X152838273Y-67001995D01*
X152609465Y-67154880D01*
X152414880Y-67349465D01*
X152261995Y-67578273D01*
X152230000Y-67655515D01*
X152198005Y-67578273D01*
X152045120Y-67349465D01*
X151850535Y-67154880D01*
X151621727Y-67001995D01*
X151367490Y-66896686D01*
X151097592Y-66843000D01*
X150822408Y-66843000D01*
X150552510Y-66896686D01*
X150298273Y-67001995D01*
X150069465Y-67154880D01*
X149874880Y-67349465D01*
X149721995Y-67578273D01*
X149690000Y-67655515D01*
X149658005Y-67578273D01*
X149505120Y-67349465D01*
X149310535Y-67154880D01*
X149081727Y-67001995D01*
X148827490Y-66896686D01*
X148557592Y-66843000D01*
X148282408Y-66843000D01*
X148012510Y-66896686D01*
X147758273Y-67001995D01*
X147529465Y-67154880D01*
X147334880Y-67349465D01*
X147181995Y-67578273D01*
X147076686Y-67832510D01*
X147023000Y-68102408D01*
X140901684Y-68102408D01*
X143908358Y-65095734D01*
X144026960Y-65159128D01*
X144160796Y-65199727D01*
X144265103Y-65210000D01*
X144265104Y-65210000D01*
X144299979Y-65213435D01*
X144334854Y-65210000D01*
X167387710Y-65210000D01*
X167403972Y-65226262D01*
X167557111Y-65328586D01*
X167727271Y-65399068D01*
X167907911Y-65435000D01*
X168092089Y-65435000D01*
X168160000Y-65421491D01*
X168160001Y-70386080D01*
X168013940Y-70288485D01*
X167816483Y-70206696D01*
X167606863Y-70165000D01*
X167393137Y-70165000D01*
X167183517Y-70206696D01*
X166986060Y-70288485D01*
X166808353Y-70407225D01*
X166657225Y-70558353D01*
X166538485Y-70736060D01*
X166456696Y-70933517D01*
X166415000Y-71143137D01*
X166415000Y-71356863D01*
X166456696Y-71566483D01*
X166538485Y-71763940D01*
X166657225Y-71941647D01*
X166715001Y-71999423D01*
X166715000Y-75136844D01*
X166085285Y-75766559D01*
X165942889Y-75671414D01*
X165772729Y-75600932D01*
X165592089Y-75565000D01*
X165407911Y-75565000D01*
X165227271Y-75600932D01*
X165057111Y-75671414D01*
X164903972Y-75773738D01*
X164887710Y-75790000D01*
X161612290Y-75790000D01*
X161596028Y-75773738D01*
X161442889Y-75671414D01*
X161272729Y-75600932D01*
X161092089Y-75565000D01*
X160907911Y-75565000D01*
X160727271Y-75600932D01*
X160557111Y-75671414D01*
X160403972Y-75773738D01*
X160273738Y-75903972D01*
X160171414Y-76057111D01*
X160100932Y-76227271D01*
X160065000Y-76407911D01*
X160065000Y-76592089D01*
X160100932Y-76772729D01*
X160171414Y-76942889D01*
X160273738Y-77096028D01*
X160403972Y-77226262D01*
X160557111Y-77328586D01*
X160727271Y-77399068D01*
X160907911Y-77435000D01*
X161092089Y-77435000D01*
X161272729Y-77399068D01*
X161442889Y-77328586D01*
X161596028Y-77226262D01*
X161612290Y-77210000D01*
X164641844Y-77210000D01*
X153636845Y-88215000D01*
X152499422Y-88215000D01*
X152441647Y-88157225D01*
X152263940Y-88038485D01*
X152066483Y-87956696D01*
X151856863Y-87915000D01*
X151643137Y-87915000D01*
X151433517Y-87956696D01*
X151236060Y-88038485D01*
X151058353Y-88157225D01*
X151000578Y-88215000D01*
X145999422Y-88215000D01*
X145941647Y-88157225D01*
X145763940Y-88038485D01*
X145566483Y-87956696D01*
X145356863Y-87915000D01*
X145143137Y-87915000D01*
X144933517Y-87956696D01*
X144736060Y-88038485D01*
X144558353Y-88157225D01*
X144407225Y-88308353D01*
X144288485Y-88486060D01*
X144206696Y-88683517D01*
X144165000Y-88893137D01*
X144165000Y-89106863D01*
X144206696Y-89316483D01*
X144288485Y-89513940D01*
X144407225Y-89691647D01*
X144558353Y-89842775D01*
X144736060Y-89961515D01*
X144933517Y-90043304D01*
X145143137Y-90085000D01*
X145356863Y-90085000D01*
X145566483Y-90043304D01*
X145763940Y-89961515D01*
X145941647Y-89842775D01*
X145999422Y-89785000D01*
X151000578Y-89785000D01*
X151058353Y-89842775D01*
X151236060Y-89961515D01*
X151433517Y-90043304D01*
X151643137Y-90085000D01*
X151856863Y-90085000D01*
X152066483Y-90043304D01*
X152263940Y-89961515D01*
X152441647Y-89842775D01*
X152499422Y-89785000D01*
X153923449Y-89785000D01*
X153962002Y-89788797D01*
X154000555Y-89785000D01*
X154000563Y-89785000D01*
X154115889Y-89773641D01*
X154263862Y-89728754D01*
X154400235Y-89655862D01*
X154519766Y-89557764D01*
X154544349Y-89527810D01*
X168027817Y-76044343D01*
X168057764Y-76019766D01*
X168155862Y-75900235D01*
X168160001Y-75892492D01*
X168160001Y-89821928D01*
X166785000Y-89821928D01*
X166412754Y-89858591D01*
X166054812Y-89967171D01*
X165724932Y-90143496D01*
X165435789Y-90380789D01*
X165198496Y-90669932D01*
X165022171Y-90999812D01*
X164913591Y-91357754D01*
X164876928Y-91730000D01*
X164876928Y-94270000D01*
X164913591Y-94642246D01*
X165022171Y-95000188D01*
X165198496Y-95330068D01*
X165435789Y-95619211D01*
X165724932Y-95856504D01*
X166054812Y-96032829D01*
X166412754Y-96141409D01*
X166785000Y-96178072D01*
X171865000Y-96178072D01*
X172237246Y-96141409D01*
X172595188Y-96032829D01*
X172925068Y-95856504D01*
X173214211Y-95619211D01*
X173451504Y-95330068D01*
X173627829Y-95000188D01*
X173736409Y-94642246D01*
X173773072Y-94270000D01*
X173773072Y-92279872D01*
X177765000Y-92279872D01*
X177765000Y-92720128D01*
X177850890Y-93151925D01*
X178019369Y-93558669D01*
X178263962Y-93924729D01*
X178575271Y-94236038D01*
X178941331Y-94480631D01*
X179348075Y-94649110D01*
X179779872Y-94735000D01*
X180220128Y-94735000D01*
X180651925Y-94649110D01*
X181058669Y-94480631D01*
X181424729Y-94236038D01*
X181736038Y-93924729D01*
X181980631Y-93558669D01*
X182149110Y-93151925D01*
X182235000Y-92720128D01*
X182235000Y-92279872D01*
X182149110Y-91848075D01*
X181980631Y-91441331D01*
X181736038Y-91075271D01*
X181424729Y-90763962D01*
X181058669Y-90519369D01*
X180651925Y-90350890D01*
X180220128Y-90265000D01*
X179779872Y-90265000D01*
X179348075Y-90350890D01*
X178941331Y-90519369D01*
X178575271Y-90763962D01*
X178263962Y-91075271D01*
X178019369Y-91441331D01*
X177850890Y-91848075D01*
X177765000Y-92279872D01*
X173773072Y-92279872D01*
X173773072Y-91730000D01*
X173736409Y-91357754D01*
X173627829Y-90999812D01*
X173451504Y-90669932D01*
X173214211Y-90380789D01*
X172925068Y-90143496D01*
X172595188Y-89967171D01*
X172237246Y-89858591D01*
X171865000Y-89821928D01*
X170030000Y-89821928D01*
X170030000Y-81793213D01*
X176180565Y-81793213D01*
X176251454Y-81994420D01*
X176366521Y-82173874D01*
X176514387Y-82327431D01*
X176689369Y-82449190D01*
X176884743Y-82534472D01*
X177093000Y-82580000D01*
X177423000Y-82580000D01*
X177423000Y-81627000D01*
X176307546Y-81627000D01*
X176180565Y-81793213D01*
X170030000Y-81793213D01*
X170030000Y-80801131D01*
X173748770Y-80801131D01*
X173799414Y-81013066D01*
X173890431Y-81211049D01*
X174018324Y-81387471D01*
X174178178Y-81535553D01*
X174363850Y-81649603D01*
X174552062Y-81719268D01*
X174723000Y-81592734D01*
X174723000Y-80627000D01*
X174977000Y-80627000D01*
X174977000Y-81592734D01*
X175147938Y-81719268D01*
X175336150Y-81649603D01*
X175521822Y-81535553D01*
X175681676Y-81387471D01*
X175809569Y-81211049D01*
X175811528Y-81206787D01*
X176180565Y-81206787D01*
X176307546Y-81373000D01*
X177423000Y-81373000D01*
X177423000Y-80420000D01*
X177093000Y-80420000D01*
X176884743Y-80465528D01*
X176689369Y-80550810D01*
X176514387Y-80672569D01*
X176366521Y-80826126D01*
X176251454Y-81005580D01*
X176180565Y-81206787D01*
X175811528Y-81206787D01*
X175900586Y-81013066D01*
X175951230Y-80801131D01*
X175802564Y-80627000D01*
X174977000Y-80627000D01*
X174723000Y-80627000D01*
X173897436Y-80627000D01*
X173748770Y-80801131D01*
X170030000Y-80801131D01*
X170030000Y-80198869D01*
X173748770Y-80198869D01*
X173897436Y-80373000D01*
X174723000Y-80373000D01*
X174723000Y-79407266D01*
X174977000Y-79407266D01*
X174977000Y-80373000D01*
X175802564Y-80373000D01*
X175951230Y-80198869D01*
X175900586Y-79986934D01*
X175809569Y-79788951D01*
X175681676Y-79612529D01*
X175521822Y-79464447D01*
X175336150Y-79350397D01*
X175147938Y-79280732D01*
X174977000Y-79407266D01*
X174723000Y-79407266D01*
X174552062Y-79280732D01*
X174363850Y-79350397D01*
X174178178Y-79464447D01*
X174018324Y-79612529D01*
X173890431Y-79788951D01*
X173799414Y-79986934D01*
X173748770Y-80198869D01*
X170030000Y-80198869D01*
X170030000Y-75801131D01*
X173748770Y-75801131D01*
X173799414Y-76013066D01*
X173890431Y-76211049D01*
X174018324Y-76387471D01*
X174178178Y-76535553D01*
X174363850Y-76649603D01*
X174552062Y-76719268D01*
X174723000Y-76592734D01*
X174723000Y-75627000D01*
X174977000Y-75627000D01*
X174977000Y-76592734D01*
X175147938Y-76719268D01*
X175336150Y-76649603D01*
X175521822Y-76535553D01*
X175681676Y-76387471D01*
X175809569Y-76211049D01*
X175900586Y-76013066D01*
X175951230Y-75801131D01*
X175802564Y-75627000D01*
X174977000Y-75627000D01*
X174723000Y-75627000D01*
X173897436Y-75627000D01*
X173748770Y-75801131D01*
X170030000Y-75801131D01*
X170030000Y-75198869D01*
X173748770Y-75198869D01*
X173897436Y-75373000D01*
X174723000Y-75373000D01*
X174723000Y-74407266D01*
X174977000Y-74407266D01*
X174977000Y-75373000D01*
X175802564Y-75373000D01*
X175951230Y-75198869D01*
X175900586Y-74986934D01*
X175811529Y-74793213D01*
X176180565Y-74793213D01*
X176251454Y-74994420D01*
X176366521Y-75173874D01*
X176514387Y-75327431D01*
X176689369Y-75449190D01*
X176884743Y-75534472D01*
X177093000Y-75580000D01*
X177423000Y-75580000D01*
X177423000Y-74627000D01*
X176307546Y-74627000D01*
X176180565Y-74793213D01*
X175811529Y-74793213D01*
X175809569Y-74788951D01*
X175681676Y-74612529D01*
X175521822Y-74464447D01*
X175336150Y-74350397D01*
X175147938Y-74280732D01*
X174977000Y-74407266D01*
X174723000Y-74407266D01*
X174552062Y-74280732D01*
X174363850Y-74350397D01*
X174178178Y-74464447D01*
X174018324Y-74612529D01*
X173890431Y-74788951D01*
X173799414Y-74986934D01*
X173748770Y-75198869D01*
X170030000Y-75198869D01*
X170030000Y-74206787D01*
X176180565Y-74206787D01*
X176307546Y-74373000D01*
X177423000Y-74373000D01*
X177423000Y-73420000D01*
X177093000Y-73420000D01*
X176884743Y-73465528D01*
X176689369Y-73550810D01*
X176514387Y-73672569D01*
X176366521Y-73826126D01*
X176251454Y-74005580D01*
X176180565Y-74206787D01*
X170030000Y-74206787D01*
X170030000Y-61850000D01*
X170711928Y-61850000D01*
X170724188Y-61974482D01*
X170760498Y-62094180D01*
X170819463Y-62204494D01*
X170898815Y-62301185D01*
X170995506Y-62380537D01*
X171105820Y-62439502D01*
X171178380Y-62461513D01*
X171046525Y-62593368D01*
X170884010Y-62836589D01*
X170772068Y-63106842D01*
X170715000Y-63393740D01*
X170715000Y-63686260D01*
X170772068Y-63973158D01*
X170884010Y-64243411D01*
X171046525Y-64486632D01*
X171253368Y-64693475D01*
X171427760Y-64810000D01*
X171253368Y-64926525D01*
X171046525Y-65133368D01*
X170884010Y-65376589D01*
X170772068Y-65646842D01*
X170715000Y-65933740D01*
X170715000Y-66226260D01*
X170772068Y-66513158D01*
X170884010Y-66783411D01*
X171046525Y-67026632D01*
X171253368Y-67233475D01*
X171496589Y-67395990D01*
X171766842Y-67507932D01*
X172053740Y-67565000D01*
X172346260Y-67565000D01*
X172633158Y-67507932D01*
X172903411Y-67395990D01*
X173146632Y-67233475D01*
X173353475Y-67026632D01*
X173470000Y-66852240D01*
X173586525Y-67026632D01*
X173793368Y-67233475D01*
X174036589Y-67395990D01*
X174306842Y-67507932D01*
X174593740Y-67565000D01*
X174886260Y-67565000D01*
X175173158Y-67507932D01*
X175443411Y-67395990D01*
X175686632Y-67233475D01*
X175893475Y-67026632D01*
X176055990Y-66783411D01*
X176167932Y-66513158D01*
X176225000Y-66226260D01*
X176225000Y-65933740D01*
X176167932Y-65646842D01*
X176055990Y-65376589D01*
X175893475Y-65133368D01*
X175686632Y-64926525D01*
X175512240Y-64810000D01*
X175686632Y-64693475D01*
X175893475Y-64486632D01*
X176055990Y-64243411D01*
X176167932Y-63973158D01*
X176225000Y-63686260D01*
X176225000Y-63393740D01*
X176167932Y-63106842D01*
X176055990Y-62836589D01*
X175893475Y-62593368D01*
X175686632Y-62386525D01*
X175512240Y-62270000D01*
X175686632Y-62153475D01*
X175893475Y-61946632D01*
X176055990Y-61703411D01*
X176167932Y-61433158D01*
X176225000Y-61146260D01*
X176225000Y-60853740D01*
X176167932Y-60566842D01*
X176055990Y-60296589D01*
X175893475Y-60053368D01*
X175686632Y-59846525D01*
X175443411Y-59684010D01*
X175173158Y-59572068D01*
X174886260Y-59515000D01*
X174593740Y-59515000D01*
X174306842Y-59572068D01*
X174036589Y-59684010D01*
X173793368Y-59846525D01*
X173661513Y-59978380D01*
X173639502Y-59905820D01*
X173580537Y-59795506D01*
X173501185Y-59698815D01*
X173404494Y-59619463D01*
X173294180Y-59560498D01*
X173174482Y-59524188D01*
X173050000Y-59511928D01*
X172485750Y-59515000D01*
X172327000Y-59673750D01*
X172327000Y-60873000D01*
X172347000Y-60873000D01*
X172347000Y-61127000D01*
X172327000Y-61127000D01*
X172327000Y-61147000D01*
X172073000Y-61147000D01*
X172073000Y-61127000D01*
X170873750Y-61127000D01*
X170715000Y-61285750D01*
X170711928Y-61850000D01*
X170030000Y-61850000D01*
X170030000Y-60150000D01*
X170711928Y-60150000D01*
X170715000Y-60714250D01*
X170873750Y-60873000D01*
X172073000Y-60873000D01*
X172073000Y-59673750D01*
X171914250Y-59515000D01*
X171350000Y-59511928D01*
X171225518Y-59524188D01*
X171105820Y-59560498D01*
X170995506Y-59619463D01*
X170898815Y-59698815D01*
X170819463Y-59795506D01*
X170760498Y-59905820D01*
X170724188Y-60025518D01*
X170711928Y-60150000D01*
X170030000Y-60150000D01*
X170030000Y-45678072D01*
X171635000Y-45678072D01*
X172007246Y-45641409D01*
X172365188Y-45532829D01*
X172695068Y-45356504D01*
X172984211Y-45119211D01*
X173221504Y-44830068D01*
X173397829Y-44500188D01*
X173506409Y-44142246D01*
X173543072Y-43770000D01*
X173543072Y-42279872D01*
X177765000Y-42279872D01*
X177765000Y-42720128D01*
X177850890Y-43151925D01*
X178019369Y-43558669D01*
X178263962Y-43924729D01*
X178575271Y-44236038D01*
X178941331Y-44480631D01*
X179348075Y-44649110D01*
X179779872Y-44735000D01*
X180220128Y-44735000D01*
X180651925Y-44649110D01*
X181058669Y-44480631D01*
X181424729Y-44236038D01*
X181736038Y-43924729D01*
X181980631Y-43558669D01*
X182149110Y-43151925D01*
X182235000Y-42720128D01*
X182235000Y-42279872D01*
X182149110Y-41848075D01*
X181980631Y-41441331D01*
X181736038Y-41075271D01*
X181424729Y-40763962D01*
X181058669Y-40519369D01*
X180651925Y-40350890D01*
X180220128Y-40265000D01*
X179779872Y-40265000D01*
X179348075Y-40350890D01*
X178941331Y-40519369D01*
X178575271Y-40763962D01*
X178263962Y-41075271D01*
X178019369Y-41441331D01*
X177850890Y-41848075D01*
X177765000Y-42279872D01*
X173543072Y-42279872D01*
X173543072Y-41230000D01*
X173506409Y-40857754D01*
X173397829Y-40499812D01*
X173221504Y-40169932D01*
X172984211Y-39880789D01*
X172695068Y-39643496D01*
X172365188Y-39467171D01*
X172007246Y-39358591D01*
X171635000Y-39321928D01*
X166555000Y-39321928D01*
X166182754Y-39358591D01*
X165824812Y-39467171D01*
X165494932Y-39643496D01*
X165205789Y-39880789D01*
X164968496Y-40169932D01*
X164792171Y-40499812D01*
X164683591Y-40857754D01*
X164646928Y-41230000D01*
X164646928Y-43770000D01*
X164683591Y-44142246D01*
X164792171Y-44500188D01*
X164968496Y-44830068D01*
X165205789Y-45119211D01*
X165494932Y-45356504D01*
X165824812Y-45532829D01*
X166182754Y-45641409D01*
X166555000Y-45678072D01*
X168160000Y-45678072D01*
X168160000Y-63532231D01*
X168149068Y-63477271D01*
X168078586Y-63307111D01*
X167976262Y-63153972D01*
X167846028Y-63023738D01*
X167692889Y-62921414D01*
X167522729Y-62850932D01*
X167342089Y-62815000D01*
X167157911Y-62815000D01*
X166977271Y-62850932D01*
X166807111Y-62921414D01*
X166653972Y-63023738D01*
X166637710Y-63040000D01*
X143784875Y-63040000D01*
X143750000Y-63036565D01*
X143715125Y-63040000D01*
X143715123Y-63040000D01*
X143610816Y-63050273D01*
X143476980Y-63090872D01*
X143353637Y-63156800D01*
X143245525Y-63245525D01*
X143223288Y-63272621D01*
X129609172Y-76886737D01*
X129522729Y-76850932D01*
X129342089Y-76815000D01*
X129157911Y-76815000D01*
X128977271Y-76850932D01*
X128807111Y-76921414D01*
X128653972Y-77023738D01*
X128523738Y-77153972D01*
X128421414Y-77307111D01*
X128350932Y-77477271D01*
X128315000Y-77657911D01*
X128315000Y-77842089D01*
X128350932Y-78022729D01*
X128403650Y-78150001D01*
X128350932Y-78277274D01*
X128315000Y-78457914D01*
X128315000Y-78642092D01*
X128350932Y-78822732D01*
X128421414Y-78992892D01*
X128523738Y-79146031D01*
X128653972Y-79276265D01*
X128807111Y-79378589D01*
X128977271Y-79449071D01*
X129157911Y-79485003D01*
X129342089Y-79485003D01*
X129522729Y-79449071D01*
X129692889Y-79378589D01*
X129846028Y-79276265D01*
X129976262Y-79146031D01*
X130078586Y-78992892D01*
X130126235Y-78877856D01*
X136389390Y-72614702D01*
X136400932Y-72672729D01*
X136471414Y-72842889D01*
X136505916Y-72894526D01*
X136450932Y-73027271D01*
X136415000Y-73207911D01*
X136415000Y-73392089D01*
X136450932Y-73572729D01*
X136521414Y-73742889D01*
X136623738Y-73896028D01*
X136753972Y-74026262D01*
X136815000Y-74067040D01*
X136815000Y-74092089D01*
X136850932Y-74272729D01*
X136921414Y-74442889D01*
X137023738Y-74596028D01*
X137153972Y-74726262D01*
X137307111Y-74828586D01*
X137477271Y-74899068D01*
X137657911Y-74935000D01*
X137842089Y-74935000D01*
X138022729Y-74899068D01*
X138192889Y-74828586D01*
X138346028Y-74726262D01*
X138476262Y-74596028D01*
X138578586Y-74442889D01*
X138649068Y-74272729D01*
X138685000Y-74092089D01*
X138685000Y-74069092D01*
X138694093Y-74059999D01*
X139360909Y-74059999D01*
X137680909Y-75740000D01*
X137657911Y-75740000D01*
X137477271Y-75775932D01*
X137307111Y-75846414D01*
X137153972Y-75948738D01*
X137023738Y-76078972D01*
X136921414Y-76232111D01*
X136850932Y-76402271D01*
X136815000Y-76582911D01*
X136815000Y-76605909D01*
X136697615Y-76723294D01*
X136670525Y-76745526D01*
X136648292Y-76772617D01*
X136581800Y-76853638D01*
X136515871Y-76976982D01*
X136475273Y-77110817D01*
X136461564Y-77250001D01*
X136465000Y-77284886D01*
X136464999Y-84186187D01*
X136442889Y-84171414D01*
X136272729Y-84100932D01*
X136092089Y-84065000D01*
X136069092Y-84065000D01*
X134935000Y-82930909D01*
X134935000Y-82907911D01*
X134899068Y-82727271D01*
X134828586Y-82557111D01*
X134726262Y-82403972D01*
X134596028Y-82273738D01*
X134442889Y-82171414D01*
X134272729Y-82100932D01*
X134092089Y-82065000D01*
X133907911Y-82065000D01*
X133727271Y-82100932D01*
X133557111Y-82171414D01*
X133403972Y-82273738D01*
X133273738Y-82403972D01*
X133171414Y-82557111D01*
X133168146Y-82565000D01*
X133157911Y-82565000D01*
X132977271Y-82600932D01*
X132885000Y-82639152D01*
X132885000Y-82362290D01*
X132901262Y-82346028D01*
X133003586Y-82192889D01*
X133074068Y-82022729D01*
X133110000Y-81842089D01*
X133110000Y-81657911D01*
X133074068Y-81477271D01*
X133003586Y-81307111D01*
X132901262Y-81153972D01*
X132771028Y-81023738D01*
X132617889Y-80921414D01*
X132447729Y-80850932D01*
X132267089Y-80815000D01*
X132082911Y-80815000D01*
X131902271Y-80850932D01*
X131732111Y-80921414D01*
X131578972Y-81023738D01*
X131448738Y-81153972D01*
X131346414Y-81307111D01*
X131275932Y-81477271D01*
X131240000Y-81657911D01*
X131240000Y-81842089D01*
X131275932Y-82022729D01*
X131346414Y-82192889D01*
X131448738Y-82346028D01*
X131465001Y-82362291D01*
X131465000Y-86090125D01*
X131461565Y-86125000D01*
X131465000Y-86159875D01*
X131465000Y-86159876D01*
X131475273Y-86264183D01*
X131515872Y-86398019D01*
X131581800Y-86521362D01*
X131670525Y-86629474D01*
X131697617Y-86651708D01*
X132335909Y-87290000D01*
X130794092Y-87290000D01*
X129435000Y-85930909D01*
X129435000Y-85907911D01*
X129399068Y-85727271D01*
X129328586Y-85557111D01*
X129226262Y-85403972D01*
X129096028Y-85273738D01*
X128942889Y-85171414D01*
X128772729Y-85100932D01*
X128592089Y-85065000D01*
X128407911Y-85065000D01*
X128227271Y-85100932D01*
X128057111Y-85171414D01*
X127903972Y-85273738D01*
X127773738Y-85403972D01*
X127671414Y-85557111D01*
X127600932Y-85727271D01*
X127565000Y-85907911D01*
X124096180Y-85907911D01*
X125544091Y-84460000D01*
X126637710Y-84460000D01*
X126653972Y-84476262D01*
X126807111Y-84578586D01*
X126977271Y-84649068D01*
X127157911Y-84685000D01*
X127342089Y-84685000D01*
X127522729Y-84649068D01*
X127692889Y-84578586D01*
X127846028Y-84476262D01*
X127976262Y-84346028D01*
X128078586Y-84192889D01*
X128149068Y-84022729D01*
X128185000Y-83842089D01*
X128185000Y-83657911D01*
X128149068Y-83477271D01*
X128096350Y-83349999D01*
X128149068Y-83222726D01*
X128185000Y-83042086D01*
X128185000Y-82857908D01*
X128149068Y-82677268D01*
X128078586Y-82507108D01*
X127976262Y-82353969D01*
X127846028Y-82223735D01*
X127692889Y-82121411D01*
X127522729Y-82050929D01*
X127342089Y-82014997D01*
X127157911Y-82014997D01*
X126977271Y-82050929D01*
X126807111Y-82121411D01*
X126653972Y-82223735D01*
X126637710Y-82239997D01*
X125233875Y-82239997D01*
X125199000Y-82236562D01*
X125164125Y-82239997D01*
X125164124Y-82239997D01*
X125059817Y-82250270D01*
X124925981Y-82290869D01*
X124802638Y-82356797D01*
X124694526Y-82445522D01*
X124672293Y-82472613D01*
X119710000Y-87434907D01*
X119710000Y-77612290D01*
X119726262Y-77596028D01*
X119828586Y-77442889D01*
X119899068Y-77272729D01*
X119935000Y-77092089D01*
X119935000Y-76907911D01*
X119899068Y-76727271D01*
X119828586Y-76557111D01*
X119726262Y-76403972D01*
X119596028Y-76273738D01*
X119442889Y-76171414D01*
X119272729Y-76100932D01*
X119092089Y-76065000D01*
X118907911Y-76065000D01*
X118727271Y-76100932D01*
X118557111Y-76171414D01*
X118403972Y-76273738D01*
X118273738Y-76403972D01*
X118171414Y-76557111D01*
X118100932Y-76727271D01*
X118065000Y-76907911D01*
X118065000Y-77092089D01*
X118100932Y-77272729D01*
X118171414Y-77442889D01*
X118273738Y-77596028D01*
X118290000Y-77612290D01*
X118290001Y-91705907D01*
X115300188Y-94695721D01*
X115316409Y-94642246D01*
X115353072Y-94270000D01*
X115353072Y-91730000D01*
X115316409Y-91357754D01*
X115243326Y-91116832D01*
X115527816Y-90832342D01*
X115557764Y-90807764D01*
X115655862Y-90688233D01*
X115728754Y-90551860D01*
X115773641Y-90403887D01*
X115785000Y-90288561D01*
X115785000Y-90288554D01*
X115788797Y-90250001D01*
X115785000Y-90211448D01*
X115785000Y-90008120D01*
X115828586Y-89942889D01*
X115899068Y-89772729D01*
X115935000Y-89592089D01*
X115935000Y-89407911D01*
X115899068Y-89227271D01*
X115828586Y-89057111D01*
X115726262Y-88903972D01*
X115596028Y-88773738D01*
X115442889Y-88671414D01*
X115272729Y-88600932D01*
X115092089Y-88565000D01*
X114907911Y-88565000D01*
X114727271Y-88600932D01*
X114557111Y-88671414D01*
X114403972Y-88773738D01*
X114273738Y-88903972D01*
X114171414Y-89057111D01*
X114100932Y-89227271D01*
X114065000Y-89407911D01*
X114065000Y-89592089D01*
X114100932Y-89772729D01*
X114171414Y-89942889D01*
X114181644Y-89958199D01*
X114173257Y-89966585D01*
X113817246Y-89858591D01*
X113445000Y-89821928D01*
X111690000Y-89821928D01*
X111690000Y-84193552D01*
X111693797Y-84154999D01*
X111690000Y-84116446D01*
X111690000Y-84116439D01*
X111685000Y-84065675D01*
X111685000Y-83907911D01*
X111649068Y-83727271D01*
X111578586Y-83557111D01*
X111476262Y-83403972D01*
X111346028Y-83273738D01*
X111192889Y-83171414D01*
X111022729Y-83100932D01*
X110842089Y-83065000D01*
X110657911Y-83065000D01*
X110477271Y-83100932D01*
X110307111Y-83171414D01*
X110153972Y-83273738D01*
X110023738Y-83403972D01*
X109921414Y-83557111D01*
X109850932Y-83727271D01*
X109815000Y-83907911D01*
X109815000Y-84092089D01*
X109850932Y-84272729D01*
X109921414Y-84442889D01*
X110023738Y-84596028D01*
X110120001Y-84692291D01*
X110120000Y-89821928D01*
X108365000Y-89821928D01*
X107992754Y-89858591D01*
X107634812Y-89967171D01*
X107304932Y-90143496D01*
X107015789Y-90380789D01*
X106778496Y-90669932D01*
X106602171Y-90999812D01*
X106493591Y-91357754D01*
X106456928Y-91730000D01*
X102100202Y-91730000D01*
X101980631Y-91441331D01*
X101736038Y-91075271D01*
X101424729Y-90763962D01*
X101058669Y-90519369D01*
X100651925Y-90350890D01*
X100220128Y-90265000D01*
X99779872Y-90265000D01*
X99348075Y-90350890D01*
X98941331Y-90519369D01*
X98575271Y-90763962D01*
X98263962Y-91075271D01*
X98019369Y-91441331D01*
X97850890Y-91848075D01*
X97765000Y-92279872D01*
X93163718Y-92279872D01*
X93251616Y-91358595D01*
X93487067Y-90396384D01*
X93858955Y-89478236D01*
X94359490Y-88623386D01*
X94978187Y-87849743D01*
X95702079Y-87173522D01*
X96516001Y-86608884D01*
X97402913Y-86167651D01*
X98344228Y-85859073D01*
X99327579Y-85688335D01*
X100032520Y-85653241D01*
X100049030Y-85651214D01*
X100066261Y-85651334D01*
X100075350Y-85650443D01*
X100269447Y-85630042D01*
X100327577Y-85618110D01*
X100385743Y-85607014D01*
X100394479Y-85604377D01*
X100394488Y-85604375D01*
X100394496Y-85604371D01*
X100580923Y-85546663D01*
X100635595Y-85523681D01*
X100690534Y-85501485D01*
X100698597Y-85497198D01*
X100870274Y-85404373D01*
X100919445Y-85371207D01*
X100969024Y-85338763D01*
X100976101Y-85332991D01*
X101126479Y-85208588D01*
X101168273Y-85166501D01*
X101210602Y-85125049D01*
X101216423Y-85118013D01*
X101339773Y-84966771D01*
X101372603Y-84917358D01*
X101406069Y-84868482D01*
X101410412Y-84860451D01*
X101410413Y-84860450D01*
X101410415Y-84860446D01*
X101502038Y-84688127D01*
X101524630Y-84633315D01*
X101547980Y-84578835D01*
X101550681Y-84570111D01*
X101607090Y-84383275D01*
X101618612Y-84325085D01*
X101630929Y-84267141D01*
X101631882Y-84258068D01*
X101631884Y-84258058D01*
X101631884Y-84258049D01*
X101650928Y-84063825D01*
X101650928Y-84063824D01*
X101654050Y-84032125D01*
X101654050Y-54618755D01*
X105639119Y-54618755D01*
X105744284Y-54923168D01*
X105906817Y-55201215D01*
X106120471Y-55442211D01*
X106377036Y-55636894D01*
X106666652Y-55777783D01*
X106855405Y-55835041D01*
X107110080Y-55715797D01*
X107110080Y-54364080D01*
X107364080Y-54364080D01*
X107364080Y-55715797D01*
X107618755Y-55835041D01*
X107923168Y-55729876D01*
X108201215Y-55567343D01*
X108442211Y-55353689D01*
X108636894Y-55097124D01*
X108777783Y-54807508D01*
X108835041Y-54618755D01*
X108715797Y-54364080D01*
X107364080Y-54364080D01*
X107110080Y-54364080D01*
X105758363Y-54364080D01*
X105639119Y-54618755D01*
X101654050Y-54618755D01*
X101654050Y-53855405D01*
X105639119Y-53855405D01*
X105758363Y-54110080D01*
X107110080Y-54110080D01*
X107110080Y-52758363D01*
X107364080Y-52758363D01*
X107364080Y-54110080D01*
X108715797Y-54110080D01*
X108835041Y-53855405D01*
X108729876Y-53550992D01*
X108567343Y-53272945D01*
X108353689Y-53031949D01*
X108097124Y-52837266D01*
X107807508Y-52696377D01*
X107618755Y-52639119D01*
X107364080Y-52758363D01*
X107110080Y-52758363D01*
X106855405Y-52639119D01*
X106550992Y-52744284D01*
X106272945Y-52906817D01*
X106031949Y-53120471D01*
X105837266Y-53377036D01*
X105696377Y-53666652D01*
X105639119Y-53855405D01*
X101654050Y-53855405D01*
X101654050Y-51605022D01*
X113686555Y-51605022D01*
X113689990Y-51639897D01*
X113689991Y-69110093D01*
X113686555Y-69144978D01*
X113700264Y-69284162D01*
X113740862Y-69417997D01*
X113806791Y-69541341D01*
X113863808Y-69610816D01*
X113895516Y-69649453D01*
X113922607Y-69671686D01*
X122378315Y-78127395D01*
X122400548Y-78154486D01*
X122508660Y-78243211D01*
X122632003Y-78309139D01*
X122765839Y-78349738D01*
X122870146Y-78360011D01*
X122870147Y-78360011D01*
X122905022Y-78363446D01*
X122939897Y-78360011D01*
X123637710Y-78360011D01*
X123653972Y-78376273D01*
X123807111Y-78478597D01*
X123977271Y-78549079D01*
X124157911Y-78585011D01*
X124342089Y-78585011D01*
X124522729Y-78549079D01*
X124692889Y-78478597D01*
X124846028Y-78376273D01*
X124976262Y-78246039D01*
X125078586Y-78092900D01*
X125149068Y-77922740D01*
X125185000Y-77742100D01*
X125185000Y-77557922D01*
X125149068Y-77377282D01*
X125078586Y-77207122D01*
X124976262Y-77053983D01*
X124846028Y-76923749D01*
X124692889Y-76821425D01*
X124522729Y-76750943D01*
X124364790Y-76719527D01*
X124328586Y-76632122D01*
X124226262Y-76478983D01*
X124217158Y-76469879D01*
X124227271Y-76474068D01*
X124407911Y-76510000D01*
X124592089Y-76510000D01*
X124772729Y-76474068D01*
X124942889Y-76403586D01*
X125096028Y-76301262D01*
X125226262Y-76171028D01*
X125328586Y-76017889D01*
X125364790Y-75930484D01*
X125522729Y-75899068D01*
X125692889Y-75828586D01*
X125846028Y-75726262D01*
X125976262Y-75596028D01*
X126078586Y-75442889D01*
X126149068Y-75272729D01*
X126185000Y-75092089D01*
X126185000Y-74907911D01*
X126149068Y-74727271D01*
X126078586Y-74557111D01*
X125976262Y-74403972D01*
X125943717Y-74371427D01*
X126012899Y-74267889D01*
X126070273Y-74129375D01*
X126192889Y-74078586D01*
X126346028Y-73976262D01*
X126476262Y-73846028D01*
X126578586Y-73692889D01*
X126649068Y-73522729D01*
X126685000Y-73342089D01*
X126685000Y-73157911D01*
X126649068Y-72977271D01*
X126578586Y-72807111D01*
X126476262Y-72653972D01*
X126346028Y-72523738D01*
X126192889Y-72421414D01*
X126022729Y-72350932D01*
X125842089Y-72315000D01*
X125657911Y-72315000D01*
X125477271Y-72350932D01*
X125307111Y-72421414D01*
X125153972Y-72523738D01*
X125137710Y-72540000D01*
X124657090Y-72540000D01*
X123025814Y-70908724D01*
X123157911Y-70935000D01*
X123342089Y-70935000D01*
X123522729Y-70899068D01*
X123692889Y-70828586D01*
X123846028Y-70726262D01*
X123976262Y-70596028D01*
X124078586Y-70442889D01*
X124149068Y-70272729D01*
X124185000Y-70092089D01*
X124185000Y-70069091D01*
X124544091Y-69710000D01*
X128137710Y-69710000D01*
X128153972Y-69726262D01*
X128307111Y-69828586D01*
X128477271Y-69899068D01*
X128657911Y-69935000D01*
X128842089Y-69935000D01*
X129022729Y-69899068D01*
X129192889Y-69828586D01*
X129346028Y-69726262D01*
X129476262Y-69596028D01*
X129578586Y-69442889D01*
X129649068Y-69272729D01*
X129685000Y-69092089D01*
X129685000Y-68907911D01*
X129649068Y-68727271D01*
X129578586Y-68557111D01*
X129476262Y-68403972D01*
X129346028Y-68273738D01*
X129192889Y-68171414D01*
X129022729Y-68100932D01*
X128842089Y-68065000D01*
X128657911Y-68065000D01*
X128477271Y-68100932D01*
X128307111Y-68171414D01*
X128153972Y-68273738D01*
X128137710Y-68290000D01*
X124284877Y-68290000D01*
X124250000Y-68286565D01*
X124110815Y-68300273D01*
X123976980Y-68340872D01*
X123853637Y-68406800D01*
X123745525Y-68495525D01*
X123723288Y-68522621D01*
X123180909Y-69065000D01*
X123157911Y-69065000D01*
X122977271Y-69100932D01*
X122819792Y-69166161D01*
X122828133Y-69153678D01*
X122951383Y-68856127D01*
X123014215Y-68540248D01*
X123014215Y-68218182D01*
X122951383Y-67902303D01*
X122828133Y-67604752D01*
X122649202Y-67336963D01*
X122421467Y-67109228D01*
X122153678Y-66930297D01*
X121856127Y-66807047D01*
X121540248Y-66744215D01*
X121218182Y-66744215D01*
X120902303Y-66807047D01*
X120604752Y-66930297D01*
X120336963Y-67109228D01*
X120109228Y-67336963D01*
X119930297Y-67604752D01*
X119869242Y-67752152D01*
X117960000Y-65842911D01*
X117960000Y-64893137D01*
X125915000Y-64893137D01*
X125915000Y-65106863D01*
X125956696Y-65316483D01*
X126038485Y-65513940D01*
X126157225Y-65691647D01*
X126308353Y-65842775D01*
X126486060Y-65961515D01*
X126683517Y-66043304D01*
X126893137Y-66085000D01*
X127106863Y-66085000D01*
X127316483Y-66043304D01*
X127513940Y-65961515D01*
X127691647Y-65842775D01*
X127749422Y-65785000D01*
X133000578Y-65785000D01*
X133058353Y-65842775D01*
X133236060Y-65961515D01*
X133433517Y-66043304D01*
X133643137Y-66085000D01*
X133790000Y-66085000D01*
X133790000Y-67455908D01*
X132430909Y-68815000D01*
X132407911Y-68815000D01*
X132227271Y-68850932D01*
X132057111Y-68921414D01*
X131903972Y-69023738D01*
X131773738Y-69153972D01*
X131671414Y-69307111D01*
X131600932Y-69477271D01*
X131565000Y-69657911D01*
X131565000Y-69842089D01*
X131600932Y-70022729D01*
X131671414Y-70192889D01*
X131773738Y-70346028D01*
X131903972Y-70476262D01*
X132057111Y-70578586D01*
X132227271Y-70649068D01*
X132407911Y-70685000D01*
X132592089Y-70685000D01*
X132772729Y-70649068D01*
X132942889Y-70578586D01*
X133096028Y-70476262D01*
X133226262Y-70346028D01*
X133328586Y-70192889D01*
X133399068Y-70022729D01*
X133435000Y-69842089D01*
X133435000Y-69819091D01*
X134977389Y-68276703D01*
X135004474Y-68254475D01*
X135026704Y-68227388D01*
X135026707Y-68227385D01*
X135093199Y-68146364D01*
X135093201Y-68146362D01*
X135159128Y-68023020D01*
X135199727Y-67889184D01*
X135210000Y-67784877D01*
X135210000Y-67784876D01*
X135213435Y-67750001D01*
X135210000Y-67715126D01*
X135210000Y-61612290D01*
X135226262Y-61596028D01*
X135328586Y-61442889D01*
X135399068Y-61272729D01*
X135435000Y-61092089D01*
X135435000Y-60907911D01*
X135399068Y-60727271D01*
X135328586Y-60557111D01*
X135226262Y-60403972D01*
X135096028Y-60273738D01*
X134942889Y-60171414D01*
X134772729Y-60100932D01*
X134592089Y-60065000D01*
X134407911Y-60065000D01*
X134227271Y-60100932D01*
X134057111Y-60171414D01*
X133903972Y-60273738D01*
X133773738Y-60403972D01*
X133671414Y-60557111D01*
X133600932Y-60727271D01*
X133565000Y-60907911D01*
X133565000Y-61092089D01*
X133600932Y-61272729D01*
X133671414Y-61442889D01*
X133773738Y-61596028D01*
X133790001Y-61612291D01*
X133790000Y-63915000D01*
X133643137Y-63915000D01*
X133433517Y-63956696D01*
X133236060Y-64038485D01*
X133058353Y-64157225D01*
X133000578Y-64215000D01*
X127749422Y-64215000D01*
X127691647Y-64157225D01*
X127513940Y-64038485D01*
X127316483Y-63956696D01*
X127106863Y-63915000D01*
X126893137Y-63915000D01*
X126683517Y-63956696D01*
X126486060Y-64038485D01*
X126308353Y-64157225D01*
X126157225Y-64308353D01*
X126038485Y-64486060D01*
X125956696Y-64683517D01*
X125915000Y-64893137D01*
X117960000Y-64893137D01*
X117960000Y-53044091D01*
X118141683Y-52862408D01*
X147023000Y-52862408D01*
X147023000Y-53137592D01*
X147076686Y-53407490D01*
X147181995Y-53661727D01*
X147334880Y-53890535D01*
X147529465Y-54085120D01*
X147758273Y-54238005D01*
X148012510Y-54343314D01*
X148282408Y-54397000D01*
X148557592Y-54397000D01*
X148827490Y-54343314D01*
X149081727Y-54238005D01*
X149310535Y-54085120D01*
X149505120Y-53890535D01*
X149658005Y-53661727D01*
X149690000Y-53584485D01*
X149721995Y-53661727D01*
X149874880Y-53890535D01*
X150069465Y-54085120D01*
X150298273Y-54238005D01*
X150552510Y-54343314D01*
X150822408Y-54397000D01*
X151097592Y-54397000D01*
X151367490Y-54343314D01*
X151621727Y-54238005D01*
X151850535Y-54085120D01*
X152045120Y-53890535D01*
X152198005Y-53661727D01*
X152230000Y-53584485D01*
X152261995Y-53661727D01*
X152414880Y-53890535D01*
X152609465Y-54085120D01*
X152838273Y-54238005D01*
X153092510Y-54343314D01*
X153362408Y-54397000D01*
X153637592Y-54397000D01*
X153907490Y-54343314D01*
X154161727Y-54238005D01*
X154390535Y-54085120D01*
X154585120Y-53890535D01*
X154738005Y-53661727D01*
X154770000Y-53584485D01*
X154801995Y-53661727D01*
X154954880Y-53890535D01*
X155149465Y-54085120D01*
X155378273Y-54238005D01*
X155632510Y-54343314D01*
X155902408Y-54397000D01*
X156177592Y-54397000D01*
X156447490Y-54343314D01*
X156701727Y-54238005D01*
X156930535Y-54085120D01*
X157125120Y-53890535D01*
X157278005Y-53661727D01*
X157310000Y-53584485D01*
X157341995Y-53661727D01*
X157494880Y-53890535D01*
X157689465Y-54085120D01*
X157918273Y-54238005D01*
X158172510Y-54343314D01*
X158442408Y-54397000D01*
X158717592Y-54397000D01*
X158987490Y-54343314D01*
X159241727Y-54238005D01*
X159470535Y-54085120D01*
X159665120Y-53890535D01*
X159818005Y-53661727D01*
X159923314Y-53407490D01*
X159977000Y-53137592D01*
X159977000Y-52862408D01*
X159923314Y-52592510D01*
X159818005Y-52338273D01*
X159665120Y-52109465D01*
X159470535Y-51914880D01*
X159241727Y-51761995D01*
X158987490Y-51656686D01*
X158717592Y-51603000D01*
X158442408Y-51603000D01*
X158229451Y-51645360D01*
X156356712Y-49772621D01*
X156334475Y-49745525D01*
X156226363Y-49656800D01*
X156103020Y-49590872D01*
X155969184Y-49550273D01*
X155864877Y-49540000D01*
X155864875Y-49540000D01*
X155830000Y-49536565D01*
X155795125Y-49540000D01*
X151362290Y-49540000D01*
X151346028Y-49523738D01*
X151192889Y-49421414D01*
X151022729Y-49350932D01*
X150842089Y-49315000D01*
X150657911Y-49315000D01*
X150477271Y-49350932D01*
X150307111Y-49421414D01*
X150153972Y-49523738D01*
X150023738Y-49653972D01*
X149921414Y-49807111D01*
X149850932Y-49977271D01*
X149815000Y-50157911D01*
X149815000Y-50342089D01*
X149850932Y-50522729D01*
X149921414Y-50692889D01*
X150023738Y-50846028D01*
X150153972Y-50976262D01*
X150307111Y-51078586D01*
X150477271Y-51149068D01*
X150657911Y-51185000D01*
X150842089Y-51185000D01*
X151022729Y-51149068D01*
X151192889Y-51078586D01*
X151346028Y-50976262D01*
X151362290Y-50960000D01*
X155535909Y-50960000D01*
X156179236Y-51603327D01*
X156177592Y-51603000D01*
X155902408Y-51603000D01*
X155632510Y-51656686D01*
X155378273Y-51761995D01*
X155149465Y-51914880D01*
X154954880Y-52109465D01*
X154801995Y-52338273D01*
X154770000Y-52415515D01*
X154738005Y-52338273D01*
X154585120Y-52109465D01*
X154390535Y-51914880D01*
X154161727Y-51761995D01*
X153907490Y-51656686D01*
X153637592Y-51603000D01*
X153362408Y-51603000D01*
X153092510Y-51656686D01*
X152838273Y-51761995D01*
X152609465Y-51914880D01*
X152414880Y-52109465D01*
X152261995Y-52338273D01*
X152230000Y-52415515D01*
X152198005Y-52338273D01*
X152045120Y-52109465D01*
X151850535Y-51914880D01*
X151621727Y-51761995D01*
X151367490Y-51656686D01*
X151097592Y-51603000D01*
X150822408Y-51603000D01*
X150552510Y-51656686D01*
X150298273Y-51761995D01*
X150069465Y-51914880D01*
X149874880Y-52109465D01*
X149721995Y-52338273D01*
X149690000Y-52415515D01*
X149658005Y-52338273D01*
X149505120Y-52109465D01*
X149310535Y-51914880D01*
X149081727Y-51761995D01*
X148827490Y-51656686D01*
X148557592Y-51603000D01*
X148282408Y-51603000D01*
X148012510Y-51656686D01*
X147758273Y-51761995D01*
X147529465Y-51914880D01*
X147334880Y-52109465D01*
X147181995Y-52338273D01*
X147076686Y-52592510D01*
X147023000Y-52862408D01*
X118141683Y-52862408D01*
X127294092Y-43710000D01*
X132955909Y-43710000D01*
X133474128Y-44228219D01*
X133421414Y-44307111D01*
X133350932Y-44477271D01*
X133315000Y-44657911D01*
X133315000Y-44842089D01*
X133350932Y-45022729D01*
X133421414Y-45192889D01*
X133523738Y-45346028D01*
X133653972Y-45476262D01*
X133807111Y-45578586D01*
X133977271Y-45649068D01*
X134157911Y-45685000D01*
X134342089Y-45685000D01*
X134522729Y-45649068D01*
X134692889Y-45578586D01*
X134846028Y-45476262D01*
X134976262Y-45346028D01*
X135078586Y-45192889D01*
X135149068Y-45022729D01*
X135185000Y-44842089D01*
X135185000Y-44657911D01*
X135149068Y-44477271D01*
X135078586Y-44307111D01*
X134976262Y-44153972D01*
X134960000Y-44137710D01*
X134960000Y-44034877D01*
X134963435Y-44000000D01*
X134959887Y-43963978D01*
X135815000Y-44819091D01*
X135815000Y-44842089D01*
X135850932Y-45022729D01*
X135921414Y-45192889D01*
X136023738Y-45346028D01*
X136153972Y-45476262D01*
X136307111Y-45578586D01*
X136477271Y-45649068D01*
X136657911Y-45685000D01*
X136842089Y-45685000D01*
X137022729Y-45649068D01*
X137192889Y-45578586D01*
X137346028Y-45476262D01*
X137476262Y-45346028D01*
X137578586Y-45192889D01*
X137649068Y-45022729D01*
X137685000Y-44842089D01*
X137685000Y-44657911D01*
X137649068Y-44477271D01*
X137578586Y-44307111D01*
X137476262Y-44153972D01*
X137346028Y-44023738D01*
X137192889Y-43921414D01*
X137022729Y-43850932D01*
X136842089Y-43815000D01*
X136819091Y-43815000D01*
X136014071Y-43009980D01*
X137505889Y-43009980D01*
X138540001Y-44044093D01*
X138540001Y-44137709D01*
X138523738Y-44153972D01*
X138421414Y-44307111D01*
X138350932Y-44477271D01*
X138315000Y-44657911D01*
X138315000Y-44842089D01*
X138350932Y-45022729D01*
X138421414Y-45192889D01*
X138523738Y-45346028D01*
X138653972Y-45476262D01*
X138807111Y-45578586D01*
X138977271Y-45649068D01*
X139157911Y-45685000D01*
X139342089Y-45685000D01*
X139522729Y-45649068D01*
X139692889Y-45578586D01*
X139846028Y-45476262D01*
X139976262Y-45346028D01*
X140078586Y-45192889D01*
X140149068Y-45022729D01*
X140185000Y-44842089D01*
X140185000Y-44657911D01*
X140149068Y-44477271D01*
X140078586Y-44307111D01*
X139976262Y-44153972D01*
X139960000Y-44137710D01*
X139960000Y-43964092D01*
X140815000Y-44819092D01*
X140815000Y-44842089D01*
X140850932Y-45022729D01*
X140921414Y-45192889D01*
X141023738Y-45346028D01*
X141153972Y-45476262D01*
X141307111Y-45578586D01*
X141477271Y-45649068D01*
X141657911Y-45685000D01*
X141842089Y-45685000D01*
X142022729Y-45649068D01*
X142192889Y-45578586D01*
X142346028Y-45476262D01*
X142476262Y-45346028D01*
X142578586Y-45192889D01*
X142649068Y-45022729D01*
X142685000Y-44842089D01*
X142685000Y-44657911D01*
X142649068Y-44477271D01*
X142578586Y-44307111D01*
X142476262Y-44153972D01*
X142346028Y-44023738D01*
X142192889Y-43921414D01*
X142022729Y-43850932D01*
X141842089Y-43815000D01*
X141819092Y-43815000D01*
X140314051Y-42309960D01*
X140805869Y-42309960D01*
X143315000Y-44819092D01*
X143315000Y-44842089D01*
X143350932Y-45022729D01*
X143421414Y-45192889D01*
X143523738Y-45346028D01*
X143653972Y-45476262D01*
X143807111Y-45578586D01*
X143977271Y-45649068D01*
X144157911Y-45685000D01*
X144342089Y-45685000D01*
X144522729Y-45649068D01*
X144692889Y-45578586D01*
X144846028Y-45476262D01*
X144976262Y-45346028D01*
X145078586Y-45192889D01*
X145149068Y-45022729D01*
X145185000Y-44842089D01*
X145185000Y-44657911D01*
X145149068Y-44477271D01*
X145078586Y-44307111D01*
X144976262Y-44153972D01*
X144846028Y-44023738D01*
X144692889Y-43921414D01*
X144522729Y-43850932D01*
X144342089Y-43815000D01*
X144319092Y-43815000D01*
X142464041Y-41959950D01*
X142955859Y-41959950D01*
X145815000Y-44819092D01*
X145815000Y-44842089D01*
X145850932Y-45022729D01*
X145921414Y-45192889D01*
X146023738Y-45346028D01*
X146153972Y-45476262D01*
X146307111Y-45578586D01*
X146477271Y-45649068D01*
X146657911Y-45685000D01*
X146842089Y-45685000D01*
X147022729Y-45649068D01*
X147192889Y-45578586D01*
X147346028Y-45476262D01*
X147476262Y-45346028D01*
X147578586Y-45192889D01*
X147649068Y-45022729D01*
X147685000Y-44842089D01*
X147685000Y-44657911D01*
X147649068Y-44477271D01*
X147578586Y-44307111D01*
X147476262Y-44153972D01*
X147346028Y-44023738D01*
X147192889Y-43921414D01*
X147022729Y-43850932D01*
X146842089Y-43815000D01*
X146819092Y-43815000D01*
X144614031Y-41609940D01*
X145105849Y-41609940D01*
X148315000Y-44819092D01*
X148315000Y-44842089D01*
X148350932Y-45022729D01*
X148421414Y-45192889D01*
X148523738Y-45346028D01*
X148653972Y-45476262D01*
X148807111Y-45578586D01*
X148977271Y-45649068D01*
X149157911Y-45685000D01*
X149342089Y-45685000D01*
X149522729Y-45649068D01*
X149692889Y-45578586D01*
X149846028Y-45476262D01*
X149976262Y-45346028D01*
X150078586Y-45192889D01*
X150149068Y-45022729D01*
X150185000Y-44842089D01*
X150185000Y-44657911D01*
X150149068Y-44477271D01*
X150078586Y-44307111D01*
X149976262Y-44153972D01*
X149846028Y-44023738D01*
X149692889Y-43921414D01*
X149522729Y-43850932D01*
X149342089Y-43815000D01*
X149319092Y-43815000D01*
X146714091Y-41210000D01*
X150182847Y-41210000D01*
X150273738Y-41346028D01*
X150403972Y-41476262D01*
X150557111Y-41578586D01*
X150727271Y-41649068D01*
X150907911Y-41685000D01*
X151092089Y-41685000D01*
X151272729Y-41649068D01*
X151442889Y-41578586D01*
X151596028Y-41476262D01*
X151726262Y-41346028D01*
X151828586Y-41192889D01*
X151899068Y-41022729D01*
X151931439Y-40859990D01*
X154065135Y-40859990D01*
X154100010Y-40863425D01*
X154134885Y-40859990D01*
X154134887Y-40859990D01*
X154239194Y-40849717D01*
X154373030Y-40809118D01*
X154496373Y-40743190D01*
X154604485Y-40654465D01*
X154626722Y-40627369D01*
X154819091Y-40435000D01*
X154842089Y-40435000D01*
X155022729Y-40399068D01*
X155192889Y-40328586D01*
X155346028Y-40226262D01*
X155476262Y-40096028D01*
X155578586Y-39942889D01*
X155649068Y-39772729D01*
X155685000Y-39592089D01*
X155685000Y-39407911D01*
X155649068Y-39227271D01*
X155578586Y-39057111D01*
X155476262Y-38903972D01*
X155346028Y-38773738D01*
X155192889Y-38671414D01*
X155022729Y-38600932D01*
X154842089Y-38565000D01*
X154657911Y-38565000D01*
X154477271Y-38600932D01*
X154307111Y-38671414D01*
X154153972Y-38773738D01*
X154023738Y-38903972D01*
X153921414Y-39057111D01*
X153850932Y-39227271D01*
X153815000Y-39407911D01*
X153815000Y-39430909D01*
X153805919Y-39439990D01*
X125889897Y-39439990D01*
X125855022Y-39436555D01*
X125820147Y-39439990D01*
X125820145Y-39439990D01*
X125715838Y-39450263D01*
X125582002Y-39490862D01*
X125458659Y-39556790D01*
X125350547Y-39645515D01*
X125328310Y-39672611D01*
X113922607Y-51078314D01*
X113895515Y-51100548D01*
X113806790Y-51208660D01*
X113740862Y-51332003D01*
X113700263Y-51465839D01*
X113692616Y-51543486D01*
X113686555Y-51605022D01*
X101654050Y-51605022D01*
X101654050Y-50967875D01*
X101651291Y-50939864D01*
X101651334Y-50933739D01*
X101650443Y-50924650D01*
X101630042Y-50730553D01*
X101618110Y-50672423D01*
X101607014Y-50614257D01*
X101604377Y-50605521D01*
X101604375Y-50605512D01*
X101604371Y-50605504D01*
X101546663Y-50419077D01*
X101523676Y-50364393D01*
X101501485Y-50309466D01*
X101497198Y-50301403D01*
X101497198Y-50301402D01*
X101497195Y-50301398D01*
X101404373Y-50129726D01*
X101371217Y-50080570D01*
X101338763Y-50030976D01*
X101332991Y-50023899D01*
X101208587Y-49873521D01*
X101166520Y-49831746D01*
X101125049Y-49789398D01*
X101118013Y-49783577D01*
X100966771Y-49660227D01*
X100917376Y-49627409D01*
X100868483Y-49593931D01*
X100860450Y-49589587D01*
X100688127Y-49497962D01*
X100633304Y-49475365D01*
X100578835Y-49452020D01*
X100570111Y-49449319D01*
X100383275Y-49392910D01*
X100325094Y-49381390D01*
X100267140Y-49369071D01*
X100258069Y-49368118D01*
X100258058Y-49368116D01*
X100258048Y-49368116D01*
X100063825Y-49349072D01*
X100058791Y-49349072D01*
X100047332Y-49347665D01*
X99011995Y-49272543D01*
X98044679Y-49058979D01*
X97118335Y-48708019D01*
X96252352Y-48227008D01*
X95464879Y-47626029D01*
X94772405Y-46917663D01*
X94189441Y-46116753D01*
X93728204Y-45240084D01*
X93657547Y-45040000D01*
X106226928Y-45040000D01*
X106239188Y-45164482D01*
X106275498Y-45284180D01*
X106334463Y-45394494D01*
X106413815Y-45491185D01*
X106510506Y-45570537D01*
X106620820Y-45629502D01*
X106740518Y-45665812D01*
X106865000Y-45678072D01*
X110389250Y-45675000D01*
X110548000Y-45516250D01*
X110548000Y-42627000D01*
X110802000Y-42627000D01*
X110802000Y-45516250D01*
X110960750Y-45675000D01*
X114485000Y-45678072D01*
X114609482Y-45665812D01*
X114729180Y-45629502D01*
X114839494Y-45570537D01*
X114936185Y-45491185D01*
X115015537Y-45394494D01*
X115074502Y-45284180D01*
X115110812Y-45164482D01*
X115123072Y-45040000D01*
X115120000Y-42785750D01*
X114961250Y-42627000D01*
X110802000Y-42627000D01*
X110548000Y-42627000D01*
X106388750Y-42627000D01*
X106230000Y-42785750D01*
X106226928Y-45040000D01*
X93657547Y-45040000D01*
X93398345Y-44306004D01*
X93206785Y-43334104D01*
X93157531Y-42344720D01*
X93163718Y-42279872D01*
X97765000Y-42279872D01*
X97765000Y-42720128D01*
X97850890Y-43151925D01*
X98019369Y-43558669D01*
X98263962Y-43924729D01*
X98575271Y-44236038D01*
X98941331Y-44480631D01*
X99348075Y-44649110D01*
X99779872Y-44735000D01*
X100220128Y-44735000D01*
X100651925Y-44649110D01*
X101058669Y-44480631D01*
X101424729Y-44236038D01*
X101736038Y-43924729D01*
X101980631Y-43558669D01*
X102149110Y-43151925D01*
X102235000Y-42720128D01*
X102235000Y-42279872D01*
X102149110Y-41848075D01*
X101980631Y-41441331D01*
X101736038Y-41075271D01*
X101424729Y-40763962D01*
X101058669Y-40519369D01*
X100651925Y-40350890D01*
X100220128Y-40265000D01*
X99779872Y-40265000D01*
X99348075Y-40350890D01*
X98941331Y-40519369D01*
X98575271Y-40763962D01*
X98263962Y-41075271D01*
X98019369Y-41441331D01*
X97850890Y-41848075D01*
X97765000Y-42279872D01*
X93163718Y-42279872D01*
X93251616Y-41358595D01*
X93487067Y-40396384D01*
X93663820Y-39960000D01*
X106226928Y-39960000D01*
X106230000Y-42214250D01*
X106388750Y-42373000D01*
X110548000Y-42373000D01*
X110548000Y-39483750D01*
X110802000Y-39483750D01*
X110802000Y-42373000D01*
X114961250Y-42373000D01*
X115120000Y-42214250D01*
X115123072Y-39960000D01*
X115110812Y-39835518D01*
X115074502Y-39715820D01*
X115015537Y-39605506D01*
X114936185Y-39508815D01*
X114839494Y-39429463D01*
X114729180Y-39370498D01*
X114609482Y-39334188D01*
X114485000Y-39321928D01*
X110960750Y-39325000D01*
X110802000Y-39483750D01*
X110548000Y-39483750D01*
X110389250Y-39325000D01*
X106865000Y-39321928D01*
X106740518Y-39334188D01*
X106620820Y-39370498D01*
X106510506Y-39429463D01*
X106413815Y-39508815D01*
X106334463Y-39605506D01*
X106275498Y-39715820D01*
X106239188Y-39835518D01*
X106226928Y-39960000D01*
X93663820Y-39960000D01*
X93858955Y-39478236D01*
X94359490Y-38623386D01*
X94978187Y-37849743D01*
X95702079Y-37173522D01*
X96516001Y-36608884D01*
X97402913Y-36167651D01*
X98344228Y-35859073D01*
X99327579Y-35688335D01*
X100016269Y-35654050D01*
X179976304Y-35654050D01*
X180988005Y-35727458D01*
G37*
G04 #@! TD.AperFunction*
M02*
