G04 #@! TF.GenerationSoftware,KiCad,Pcbnew,6.0.11*
G04 #@! TF.CreationDate,2023-02-08T13:55:15+01:00*
G04 #@! TF.ProjectId,pullup_counter_schematic,70756c6c-7570-45f6-936f-756e7465725f,1*
G04 #@! TF.SameCoordinates,Original*
G04 #@! TF.FileFunction,Soldermask,Top*
G04 #@! TF.FilePolarity,Negative*
%FSLAX46Y46*%
G04 Gerber Fmt 4.6, Leading zero omitted, Abs format (unit mm)*
G04 Created by KiCad (PCBNEW 6.0.11) date 2023-02-08 13:55:15*
%MOMM*%
%LPD*%
G01*
G04 APERTURE LIST*
G04 Aperture macros list*
%AMRoundRect*
0 Rectangle with rounded corners*
0 $1 Rounding radius*
0 $2 $3 $4 $5 $6 $7 $8 $9 X,Y pos of 4 corners*
0 Add a 4 corners polygon primitive as box body*
4,1,4,$2,$3,$4,$5,$6,$7,$8,$9,$2,$3,0*
0 Add four circle primitives for the rounded corners*
1,1,$1+$1,$2,$3*
1,1,$1+$1,$4,$5*
1,1,$1+$1,$6,$7*
1,1,$1+$1,$8,$9*
0 Add four rect primitives between the rounded corners*
20,1,$1+$1,$2,$3,$4,$5,0*
20,1,$1+$1,$4,$5,$6,$7,0*
20,1,$1+$1,$6,$7,$8,$9,0*
20,1,$1+$1,$8,$9,$2,$3,0*%
G04 Aperture macros list end*
%ADD10R,1.350000X0.400000*%
%ADD11O,0.950000X1.250000*%
%ADD12R,1.550000X1.200000*%
%ADD13O,1.550000X0.890000*%
%ADD14R,1.550000X1.500000*%
%ADD15RoundRect,0.250000X0.600000X-0.600000X0.600000X0.600000X-0.600000X0.600000X-0.600000X-0.600000X0*%
%ADD16C,1.700000*%
%ADD17C,3.200000*%
%ADD18RoundRect,0.250000X0.337500X0.475000X-0.337500X0.475000X-0.337500X-0.475000X0.337500X-0.475000X0*%
%ADD19RoundRect,0.250000X0.450000X-0.350000X0.450000X0.350000X-0.450000X0.350000X-0.450000X-0.350000X0*%
%ADD20C,1.500000*%
%ADD21R,1.700000X1.700000*%
%ADD22R,1.750000X4.500000*%
%ADD23R,0.600000X1.500000*%
%ADD24RoundRect,0.150000X0.150000X-0.587500X0.150000X0.587500X-0.150000X0.587500X-0.150000X-0.587500X0*%
%ADD25RoundRect,0.250000X-0.450000X0.350000X-0.450000X-0.350000X0.450000X-0.350000X0.450000X0.350000X0*%
%ADD26RoundRect,0.075000X0.075000X-0.700000X0.075000X0.700000X-0.075000X0.700000X-0.075000X-0.700000X0*%
%ADD27RoundRect,0.075000X0.700000X-0.075000X0.700000X0.075000X-0.700000X0.075000X-0.700000X-0.075000X0*%
%ADD28RoundRect,0.250000X0.350000X0.450000X-0.350000X0.450000X-0.350000X-0.450000X0.350000X-0.450000X0*%
%ADD29RoundRect,0.237500X-0.300000X-0.237500X0.300000X-0.237500X0.300000X0.237500X-0.300000X0.237500X0*%
%ADD30RoundRect,0.250000X-0.475000X0.337500X-0.475000X-0.337500X0.475000X-0.337500X0.475000X0.337500X0*%
%ADD31RoundRect,0.250000X1.250000X0.550000X-1.250000X0.550000X-1.250000X-0.550000X1.250000X-0.550000X0*%
%ADD32RoundRect,0.150000X0.825000X0.150000X-0.825000X0.150000X-0.825000X-0.150000X0.825000X-0.150000X0*%
%ADD33RoundRect,0.237500X0.300000X0.237500X-0.300000X0.237500X-0.300000X-0.237500X0.300000X-0.237500X0*%
%ADD34RoundRect,0.250000X-0.350000X-0.450000X0.350000X-0.450000X0.350000X0.450000X-0.350000X0.450000X0*%
%ADD35RoundRect,0.250000X0.475000X-0.337500X0.475000X0.337500X-0.475000X0.337500X-0.475000X-0.337500X0*%
%ADD36C,2.000000*%
%ADD37R,1.800000X2.500000*%
%ADD38RoundRect,0.150000X-0.150000X0.512500X-0.150000X-0.512500X0.150000X-0.512500X0.150000X0.512500X0*%
%ADD39RoundRect,0.150000X-0.150000X0.650000X-0.150000X-0.650000X0.150000X-0.650000X0.150000X0.650000X0*%
%ADD40RoundRect,0.300000X0.300000X0.450000X-0.300000X0.450000X-0.300000X-0.450000X0.300000X-0.450000X0*%
%ADD41RoundRect,0.300000X0.300000X0.800000X-0.300000X0.800000X-0.300000X-0.800000X0.300000X-0.800000X0*%
%ADD42RoundRect,0.375000X0.425000X0.375000X-0.425000X0.375000X-0.425000X-0.375000X0.425000X-0.375000X0*%
%ADD43RoundRect,0.175000X0.175000X0.625000X-0.175000X0.625000X-0.175000X-0.625000X0.175000X-0.625000X0*%
%ADD44R,2.500000X1.800000*%
%ADD45C,1.524000*%
%ADD46RoundRect,0.240000X-0.460000X0.360000X-0.460000X-0.360000X0.460000X-0.360000X0.460000X0.360000X0*%
G04 APERTURE END LIST*
D10*
X105150000Y-65900000D03*
X105150000Y-66550000D03*
X105150000Y-67200000D03*
X105150000Y-67850000D03*
X105150000Y-68500000D03*
D11*
X105150000Y-64700000D03*
D12*
X102450000Y-64300000D03*
D13*
X102450000Y-63700000D03*
D11*
X105150000Y-69700000D03*
D14*
X102450000Y-66200000D03*
D12*
X102450000Y-70100000D03*
D13*
X102450000Y-70700000D03*
D14*
X102450000Y-68200000D03*
D15*
X107000000Y-57340000D03*
D16*
X107000000Y-54800000D03*
X109540000Y-57340000D03*
X109540000Y-54800000D03*
X112080000Y-57340000D03*
X112080000Y-54800000D03*
D17*
X100000000Y-92500000D03*
X182000000Y-92500000D03*
X100000000Y-42500000D03*
X182000000Y-42500000D03*
D18*
X126875000Y-57800000D03*
X124800000Y-57800000D03*
D19*
X102650000Y-75100000D03*
X102650000Y-73100000D03*
D20*
X171520000Y-59600000D03*
X176400000Y-59600000D03*
D21*
X120800000Y-97800000D03*
D22*
X116250000Y-92400000D03*
X119500000Y-92400000D03*
D18*
X157200000Y-66200000D03*
X155125000Y-66200000D03*
D23*
X133095000Y-38775000D03*
X133095000Y-46425000D03*
D21*
X112900000Y-82200000D03*
D24*
X142450000Y-87937500D03*
X144350000Y-87937500D03*
X143400000Y-86062500D03*
D23*
X145195000Y-38775000D03*
X145195000Y-46425000D03*
D25*
X105250000Y-73100000D03*
X105250000Y-75100000D03*
D26*
X163575000Y-48525000D03*
X164075000Y-48525000D03*
X164575000Y-48525000D03*
X165075000Y-48525000D03*
X165575000Y-48525000D03*
X166075000Y-48525000D03*
X166575000Y-48525000D03*
X167075000Y-48525000D03*
X167575000Y-48525000D03*
X168075000Y-48525000D03*
X168575000Y-48525000D03*
X169075000Y-48525000D03*
X169575000Y-48525000D03*
X170075000Y-48525000D03*
X170575000Y-48525000D03*
X171075000Y-48525000D03*
D27*
X173000000Y-46600000D03*
X173000000Y-46100000D03*
X173000000Y-45600000D03*
X173000000Y-45100000D03*
X173000000Y-44600000D03*
X173000000Y-44100000D03*
X173000000Y-43600000D03*
X173000000Y-43100000D03*
X173000000Y-42600000D03*
X173000000Y-42100000D03*
X173000000Y-41600000D03*
X173000000Y-41100000D03*
X173000000Y-40600000D03*
X173000000Y-40100000D03*
X173000000Y-39600000D03*
X173000000Y-39100000D03*
D26*
X171075000Y-37175000D03*
X170575000Y-37175000D03*
X170075000Y-37175000D03*
X169575000Y-37175000D03*
X169075000Y-37175000D03*
X168575000Y-37175000D03*
X168075000Y-37175000D03*
X167575000Y-37175000D03*
X167075000Y-37175000D03*
X166575000Y-37175000D03*
X166075000Y-37175000D03*
X165575000Y-37175000D03*
X165075000Y-37175000D03*
X164575000Y-37175000D03*
X164075000Y-37175000D03*
X163575000Y-37175000D03*
D27*
X161650000Y-39100000D03*
X161650000Y-39600000D03*
X161650000Y-40100000D03*
X161650000Y-40600000D03*
X161650000Y-41100000D03*
X161650000Y-41600000D03*
X161650000Y-42100000D03*
X161650000Y-42600000D03*
X161650000Y-43100000D03*
X161650000Y-43600000D03*
X161650000Y-44100000D03*
X161650000Y-44600000D03*
X161650000Y-45100000D03*
X161650000Y-45600000D03*
X161650000Y-46100000D03*
X161650000Y-46600000D03*
D28*
X154700000Y-45500000D03*
X152700000Y-45500000D03*
X154750000Y-41000000D03*
X152750000Y-41000000D03*
D29*
X176500000Y-55600000D03*
X178225000Y-55600000D03*
D18*
X126800000Y-64600000D03*
X124725000Y-64600000D03*
D30*
X167400000Y-51200000D03*
X167400000Y-53275000D03*
D31*
X114100000Y-96600000D03*
X109700000Y-96600000D03*
D23*
X141195000Y-38775000D03*
X141195000Y-46425000D03*
D32*
X118750000Y-72080000D03*
X118750000Y-70810000D03*
X118750000Y-69540000D03*
X118750000Y-68270000D03*
X118750000Y-67000000D03*
X118750000Y-65730000D03*
X118750000Y-64460000D03*
X118750000Y-63190000D03*
X113800000Y-63190000D03*
X113800000Y-64460000D03*
X113800000Y-65730000D03*
X113800000Y-67000000D03*
X113800000Y-68270000D03*
X113800000Y-69540000D03*
X113800000Y-70810000D03*
X113800000Y-72080000D03*
D31*
X108700000Y-82800000D03*
X104300000Y-82800000D03*
D28*
X154750000Y-43250000D03*
X152750000Y-43250000D03*
X126800000Y-62400000D03*
X124800000Y-62400000D03*
D19*
X106300000Y-92200000D03*
X106300000Y-90200000D03*
X139200000Y-88000000D03*
X139200000Y-86000000D03*
D33*
X163825000Y-55600000D03*
X162100000Y-55600000D03*
D25*
X135800000Y-86000000D03*
X135800000Y-88000000D03*
D34*
X147600000Y-76800000D03*
X149600000Y-76800000D03*
D35*
X107949999Y-71675000D03*
X107949999Y-69600000D03*
D36*
X172000000Y-84400000D03*
X152000000Y-84400000D03*
D33*
X159025000Y-55600000D03*
X157300000Y-55600000D03*
D30*
X132200000Y-85925000D03*
X132200000Y-88000000D03*
D18*
X157200000Y-63800000D03*
X155125000Y-63800000D03*
D37*
X125600000Y-93100000D03*
X125600000Y-97100000D03*
D30*
X117500000Y-96600000D03*
X117500000Y-98675000D03*
D34*
X108350000Y-66000000D03*
X110350000Y-66000000D03*
D38*
X113300000Y-89925000D03*
X112350000Y-89925000D03*
X111400000Y-89925000D03*
X111400000Y-92200000D03*
X112350000Y-92200000D03*
X113300000Y-92200000D03*
D39*
X130705000Y-76400000D03*
X129435000Y-76400000D03*
X128165000Y-76400000D03*
X126895000Y-76400000D03*
X126895000Y-83600000D03*
X128165000Y-83600000D03*
X129435000Y-83600000D03*
X130705000Y-83600000D03*
D23*
X137095000Y-38775000D03*
X137095000Y-46425000D03*
D18*
X126875000Y-60200000D03*
X124800000Y-60200000D03*
X126800000Y-53000000D03*
X124725000Y-53000000D03*
D28*
X110350000Y-63600000D03*
X108350000Y-63600000D03*
D25*
X159500000Y-35800000D03*
X159500000Y-37800000D03*
D35*
X110550000Y-71675000D03*
X110550000Y-69600000D03*
D25*
X108900000Y-90200000D03*
X108900000Y-92200000D03*
D18*
X108900000Y-87400000D03*
X106825000Y-87400000D03*
X114400000Y-74400000D03*
X112325000Y-74400000D03*
D23*
X129095000Y-38675000D03*
X129095000Y-46325000D03*
D19*
X106000000Y-97600000D03*
X106000000Y-95600000D03*
D18*
X126787500Y-55375000D03*
X124712500Y-55375000D03*
D30*
X165200000Y-51200000D03*
X165200000Y-53275000D03*
D23*
X149205000Y-46425000D03*
X149205000Y-38775000D03*
D40*
X121450000Y-48380000D03*
D41*
X106550000Y-38780000D03*
X121450000Y-38780000D03*
D42*
X106850000Y-48380000D03*
D43*
X111450000Y-49380000D03*
X112550000Y-49380000D03*
X113650000Y-49380000D03*
X114750000Y-49380000D03*
X115850000Y-49380000D03*
X116950000Y-49380000D03*
X118050000Y-49380000D03*
X119150000Y-49380000D03*
X120250000Y-49380000D03*
D30*
X169600000Y-51200000D03*
X169600000Y-53275000D03*
D44*
X112800000Y-86400000D03*
X116800000Y-86400000D03*
D18*
X126800000Y-67000000D03*
X124725000Y-67000000D03*
D45*
X177040000Y-63640000D03*
X177040000Y-76340000D03*
X171960000Y-76340000D03*
X171960000Y-63640000D03*
D20*
X159200000Y-59600000D03*
X164080000Y-59600000D03*
D46*
X137450000Y-79350000D03*
X143050000Y-79350000D03*
X137450000Y-81150000D03*
X143050000Y-81150000D03*
D29*
X171775000Y-55600000D03*
X173500000Y-55600000D03*
M02*
