M48
; DRILL file {KiCad 6.0.11} date Wed 08 Feb 2023 01:55:27 PM CET
; FORMAT={-:-/ absolute / metric / decimal}
; #@! TF.CreationDate,2023-02-08T13:55:27+01:00
; #@! TF.GenerationSoftware,Kicad,Pcbnew,6.0.11
; #@! TF.FileFunction,Plated,1,2,PTH
FMAT,2
METRIC
; #@! TA.AperFunction,Plated,PTH,ViaDrill
T1C0.300
; #@! TA.AperFunction,Plated,PTH,ViaDrill
T2C0.400
; #@! TA.AperFunction,Plated,PTH,ComponentDrill
T3C0.500
; #@! TA.AperFunction,Plated,PTH,ComponentDrill
T4C0.550
; #@! TA.AperFunction,Plated,PTH,ComponentDrill
T5C0.800
; #@! TA.AperFunction,Plated,PTH,ComponentDrill
T6C1.000
; #@! TA.AperFunction,Plated,PTH,ComponentDrill
T7C1.300
%
G90
G05
T1
X103.9Y-75.1
X109.3Y-68.3
X110.8Y-74.3
X114.7Y-45.4
X115.5Y-65.4
X115.7Y-68.0
X115.8Y-89.2
X116.25Y-92.4
X116.5Y-41.1
X116.8Y-71.0
X116.9Y-41.9
X118.5Y-42.7
X118.7Y-43.5
X120.15Y-44.1
X120.15Y-44.9
X120.25Y-45.7
X123.0Y-52.1
X123.1Y-56.7
X123.1Y-61.2
X123.1Y-65.7
X125.8Y-69.5
X125.8Y-70.8
X127.7Y-48.9
X128.2Y-61.7
X128.2Y-80.7
X128.3Y-60.2
X128.7Y-81.4
X129.2Y-58.9
X129.8Y-74.2
X129.9Y-61.1
X130.3Y-38.6
X130.8Y-74.3
X131.2Y-45.0
X134.0Y-87.6
X136.295Y-38.8
X136.5Y-37.2
X137.4Y-44.7
X137.895Y-46.0
X137.895Y-46.901
X138.0Y-39.0
X139.25Y-84.5
X140.0Y-39.7
X140.0Y-40.5
X141.0Y-83.5
X142.4Y-74.4
X142.8Y-39.1
X143.2Y-46.3
X144.9Y-81.2
X149.7Y-62.2
X150.0Y-40.5
X150.4Y-62.6
X151.1Y-63.2
X151.45Y-39.7
X151.7Y-63.8
X152.314Y-64.312
X152.952Y-64.948
X153.552Y-65.548
X153.805Y-46.805
X153.9Y-66.4
X155.1Y-67.3
X155.7Y-64.9
X155.9Y-37.3
X155.9Y-38.2
X155.9Y-39.1
X156.0Y-36.5
X156.7Y-41.1
X156.7Y-41.9
X156.7Y-42.7
X156.7Y-43.5
X157.3Y-56.9
X158.2Y-49.2
X158.2Y-63.8
X158.5Y-66.2
X159.2Y-49.2
X159.3Y-45.4
X160.0Y-49.2
X160.093Y-45.503
X160.1Y-44.7
X161.0Y-37.8
X161.0Y-49.2
X161.6Y-50.8
X162.024Y-50.024
X162.1Y-57.0
X163.0Y-45.6
X165.0Y-35.5
X165.2Y-38.6
X166.0Y-38.7
X168.1Y-50.1
X168.5Y-51.7
X168.9Y-50.0
X169.1Y-46.4
X170.0Y-47.0
X170.1Y-38.8
X171.3Y-46.6
X171.6Y-54.3
X171.7Y-48.6
X173.5Y-56.7
X175.0Y-55.6
X178.1Y-56.9
T2
X102.6Y-72.0
X104.7Y-87.2
X105.1Y-93.8
X116.9Y-46.9
X119.4Y-46.9
X132.3Y-74.7
X137.0Y-59.9
X138.9Y-53.4
X141.9Y-53.3
X142.1Y-59.7
X146.9Y-53.7
X164.0Y-42.25
X165.0Y-46.5
X165.4Y-56.0
X167.6Y-55.6
T5
X159.2Y-59.6
X164.08Y-59.6
X171.52Y-59.6
X176.4Y-59.6
T6
X107.0Y-54.8
X107.0Y-57.34
X109.54Y-54.8
X109.54Y-57.34
X112.08Y-54.8
X112.08Y-57.34
X112.9Y-82.2
X120.8Y-97.8
X171.96Y-63.64
X171.96Y-76.34
X177.04Y-63.64
X177.04Y-76.34
T7
X152.0Y-84.4
X172.0Y-84.4
T3
X102.775Y-63.7G85X102.125Y-63.7
G05
X102.775Y-70.7G85X102.125Y-70.7
G05
T4
X105.15Y-64.55G85X105.15Y-64.85
G05
X105.15Y-69.55G85X105.15Y-69.85
G05
T0
M30
